<?xml version="1.0" encoding="UTF-8" standalone="no"?>
<!--Created with ndjsontosvg(https:https://github.com/thompson318/ndjsontosvg) 
	from the simplified Google quickdraw data set. key_id = 6632198495010816-->
<svg width="256" height="256"
	xmlns="http://www.w3.org/2000/svg"
	xmlns:ndjsontosvg="https://github.com/thompson318/ndjsontosvg"
	xmlns:quickdraw="https://quickdraw.withgoogle.com/data"
	xmlns:scikit-surgery="https://doi.org/10.1007/s11548-020-02180-5">

	<rect width="100%" height="100%" fill="white" />
	<path d = "M 6.00 82.00 L 73.00 82.00 L 155.00 65.00" stroke="black" fill="transparent"/>
	<path d = "M 11.00 94.00 L 68.00 239.00 L 70.00 255.00" stroke="black" fill="transparent"/>
	<path d = "M 183.00 56.00 L 144.00 114.00 L 92.00 212.00 L 69.00 245.00" stroke="black" fill="transparent"/>
	<path d = "M 22.00 119.00 L 87.00 116.00 L 129.00 107.00" stroke="black" fill="transparent"/>
	<path d = "M 42.00 191.00 L 85.00 176.00 L 122.00 167.00" stroke="black" fill="transparent"/>
	<path d = "M 81.00 5.00 L 64.00 0.00 L 38.00 4.00 L 14.00 20.00 L 5.00 33.00 L 0.00 54.00 L 4.00 74.00 L 20.00 93.00 L 37.00 96.00 L 60.00 90.00 L 76.00 80.00 L 82.00 73.00 L 91.00 56.00 L 93.00 29.00 L 89.00 13.00 L 76.00 4.00 L 66.00 7.00" stroke="black" fill="transparent"/>
	<path d = "M 142.00 36.00 L 134.00 35.00 L 119.00 42.00 L 109.00 51.00 L 102.00 66.00 L 105.00 74.00 L 116.00 83.00 L 136.00 87.00 L 153.00 87.00 L 168.00 79.00 L 177.00 65.00 L 176.00 38.00 L 163.00 20.00 L 147.00 17.00 L 124.00 19.00 L 112.00 29.00 L 99.00 50.00" stroke="black" fill="transparent"/>
</svg>