<?xml version="1.0" encoding="UTF-8" standalone="no"?>
<!--Created with ndjsontosvg(https:https://github.com/thompson318/ndjsontosvg) 
	from the simplified Google quickdraw data set. key_id = 4654331884208128-->
<svg width="256" height="256"
	xmlns="http://www.w3.org/2000/svg"
	xmlns:ndjsontosvg="https://github.com/thompson318/ndjsontosvg"
	xmlns:quickdraw="https://quickdraw.withgoogle.com/data"
	xmlns:scikit-surgery="https://doi.org/10.1007/s11548-020-02180-5">

	<rect width="100%" height="100%" fill="white" />
	<path d = "M 22.00 124.00 L 17.00 152.00 L 32.00 157.00 L 33.00 161.00 L 33.00 174.00 L 21.00 214.00 L 21.00 234.00 L 26.00 252.00 L 30.00 254.00 L 54.00 255.00 L 79.00 248.00 L 85.00 235.00 L 86.00 201.00 L 92.00 184.00 L 102.00 168.00 L 115.00 158.00 L 137.00 150.00 L 137.00 143.00 L 133.00 135.00 L 126.00 131.00 L 85.00 129.00 L 30.00 118.00 L 0.00 118.00" stroke="black" fill="transparent"/>
	<path d = "M 30.00 121.00 L 33.00 105.00 L 45.00 97.00 L 46.00 74.00 L 54.00 70.00 L 53.00 55.00 L 48.00 39.00 L 74.00 26.00 L 83.00 3.00 L 91.00 0.00 L 100.00 8.00 L 107.00 21.00 L 112.00 40.00 L 126.00 50.00 L 130.00 60.00 L 129.00 71.00 L 114.00 79.00 L 114.00 83.00 L 120.00 89.00 L 122.00 101.00 L 114.00 123.00" stroke="black" fill="transparent"/>
</svg>