<?xml version="1.0" encoding="UTF-8" standalone="no"?>
<!--Created with ndjsontosvg(https:https://github.com/thompson318/ndjsontosvg) 
	from the simplified Google quickdraw data set. key_id = 6362006317694976-->
<svg width="256" height="256"
	xmlns="http://www.w3.org/2000/svg"
	xmlns:ndjsontosvg="https://github.com/thompson318/ndjsontosvg"
	xmlns:quickdraw="https://quickdraw.withgoogle.com/data"
	xmlns:scikit-surgery="https://doi.org/10.1007/s11548-020-02180-5">

	<rect width="100%" height="100%" fill="white" />
	<path d = "M 38.00 24.00 L 28.00 32.00 L 21.00 42.00 L 25.00 63.00 L 36.00 70.00 L 76.00 84.00 L 108.00 84.00 L 126.00 53.00 L 126.00 42.00 L 122.00 31.00 L 112.00 21.00 L 84.00 4.00 L 63.00 0.00 L 28.00 0.00 L 7.00 14.00 L 0.00 24.00 L 7.00 35.00" stroke="black" fill="transparent"/>
	<path d = "M 101.00 80.00 L 90.00 80.00 L 69.00 73.00 L 35.00 73.00 L 17.00 87.00 L 10.00 98.00 L 4.00 118.00 L 7.00 129.00 L 18.00 136.00 L 74.00 154.00 L 84.00 154.00 L 94.00 147.00 L 105.00 125.00 L 108.00 105.00 L 77.00 84.00 L 66.00 80.00" stroke="black" fill="transparent"/>
	<path d = "M 7.00 129.00 L 21.00 181.00 L 21.00 203.00 L 42.00 255.00 L 56.00 234.00 L 56.00 223.00 L 77.00 182.00 L 87.00 171.00 L 94.00 157.00" stroke="black" fill="transparent"/>
</svg>