<?xml version="1.0" encoding="UTF-8" standalone="no"?>
<!--Created with ndjsontosvg(https:https://github.com/thompson318/ndjsontosvg) 
	from the simplified Google quickdraw data set. key_id = 6675022523400192-->
<svg width="256" height="256"
	xmlns="http://www.w3.org/2000/svg"
	xmlns:ndjsontosvg="https://github.com/thompson318/ndjsontosvg"
	xmlns:quickdraw="https://quickdraw.withgoogle.com/data"
	xmlns:scikit-surgery="https://doi.org/10.1007/s11548-020-02180-5">

	<rect width="100%" height="100%" fill="white" />
	<path d = "M 44.00 114.00 L 29.00 110.00 L 19.00 103.00 L 6.00 85.00 L 1.00 67.00 L 0.00 49.00 L 7.00 34.00 L 19.00 18.00 L 31.00 11.00 L 71.00 1.00 L 125.00 2.00 L 147.00 12.00 L 157.00 20.00 L 172.00 39.00 L 176.00 52.00 L 176.00 68.00 L 168.00 83.00 L 154.00 96.00 L 137.00 107.00 L 112.00 114.00 L 42.00 107.00" stroke="black" fill="transparent"/>
	<path d = "M 52.00 109.00 L 52.00 109.00" stroke="black" fill="transparent"/>
	<path d = "M 31.00 115.00 L 35.00 121.00 L 52.00 204.00 L 71.00 246.00 L 80.00 255.00 L 95.00 207.00 L 142.00 91.00" stroke="black" fill="transparent"/>
</svg>