<?xml version="1.0" encoding="UTF-8" standalone="no"?>
<!--Created with ndjsontosvg(https:https://github.com/thompson318/ndjsontosvg) 
	from the simplified Google quickdraw data set. key_id = 4634470143492096-->
<svg width="256" height="256"
	xmlns="http://www.w3.org/2000/svg"
	xmlns:ndjsontosvg="https://github.com/thompson318/ndjsontosvg"
	xmlns:quickdraw="https://quickdraw.withgoogle.com/data"
	xmlns:scikit-surgery="https://doi.org/10.1007/s11548-020-02180-5">

	<rect width="100%" height="100%" fill="white" />
	<path d = "M 7.00 95.00 L 5.00 227.00 L 10.00 255.00 L 22.00 238.00 L 41.00 201.00 L 85.00 90.00" stroke="black" fill="transparent"/>
	<path d = "M 0.00 93.00 L 98.00 93.00" stroke="black" fill="transparent"/>
	<path d = "M 1.00 95.00 L 1.00 48.00 L 4.00 40.00 L 17.00 37.00 L 26.00 42.00 L 34.00 58.00 L 37.00 96.00" stroke="black" fill="transparent"/>
	<path d = "M 39.00 86.00 L 40.00 54.00 L 53.00 47.00 L 68.00 46.00 L 79.00 51.00 L 88.00 65.00 L 90.00 84.00 L 87.00 91.00" stroke="black" fill="transparent"/>
	<path d = "M 20.00 37.00 L 21.00 23.00 L 29.00 5.00 L 35.00 1.00 L 53.00 0.00 L 59.00 2.00 L 77.00 18.00 L 85.00 40.00" stroke="black" fill="transparent"/>
</svg>