<?xml version="1.0" encoding="UTF-8" standalone="no"?>
<!--Created with ndjsontosvg(https:https://github.com/thompson318/ndjsontosvg) 
	from the simplified Google quickdraw data set. key_id = 4840660110671872-->
<svg width="256" height="256"
	xmlns="http://www.w3.org/2000/svg"
	xmlns:ndjsontosvg="https://github.com/thompson318/ndjsontosvg"
	xmlns:quickdraw="https://quickdraw.withgoogle.com/data"
	xmlns:scikit-surgery="https://doi.org/10.1007/s11548-020-02180-5">

	<rect width="100%" height="100%" fill="white" />
	<path d = "M 105.00 255.00 L 150.00 131.00 L 167.00 68.00" stroke="black" fill="transparent"/>
	<path d = "M 111.00 254.00 L 104.00 251.00 L 97.00 241.00 L 52.00 139.00 L 33.00 107.00 L 31.00 92.00 L 67.00 84.00 L 148.00 77.00 L 170.00 71.00" stroke="black" fill="transparent"/>
	<path d = "M 40.00 93.00 L 31.00 94.00 L 12.00 79.00 L 1.00 59.00 L 0.00 51.00 L 13.00 34.00 L 45.00 13.00 L 64.00 11.00 L 72.00 17.00 L 97.00 69.00" stroke="black" fill="transparent"/>
	<path d = "M 94.00 62.00 L 90.00 59.00 L 96.00 36.00 L 107.00 11.00 L 120.00 4.00 L 142.00 0.00 L 159.00 1.00 L 168.00 12.00 L 171.00 28.00 L 169.00 49.00 L 174.00 61.00" stroke="black" fill="transparent"/>
</svg>