<?xml version="1.0" encoding="UTF-8" standalone="no"?>
<!--Created with ndjsontosvg(https:https://github.com/thompson318/ndjsontosvg) 
	from the simplified Google quickdraw data set. key_id = 4606040005935104-->
<svg width="256" height="256"
	xmlns="http://www.w3.org/2000/svg"
	xmlns:ndjsontosvg="https://github.com/thompson318/ndjsontosvg"
	xmlns:quickdraw="https://quickdraw.withgoogle.com/data"
	xmlns:scikit-surgery="https://doi.org/10.1007/s11548-020-02180-5">

	<rect width="100%" height="100%" fill="white" />
	<path d = "M 11.00 86.00 L 30.00 216.00 L 31.00 255.00 L 51.00 200.00 L 87.00 75.00 L 51.00 76.00 L 44.00 75.00 L 41.00 71.00 L 37.00 80.00 L 32.00 83.00 L 11.00 85.00 L 1.00 74.00 L 0.00 58.00 L 28.00 51.00 L 44.00 59.00 L 53.00 48.00 L 66.00 45.00 L 76.00 48.00 L 97.00 63.00 L 98.00 66.00 L 94.00 70.00 L 81.00 69.00" stroke="black" fill="transparent"/>
	<path d = "M 87.00 52.00 L 82.00 37.00 L 65.00 13.00 L 50.00 4.00 L 27.00 0.00 L 17.00 4.00 L 10.00 14.00 L 3.00 41.00 L 3.00 57.00 L 11.00 67.00" stroke="black" fill="transparent"/>
</svg>