<?xml version="1.0" encoding="UTF-8" standalone="no"?>
<!--Created with ndjsontosvg(https:https://github.com/thompson318/ndjsontosvg) 
	from the simplified Google quickdraw data set. key_id = 5520975749709824-->
<svg width="256" height="256"
	xmlns="http://www.w3.org/2000/svg"
	xmlns:ndjsontosvg="https://github.com/thompson318/ndjsontosvg"
	xmlns:quickdraw="https://quickdraw.withgoogle.com/data"
	xmlns:scikit-surgery="https://doi.org/10.1007/s11548-020-02180-5">

	<rect width="100%" height="100%" fill="white" />
	<path d = "M 0.00 141.00 L 17.00 160.00 L 52.00 173.00 L 63.00 186.00 L 72.00 255.00 L 118.00 163.00 L 151.00 111.00 L 158.00 93.00 L 170.00 79.00" stroke="black" fill="transparent"/>
	<path d = "M 123.00 117.00 L 139.00 125.00 L 115.00 115.00 L 71.00 111.00 L 50.00 102.00 L 46.00 95.00 L 44.00 87.00 L 57.00 64.00 L 56.00 46.00 L 64.00 16.00 L 77.00 0.00 L 90.00 9.00 L 106.00 25.00 L 126.00 34.00 L 137.00 33.00 L 147.00 36.00 L 151.00 39.00 L 153.00 50.00 L 142.00 64.00 L 119.00 74.00 L 115.00 79.00 L 112.00 97.00 L 81.00 126.00" stroke="black" fill="transparent"/>
</svg>