<?xml version="1.0" encoding="UTF-8" standalone="no"?>
<!--Created with ndjsontosvg(https:https://github.com/thompson318/ndjsontosvg) 
	from the simplified Google quickdraw data set. key_id = 6654306302296064-->
<svg width="256" height="256"
	xmlns="http://www.w3.org/2000/svg"
	xmlns:ndjsontosvg="https://github.com/thompson318/ndjsontosvg"
	xmlns:quickdraw="https://quickdraw.withgoogle.com/data"
	xmlns:scikit-surgery="https://doi.org/10.1007/s11548-020-02180-5">

	<rect width="100%" height="100%" fill="white" />
	<path d = "M 31.00 114.00 L 83.00 255.00 L 113.00 117.00 L 114.00 90.00" stroke="black" fill="transparent"/>
	<path d = "M 126.00 92.00 L 88.00 100.00 L 35.00 118.00 L 22.00 118.00 L 12.00 112.00 L 1.00 97.00 L 0.00 66.00 L 10.00 41.00 L 15.00 36.00 L 18.00 39.00 L 15.00 38.00 L 15.00 22.00 L 21.00 15.00 L 32.00 13.00 L 35.00 18.00 L 35.00 34.00 L 55.00 15.00 L 71.00 7.00 L 79.00 6.00 L 79.00 17.00 L 88.00 17.00 L 109.00 1.00 L 120.00 0.00 L 125.00 18.00 L 141.00 36.00 L 143.00 47.00 L 135.00 84.00 L 117.00 116.00" stroke="black" fill="transparent"/>
</svg>