<?xml version="1.0" encoding="UTF-8" standalone="no"?>
<!--Created with ndjsontosvg(https:https://github.com/thompson318/ndjsontosvg) 
	from the simplified Google quickdraw data set. key_id = 5003797245984768-->
<svg width="256" height="256"
	xmlns="http://www.w3.org/2000/svg"
	xmlns:ndjsontosvg="https://github.com/thompson318/ndjsontosvg"
	xmlns:quickdraw="https://quickdraw.withgoogle.com/data"
	xmlns:scikit-surgery="https://doi.org/10.1007/s11548-020-02180-5">

	<rect width="100%" height="100%" fill="white" />
	<path d = "M 59.00 150.00 L 65.00 212.00 L 75.00 228.00 L 104.00 255.00 L 128.00 212.00 L 142.00 161.00 L 144.00 142.00" stroke="black" fill="transparent"/>
	<path d = "M 57.00 122.00 L 53.00 114.00 L 20.00 119.00 L 9.00 119.00 L 2.00 115.00 L 0.00 105.00 L 15.00 82.00 L 62.00 65.00 L 112.00 56.00 L 166.00 56.00 L 174.00 59.00 L 179.00 65.00" stroke="black" fill="transparent"/>
	<path d = "M 48.00 99.00 L 48.00 45.00 L 133.00 3.00 L 149.00 0.00 L 181.00 66.00 L 195.00 127.00" stroke="black" fill="transparent"/>
	<path d = "M 142.00 43.00 L 155.00 60.00 L 175.00 128.00 L 175.00 150.00" stroke="black" fill="transparent"/>
</svg>