<?xml version="1.0" encoding="UTF-8" standalone="no"?>
<!--Created with ndjsontosvg(https:https://github.com/thompson318/ndjsontosvg) 
	from the simplified Google quickdraw data set. key_id = 5205900589531136-->
<svg width="256" height="256"
	xmlns="http://www.w3.org/2000/svg"
	xmlns:ndjsontosvg="https://github.com/thompson318/ndjsontosvg"
	xmlns:quickdraw="https://quickdraw.withgoogle.com/data"
	xmlns:scikit-surgery="https://doi.org/10.1007/s11548-020-02180-5">

	<rect width="100%" height="100%" fill="white" />
	<path d = "M 15.00 135.00 L 27.00 205.00 L 44.00 254.00 L 51.00 255.00 L 59.00 245.00 L 62.00 155.00 L 66.00 128.00 L 60.00 127.00 L 44.00 137.00 L 33.00 139.00 L 3.00 128.00 L 14.00 120.00 L 18.00 128.00" stroke="black" fill="transparent"/>
	<path d = "M 1.00 131.00 L 1.00 98.00 L 12.00 91.00 L 59.00 91.00 L 85.00 99.00 L 89.00 110.00 L 90.00 117.00 L 83.00 130.00 L 66.00 133.00" stroke="black" fill="transparent"/>
	<path d = "M 9.00 78.00 L 27.00 86.00 L 1.00 72.00 L 0.00 53.00 L 18.00 19.00 L 40.00 0.00 L 52.00 9.00 L 66.00 34.00 L 80.00 67.00 L 85.00 92.00" stroke="black" fill="transparent"/>
</svg>