<?xml version="1.0" encoding="UTF-8" standalone="no"?>
<!--Created with ndjsontosvg(https:https://github.com/thompson318/ndjsontosvg) 
	from the simplified Google quickdraw data set. key_id = 4658250236559360-->
<svg width="256" height="256"
	xmlns="http://www.w3.org/2000/svg"
	xmlns:ndjsontosvg="https://github.com/thompson318/ndjsontosvg"
	xmlns:quickdraw="https://quickdraw.withgoogle.com/data"
	xmlns:scikit-surgery="https://doi.org/10.1007/s11548-020-02180-5">

	<rect width="100%" height="100%" fill="white" />
	<path d = "M 29.00 107.00 L 34.00 107.00 L 58.00 120.00 L 87.00 127.00 L 118.00 127.00 L 143.00 108.00 L 140.00 123.00 L 90.00 192.00 L 79.00 220.00 L 69.00 255.00 L 60.00 230.00 L 54.00 193.00 L 44.00 161.00 L 38.00 111.00 L 45.00 108.00" stroke="black" fill="transparent"/>
	<path d = "M 50.00 118.00 L 6.00 92.00 L 1.00 85.00 L 0.00 70.00 L 8.00 56.00 L 33.00 30.00 L 58.00 12.00 L 87.00 0.00 L 100.00 1.00 L 124.00 17.00 L 143.00 36.00 L 157.00 56.00 L 162.00 77.00 L 161.00 89.00 L 149.00 108.00" stroke="black" fill="transparent"/>
</svg>