<?xml version="1.0" encoding="UTF-8" standalone="no"?>
<!--Created with ndjsontosvg(https:https://github.com/thompson318/ndjsontosvg) 
	from the simplified Google quickdraw data set. key_id = 6014707271991296-->
<svg width="256" height="256"
	xmlns="http://www.w3.org/2000/svg"
	xmlns:ndjsontosvg="https://github.com/thompson318/ndjsontosvg"
	xmlns:quickdraw="https://quickdraw.withgoogle.com/data"
	xmlns:scikit-surgery="https://doi.org/10.1007/s11548-020-02180-5">

	<rect width="100%" height="100%" fill="white" />
	<path d = "M 49.00 121.00 L 53.00 148.00 L 106.00 255.00 L 116.00 241.00 L 136.00 187.00 L 147.00 168.00 L 197.00 119.00 L 150.00 113.00 L 76.00 114.00 L 34.00 119.00" stroke="black" fill="transparent"/>
	<path d = "M 46.00 121.00 L 18.00 107.00 L 8.00 93.00 L 0.00 70.00 L 5.00 50.00 L 18.00 40.00 L 33.00 35.00 L 42.00 36.00 L 61.00 45.00 L 78.00 65.00 L 85.00 78.00 L 88.00 93.00 L 88.00 111.00 L 80.00 94.00 L 73.00 46.00 L 80.00 17.00 L 103.00 1.00 L 117.00 1.00 L 138.00 8.00 L 152.00 23.00 L 156.00 37.00 L 157.00 54.00 L 148.00 84.00 L 163.00 60.00 L 182.00 44.00 L 187.00 43.00 L 198.00 47.00 L 205.00 53.00 L 208.00 67.00 L 205.00 89.00" stroke="black" fill="transparent"/>
</svg>