<?xml version="1.0" encoding="UTF-8" standalone="no"?>
<!--Created with ndjsontosvg(https:https://github.com/thompson318/ndjsontosvg) 
	from the simplified Google quickdraw data set. key_id = 6168769023967232-->
<svg width="256" height="256"
	xmlns="http://www.w3.org/2000/svg"
	xmlns:ndjsontosvg="https://github.com/thompson318/ndjsontosvg"
	xmlns:quickdraw="https://quickdraw.withgoogle.com/data"
	xmlns:scikit-surgery="https://doi.org/10.1007/s11548-020-02180-5">

	<rect width="100%" height="100%" fill="white" />
	<path d = "M 12.00 108.00 L 59.00 109.00 L 136.00 105.00" stroke="black" fill="transparent"/>
	<path d = "M 8.00 107.00 L 7.00 123.00 L 19.00 160.00 L 27.00 177.00 L 34.00 202.00 L 42.00 212.00 L 51.00 238.00 L 53.00 251.00 L 58.00 255.00 L 61.00 249.00 L 62.00 232.00 L 88.00 202.00 L 93.00 173.00 L 102.00 148.00 L 110.00 133.00 L 123.00 122.00 L 128.00 107.00" stroke="black" fill="transparent"/>
	<path d = "M 9.00 98.00 L 7.00 92.00 L 14.00 73.00 L 27.00 61.00 L 65.00 49.00 L 89.00 47.00 L 109.00 51.00 L 125.00 61.00 L 131.00 89.00 L 131.00 106.00 L 129.00 112.00 L 124.00 109.00" stroke="black" fill="transparent"/>
	<path d = "M 7.00 49.00 L 0.00 27.00 L 0.00 7.00 L 5.00 1.00 L 15.00 0.00 L 44.00 17.00 L 52.00 26.00 L 53.00 37.00 L 49.00 57.00" stroke="black" fill="transparent"/>
</svg>