<?xml version="1.0" encoding="UTF-8" standalone="no"?>
<!--Created with ndjsontosvg(https:https://github.com/thompson318/ndjsontosvg) 
	from the simplified Google quickdraw data set. key_id = 4774113333739520-->
<svg width="256" height="256"
	xmlns="http://www.w3.org/2000/svg"
	xmlns:ndjsontosvg="https://github.com/thompson318/ndjsontosvg"
	xmlns:quickdraw="https://quickdraw.withgoogle.com/data"
	xmlns:scikit-surgery="https://doi.org/10.1007/s11548-020-02180-5">

	<rect width="100%" height="100%" fill="white" />
	<path d = "M 30.00 121.00 L 59.00 199.00 L 80.00 238.00 L 93.00 255.00 L 115.00 213.00 L 129.00 175.00 L 165.00 100.00 L 159.00 99.00 L 106.00 110.00 L 80.00 112.00 L 17.00 103.00" stroke="black" fill="transparent"/>
	<path d = "M 66.00 99.00 L 71.00 142.00 L 70.00 220.00 L 73.00 218.00" stroke="black" fill="transparent"/>
	<path d = "M 106.00 93.00 L 103.00 190.00 L 105.00 213.00" stroke="black" fill="transparent"/>
	<path d = "M 126.00 100.00 L 137.00 172.00" stroke="black" fill="transparent"/>
	<path d = "M 29.00 158.00 L 47.00 155.00 L 152.00 163.00" stroke="black" fill="transparent"/>
	<path d = "M 56.00 185.00 L 94.00 203.00 L 134.00 211.00" stroke="black" fill="transparent"/>
	<path d = "M 35.00 130.00 L 147.00 131.00" stroke="black" fill="transparent"/>
	<path d = "M 57.00 120.00 L 10.00 92.00 L 0.00 72.00 L 6.00 51.00 L 19.00 31.00 L 45.00 12.00 L 73.00 4.00 L 119.00 0.00 L 149.00 5.00 L 175.00 22.00 L 186.00 34.00 L 193.00 50.00 L 195.00 68.00 L 189.00 84.00 L 147.00 121.00" stroke="black" fill="transparent"/>
	<path d = "M 59.00 44.00 L 60.00 46.00" stroke="black" fill="transparent"/>
	<path d = "M 142.00 35.00 L 146.00 35.00" stroke="black" fill="transparent"/>
</svg>