<?xml version="1.0" encoding="UTF-8" standalone="no"?>
<!--Created with ndjsontosvg(https:https://github.com/thompson318/ndjsontosvg) 
	from the simplified Google quickdraw data set. key_id = 6069560211931136-->
<svg width="256" height="256"
	xmlns="http://www.w3.org/2000/svg"
	xmlns:ndjsontosvg="https://github.com/thompson318/ndjsontosvg"
	xmlns:quickdraw="https://quickdraw.withgoogle.com/data"
	xmlns:scikit-surgery="https://doi.org/10.1007/s11548-020-02180-5">

	<rect width="100%" height="100%" fill="white" />
	<path d = "M 22.00 168.00 L 22.00 175.00 L 57.00 255.00 L 68.00 237.00 L 89.00 181.00 L 97.00 176.00 L 93.00 173.00 L 78.00 171.00 L 46.00 170.00 L 23.00 177.00" stroke="black" fill="transparent"/>
	<path d = "M 42.00 172.00 L 42.00 216.00 L 45.00 240.00" stroke="black" fill="transparent"/>
	<path d = "M 75.00 162.00 L 61.00 192.00 L 55.00 251.00" stroke="black" fill="transparent"/>
	<path d = "M 21.00 193.00 L 90.00 197.00" stroke="black" fill="transparent"/>
	<path d = "M 29.00 229.00 L 83.00 235.00" stroke="black" fill="transparent"/>
	<path d = "M 19.00 173.00 L 12.00 168.00 L 6.00 157.00 L 5.00 139.00 L 9.00 133.00 L 28.00 121.00 L 53.00 115.00 L 72.00 115.00 L 82.00 120.00 L 96.00 133.00 L 108.00 156.00 L 110.00 176.00 L 101.00 183.00 L 94.00 184.00" stroke="black" fill="transparent"/>
	<path d = "M 0.00 134.00 L 9.00 104.00 L 32.00 74.00 L 60.00 56.00 L 91.00 53.00 L 101.00 56.00 L 110.00 64.00 L 120.00 93.00 L 120.00 109.00 L 103.00 142.00" stroke="black" fill="transparent"/>
	<path d = "M 43.00 65.00 L 30.00 66.00 L 23.00 56.00 L 20.00 49.00 L 20.00 28.00 L 35.00 10.00 L 58.00 1.00 L 97.00 1.00 L 120.00 10.00 L 127.00 23.00 L 128.00 58.00" stroke="black" fill="transparent"/>
	<path d = "M 128.00 55.00 L 113.00 71.00" stroke="black" fill="transparent"/>
	<path d = "M 35.00 17.00 L 107.00 28.00 L 125.00 45.00" stroke="black" fill="transparent"/>
	<path d = "M 42.00 25.00 L 30.00 23.00 L 15.00 34.00 L 67.00 26.00 L 88.00 31.00 L 108.00 31.00 L 128.00 53.00" stroke="black" fill="transparent"/>
	<path d = "M 14.00 91.00 L 61.00 92.00 L 76.00 106.00 L 105.00 107.00 L 118.00 127.00" stroke="black" fill="transparent"/>
	<path d = "M 4.00 143.00 L 102.00 150.00 L 106.00 153.00 L 111.00 168.00" stroke="black" fill="transparent"/>
</svg>