<?xml version="1.0" encoding="UTF-8" standalone="no"?>
<!--Created with ndjsontosvg(https:https://github.com/thompson318/ndjsontosvg) 
	from the simplified Google quickdraw data set. key_id = 6033747705069568-->
<svg width="256" height="256"
	xmlns="http://www.w3.org/2000/svg"
	xmlns:ndjsontosvg="https://github.com/thompson318/ndjsontosvg"
	xmlns:quickdraw="https://quickdraw.withgoogle.com/data"
	xmlns:scikit-surgery="https://doi.org/10.1007/s11548-020-02180-5">

	<rect width="100%" height="100%" fill="white" />
	<path d = "M 8.00 89.00 L 139.00 87.00" stroke="black" fill="transparent"/>
	<path d = "M 6.00 81.00 L 81.00 229.00 L 97.00 250.00 L 102.00 237.00 L 116.00 137.00 L 126.00 91.00" stroke="black" fill="transparent"/>
	<path d = "M 26.00 88.00 L 29.00 110.00" stroke="black" fill="transparent"/>
	<path d = "M 53.00 91.00 L 50.00 149.00" stroke="black" fill="transparent"/>
	<path d = "M 67.00 103.00 L 62.00 144.00 L 68.00 203.00" stroke="black" fill="transparent"/>
	<path d = "M 80.00 92.00 L 81.00 160.00 L 84.00 195.00 L 95.00 238.00 L 101.00 247.00" stroke="black" fill="transparent"/>
	<path d = "M 100.00 87.00 L 112.00 171.00" stroke="black" fill="transparent"/>
	<path d = "M 7.00 103.00 L 72.00 89.00 L 107.00 86.00" stroke="black" fill="transparent"/>
	<path d = "M 40.00 115.00 L 91.00 107.00 L 105.00 108.00" stroke="black" fill="transparent"/>
	<path d = "M 31.00 126.00 L 61.00 121.00 L 115.00 125.00" stroke="black" fill="transparent"/>
	<path d = "M 53.00 161.00 L 84.00 158.00 L 103.00 159.00" stroke="black" fill="transparent"/>
	<path d = "M 69.00 190.00 L 88.00 186.00 L 116.00 189.00" stroke="black" fill="transparent"/>
	<path d = "M 93.00 255.00 L 123.00 237.00" stroke="black" fill="transparent"/>
	<path d = "M 9.00 68.00 L 13.00 83.00 L 25.00 76.00 L 37.00 85.00 L 47.00 76.00 L 54.00 81.00 L 64.00 80.00 L 67.00 85.00" stroke="black" fill="transparent"/>
	<path d = "M 0.00 62.00 L 14.00 47.00 L 33.00 44.00 L 54.00 51.00 L 64.00 58.00 L 73.00 74.00" stroke="black" fill="transparent"/>
	<path d = "M 73.00 74.00 L 77.00 79.00 L 89.00 72.00 L 96.00 82.00 L 108.00 76.00 L 118.00 79.00 L 135.00 78.00" stroke="black" fill="transparent"/>
	<path d = "M 68.00 70.00 L 81.00 51.00 L 108.00 39.00 L 118.00 43.00 L 135.00 57.00 L 146.00 76.00" stroke="black" fill="transparent"/>
	<path d = "M 31.00 45.00 L 43.00 14.00 L 55.00 3.00 L 66.00 0.00 L 76.00 1.00 L 91.00 8.00 L 103.00 40.00" stroke="black" fill="transparent"/>
</svg>