<?xml version="1.0" encoding="UTF-8" standalone="no"?>
<!--Created with ndjsontosvg(https:https://github.com/thompson318/ndjsontosvg) 
	from the simplified Google quickdraw data set. key_id = 5869313103757312-->
<svg width="256" height="256"
	xmlns="http://www.w3.org/2000/svg"
	xmlns:ndjsontosvg="https://github.com/thompson318/ndjsontosvg"
	xmlns:quickdraw="https://quickdraw.withgoogle.com/data"
	xmlns:scikit-surgery="https://doi.org/10.1007/s11548-020-02180-5">

	<rect width="100%" height="100%" fill="white" />
	<path d = "M 54.00 138.00 L 38.00 133.00 L 13.00 111.00 L 9.00 94.00 L 15.00 88.00" stroke="black" fill="transparent"/>
	<path d = "M 131.00 71.00 L 149.00 106.00 L 148.00 118.00 L 139.00 134.00" stroke="black" fill="transparent"/>
	<path d = "M 14.00 86.00 L 12.00 75.00 L 1.00 58.00 L 1.00 44.00 L 16.00 35.00 L 37.00 33.00" stroke="black" fill="transparent"/>
	<path d = "M 136.00 61.00 L 140.00 45.00 L 134.00 40.00 L 121.00 35.00 L 95.00 31.00" stroke="black" fill="transparent"/>
	<path d = "M 36.00 32.00 L 33.00 30.00 L 33.00 24.00 L 40.00 4.00 L 69.00 0.00 L 80.00 0.00 L 85.00 4.00 L 99.00 23.00 L 100.00 31.00" stroke="black" fill="transparent"/>
	<path d = "M 46.00 133.00 L 75.00 149.00 L 78.00 255.00 L 100.00 219.00 L 120.00 178.00 L 141.00 149.00 L 152.00 123.00 L 93.00 144.00 L 59.00 145.00" stroke="black" fill="transparent"/>
	<path d = "M 82.00 135.00 L 84.00 219.00 L 82.00 227.00" stroke="black" fill="transparent"/>
	<path d = "M 104.00 122.00 L 97.00 204.00 L 92.00 227.00" stroke="black" fill="transparent"/>
	<path d = "M 106.00 139.00 L 100.00 178.00 L 99.00 210.00" stroke="black" fill="transparent"/>
	<path d = "M 134.00 117.00 L 128.00 157.00 L 128.00 190.00" stroke="black" fill="transparent"/>
	<path d = "M 78.00 162.00 L 140.00 143.00" stroke="black" fill="transparent"/>
</svg>