<?xml version="1.0" encoding="UTF-8" standalone="no"?>
<!--Created with ndjsontosvg(https:https://github.com/thompson318/ndjsontosvg) 
	from the simplified Google quickdraw data set. key_id = 6376655712944128-->
<svg width="256" height="256"
	xmlns="http://www.w3.org/2000/svg"
	xmlns:ndjsontosvg="https://github.com/thompson318/ndjsontosvg"
	xmlns:quickdraw="https://quickdraw.withgoogle.com/data"
	xmlns:scikit-surgery="https://doi.org/10.1007/s11548-020-02180-5">

	<rect width="100%" height="100%" fill="white" />
	<path d = "M 25.00 58.00 L 31.00 83.00 L 45.00 109.00 L 103.00 202.00 L 125.00 229.00 L 134.00 228.00 L 146.00 200.00 L 182.00 137.00 L 213.00 87.00 L 222.00 78.00" stroke="black" fill="transparent"/>
	<path d = "M 31.00 60.00 L 15.00 60.00 L 1.00 51.00 L 4.00 29.00 L 12.00 24.00 L 36.00 21.00 L 43.00 26.00 L 42.00 33.00 L 53.00 18.00 L 71.00 8.00 L 90.00 2.00 L 193.00 2.00 L 211.00 5.00 L 219.00 9.00 L 231.00 24.00 L 247.00 57.00 L 247.00 64.00 L 240.00 71.00 L 248.00 64.00 L 254.00 67.00 L 255.00 75.00 L 235.00 76.00" stroke="black" fill="transparent"/>
</svg>