<?xml version="1.0" encoding="UTF-8" standalone="no"?>
<!--Created with ndjsontosvg(https:https://github.com/thompson318/ndjsontosvg) 
	from the simplified Google quickdraw data set. key_id = 4606790186565632-->
<svg width="256" height="256"
	xmlns="http://www.w3.org/2000/svg"
	xmlns:ndjsontosvg="https://github.com/thompson318/ndjsontosvg"
	xmlns:quickdraw="https://quickdraw.withgoogle.com/data"
	xmlns:scikit-surgery="https://doi.org/10.1007/s11548-020-02180-5">

	<rect width="100%" height="100%" fill="white" />
	<path d = "M 9.00 143.00 L 52.00 205.00 L 70.00 242.00 L 69.00 250.00 L 90.00 255.00 L 106.00 255.00 L 146.00 160.00 L 157.00 127.00 L 161.00 96.00 L 6.00 135.00" stroke="black" fill="transparent"/>
	<path d = "M 8.00 138.00 L 0.00 117.00 L 3.00 100.00 L 30.00 45.00 L 45.00 27.00 L 61.00 14.00 L 60.00 0.00 L 85.00 2.00 L 83.00 20.00 L 90.00 26.00 L 106.00 33.00 L 110.00 54.00 L 115.00 59.00 L 134.00 64.00 L 139.00 75.00 L 150.00 82.00 L 155.00 94.00 L 163.00 100.00" stroke="black" fill="transparent"/>
	<path d = "M 59.00 22.00 L 66.00 29.00" stroke="black" fill="transparent"/>
</svg>