<?xml version="1.0" encoding="UTF-8" standalone="no"?>
<!--Created with ndjsontosvg(https:https://github.com/thompson318/ndjsontosvg) 
	from the simplified Google quickdraw data set. key_id = 4589717771255808-->
<svg width="256" height="256"
	xmlns="http://www.w3.org/2000/svg"
	xmlns:ndjsontosvg="https://github.com/thompson318/ndjsontosvg"
	xmlns:quickdraw="https://quickdraw.withgoogle.com/data"
	xmlns:scikit-surgery="https://doi.org/10.1007/s11548-020-02180-5">

	<rect width="100%" height="100%" fill="white" />
	<path d = "M 66.00 5.00 L 59.00 0.00 L 20.00 1.00 L 8.00 17.00 L 3.00 37.00 L 2.00 60.00 L 9.00 67.00 L 25.00 75.00 L 50.00 77.00 L 72.00 66.00 L 80.00 57.00 L 83.00 18.00 L 81.00 11.00 L 71.00 5.00 L 45.00 7.00" stroke="black" fill="transparent"/>
	<path d = "M 55.00 76.00 L 7.00 80.00 L 0.00 94.00 L 1.00 114.00 L 24.00 129.00 L 54.00 130.00 L 63.00 128.00 L 78.00 114.00 L 81.00 87.00 L 76.00 80.00 L 52.00 74.00" stroke="black" fill="transparent"/>
	<path d = "M 34.00 134.00 L 35.00 255.00" stroke="black" fill="transparent"/>
	<path d = "M 64.00 140.00 L 57.00 141.00 L 53.00 150.00 L 53.00 167.00 L 44.00 220.00 L 44.00 245.00 L 47.00 204.00 L 57.00 152.00 L 57.00 129.00 L 53.00 113.00" stroke="black" fill="transparent"/>
</svg>