<?xml version="1.0" encoding="UTF-8" standalone="no"?>
<!--Created with ndjsontosvg(https:https://github.com/thompson318/ndjsontosvg) 
	from the simplified Google quickdraw data set. key_id = 5972925628809216-->
<svg width="256" height="256"
	xmlns="http://www.w3.org/2000/svg"
	xmlns:ndjsontosvg="https://github.com/thompson318/ndjsontosvg"
	xmlns:quickdraw="https://quickdraw.withgoogle.com/data"
	xmlns:scikit-surgery="https://doi.org/10.1007/s11548-020-02180-5">

	<rect width="100%" height="100%" fill="white" />
	<path d = "M 12.00 126.00 L 9.00 142.00 L 12.00 152.00 L 17.00 159.00 L 27.00 160.00 L 31.00 168.00 L 36.00 246.00 L 39.00 254.00 L 45.00 255.00 L 103.00 249.00 L 116.00 239.00 L 119.00 211.00 L 112.00 158.00 L 125.00 151.00 L 128.00 146.00 L 127.00 133.00 L 110.00 126.00 L 13.00 126.00" stroke="black" fill="transparent"/>
	<path d = "M 21.00 127.00 L 11.00 125.00 L 0.00 110.00 L 0.00 105.00 L 8.00 97.00 L 34.00 92.00 L 15.00 82.00 L 6.00 72.00 L 8.00 69.00 L 17.00 67.00 L 29.00 69.00 L 19.00 62.00 L 9.00 42.00 L 26.00 43.00 L 42.00 40.00 L 52.00 35.00 L 58.00 21.00 L 54.00 13.00 L 45.00 5.00 L 30.00 6.00 L 40.00 0.00 L 58.00 0.00 L 71.00 7.00 L 77.00 17.00 L 75.00 40.00 L 96.00 45.00 L 109.00 53.00 L 110.00 65.00 L 95.00 73.00 L 115.00 78.00 L 123.00 88.00 L 112.00 94.00 L 118.00 103.00 L 98.00 113.00" stroke="black" fill="transparent"/>
	<path d = "M 25.00 164.00 L 79.00 162.00 L 102.00 165.00" stroke="black" fill="transparent"/>
</svg>