<?xml version="1.0" encoding="UTF-8" standalone="no"?>
<!--Created with ndjsontosvg(https:https://github.com/thompson318/ndjsontosvg) 
	from the simplified Google quickdraw data set. key_id = 5134724345364480-->
<svg width="256" height="256"
	xmlns="http://www.w3.org/2000/svg"
	xmlns:ndjsontosvg="https://github.com/thompson318/ndjsontosvg"
	xmlns:quickdraw="https://quickdraw.withgoogle.com/data"
	xmlns:scikit-surgery="https://doi.org/10.1007/s11548-020-02180-5">

	<rect width="100%" height="100%" fill="white" />
	<path d = "M 33.00 126.00 L 57.00 189.00 L 74.00 255.00 L 77.00 217.00 L 91.00 155.00 L 104.00 129.00 L 127.00 102.00" stroke="black" fill="transparent"/>
	<path d = "M 26.00 127.00 L 36.00 126.00 L 79.00 102.00 L 119.00 91.00" stroke="black" fill="transparent"/>
	<path d = "M 26.00 135.00 L 10.00 128.00 L 3.00 119.00 L 0.00 106.00 L 3.00 88.00 L 15.00 65.00 L 31.00 51.00 L 39.00 49.00 L 45.00 51.00 L 54.00 67.00 L 52.00 91.00 L 44.00 103.00 L 27.00 115.00 L 12.00 120.00 L 7.00 118.00 L 15.00 105.00" stroke="black" fill="transparent"/>
	<path d = "M 67.00 32.00 L 61.00 36.00 L 50.00 65.00 L 51.00 86.00 L 59.00 98.00 L 74.00 105.00 L 98.00 100.00 L 116.00 88.00 L 127.00 66.00 L 126.00 51.00 L 118.00 41.00 L 98.00 35.00 L 74.00 38.00" stroke="black" fill="transparent"/>
	<path d = "M 41.00 0.00 L 31.00 1.00 L 20.00 10.00 L 14.00 22.00 L 17.00 39.00" stroke="black" fill="transparent"/>
</svg>