<?xml version="1.0" encoding="UTF-8" standalone="no"?>
<!--Created with ndjsontosvg(https:https://github.com/thompson318/ndjsontosvg) 
	from the simplified Google quickdraw data set. key_id = 4867640898093056-->
<svg width="256" height="256"
	xmlns="http://www.w3.org/2000/svg"
	xmlns:ndjsontosvg="https://github.com/thompson318/ndjsontosvg"
	xmlns:quickdraw="https://quickdraw.withgoogle.com/data"
	xmlns:scikit-surgery="https://doi.org/10.1007/s11548-020-02180-5">

	<rect width="100%" height="100%" fill="white" />
	<path d = "M 41.00 136.00 L 75.00 220.00 L 97.00 255.00" stroke="black" fill="transparent"/>
	<path d = "M 86.00 240.00 L 93.00 182.00 L 116.00 119.00 L 118.00 107.00 L 115.00 106.00" stroke="black" fill="transparent"/>
	<path d = "M 115.00 113.00 L 65.00 125.00 L 45.00 134.00 L 33.00 144.00" stroke="black" fill="transparent"/>
	<path d = "M 112.00 8.00 L 103.00 1.00 L 79.00 2.00 L 53.00 13.00 L 30.00 30.00 L 21.00 43.00 L 5.00 79.00 L 0.00 111.00 L 2.00 128.00 L 10.00 137.00 L 19.00 136.00 L 25.00 132.00 L 33.00 136.00 L 47.00 127.00 L 58.00 131.00 L 72.00 122.00 L 93.00 122.00 L 112.00 109.00 L 135.00 112.00 L 150.00 102.00 L 156.00 91.00 L 149.00 36.00 L 143.00 27.00 L 134.00 20.00 L 88.00 17.00" stroke="black" fill="transparent"/>
</svg>