<?xml version="1.0" encoding="UTF-8" standalone="no"?>
<!--Created with ndjsontosvg(https:https://github.com/thompson318/ndjsontosvg) 
	from the simplified Google quickdraw data set. key_id = 5148095077679104-->
<svg width="256" height="256"
	xmlns="http://www.w3.org/2000/svg"
	xmlns:ndjsontosvg="https://github.com/thompson318/ndjsontosvg"
	xmlns:quickdraw="https://quickdraw.withgoogle.com/data"
	xmlns:scikit-surgery="https://doi.org/10.1007/s11548-020-02180-5">

	<rect width="100%" height="100%" fill="white" />
	<path d = "M 12.00 137.00 L 55.00 186.00 L 107.00 230.00 L 129.00 255.00 L 164.00 142.00 L 187.00 82.00 L 182.00 87.00 L 106.00 98.00 L 43.00 122.00 L 25.00 125.00 L 12.00 133.00" stroke="black" fill="transparent"/>
	<path d = "M 8.00 132.00 L 0.00 124.00 L 0.00 105.00 L 6.00 90.00 L 18.00 76.00 L 36.00 63.00 L 32.00 45.00 L 83.00 27.00 L 114.00 21.00 L 134.00 20.00 L 188.00 32.00 L 219.00 43.00 L 220.00 47.00 L 209.00 66.00 L 169.00 89.00" stroke="black" fill="transparent"/>
	<path d = "M 56.00 31.00 L 71.00 29.00 L 77.00 17.00 L 78.00 11.00 L 75.00 9.00 L 60.00 6.00 L 58.00 25.00" stroke="black" fill="transparent"/>
	<path d = "M 79.00 11.00 L 90.00 0.00" stroke="black" fill="transparent"/>
</svg>