<?xml version="1.0" encoding="UTF-8" standalone="no"?>
<!--Created with ndjsontosvg(https:https://github.com/thompson318/ndjsontosvg) 
	from the simplified Google quickdraw data set. key_id = 5256786204426240-->
<svg width="256" height="256"
	xmlns="http://www.w3.org/2000/svg"
	xmlns:ndjsontosvg="https://github.com/thompson318/ndjsontosvg"
	xmlns:quickdraw="https://quickdraw.withgoogle.com/data"
	xmlns:scikit-surgery="https://doi.org/10.1007/s11548-020-02180-5">

	<rect width="100%" height="100%" fill="white" />
	<path d = "M 26.00 124.00 L 30.00 129.00 L 54.00 192.00 L 71.00 250.00 L 75.00 255.00 L 79.00 254.00" stroke="black" fill="transparent"/>
	<path d = "M 172.00 86.00 L 163.00 93.00 L 158.00 104.00 L 121.00 198.00 L 93.00 254.00 L 93.00 250.00" stroke="black" fill="transparent"/>
	<path d = "M 26.00 123.00 L 48.00 122.00 L 92.00 107.00 L 162.00 94.00" stroke="black" fill="transparent"/>
	<path d = "M 32.00 117.00 L 21.00 116.00 L 3.00 100.00 L 1.00 77.00 L 12.00 68.00 L 33.00 66.00 L 37.00 42.00 L 48.00 21.00 L 57.00 10.00 L 75.00 1.00 L 91.00 1.00 L 101.00 11.00 L 114.00 32.00 L 121.00 32.00 L 139.00 22.00 L 150.00 22.00 L 160.00 36.00 L 173.00 70.00 L 174.00 91.00 L 160.00 104.00" stroke="black" fill="transparent"/>
</svg>