<?xml version="1.0" encoding="UTF-8" standalone="no"?>
<!--Created with ndjsontosvg(https:https://github.com/thompson318/ndjsontosvg) 
	from the simplified Google quickdraw data set. key_id = 6124711522074624-->
<svg width="256" height="256"
	xmlns="http://www.w3.org/2000/svg"
	xmlns:ndjsontosvg="https://github.com/thompson318/ndjsontosvg"
	xmlns:quickdraw="https://quickdraw.withgoogle.com/data"
	xmlns:scikit-surgery="https://doi.org/10.1007/s11548-020-02180-5">

	<rect width="100%" height="100%" fill="white" />
	<path d = "M 7.00 69.00 L 15.00 75.00 L 27.00 95.00 L 76.00 183.00" stroke="black" fill="transparent"/>
	<path d = "M 55.00 139.00 L 82.00 189.00 L 106.00 247.00" stroke="black" fill="transparent"/>
	<path d = "M 115.00 255.00 L 141.00 179.00 L 145.00 157.00 L 165.00 95.00" stroke="black" fill="transparent"/>
	<path d = "M 146.00 169.00 L 159.00 105.00 L 162.00 60.00 L 153.00 38.00 L 144.00 26.00" stroke="black" fill="transparent"/>
	<path d = "M 0.00 50.00 L 20.00 71.00 L 49.00 78.00 L 72.00 79.00 L 84.00 66.00 L 89.00 34.00 L 84.00 8.00" stroke="black" fill="transparent"/>
	<path d = "M 0.00 51.00 L 11.00 29.00 L 24.00 15.00 L 52.00 9.00 L 93.00 9.00" stroke="black" fill="transparent"/>
	<path d = "M 7.00 26.00 L 28.00 13.00 L 50.00 7.00 L 73.00 7.00 L 84.00 10.00 L 101.00 24.00" stroke="black" fill="transparent"/>
	<path d = "M 153.00 10.00 L 135.00 9.00 L 125.00 13.00 L 113.00 26.00 L 99.00 57.00 L 99.00 70.00 L 106.00 80.00" stroke="black" fill="transparent"/>
	<path d = "M 171.00 10.00 L 145.00 0.00 L 124.00 0.00 L 81.00 35.00" stroke="black" fill="transparent"/>
	<path d = "M 140.00 5.00 L 155.00 8.00 L 162.00 18.00 L 160.00 39.00" stroke="black" fill="transparent"/>
</svg>