<?xml version="1.0" encoding="UTF-8" standalone="no"?>
<!--Created with ndjsontosvg(https:https://github.com/thompson318/ndjsontosvg) 
	from the simplified Google quickdraw data set. key_id = 6008951613161472-->
<svg width="256" height="256"
	xmlns="http://www.w3.org/2000/svg"
	xmlns:ndjsontosvg="https://github.com/thompson318/ndjsontosvg"
	xmlns:quickdraw="https://quickdraw.withgoogle.com/data"
	xmlns:scikit-surgery="https://doi.org/10.1007/s11548-020-02180-5">

	<rect width="100%" height="100%" fill="white" />
	<path d = "M 23.00 123.00 L 21.00 141.00 L 29.00 178.00 L 52.00 248.00 L 58.00 255.00 L 62.00 254.00 L 67.00 244.00 L 123.00 187.00 L 139.00 161.00 L 131.00 148.00 L 118.00 141.00 L 46.00 130.00 L 23.00 122.00" stroke="black" fill="transparent"/>
	<path d = "M 26.00 120.00 L 7.00 92.00 L 0.00 73.00 L 0.00 58.00 L 14.00 39.00 L 46.00 15.00 L 78.00 1.00 L 105.00 0.00 L 125.00 4.00 L 147.00 15.00 L 166.00 39.00 L 174.00 58.00 L 177.00 84.00 L 176.00 101.00 L 160.00 134.00 L 144.00 149.00 L 132.00 153.00" stroke="black" fill="transparent"/>
	<path d = "M 94.00 0.00 L 94.00 0.00" stroke="black" fill="transparent"/>
</svg>