<?xml version="1.0" encoding="UTF-8" standalone="no"?>
<!--Created with ndjsontosvg(https:https://github.com/thompson318/ndjsontosvg) 
	from the simplified Google quickdraw data set. key_id = 5927708582215680-->
<svg width="256" height="256"
	xmlns="http://www.w3.org/2000/svg"
	xmlns:ndjsontosvg="https://github.com/thompson318/ndjsontosvg"
	xmlns:quickdraw="https://quickdraw.withgoogle.com/data"
	xmlns:scikit-surgery="https://doi.org/10.1007/s11548-020-02180-5">

	<rect width="100%" height="100%" fill="white" />
	<path d = "M 0.00 102.00 L 11.00 145.00 L 44.00 236.00 L 58.00 251.00 L 67.00 255.00 L 71.00 251.00 L 92.00 201.00 L 137.00 134.00 L 158.00 93.00 L 154.00 91.00 L 177.00 66.00 L 183.00 53.00 L 187.00 27.00 L 176.00 21.00 L 158.00 16.00 L 128.00 14.00 L 120.00 17.00 L 99.00 35.00 L 92.00 52.00 L 92.00 57.00 L 88.00 36.00 L 73.00 7.00 L 63.00 1.00 L 45.00 2.00 L 32.00 11.00 L 13.00 46.00 L 11.00 61.00 L 21.00 82.00 L 20.00 86.00 L 8.00 94.00" stroke="black" fill="transparent"/>
</svg>