<?xml version="1.0" encoding="UTF-8" standalone="no"?>
<!--Created with ndjsontosvg(https:https://github.com/thompson318/ndjsontosvg) 
	from the simplified Google quickdraw data set. key_id = 6091273502982144-->
<svg width="256" height="256"
	xmlns="http://www.w3.org/2000/svg"
	xmlns:ndjsontosvg="https://github.com/thompson318/ndjsontosvg"
	xmlns:quickdraw="https://quickdraw.withgoogle.com/data"
	xmlns:scikit-surgery="https://doi.org/10.1007/s11548-020-02180-5">

	<rect width="100%" height="100%" fill="white" />
	<path d = "M 20.00 120.00 L 21.00 135.00 L 40.00 199.00 L 52.00 234.00 L 63.00 255.00 L 122.00 162.00 L 130.00 142.00 L 131.00 127.00 L 22.00 126.00" stroke="black" fill="transparent"/>
	<path d = "M 19.00 125.00 L 6.00 120.00 L 1.00 108.00 L 0.00 96.00 L 9.00 79.00 L 22.00 68.00 L 35.00 63.00 L 43.00 64.00 L 54.00 70.00 L 65.00 43.00 L 85.00 15.00 L 107.00 3.00 L 133.00 0.00 L 137.00 4.00 L 143.00 25.00 L 140.00 80.00 L 146.00 76.00 L 162.00 75.00 L 166.00 78.00 L 175.00 91.00 L 176.00 106.00 L 169.00 119.00 L 158.00 127.00 L 132.00 127.00" stroke="black" fill="transparent"/>
</svg>