<?xml version="1.0" encoding="UTF-8" standalone="no"?>
<!--Created with ndjsontosvg(https:https://github.com/thompson318/ndjsontosvg) 
	from the simplified Google quickdraw data set. key_id = 5884272873308160-->
<svg width="256" height="256"
	xmlns="http://www.w3.org/2000/svg"
	xmlns:ndjsontosvg="https://github.com/thompson318/ndjsontosvg"
	xmlns:quickdraw="https://quickdraw.withgoogle.com/data"
	xmlns:scikit-surgery="https://doi.org/10.1007/s11548-020-02180-5">

	<rect width="100%" height="100%" fill="white" />
	<path d = "M 75.00 74.00 L 70.00 49.00 L 57.00 34.00 L 43.00 29.00 L 18.00 27.00 L 6.00 33.00 L 3.00 38.00 L 1.00 65.00 L 22.00 106.00 L 35.00 114.00 L 58.00 115.00 L 78.00 106.00 L 87.00 98.00 L 97.00 83.00 L 97.00 68.00 L 93.00 60.00 L 82.00 53.00" stroke="black" fill="transparent"/>
	<path d = "M 70.00 35.00 L 80.00 22.00 L 94.00 12.00 L 120.00 1.00 L 129.00 1.00 L 176.00 35.00 L 183.00 56.00 L 181.00 73.00 L 162.00 106.00 L 150.00 116.00 L 139.00 116.00 L 131.00 110.00 L 117.00 92.00 L 106.00 63.00 L 105.00 48.00" stroke="black" fill="transparent"/>
	<path d = "M 30.00 91.00 L 30.00 105.00 L 47.00 186.00 L 69.00 235.00 L 79.00 251.00 L 86.00 255.00 L 106.00 253.00 L 115.00 246.00 L 119.00 238.00 L 136.00 196.00 L 139.00 147.00 L 149.00 107.00" stroke="black" fill="transparent"/>
</svg>