<?xml version="1.0" encoding="UTF-8" standalone="no"?>
<!--Created with ndjsontosvg(https:https://github.com/thompson318/ndjsontosvg) 
	from the simplified Google quickdraw data set. key_id = 6199036598026240-->
<svg width="256" height="256"
	xmlns="http://www.w3.org/2000/svg"
	xmlns:ndjsontosvg="https://github.com/thompson318/ndjsontosvg"
	xmlns:quickdraw="https://quickdraw.withgoogle.com/data"
	xmlns:scikit-surgery="https://doi.org/10.1007/s11548-020-02180-5">

	<rect width="100%" height="100%" fill="white" />
	<path d = "M 117.00 61.00 L 123.00 63.00 L 138.00 47.00 L 140.00 28.00 L 130.00 20.00 L 114.00 17.00 L 75.00 15.00 L 42.00 2.00 L 28.00 0.00 L 19.00 4.00 L 6.00 15.00 L 0.00 34.00 L 19.00 56.00 L 34.00 63.00 L 39.00 78.00 L 56.00 78.00 L 61.00 80.00 L 65.00 86.00 L 64.00 91.00 L 26.00 101.00" stroke="black" fill="transparent"/>
	<path d = "M 145.00 69.00 L 139.00 65.00 L 125.00 65.00 L 119.00 74.00 L 141.00 95.00" stroke="black" fill="transparent"/>
	<path d = "M 140.00 99.00 L 102.00 93.00 L 65.00 93.00 L 59.00 97.00 L 32.00 95.00 L 19.00 100.00 L 15.00 108.00 L 35.00 139.00 L 50.00 173.00 L 59.00 210.00 L 69.00 233.00 L 71.00 249.00 L 76.00 255.00 L 117.00 244.00 L 125.00 240.00 L 136.00 228.00 L 134.00 221.00 L 115.00 203.00 L 102.00 162.00 L 110.00 145.00 L 114.00 124.00 L 134.00 99.00 L 141.00 99.00" stroke="black" fill="transparent"/>
</svg>