<?xml version="1.0" encoding="UTF-8" standalone="no"?>
<!--Created with ndjsontosvg(https:https://github.com/thompson318/ndjsontosvg) 
	from the simplified Google quickdraw data set. key_id = 5148435659358208-->
<svg width="256" height="256"
	xmlns="http://www.w3.org/2000/svg"
	xmlns:ndjsontosvg="https://github.com/thompson318/ndjsontosvg"
	xmlns:quickdraw="https://quickdraw.withgoogle.com/data"
	xmlns:scikit-surgery="https://doi.org/10.1007/s11548-020-02180-5">

	<rect width="100%" height="100%" fill="white" />
	<path d = "M 27.00 116.00 L 69.00 212.00 L 92.00 255.00 L 98.00 250.00 L 116.00 247.00 L 104.00 174.00 L 102.00 120.00 L 98.00 96.00 L 80.00 96.00 L 45.00 109.00 L 26.00 111.00 L 24.00 116.00" stroke="black" fill="transparent"/>
	<path d = "M 28.00 111.00 L 18.00 102.00 L 27.00 91.00 L 12.00 91.00 L 8.00 82.00 L 13.00 67.00 L 8.00 54.00 L 15.00 42.00 L 16.00 30.00 L 25.00 19.00 L 21.00 14.00 L 16.00 15.00 L 7.00 25.00 L 2.00 27.00 L 0.00 24.00 L 0.00 16.00 L 5.00 9.00 L 18.00 0.00 L 39.00 4.00 L 48.00 12.00 L 69.00 45.00 L 69.00 60.00 L 82.00 66.00 L 85.00 102.00" stroke="black" fill="transparent"/>
</svg>