<?xml version="1.0" encoding="UTF-8" standalone="no"?>
<!--Created with ndjsontosvg(https:https://github.com/thompson318/ndjsontosvg) 
	from the simplified Google quickdraw data set. key_id = 6179333104205824-->
<svg width="256" height="256"
	xmlns="http://www.w3.org/2000/svg"
	xmlns:ndjsontosvg="https://github.com/thompson318/ndjsontosvg"
	xmlns:quickdraw="https://quickdraw.withgoogle.com/data"
	xmlns:scikit-surgery="https://doi.org/10.1007/s11548-020-02180-5">

	<rect width="100%" height="100%" fill="white" />
	<path d = "M 98.00 51.00 L 98.00 36.00 L 94.00 24.00 L 83.00 14.00 L 62.00 7.00 L 40.00 7.00 L 16.00 15.00 L 1.00 30.00 L 1.00 40.00 L 11.00 57.00 L 33.00 74.00 L 84.00 92.00 L 107.00 90.00 L 105.00 58.00" stroke="black" fill="transparent"/>
	<path d = "M 100.00 20.00 L 99.00 9.00 L 101.00 5.00 L 113.00 0.00 L 132.00 0.00 L 156.00 13.00 L 165.00 24.00 L 167.00 50.00 L 160.00 62.00 L 150.00 67.00 L 115.00 69.00" stroke="black" fill="transparent"/>
	<path d = "M 41.00 76.00 L 49.00 146.00 L 56.00 175.00 L 80.00 249.00 L 82.00 254.00 L 87.00 255.00 L 99.00 238.00 L 113.00 193.00 L 118.00 117.00 L 127.00 67.00" stroke="black" fill="transparent"/>
</svg>