<?xml version="1.0" encoding="UTF-8" standalone="no"?>
<!--Created with ndjsontosvg(https:https://github.com/thompson318/ndjsontosvg) 
	from the simplified Google quickdraw data set. key_id = 5073184070041600-->
<svg width="256" height="256"
	xmlns="http://www.w3.org/2000/svg"
	xmlns:ndjsontosvg="https://github.com/thompson318/ndjsontosvg"
	xmlns:quickdraw="https://quickdraw.withgoogle.com/data"
	xmlns:scikit-surgery="https://doi.org/10.1007/s11548-020-02180-5">

	<rect width="100%" height="100%" fill="white" />
	<path d = "M 53.00 93.00 L 57.00 105.00 L 75.00 126.00 L 106.00 181.00 L 135.00 222.00 L 145.00 245.00 L 156.00 255.00 L 163.00 254.00 L 175.00 237.00 L 179.00 198.00 L 202.00 140.00 L 216.00 92.00 L 206.00 86.00 L 187.00 84.00 L 160.00 77.00 L 134.00 76.00 L 58.00 104.00 L 53.00 104.00 L 55.00 98.00 L 14.00 102.00 L 4.00 96.00 L 0.00 85.00 L 7.00 77.00 L 17.00 75.00 L 14.00 47.00 L 16.00 35.00 L 33.00 29.00 L 48.00 37.00 L 53.00 43.00 L 69.00 22.00 L 91.00 6.00 L 109.00 0.00 L 129.00 4.00 L 132.00 10.00 L 136.00 12.00 L 173.00 6.00 L 187.00 7.00 L 198.00 11.00 L 206.00 19.00 L 202.00 46.00 L 215.00 39.00 L 221.00 39.00 L 237.00 51.00 L 237.00 63.00 L 233.00 69.00" stroke="black" fill="transparent"/>
</svg>