<?xml version="1.0" encoding="UTF-8" standalone="no"?>
<!--Created with ndjsontosvg(https:https://github.com/thompson318/ndjsontosvg) 
	from the simplified Google quickdraw data set. key_id = 5817082409123840-->
<svg width="256" height="256"
	xmlns="http://www.w3.org/2000/svg"
	xmlns:ndjsontosvg="https://github.com/thompson318/ndjsontosvg"
	xmlns:quickdraw="https://quickdraw.withgoogle.com/data"
	xmlns:scikit-surgery="https://doi.org/10.1007/s11548-020-02180-5">

	<rect width="100%" height="100%" fill="white" />
	<path d = "M 10.00 129.00 L 39.00 169.00 L 73.00 223.00 L 87.00 240.00 L 105.00 255.00 L 121.00 231.00 L 146.00 171.00 L 158.00 134.00 L 161.00 107.00 L 149.00 110.00 L 67.00 110.00 L 4.00 107.00" stroke="black" fill="transparent"/>
	<path d = "M 39.00 122.00 L 23.00 108.00 L 5.00 82.00 L 0.00 58.00 L 0.00 45.00 L 5.00 33.00 L 16.00 23.00 L 35.00 14.00 L 62.00 13.00 L 67.00 5.00 L 82.00 0.00 L 106.00 0.00 L 128.00 15.00 L 141.00 35.00 L 145.00 55.00 L 163.00 64.00 L 168.00 73.00 L 168.00 90.00 L 156.00 115.00 L 148.00 122.00 L 130.00 126.00" stroke="black" fill="transparent"/>
	<path d = "M 42.00 52.00 L 44.00 60.00 L 50.00 64.00 L 62.00 65.00 L 68.00 62.00 L 70.00 55.00 L 63.00 49.00 L 55.00 49.00 L 56.00 58.00 L 63.00 67.00" stroke="black" fill="transparent"/>
</svg>