<?xml version="1.0" encoding="UTF-8" standalone="no"?>
<!--Created with ndjsontosvg(https:https://github.com/thompson318/ndjsontosvg) 
	from the simplified Google quickdraw data set. key_id = 5481485073121280-->
<svg width="256" height="256"
	xmlns="http://www.w3.org/2000/svg"
	xmlns:ndjsontosvg="https://github.com/thompson318/ndjsontosvg"
	xmlns:quickdraw="https://quickdraw.withgoogle.com/data"
	xmlns:scikit-surgery="https://doi.org/10.1007/s11548-020-02180-5">

	<rect width="100%" height="100%" fill="white" />
	<path d = "M 12.00 113.00 L 18.00 132.00 L 28.00 214.00 L 39.00 248.00 L 45.00 255.00 L 66.00 207.00 L 81.00 144.00 L 85.00 107.00 L 65.00 119.00 L 48.00 123.00 L 32.00 123.00 L 10.00 118.00 L 1.00 110.00 L 0.00 78.00 L 8.00 58.00 L 16.00 52.00 L 56.00 50.00 L 84.00 58.00 L 91.00 63.00 L 93.00 72.00 L 93.00 98.00 L 81.00 115.00 L 70.00 113.00 L 69.00 107.00" stroke="black" fill="transparent"/>
	<path d = "M 27.00 50.00 L 20.00 39.00 L 20.00 6.00 L 43.00 0.00 L 59.00 1.00 L 64.00 4.00" stroke="black" fill="transparent"/>
</svg>