<?xml version="1.0" encoding="UTF-8" standalone="no"?>
<!--Created with ndjsontosvg(https:https://github.com/thompson318/ndjsontosvg) 
	from the simplified Google quickdraw data set. key_id = 6516346701479936-->
<svg width="256" height="256"
	xmlns="http://www.w3.org/2000/svg"
	xmlns:ndjsontosvg="https://github.com/thompson318/ndjsontosvg"
	xmlns:quickdraw="https://quickdraw.withgoogle.com/data"
	xmlns:scikit-surgery="https://doi.org/10.1007/s11548-020-02180-5">

	<rect width="100%" height="100%" fill="white" />
	<path d = "M 17.00 97.00 L 19.00 105.00 L 38.00 138.00 L 90.00 255.00 L 99.00 239.00 L 116.00 220.00 L 132.00 170.00 L 141.00 116.00 L 144.00 69.00 L 143.00 74.00 L 112.00 82.00 L 18.00 88.00 L 10.00 82.00 L 2.00 70.00 L 0.00 44.00 L 7.00 34.00 L 14.00 28.00 L 39.00 25.00 L 60.00 43.00 L 70.00 63.00 L 73.00 41.00 L 79.00 25.00 L 90.00 21.00 L 116.00 21.00 L 128.00 27.00 L 135.00 35.00 L 138.00 63.00 L 143.00 77.00" stroke="black" fill="transparent"/>
	<path d = "M 16.00 30.00 L 15.00 27.00 L 33.00 11.00 L 55.00 0.00 L 72.00 5.00 L 94.00 28.00" stroke="black" fill="transparent"/>
</svg>