<?xml version="1.0" encoding="UTF-8" standalone="no"?>
<!--Created with ndjsontosvg(https:https://github.com/thompson318/ndjsontosvg) 
	from the simplified Google quickdraw data set. key_id = 5529036346359808-->
<svg width="256" height="256"
	xmlns="http://www.w3.org/2000/svg"
	xmlns:ndjsontosvg="https://github.com/thompson318/ndjsontosvg"
	xmlns:quickdraw="https://quickdraw.withgoogle.com/data"
	xmlns:scikit-surgery="https://doi.org/10.1007/s11548-020-02180-5">

	<rect width="100%" height="100%" fill="white" />
	<path d = "M 0.00 60.00 L 22.00 139.00 L 42.00 190.00 L 65.00 230.00 L 71.00 249.00 L 78.00 255.00 L 102.00 208.00 L 127.00 139.00 L 143.00 67.00 L 143.00 49.00 L 139.00 46.00 L 65.00 46.00 L 6.00 55.00" stroke="black" fill="transparent"/>
	<path d = "M 24.00 52.00 L 14.00 38.00 L 6.00 15.00 L 21.00 3.00 L 35.00 0.00 L 49.00 1.00 L 65.00 6.00 L 81.00 22.00 L 82.00 29.00 L 70.00 47.00" stroke="black" fill="transparent"/>
	<path d = "M 112.00 42.00 L 118.00 35.00 L 119.00 28.00 L 112.00 12.00 L 91.00 5.00 L 77.00 10.00" stroke="black" fill="transparent"/>
</svg>