<?xml version="1.0" encoding="UTF-8" standalone="no"?>
<!--Created with ndjsontosvg(https:https://github.com/thompson318/ndjsontosvg) 
	from the simplified Google quickdraw data set. key_id = 4778717891002368-->
<svg width="256" height="256"
	xmlns="http://www.w3.org/2000/svg"
	xmlns:ndjsontosvg="https://github.com/thompson318/ndjsontosvg"
	xmlns:quickdraw="https://quickdraw.withgoogle.com/data"
	xmlns:scikit-surgery="https://doi.org/10.1007/s11548-020-02180-5">

	<rect width="100%" height="100%" fill="white" />
	<path d = "M 40.00 109.00 L 40.00 162.00 L 57.00 255.00 L 65.00 145.00 L 75.00 97.00" stroke="black" fill="transparent"/>
	<path d = "M 33.00 106.00 L 10.00 93.00 L 3.00 77.00 L 4.00 49.00 L 11.00 35.00 L 19.00 27.00 L 51.00 12.00 L 66.00 8.00 L 83.00 9.00 L 107.00 27.00 L 111.00 34.00 L 111.00 50.00 L 104.00 66.00 L 90.00 76.00 L 62.00 86.00" stroke="black" fill="transparent"/>
	<path d = "M 27.00 99.00 L 75.00 85.00 L 107.00 56.00 L 112.00 47.00 L 107.00 24.00 L 96.00 11.00 L 76.00 6.00 L 53.00 7.00 L 28.00 22.00 L 10.00 38.00 L 5.00 53.00 L 5.00 69.00 L 12.00 78.00 L 39.00 85.00 L 73.00 84.00 L 105.00 69.00 L 119.00 53.00 L 124.00 23.00 L 115.00 7.00 L 103.00 1.00 L 73.00 2.00 L 33.00 25.00 L 16.00 39.00 L 12.00 45.00 L 12.00 56.00 L 19.00 74.00 L 30.00 85.00 L 39.00 88.00 L 60.00 88.00 L 85.00 76.00 L 110.00 54.00 L 120.00 34.00 L 123.00 19.00 L 120.00 13.00 L 114.00 8.00 L 94.00 4.00 L 66.00 7.00 L 33.00 25.00 L 8.00 50.00 L 0.00 68.00 L 1.00 75.00 L 8.00 82.00 L 33.00 89.00 L 73.00 86.00 L 115.00 73.00 L 140.00 58.00 L 145.00 39.00 L 130.00 19.00 L 112.00 5.00 L 93.00 2.00" stroke="black" fill="transparent"/>
</svg>