<?xml version="1.0" encoding="UTF-8" standalone="no"?>
<!--Created with ndjsontosvg(https:https://github.com/thompson318/ndjsontosvg) 
	from the simplified Google quickdraw data set. key_id = 6110333716398080-->
<svg width="256" height="256"
	xmlns="http://www.w3.org/2000/svg"
	xmlns:ndjsontosvg="https://github.com/thompson318/ndjsontosvg"
	xmlns:quickdraw="https://quickdraw.withgoogle.com/data"
	xmlns:scikit-surgery="https://doi.org/10.1007/s11548-020-02180-5">

	<rect width="100%" height="100%" fill="white" />
	<path d = "M 53.00 123.00 L 78.00 172.00 L 102.00 255.00 L 111.00 221.00 L 126.00 183.00 L 167.00 106.00 L 126.00 117.00 L 43.00 115.00" stroke="black" fill="transparent"/>
	<path d = "M 53.00 110.00 L 10.00 88.00 L 0.00 77.00 L 0.00 65.00 L 5.00 50.00 L 16.00 32.00 L 34.00 24.00 L 58.00 22.00 L 83.00 35.00 L 98.00 57.00 L 102.00 123.00" stroke="black" fill="transparent"/>
	<path d = "M 56.00 22.00 L 62.00 15.00 L 115.00 0.00 L 140.00 1.00 L 157.00 11.00 L 162.00 24.00 L 172.00 70.00 L 170.00 113.00 L 164.00 118.00 L 157.00 118.00" stroke="black" fill="transparent"/>
</svg>