<?xml version="1.0" encoding="UTF-8" standalone="no"?>
<!--Created with ndjsontosvg(https:https://github.com/thompson318/ndjsontosvg) 
	from the simplified Google quickdraw data set. key_id = 5837202212782080-->
<svg width="256" height="256"
	xmlns="http://www.w3.org/2000/svg"
	xmlns:ndjsontosvg="https://github.com/thompson318/ndjsontosvg"
	xmlns:quickdraw="https://quickdraw.withgoogle.com/data"
	xmlns:scikit-surgery="https://doi.org/10.1007/s11548-020-02180-5">

	<rect width="100%" height="100%" fill="white" />
	<path d = "M 16.00 125.00 L 33.00 188.00 L 56.00 255.00 L 74.00 232.00 L 125.00 135.00 L 120.00 132.00 L 69.00 134.00 L 37.00 123.00" stroke="black" fill="transparent"/>
	<path d = "M 53.00 130.00 L 56.00 143.00 L 56.00 192.00" stroke="black" fill="transparent"/>
	<path d = "M 76.00 127.00 L 79.00 213.00" stroke="black" fill="transparent"/>
	<path d = "M 35.00 158.00 L 100.00 160.00 L 121.00 151.00" stroke="black" fill="transparent"/>
	<path d = "M 39.00 178.00 L 95.00 186.00" stroke="black" fill="transparent"/>
	<path d = "M 53.00 202.00 L 79.00 195.00" stroke="black" fill="transparent"/>
	<path d = "M 63.00 190.00 L 63.00 214.00 L 58.00 232.00" stroke="black" fill="transparent"/>
	<path d = "M 18.00 113.00 L 14.00 98.00 L 14.00 76.00 L 23.00 60.00 L 41.00 44.00 L 69.00 39.00 L 109.00 49.00 L 125.00 62.00 L 155.00 100.00 L 162.00 117.00 L 160.00 132.00 L 144.00 137.00 L 118.00 134.00 L 80.00 134.00 L 16.00 121.00 L 0.00 115.00 L 0.00 109.00" stroke="black" fill="transparent"/>
	<path d = "M 60.00 28.00 L 61.00 21.00 L 76.00 7.00 L 93.00 0.00" stroke="black" fill="transparent"/>
</svg>