<?xml version="1.0" encoding="UTF-8" standalone="no"?>
<!--Created with ndjsontosvg(https:https://github.com/thompson318/ndjsontosvg) 
	from the simplified Google quickdraw data set. key_id = 6231423570673664-->
<svg width="256" height="256"
	xmlns="http://www.w3.org/2000/svg"
	xmlns:ndjsontosvg="https://github.com/thompson318/ndjsontosvg"
	xmlns:quickdraw="https://quickdraw.withgoogle.com/data"
	xmlns:scikit-surgery="https://doi.org/10.1007/s11548-020-02180-5">

	<rect width="100%" height="100%" fill="white" />
	<path d = "M 8.00 72.00 L 8.00 83.00 L 44.00 225.00 L 46.00 246.00 L 49.00 254.00 L 52.00 255.00 L 63.00 223.00 L 67.00 194.00 L 96.00 115.00 L 111.00 87.00 L 130.00 68.00" stroke="black" fill="transparent"/>
	<path d = "M 0.00 74.00 L 27.00 77.00 L 129.00 75.00" stroke="black" fill="transparent"/>
	<path d = "M 60.00 72.00 L 50.00 62.00 L 49.00 42.00 L 56.00 35.00 L 82.00 33.00 L 87.00 26.00 L 88.00 13.00 L 82.00 5.00 L 75.00 1.00 L 52.00 0.00 L 34.00 10.00 L 23.00 32.00 L 26.00 57.00 L 29.00 58.00 L 32.00 50.00 L 55.00 54.00 L 51.00 74.00" stroke="black" fill="transparent"/>
</svg>