<?xml version="1.0" encoding="UTF-8" standalone="no"?>
<!--Created with ndjsontosvg(https:https://github.com/thompson318/ndjsontosvg) 
	from the simplified Google quickdraw data set. key_id = 5059178265575424-->
<svg width="256" height="256"
	xmlns="http://www.w3.org/2000/svg"
	xmlns:ndjsontosvg="https://github.com/thompson318/ndjsontosvg"
	xmlns:quickdraw="https://quickdraw.withgoogle.com/data"
	xmlns:scikit-surgery="https://doi.org/10.1007/s11548-020-02180-5">

	<rect width="100%" height="100%" fill="white" />
	<path d = "M 12.00 92.00 L 10.00 255.00 L 19.00 247.00 L 38.00 195.00 L 61.00 150.00 L 76.00 129.00 L 106.00 107.00 L 102.00 101.00 L 88.00 95.00 L 21.00 93.00" stroke="black" fill="transparent"/>
	<path d = "M 8.00 77.00 L 3.00 71.00 L 0.00 50.00 L 6.00 35.00 L 12.00 30.00 L 32.00 25.00 L 36.00 39.00 L 30.00 42.00 L 27.00 29.00 L 30.00 24.00 L 37.00 22.00 L 61.00 23.00 L 72.00 32.00 L 72.00 24.00 L 86.00 10.00 L 103.00 2.00 L 118.00 0.00 L 128.00 10.00 L 129.00 24.00 L 125.00 31.00 L 114.00 37.00 L 125.00 40.00 L 128.00 45.00 L 128.00 65.00 L 120.00 79.00 L 117.00 96.00 L 103.00 104.00 L 88.00 104.00" stroke="black" fill="transparent"/>
</svg>