<?xml version="1.0" encoding="UTF-8" standalone="no"?>
<!--Created with ndjsontosvg(https:https://github.com/thompson318/ndjsontosvg) 
	from the simplified Google quickdraw data set. key_id = 5430645276803072-->
<svg width="256" height="256"
	xmlns="http://www.w3.org/2000/svg"
	xmlns:ndjsontosvg="https://github.com/thompson318/ndjsontosvg"
	xmlns:quickdraw="https://quickdraw.withgoogle.com/data"
	xmlns:scikit-surgery="https://doi.org/10.1007/s11548-020-02180-5">

	<rect width="100%" height="100%" fill="white" />
	<path d = "M 65.00 120.00 L 72.00 130.00 L 108.00 206.00 L 134.00 255.00 L 141.00 225.00 L 189.00 112.00" stroke="black" fill="transparent"/>
	<path d = "M 71.00 124.00 L 23.00 126.00 L 11.00 121.00 L 5.00 114.00 L 0.00 97.00 L 0.00 75.00 L 5.00 63.00 L 18.00 42.00 L 45.00 20.00 L 82.00 7.00 L 122.00 1.00 L 155.00 1.00 L 171.00 7.00 L 201.00 28.00 L 219.00 50.00 L 223.00 62.00 L 223.00 80.00 L 217.00 97.00 L 198.00 113.00 L 178.00 117.00" stroke="black" fill="transparent"/>
	<path d = "M 61.00 107.00 L 157.00 99.00 L 195.00 92.00" stroke="black" fill="transparent"/>
</svg>