<?xml version="1.0" encoding="UTF-8" standalone="no"?>
<!--Created with ndjsontosvg(https:https://github.com/thompson318/ndjsontosvg) 
	from the simplified Google quickdraw data set. key_id = 5219025606934528-->
<svg width="256" height="256"
	xmlns="http://www.w3.org/2000/svg"
	xmlns:ndjsontosvg="https://github.com/thompson318/ndjsontosvg"
	xmlns:quickdraw="https://quickdraw.withgoogle.com/data"
	xmlns:scikit-surgery="https://doi.org/10.1007/s11548-020-02180-5">

	<rect width="100%" height="100%" fill="white" />
	<path d = "M 3.00 146.00 L 4.00 178.00 L 10.00 208.00 L 24.00 239.00 L 37.00 255.00 L 53.00 200.00 L 81.00 154.00 L 45.00 141.00 L 0.00 134.00" stroke="black" fill="transparent"/>
	<path d = "M 13.00 135.00 L 5.00 123.00 L 1.00 110.00 L 4.00 97.00 L 10.00 90.00 L 29.00 83.00 L 56.00 81.00 L 71.00 84.00 L 82.00 90.00 L 89.00 105.00 L 87.00 146.00 L 83.00 155.00 L 75.00 158.00 L 58.00 152.00" stroke="black" fill="transparent"/>
	<path d = "M 22.00 78.00 L 16.00 68.00 L 15.00 55.00 L 20.00 41.00 L 31.00 22.00 L 46.00 6.00 L 56.00 0.00 L 76.00 11.00 L 91.00 26.00 L 99.00 39.00 L 92.00 60.00 L 72.00 72.00" stroke="black" fill="transparent"/>
	<path d = "M 31.00 152.00 L 26.00 170.00 L 25.00 186.00 L 27.00 193.00" stroke="black" fill="transparent"/>
	<path d = "M 47.00 140.00 L 43.00 174.00 L 43.00 198.00" stroke="black" fill="transparent"/>
	<path d = "M 75.00 158.00 L 59.00 186.00 L 47.00 214.00" stroke="black" fill="transparent"/>
</svg>