<?xml version="1.0" encoding="UTF-8" standalone="no"?>
<!--Created with ndjsontosvg(https:https://github.com/thompson318/ndjsontosvg) 
	from the simplified Google quickdraw data set. key_id = 4923175999635456-->
<svg width="256" height="256"
	xmlns="http://www.w3.org/2000/svg"
	xmlns:ndjsontosvg="https://github.com/thompson318/ndjsontosvg"
	xmlns:quickdraw="https://quickdraw.withgoogle.com/data"
	xmlns:scikit-surgery="https://doi.org/10.1007/s11548-020-02180-5">

	<rect width="100%" height="100%" fill="white" />
	<path d = "M 17.00 91.00 L 39.00 179.00 L 74.00 255.00 L 104.00 214.00 L 144.00 152.00 L 165.00 111.00 L 174.00 90.00 L 174.00 86.00 L 171.00 85.00" stroke="black" fill="transparent"/>
	<path d = "M 51.00 30.00 L 68.00 59.00 L 67.00 47.00 L 58.00 42.00 L 46.00 41.00" stroke="black" fill="transparent"/>
	<path d = "M 57.00 37.00 L 53.00 33.00 L 37.00 29.00 L 12.00 27.00 L 4.00 35.00 L 0.00 48.00 L 0.00 70.00 L 15.00 84.00 L 42.00 93.00 L 76.00 93.00 L 85.00 83.00 L 85.00 55.00 L 60.00 19.00" stroke="black" fill="transparent"/>
	<path d = "M 153.00 26.00 L 153.00 22.00 L 140.00 17.00 L 111.00 15.00 L 96.00 22.00 L 90.00 29.00 L 82.00 50.00 L 82.00 88.00 L 86.00 99.00 L 97.00 109.00 L 122.00 118.00 L 197.00 124.00 L 205.00 120.00 L 210.00 108.00 L 209.00 73.00 L 200.00 53.00 L 184.00 28.00 L 163.00 7.00 L 141.00 2.00 L 115.00 0.00" stroke="black" fill="transparent"/>
</svg>