<?xml version="1.0" encoding="UTF-8" standalone="no"?>
<!--Created with ndjsontosvg(https:https://github.com/thompson318/ndjsontosvg) 
	from the simplified Google quickdraw data set. key_id = 5603031976509440-->
<svg width="256" height="256"
	xmlns="http://www.w3.org/2000/svg"
	xmlns:ndjsontosvg="https://github.com/thompson318/ndjsontosvg"
	xmlns:quickdraw="https://quickdraw.withgoogle.com/data"
	xmlns:scikit-surgery="https://doi.org/10.1007/s11548-020-02180-5">

	<rect width="100%" height="100%" fill="white" />
	<path d = "M 46.00 114.00 L 53.00 133.00 L 86.00 184.00 L 128.00 217.00 L 165.00 255.00 L 192.00 88.00 L 122.00 92.00 L 89.00 98.00 L 67.00 99.00 L 40.00 106.00 L 31.00 99.00 L 10.00 71.00 L 2.00 54.00 L 0.00 41.00 L 5.00 31.00 L 15.00 23.00 L 43.00 14.00 L 64.00 13.00 L 71.00 32.00 L 90.00 6.00 L 102.00 1.00 L 127.00 2.00 L 138.00 13.00 L 156.00 4.00 L 164.00 4.00 L 171.00 11.00 L 172.00 29.00 L 188.00 29.00 L 193.00 37.00 L 196.00 79.00 L 193.00 91.00" stroke="black" fill="transparent"/>
</svg>