<?xml version="1.0" encoding="UTF-8" standalone="no"?>
<!--Created with ndjsontosvg(https:https://github.com/thompson318/ndjsontosvg) 
	from the simplified Google quickdraw data set. key_id = 5817828168957952-->
<svg width="256" height="256"
	xmlns="http://www.w3.org/2000/svg"
	xmlns:ndjsontosvg="https://github.com/thompson318/ndjsontosvg"
	xmlns:quickdraw="https://quickdraw.withgoogle.com/data"
	xmlns:scikit-surgery="https://doi.org/10.1007/s11548-020-02180-5">

	<rect width="100%" height="100%" fill="white" />
	<path d = "M 78.00 95.00 L 79.00 153.00 L 65.00 255.00 L 54.00 229.00 L 32.00 159.00 L 18.00 99.00 L 24.00 97.00 L 80.00 96.00" stroke="black" fill="transparent"/>
	<path d = "M 78.00 96.00 L 86.00 89.00 L 90.00 75.00 L 90.00 3.00 L 81.00 0.00 L 54.00 0.00 L 23.00 19.00 L 5.00 39.00 L 2.00 47.00 L 0.00 68.00 L 9.00 84.00 L 37.00 98.00 L 52.00 101.00 L 84.00 101.00 L 85.00 89.00" stroke="black" fill="transparent"/>
	<path d = "M 57.00 54.00 L 56.00 60.00" stroke="black" fill="transparent"/>
	<path d = "M 32.00 57.00 L 32.00 57.00" stroke="black" fill="transparent"/>
	<path d = "M 54.00 25.00 L 62.00 33.00" stroke="black" fill="transparent"/>
	<path d = "M 69.00 60.00 L 69.00 60.00" stroke="black" fill="transparent"/>
</svg>