<?xml version="1.0" encoding="UTF-8" standalone="no"?>
<!--Created with ndjsontosvg(https:https://github.com/thompson318/ndjsontosvg) 
	from the simplified Google quickdraw data set. key_id = 6101352801370112-->
<svg width="256" height="256"
	xmlns="http://www.w3.org/2000/svg"
	xmlns:ndjsontosvg="https://github.com/thompson318/ndjsontosvg"
	xmlns:quickdraw="https://quickdraw.withgoogle.com/data"
	xmlns:scikit-surgery="https://doi.org/10.1007/s11548-020-02180-5">

	<rect width="100%" height="100%" fill="white" />
	<path d = "M 16.00 122.00 L 58.00 255.00 L 84.00 165.00 L 93.00 107.00 L 1.00 115.00" stroke="black" fill="transparent"/>
	<path d = "M 10.00 81.00 L 2.00 88.00 L 0.00 101.00 L 6.00 109.00 L 15.00 112.00 L 39.00 111.00 L 57.00 97.00 L 63.00 82.00 L 44.00 70.00 L 17.00 60.00 L 7.00 62.00 L 6.00 73.00" stroke="black" fill="transparent"/>
	<path d = "M 93.00 51.00 L 81.00 58.00 L 76.00 65.00 L 74.00 77.00 L 74.00 85.00 L 86.00 95.00 L 106.00 102.00 L 123.00 101.00 L 140.00 90.00 L 145.00 81.00 L 145.00 71.00 L 123.00 57.00 L 95.00 54.00" stroke="black" fill="transparent"/>
	<path d = "M 46.00 0.00 L 40.00 10.00 L 40.00 27.00" stroke="black" fill="transparent"/>
</svg>