<?xml version="1.0" encoding="UTF-8" standalone="no"?>
<!--Created with ndjsontosvg(https:https://github.com/thompson318/ndjsontosvg) 
	from the simplified Google quickdraw data set. key_id = 5333047056531456-->
<svg width="256" height="256"
	xmlns="http://www.w3.org/2000/svg"
	xmlns:ndjsontosvg="https://github.com/thompson318/ndjsontosvg"
	xmlns:quickdraw="https://quickdraw.withgoogle.com/data"
	xmlns:scikit-surgery="https://doi.org/10.1007/s11548-020-02180-5">

	<rect width="100%" height="100%" fill="white" />
	<path d = "M 9.00 121.00 L 34.00 177.00 L 54.00 245.00 L 63.00 254.00 L 71.00 252.00 L 103.00 193.00 L 162.00 121.00 L 164.00 114.00 L 156.00 110.00 L 133.00 108.00 L 19.00 113.00" stroke="black" fill="transparent"/>
	<path d = "M 5.00 114.00 L 0.00 110.00 L 0.00 89.00 L 3.00 78.00 L 10.00 67.00 L 27.00 54.00 L 56.00 51.00 L 70.00 59.00 L 85.00 81.00 L 91.00 109.00 L 86.00 115.00 L 81.00 116.00" stroke="black" fill="transparent"/>
	<path d = "M 88.00 75.00 L 84.00 70.00 L 87.00 61.00 L 100.00 49.00 L 115.00 42.00 L 149.00 39.00 L 154.00 43.00 L 160.00 55.00 L 164.00 89.00 L 163.00 106.00 L 150.00 114.00" stroke="black" fill="transparent"/>
	<path d = "M 42.00 53.00 L 36.00 36.00 L 39.00 16.00 L 50.00 5.00 L 72.00 0.00 L 90.00 0.00 L 106.00 9.00 L 119.00 25.00 L 125.00 51.00" stroke="black" fill="transparent"/>
	<path d = "M 121.00 16.00 L 121.00 16.00" stroke="black" fill="transparent"/>
</svg>