<?xml version="1.0" encoding="UTF-8" standalone="no"?>
<!--Created with ndjsontosvg(https:https://github.com/thompson318/ndjsontosvg) 
	from the simplified Google quickdraw data set. key_id = 5446552090836992-->
<svg width="256" height="256"
	xmlns="http://www.w3.org/2000/svg"
	xmlns:ndjsontosvg="https://github.com/thompson318/ndjsontosvg"
	xmlns:quickdraw="https://quickdraw.withgoogle.com/data"
	xmlns:scikit-surgery="https://doi.org/10.1007/s11548-020-02180-5">

	<rect width="100%" height="100%" fill="white" />
	<path d = "M 21.00 95.00 L 81.00 255.00" stroke="black" fill="transparent"/>
	<path d = "M 81.00 255.00 L 112.00 146.00 L 137.00 98.00 L 139.00 86.00 L 133.00 83.00 L 115.00 83.00 L 80.00 89.00 L 19.00 90.00 L 10.00 94.00" stroke="black" fill="transparent"/>
	<path d = "M 130.00 76.00 L 131.00 57.00 L 127.00 44.00 L 108.00 24.00 L 93.00 20.00 L 72.00 28.00 L 64.00 38.00 L 60.00 57.00 L 60.00 77.00" stroke="black" fill="transparent"/>
	<path d = "M 55.00 78.00 L 48.00 53.00 L 36.00 35.00 L 26.00 26.00 L 13.00 27.00 L 6.00 41.00 L 0.00 69.00 L 1.00 83.00 L 9.00 96.00" stroke="black" fill="transparent"/>
	<path d = "M 88.00 23.00 L 84.00 17.00 L 64.00 6.00 L 50.00 1.00 L 36.00 0.00 L 31.00 6.00 L 31.00 43.00" stroke="black" fill="transparent"/>
</svg>