<?xml version="1.0" encoding="UTF-8" standalone="no"?>
<!--Created with ndjsontosvg(https:https://github.com/thompson318/ndjsontosvg) 
	from the simplified Google quickdraw data set. key_id = 5317923759456256-->
<svg width="256" height="256"
	xmlns="http://www.w3.org/2000/svg"
	xmlns:ndjsontosvg="https://github.com/thompson318/ndjsontosvg"
	xmlns:quickdraw="https://quickdraw.withgoogle.com/data"
	xmlns:scikit-surgery="https://doi.org/10.1007/s11548-020-02180-5">

	<rect width="100%" height="100%" fill="white" />
	<path d = "M 44.00 125.00 L 106.00 255.00" stroke="black" fill="transparent"/>
	<path d = "M 109.00 251.00 L 170.00 124.00" stroke="black" fill="transparent"/>
	<path d = "M 179.00 129.00 L 161.00 126.00 L 80.00 128.00 L 52.00 122.00" stroke="black" fill="transparent"/>
	<path d = "M 58.00 118.00 L 38.00 117.00 L 7.00 100.00 L 1.00 86.00 L 2.00 69.00 L 13.00 61.00 L 37.00 60.00 L 43.00 32.00 L 56.00 13.00 L 67.00 10.00 L 85.00 11.00 L 88.00 24.00 L 112.00 6.00 L 137.00 0.00 L 146.00 8.00 L 149.00 35.00 L 154.00 35.00 L 171.00 24.00 L 196.00 21.00 L 209.00 27.00 L 221.00 45.00 L 221.00 53.00 L 216.00 62.00 L 165.00 122.00" stroke="black" fill="transparent"/>
</svg>