<?xml version="1.0" encoding="UTF-8" standalone="no"?>
<!--Created with ndjsontosvg(https:https://github.com/thompson318/ndjsontosvg) 
	from the simplified Google quickdraw data set. key_id = 5348758269198336-->
<svg width="256" height="256"
	xmlns="http://www.w3.org/2000/svg"
	xmlns:ndjsontosvg="https://github.com/thompson318/ndjsontosvg"
	xmlns:quickdraw="https://quickdraw.withgoogle.com/data"
	xmlns:scikit-surgery="https://doi.org/10.1007/s11548-020-02180-5">

	<rect width="100%" height="100%" fill="white" />
	<path d = "M 52.00 105.00 L 36.00 102.00 L 6.00 82.00 L 0.00 70.00 L 3.00 59.00 L 12.00 50.00 L 20.00 50.00 L 51.00 67.00 L 51.00 38.00 L 61.00 20.00 L 92.00 3.00 L 103.00 0.00 L 132.00 3.00 L 163.00 21.00 L 173.00 36.00 L 174.00 53.00 L 171.00 68.00 L 162.00 78.00 L 151.00 81.00 L 176.00 64.00 L 200.00 62.00 L 207.00 68.00 L 211.00 78.00 L 209.00 95.00 L 202.00 105.00 L 185.00 114.00 L 163.00 117.00 L 82.00 113.00 L 54.00 106.00" stroke="black" fill="transparent"/>
	<path d = "M 50.00 126.00 L 80.00 165.00 L 130.00 246.00 L 142.00 255.00 L 147.00 251.00 L 154.00 236.00 L 174.00 152.00 L 184.00 127.00" stroke="black" fill="transparent"/>
	<path d = "M 198.00 102.00 L 198.00 102.00" stroke="black" fill="transparent"/>
</svg>