<?xml version="1.0" encoding="UTF-8" standalone="no"?>
<!--Created with ndjsontosvg(https:https://github.com/thompson318/ndjsontosvg) 
	from the simplified Google quickdraw data set. key_id = 5992971180703744-->
<svg width="256" height="256"
	xmlns="http://www.w3.org/2000/svg"
	xmlns:ndjsontosvg="https://github.com/thompson318/ndjsontosvg"
	xmlns:quickdraw="https://quickdraw.withgoogle.com/data"
	xmlns:scikit-surgery="https://doi.org/10.1007/s11548-020-02180-5">

	<rect width="100%" height="100%" fill="white" />
	<path d = "M 4.00 99.00 L 42.00 255.00 L 64.00 149.00 L 79.00 100.00 L 72.00 96.00 L 24.00 96.00 L 8.00 93.00 L 0.00 75.00 L 0.00 58.00 L 3.00 51.00 L 13.00 48.00 L 33.00 48.00 L 40.00 58.00 L 38.00 85.00 L 37.00 73.00 L 50.00 50.00 L 62.00 40.00 L 77.00 40.00 L 82.00 43.00 L 84.00 53.00 L 83.00 75.00 L 52.00 87.00" stroke="black" fill="transparent"/>
	<path d = "M 40.00 45.00 L 26.00 32.00 L 25.00 14.00 L 30.00 6.00 L 47.00 0.00 L 62.00 2.00 L 65.00 7.00 L 64.00 29.00 L 42.00 52.00" stroke="black" fill="transparent"/>
	<path d = "M 44.00 100.00 L 39.00 102.00 L 11.00 139.00" stroke="black" fill="transparent"/>
	<path d = "M 71.00 98.00 L 55.00 108.00 L 42.00 122.00 L 28.00 145.00" stroke="black" fill="transparent"/>
</svg>