<?xml version="1.0" encoding="UTF-8" standalone="no"?>
<!--Created with ndjsontosvg(https:https://github.com/thompson318/ndjsontosvg) 
	from the simplified Google quickdraw data set. key_id = 6139729642782720-->
<svg width="256" height="256"
	xmlns="http://www.w3.org/2000/svg"
	xmlns:ndjsontosvg="https://github.com/thompson318/ndjsontosvg"
	xmlns:quickdraw="https://quickdraw.withgoogle.com/data"
	xmlns:scikit-surgery="https://doi.org/10.1007/s11548-020-02180-5">

	<rect width="100%" height="100%" fill="white" />
	<path d = "M 16.00 106.00 L 41.00 180.00 L 73.00 255.00 L 82.00 177.00 L 97.00 109.00 L 104.00 91.00 L 97.00 87.00 L 87.00 87.00 L 6.00 97.00" stroke="black" fill="transparent"/>
	<path d = "M 9.00 94.00 L 2.00 91.00 L 0.00 57.00 L 9.00 35.00 L 21.00 19.00 L 33.00 9.00 L 63.00 0.00 L 99.00 0.00 L 111.00 7.00 L 130.00 26.00 L 136.00 44.00 L 136.00 63.00 L 133.00 71.00 L 125.00 78.00 L 102.00 92.00 L 77.00 93.00" stroke="black" fill="transparent"/>
	<path d = "M 34.00 142.00 L 53.00 142.00 L 113.00 120.00" stroke="black" fill="transparent"/>
</svg>