<?xml version="1.0" encoding="UTF-8" standalone="no"?>
<!--Created with ndjsontosvg(https:https://github.com/thompson318/ndjsontosvg) 
	from the simplified Google quickdraw data set. key_id = 5638644167606272-->
<svg width="256" height="256"
	xmlns="http://www.w3.org/2000/svg"
	xmlns:ndjsontosvg="https://github.com/thompson318/ndjsontosvg"
	xmlns:quickdraw="https://quickdraw.withgoogle.com/data"
	xmlns:scikit-surgery="https://doi.org/10.1007/s11548-020-02180-5">

	<rect width="100%" height="100%" fill="white" />
	<path d = "M 7.00 78.00 L 18.00 102.00 L 33.00 218.00 L 33.00 255.00 L 45.00 217.00 L 70.00 160.00 L 96.00 109.00 L 127.00 61.00" stroke="black" fill="transparent"/>
	<path d = "M 19.00 75.00 L 78.00 76.00 L 121.00 61.00 L 125.00 53.00 L 93.00 49.00 L 55.00 49.00 L 41.00 52.00 L 16.00 72.00 L 2.00 93.00 L 0.00 106.00 L 22.00 107.00" stroke="black" fill="transparent"/>
	<path d = "M 22.00 59.00 L 11.00 53.00 L 7.00 44.00 L 3.00 29.00 L 5.00 12.00 L 28.00 6.00 L 51.00 8.00 L 54.00 14.00 L 54.00 30.00 L 41.00 45.00 L 37.00 47.00 L 34.00 43.00" stroke="black" fill="transparent"/>
	<path d = "M 73.00 38.00 L 72.00 10.00 L 80.00 3.00 L 125.00 0.00 L 142.00 6.00 L 147.00 18.00 L 148.00 28.00 L 145.00 36.00 L 137.00 49.00 L 88.00 50.00" stroke="black" fill="transparent"/>
</svg>