<?xml version="1.0" encoding="UTF-8" standalone="no"?>
<!--Created with ndjsontosvg(https:https://github.com/thompson318/ndjsontosvg) 
	from the simplified Google quickdraw data set. key_id = 5948919596974080-->
<svg width="256" height="256"
	xmlns="http://www.w3.org/2000/svg"
	xmlns:ndjsontosvg="https://github.com/thompson318/ndjsontosvg"
	xmlns:quickdraw="https://quickdraw.withgoogle.com/data"
	xmlns:scikit-surgery="https://doi.org/10.1007/s11548-020-02180-5">

	<rect width="100%" height="100%" fill="white" />
	<path d = "M 26.00 81.00 L 26.00 81.00" stroke="black" fill="transparent"/>
	<path d = "M 29.00 90.00 L 45.00 129.00 L 89.00 203.00 L 113.00 255.00 L 123.00 184.00 L 151.00 94.00 L 147.00 91.00 L 77.00 82.00 L 29.00 82.00" stroke="black" fill="transparent"/>
	<path d = "M 29.00 82.00 L 4.00 48.00 L 0.00 37.00 L 1.00 22.00 L 10.00 14.00 L 28.00 5.00 L 82.00 0.00 L 111.00 5.00 L 120.00 10.00 L 134.00 28.00 L 149.00 66.00 L 144.00 89.00" stroke="black" fill="transparent"/>
	<path d = "M 40.00 141.00 L 60.00 103.00 L 92.00 59.00 L 96.00 77.00 L 96.00 114.00 L 83.00 162.00 L 132.00 74.00 L 134.00 102.00 L 111.00 167.00 L 97.00 216.00 L 95.00 199.00" stroke="black" fill="transparent"/>
	<path d = "M 54.00 121.00 L 73.00 137.00 L 96.00 164.00 L 97.00 151.00 L 74.00 100.00 L 67.00 87.00 L 47.00 67.00" stroke="black" fill="transparent"/>
</svg>