<?xml version="1.0" encoding="UTF-8" standalone="no"?>
<!--Created with ndjsontosvg(https:https://github.com/thompson318/ndjsontosvg) 
	from the simplified Google quickdraw data set. key_id = 5382897567531008-->
<svg width="256" height="256"
	xmlns="http://www.w3.org/2000/svg"
	xmlns:ndjsontosvg="https://github.com/thompson318/ndjsontosvg"
	xmlns:quickdraw="https://quickdraw.withgoogle.com/data"
	xmlns:scikit-surgery="https://doi.org/10.1007/s11548-020-02180-5">

	<rect width="100%" height="100%" fill="white" />
	<path d = "M 7.00 106.00 L 33.00 167.00 L 63.00 216.00 L 83.00 255.00 L 100.00 209.00 L 121.00 103.00" stroke="black" fill="transparent"/>
	<path d = "M 10.00 101.00 L 70.00 105.00 L 118.00 104.00 L 138.00 96.00 L 143.00 82.00 L 140.00 77.00 L 122.00 72.00 L 82.00 70.00 L 109.00 70.00 L 115.00 59.00 L 101.00 50.00 L 69.00 47.00 L 84.00 48.00 L 87.00 40.00 L 82.00 34.00 L 71.00 29.00 L 67.00 2.00 L 64.00 0.00 L 60.00 4.00 L 59.00 19.00 L 23.00 35.00 L 23.00 39.00 L 42.00 44.00 L 20.00 45.00 L 0.00 52.00" stroke="black" fill="transparent"/>
</svg>