<?xml version="1.0" encoding="UTF-8" standalone="no"?>
<!--Created with ndjsontosvg(https:https://github.com/thompson318/ndjsontosvg) 
	from the simplified Google quickdraw data set. key_id = 4891755189108736-->
<svg width="256" height="256"
	xmlns="http://www.w3.org/2000/svg"
	xmlns:ndjsontosvg="https://github.com/thompson318/ndjsontosvg"
	xmlns:quickdraw="https://quickdraw.withgoogle.com/data"
	xmlns:scikit-surgery="https://doi.org/10.1007/s11548-020-02180-5">

	<rect width="100%" height="100%" fill="white" />
	<path d = "M 23.00 34.00 L 9.00 31.00 L 3.00 36.00 L 2.00 74.00 L 41.00 189.00 L 53.00 255.00 L 76.00 174.00 L 99.00 75.00 L 116.00 36.00 L 90.00 49.00 L 65.00 56.00 L 16.00 58.00 L 8.00 54.00 L 0.00 44.00 L 1.00 25.00 L 13.00 12.00 L 33.00 2.00 L 76.00 1.00 L 88.00 7.00 L 101.00 20.00 L 104.00 33.00 L 102.00 39.00 L 98.00 42.00" stroke="black" fill="transparent"/>
	<path d = "M 24.00 62.00 L 19.00 65.00 L 15.00 76.00 L 57.00 87.00 L 81.00 100.00 L 87.00 105.00 L 83.00 105.00" stroke="black" fill="transparent"/>
	<path d = "M 9.00 123.00 L 26.00 121.00 L 67.00 136.00 L 79.00 136.00 L 76.00 132.00" stroke="black" fill="transparent"/>
	<path d = "M 32.00 145.00 L 67.00 161.00" stroke="black" fill="transparent"/>
</svg>