<?xml version="1.0" encoding="UTF-8" standalone="no"?>
<!--Created with ndjsontosvg(https:https://github.com/thompson318/ndjsontosvg) 
	from the simplified Google quickdraw data set. key_id = 4893561361268736-->
<svg width="256" height="256"
	xmlns="http://www.w3.org/2000/svg"
	xmlns:ndjsontosvg="https://github.com/thompson318/ndjsontosvg"
	xmlns:quickdraw="https://quickdraw.withgoogle.com/data"
	xmlns:scikit-surgery="https://doi.org/10.1007/s11548-020-02180-5">

	<rect width="100%" height="100%" fill="white" />
	<path d = "M 23.00 89.00 L 45.00 95.00 L 158.00 89.00 L 165.00 92.00 L 145.00 125.00 L 114.00 189.00 L 105.00 211.00 L 94.00 255.00" stroke="black" fill="transparent"/>
	<path d = "M 19.00 93.00 L 57.00 155.00 L 88.00 224.00" stroke="black" fill="transparent"/>
	<path d = "M 20.00 88.00 L 7.00 76.00 L 0.00 55.00 L 10.00 28.00 L 25.00 15.00 L 47.00 5.00 L 89.00 0.00 L 118.00 5.00 L 137.00 12.00 L 150.00 20.00 L 164.00 39.00 L 173.00 60.00 L 175.00 74.00 L 167.00 93.00 L 159.00 99.00" stroke="black" fill="transparent"/>
	<path d = "M 120.00 20.00 L 111.00 35.00" stroke="black" fill="transparent"/>
</svg>