<?xml version="1.0" encoding="UTF-8" standalone="no"?>
<!--Created with ndjsontosvg(https:https://github.com/thompson318/ndjsontosvg) 
	from the simplified Google quickdraw data set. key_id = 5566682070253568-->
<svg width="256" height="256"
	xmlns="http://www.w3.org/2000/svg"
	xmlns:ndjsontosvg="https://github.com/thompson318/ndjsontosvg"
	xmlns:quickdraw="https://quickdraw.withgoogle.com/data"
	xmlns:scikit-surgery="https://doi.org/10.1007/s11548-020-02180-5">

	<rect width="100%" height="100%" fill="white" />
	<path d = "M 28.00 94.00 L 31.00 222.00 L 35.00 255.00 L 71.00 193.00 L 105.00 103.00 L 94.00 95.00 L 33.00 82.00 L 6.00 79.00 L 0.00 79.00 L 3.00 81.00" stroke="black" fill="transparent"/>
	<path d = "M 31.00 38.00 L 16.00 55.00 L 6.00 83.00 L 8.00 94.00 L 14.00 99.00 L 24.00 95.00 L 33.00 78.00 L 33.00 71.00 L 25.00 56.00 L 18.00 50.00" stroke="black" fill="transparent"/>
	<path d = "M 76.00 46.00 L 58.00 47.00 L 36.00 65.00 L 32.00 81.00 L 34.00 89.00 L 43.00 91.00 L 58.00 83.00 L 66.00 71.00 L 63.00 56.00" stroke="black" fill="transparent"/>
	<path d = "M 88.00 51.00 L 74.00 56.00 L 63.00 70.00 L 58.00 82.00 L 59.00 94.00 L 71.00 98.00 L 88.00 85.00 L 94.00 74.00 L 91.00 60.00" stroke="black" fill="transparent"/>
	<path d = "M 89.00 19.00 L 77.00 21.00 L 69.00 33.00 L 67.00 45.00 L 68.00 57.00 L 82.00 60.00 L 97.00 53.00 L 100.00 37.00 L 94.00 25.00" stroke="black" fill="transparent"/>
	<path d = "M 53.00 0.00 L 43.00 6.00 L 23.00 29.00 L 14.00 47.00 L 26.00 57.00 L 48.00 60.00 L 58.00 49.00 L 60.00 33.00 L 57.00 27.00" stroke="black" fill="transparent"/>
</svg>