<?xml version="1.0" encoding="UTF-8" standalone="no"?>
<!--Created with ndjsontosvg(https:https://github.com/thompson318/ndjsontosvg) 
	from the simplified Google quickdraw data set. key_id = 4593798829047808-->
<svg width="256" height="256"
	xmlns="http://www.w3.org/2000/svg"
	xmlns:ndjsontosvg="https://github.com/thompson318/ndjsontosvg"
	xmlns:quickdraw="https://quickdraw.withgoogle.com/data"
	xmlns:scikit-surgery="https://doi.org/10.1007/s11548-020-02180-5">

	<rect width="100%" height="100%" fill="white" />
	<path d = "M 192.00 110.00 L 181.00 127.00 L 176.00 152.00 L 165.00 173.00 L 137.00 255.00 L 132.00 230.00 L 121.00 200.00 L 99.00 170.00 L 92.00 145.00 L 79.00 127.00 L 74.00 113.00 L 148.00 98.00 L 165.00 92.00 L 196.00 101.00" stroke="black" fill="transparent"/>
	<path d = "M 194.00 104.00 L 226.00 96.00 L 230.00 92.00 L 229.00 61.00 L 219.00 24.00 L 208.00 13.00 L 201.00 9.00 L 178.00 3.00 L 149.00 0.00 L 112.00 7.00 L 86.00 19.00 L 62.00 36.00 L 7.00 79.00 L 0.00 97.00 L 9.00 106.00" stroke="black" fill="transparent"/>
</svg>