<?xml version="1.0" encoding="UTF-8" standalone="no"?>
<!--Created with ndjsontosvg(https:https://github.com/thompson318/ndjsontosvg) 
	from the simplified Google quickdraw data set. key_id = 5730053197398016-->
<svg width="256" height="256"
	xmlns="http://www.w3.org/2000/svg"
	xmlns:ndjsontosvg="https://github.com/thompson318/ndjsontosvg"
	xmlns:quickdraw="https://quickdraw.withgoogle.com/data"
	xmlns:scikit-surgery="https://doi.org/10.1007/s11548-020-02180-5">

	<rect width="100%" height="100%" fill="white" />
	<path d = "M 100.00 166.00 L 138.00 239.00 L 147.00 255.00 L 150.00 255.00 L 212.00 208.00 L 226.00 183.00 L 230.00 160.00 L 209.00 154.00 L 145.00 154.00 L 96.00 167.00" stroke="black" fill="transparent"/>
	<path d = "M 135.00 156.00 L 152.00 199.00 L 158.00 224.00" stroke="black" fill="transparent"/>
	<path d = "M 190.00 172.00 L 157.00 214.00 L 147.00 239.00 L 156.00 228.00" stroke="black" fill="transparent"/>
	<path d = "M 190.00 167.00 L 183.00 179.00 L 168.00 224.00 L 157.00 245.00" stroke="black" fill="transparent"/>
	<path d = "M 212.00 163.00 L 185.00 198.00 L 135.00 237.00 L 130.00 240.00 L 135.00 231.00" stroke="black" fill="transparent"/>
	<path d = "M 179.00 175.00 L 142.00 202.00 L 132.00 213.00 L 131.00 217.00 L 136.00 212.00" stroke="black" fill="transparent"/>
	<path d = "M 164.00 176.00 L 120.00 200.00 L 132.00 196.00" stroke="black" fill="transparent"/>
	<path d = "M 174.00 167.00 L 164.00 173.00" stroke="black" fill="transparent"/>
	<path d = "M 131.00 173.00 L 177.00 199.00 L 194.00 216.00" stroke="black" fill="transparent"/>
	<path d = "M 126.00 187.00 L 158.00 218.00" stroke="black" fill="transparent"/>
	<path d = "M 115.00 163.00 L 114.00 170.00 L 119.00 171.00 L 132.00 160.00 L 140.00 165.00 L 150.00 166.00 L 192.00 156.00 L 205.00 167.00 L 237.00 166.00 L 249.00 146.00 L 246.00 126.00" stroke="black" fill="transparent"/>
	<path d = "M 247.00 126.00 L 240.00 109.00 L 222.00 90.00 L 152.00 90.00 L 128.00 95.00 L 92.00 118.00 L 80.00 146.00 L 82.00 163.00 L 90.00 171.00 L 107.00 172.00 L 122.00 163.00" stroke="black" fill="transparent"/>
	<path d = "M 109.00 131.00 L 126.00 129.00" stroke="black" fill="transparent"/>
	<path d = "M 169.00 112.00 L 180.00 123.00" stroke="black" fill="transparent"/>
	<path d = "M 176.00 138.00 L 189.00 140.00" stroke="black" fill="transparent"/>
	<path d = "M 209.00 120.00 L 221.00 134.00" stroke="black" fill="transparent"/>
	<path d = "M 155.00 129.00 L 145.00 136.00" stroke="black" fill="transparent"/>
	<path d = "M 56.00 97.00 L 58.00 111.00 L 88.00 130.00 L 107.00 127.00 L 117.00 119.00 L 133.00 92.00 L 135.00 78.00 L 124.00 73.00 L 98.00 82.00 L 90.00 73.00 L 90.00 58.00" stroke="black" fill="transparent"/>
	<path d = "M 90.00 56.00 L 45.00 134.00 L 40.00 150.00 L 35.00 153.00 L 30.00 153.00 L 18.00 137.00 L 8.00 118.00 L 3.00 99.00 L 0.00 58.00 L 16.00 29.00 L 26.00 20.00 L 51.00 8.00 L 81.00 1.00 L 99.00 0.00 L 107.00 4.00 L 116.00 18.00 L 120.00 33.00 L 119.00 44.00" stroke="black" fill="transparent"/>
</svg>