<?xml version="1.0" encoding="UTF-8" standalone="no"?>
<!--Created with ndjsontosvg(https:https://github.com/thompson318/ndjsontosvg) 
	from the simplified Google quickdraw data set. key_id = 5917550598684672-->
<svg width="256" height="256"
	xmlns="http://www.w3.org/2000/svg"
	xmlns:ndjsontosvg="https://github.com/thompson318/ndjsontosvg"
	xmlns:quickdraw="https://quickdraw.withgoogle.com/data"
	xmlns:scikit-surgery="https://doi.org/10.1007/s11548-020-02180-5">

	<rect width="100%" height="100%" fill="white" />
	<path d = "M 0.00 15.00 L 0.00 31.00 L 13.00 60.00 L 17.00 90.00 L 31.00 144.00 L 32.00 162.00 L 49.00 212.00 L 56.00 255.00 L 60.00 255.00 L 65.00 248.00 L 84.00 217.00 L 114.00 129.00 L 154.00 91.00 L 171.00 69.00 L 214.00 22.00 L 223.00 5.00 L 187.00 0.00 L 53.00 2.00 L 3.00 10.00" stroke="black" fill="transparent"/>
	<path d = "M 6.00 56.00 L 17.00 63.00 L 51.00 68.00 L 168.00 67.00" stroke="black" fill="transparent"/>
	<path d = "M 30.00 141.00 L 34.00 147.00 L 79.00 148.00 L 121.00 137.00" stroke="black" fill="transparent"/>
	<path d = "M 43.00 203.00 L 73.00 205.00 L 105.00 194.00 L 106.00 191.00" stroke="black" fill="transparent"/>
	<path d = "M 69.00 13.00 L 84.00 100.00 L 83.00 180.00" stroke="black" fill="transparent"/>
</svg>