<?xml version="1.0" encoding="UTF-8" standalone="no"?>
<!--Created with ndjsontosvg(https:https://github.com/thompson318/ndjsontosvg) 
	from the simplified Google quickdraw data set. key_id = 5050484060585984-->
<svg width="256" height="256"
	xmlns="http://www.w3.org/2000/svg"
	xmlns:ndjsontosvg="https://github.com/thompson318/ndjsontosvg"
	xmlns:quickdraw="https://quickdraw.withgoogle.com/data"
	xmlns:scikit-surgery="https://doi.org/10.1007/s11548-020-02180-5">

	<rect width="100%" height="100%" fill="white" />
	<path d = "M 19.00 83.00 L 19.00 134.00 L 29.00 165.00 L 73.00 226.00 L 100.00 255.00 L 95.00 239.00 L 93.00 205.00 L 115.00 132.00 L 107.00 102.00 L 107.00 62.00 L 64.00 62.00 L 34.00 67.00 L 18.00 76.00 L 0.00 95.00" stroke="black" fill="transparent"/>
	<path d = "M 28.00 64.00 L 21.00 59.00 L 12.00 44.00 L 10.00 30.00 L 11.00 10.00 L 24.00 3.00 L 79.00 0.00 L 93.00 7.00 L 111.00 32.00 L 114.00 41.00 L 108.00 50.00 L 99.00 57.00 L 79.00 62.00 L 36.00 66.00 L 24.00 63.00" stroke="black" fill="transparent"/>
</svg>