<?xml version="1.0" encoding="UTF-8" standalone="no"?>
<!--Created with ndjsontosvg(https:https://github.com/thompson318/ndjsontosvg) 
	from the simplified Google quickdraw data set. key_id = 5205921716240384-->
<svg width="256" height="256"
	xmlns="http://www.w3.org/2000/svg"
	xmlns:ndjsontosvg="https://github.com/thompson318/ndjsontosvg"
	xmlns:quickdraw="https://quickdraw.withgoogle.com/data"
	xmlns:scikit-surgery="https://doi.org/10.1007/s11548-020-02180-5">

	<rect width="100%" height="100%" fill="white" />
	<path d = "M 27.00 132.00 L 22.00 146.00 L 26.00 157.00 L 35.00 152.00 L 40.00 140.00 L 45.00 151.00 L 55.00 152.00 L 64.00 140.00 L 62.00 137.00 L 61.00 150.00 L 70.00 155.00 L 81.00 150.00 L 85.00 144.00 L 83.00 141.00 L 84.00 146.00 L 88.00 148.00 L 99.00 148.00 L 108.00 139.00 L 108.00 134.00 L 105.00 133.00 L 101.00 137.00 L 101.00 144.00 L 104.00 147.00 L 110.00 147.00 L 121.00 139.00 L 126.00 130.00 L 123.00 129.00 L 118.00 137.00 L 121.00 142.00 L 136.00 132.00 L 143.00 118.00 L 137.00 119.00 L 131.00 124.00 L 145.00 114.00 L 153.00 98.00 L 151.00 77.00 L 128.00 37.00 L 102.00 11.00 L 89.00 4.00 L 72.00 0.00 L 54.00 1.00 L 29.00 9.00 L 12.00 25.00 L 1.00 50.00 L 2.00 89.00 L 14.00 140.00" stroke="black" fill="transparent"/>
	<path d = "M 34.00 158.00 L 54.00 213.00 L 82.00 255.00 L 97.00 232.00 L 135.00 133.00" stroke="black" fill="transparent"/>
</svg>