<?xml version="1.0" encoding="UTF-8" standalone="no"?>
<!--Created with ndjsontosvg(https:https://github.com/thompson318/ndjsontosvg) 
	from the simplified Google quickdraw data set. key_id = 6421695889932288-->
<svg width="256" height="256"
	xmlns="http://www.w3.org/2000/svg"
	xmlns:ndjsontosvg="https://github.com/thompson318/ndjsontosvg"
	xmlns:quickdraw="https://quickdraw.withgoogle.com/data"
	xmlns:scikit-surgery="https://doi.org/10.1007/s11548-020-02180-5">

	<rect width="100%" height="100%" fill="white" />
	<path d = "M 33.00 38.00 L 29.00 34.00 L 20.00 32.00 L 2.00 60.00 L 0.00 79.00 L 8.00 104.00 L 16.00 112.00 L 22.00 112.00 L 44.00 101.00 L 63.00 84.00 L 58.00 70.00 L 77.00 159.00 L 103.00 250.00 L 104.00 254.00 L 109.00 255.00 L 127.00 253.00 L 136.00 245.00 L 157.00 239.00 L 157.00 226.00 L 112.00 121.00 L 91.00 85.00 L 71.00 40.00 L 62.00 0.00 L 39.00 3.00 L 22.00 12.00 L 17.00 22.00 L 17.00 39.00 L 22.00 44.00" stroke="black" fill="transparent"/>
</svg>