<?xml version="1.0" encoding="UTF-8" standalone="no"?>
<!--Created with ndjsontosvg(https:https://github.com/thompson318/ndjsontosvg) 
	from the simplified Google quickdraw data set. key_id = 5174155064377344-->
<svg width="256" height="256"
	xmlns="http://www.w3.org/2000/svg"
	xmlns:ndjsontosvg="https://github.com/thompson318/ndjsontosvg"
	xmlns:quickdraw="https://quickdraw.withgoogle.com/data"
	xmlns:scikit-surgery="https://doi.org/10.1007/s11548-020-02180-5">

	<rect width="100%" height="100%" fill="white" />
	<path d = "M 175.00 29.00 L 105.00 32.00 L 102.00 15.00 L 86.00 13.00 L 84.00 16.00 L 87.00 36.00 L 56.00 39.00 L 51.00 16.00 L 34.00 16.00 L 32.00 44.00 L 34.00 62.00 L 10.00 64.00 L 1.00 69.00 L 1.00 79.00 L 31.00 78.00 L 119.00 57.00 L 195.00 46.00 L 213.00 69.00 L 239.00 68.00 L 250.00 59.00 L 255.00 34.00 L 254.00 21.00 L 242.00 6.00 L 224.00 0.00 L 187.00 0.00 L 182.00 5.00 L 175.00 18.00 L 177.00 32.00" stroke="black" fill="transparent"/>
	<path d = "M 224.00 40.00 L 218.00 37.00 L 213.00 27.00 L 212.00 21.00 L 218.00 17.00 L 230.00 25.00 L 228.00 37.00 L 222.00 40.00" stroke="black" fill="transparent"/>
</svg>