<?xml version="1.0" encoding="UTF-8" standalone="no"?>
<!--Created with ndjsontosvg(https:https://github.com/thompson318/ndjsontosvg) 
	from the simplified Google quickdraw data set. key_id = 5924545036812288-->
<svg width="256" height="256"
	xmlns="http://www.w3.org/2000/svg"
	xmlns:ndjsontosvg="https://github.com/thompson318/ndjsontosvg"
	xmlns:quickdraw="https://quickdraw.withgoogle.com/data"
	xmlns:scikit-surgery="https://doi.org/10.1007/s11548-020-02180-5">

	<rect width="100%" height="100%" fill="white" />
	<path d = "M 30.00 95.00 L 24.00 201.00" stroke="black" fill="transparent"/>
	<path d = "M 27.00 93.00 L 8.00 77.00 L 1.00 62.00 L 0.00 38.00 L 7.00 24.00 L 24.00 8.00 L 46.00 1.00 L 76.00 1.00 L 94.00 13.00 L 103.00 30.00 L 104.00 47.00 L 100.00 59.00 L 84.00 79.00 L 67.00 91.00 L 57.00 92.00 L 56.00 96.00 L 57.00 171.00 L 63.00 173.00 L 99.00 169.00 L 103.00 169.00 L 104.00 173.00 L 101.00 197.00 L 56.00 202.00 L 53.00 223.00 L 93.00 223.00 L 96.00 248.00 L 93.00 252.00 L 19.00 255.00 L 18.00 233.00 L 24.00 190.00" stroke="black" fill="transparent"/>
</svg>