<?xml version="1.0" encoding="UTF-8" standalone="no"?>
<!--Created with ndjsontosvg(https:https://github.com/thompson318/ndjsontosvg) 
	from the simplified Google quickdraw data set. key_id = 6221729208729600-->
<svg width="256" height="256"
	xmlns="http://www.w3.org/2000/svg"
	xmlns:ndjsontosvg="https://github.com/thompson318/ndjsontosvg"
	xmlns:quickdraw="https://quickdraw.withgoogle.com/data"
	xmlns:scikit-surgery="https://doi.org/10.1007/s11548-020-02180-5">

	<rect width="100%" height="100%" fill="white" />
	<path d = "M 240.00 23.00 L 224.00 5.00 L 200.00 0.00 L 192.00 1.00 L 179.00 10.00 L 174.00 15.00 L 170.00 28.00 L 171.00 37.00 L 185.00 50.00 L 209.00 59.00 L 232.00 60.00 L 246.00 54.00 L 254.00 40.00 L 254.00 18.00 L 241.00 11.00" stroke="black" fill="transparent"/>
	<path d = "M 167.00 6.00 L 3.00 8.00 L 0.00 31.00 L 2.00 47.00 L 43.00 47.00 L 70.00 38.00 L 65.00 19.00 L 108.00 21.00 L 108.00 47.00 L 139.00 51.00 L 142.00 48.00 L 143.00 25.00 L 166.00 23.00" stroke="black" fill="transparent"/>
</svg>