<?xml version="1.0" encoding="UTF-8" standalone="no"?>
<!--Created with ndjsontosvg(https:https://github.com/thompson318/ndjsontosvg) 
	from the simplified Google quickdraw data set. key_id = 6689252324671488-->
<svg width="256" height="256"
	xmlns="http://www.w3.org/2000/svg"
	xmlns:ndjsontosvg="https://github.com/thompson318/ndjsontosvg"
	xmlns:quickdraw="https://quickdraw.withgoogle.com/data"
	xmlns:scikit-surgery="https://doi.org/10.1007/s11548-020-02180-5">

	<rect width="100%" height="100%" fill="white" />
	<path d = "M 12.00 102.00 L 4.00 87.00 L 0.00 61.00 L 6.00 11.00 L 12.00 1.00 L 24.00 4.00 L 54.00 25.00 L 71.00 79.00 L 67.00 95.00 L 43.00 97.00 L 47.00 133.00 L 43.00 182.00 L 46.00 186.00 L 54.00 187.00 L 56.00 191.00 L 57.00 199.00 L 53.00 199.00 L 51.00 204.00 L 52.00 236.00 L 61.00 234.00 L 75.00 238.00 L 75.00 252.00 L 68.00 255.00 L 47.00 249.00 L 35.00 253.00 L 27.00 251.00 L 23.00 246.00 L 21.00 206.00 L 24.00 106.00" stroke="black" fill="transparent"/>
</svg>