<?xml version="1.0" encoding="UTF-8" standalone="no"?>
<!--Created with ndjsontosvg(https:https://github.com/thompson318/ndjsontosvg) 
	from the simplified Google quickdraw data set. key_id = 4919118425751552-->
<svg width="256" height="256"
	xmlns="http://www.w3.org/2000/svg"
	xmlns:ndjsontosvg="https://github.com/thompson318/ndjsontosvg"
	xmlns:quickdraw="https://quickdraw.withgoogle.com/data"
	xmlns:scikit-surgery="https://doi.org/10.1007/s11548-020-02180-5">

	<rect width="100%" height="100%" fill="white" />
	<path d = "M 33.00 105.00 L 11.00 85.00 L 0.00 57.00 L 0.00 34.00 L 7.00 19.00 L 14.00 12.00 L 54.00 0.00 L 67.00 0.00 L 84.00 5.00 L 96.00 19.00 L 103.00 42.00 L 105.00 63.00 L 98.00 92.00 L 78.00 121.00 L 81.00 211.00 L 75.00 249.00 L 70.00 255.00 L 51.00 208.00 L 54.00 203.00 L 58.00 187.00 L 54.00 184.00 L 63.00 171.00 L 51.00 166.00 L 57.00 143.00 L 46.00 125.00 L 42.00 104.00 L 33.00 97.00" stroke="black" fill="transparent"/>
	<path d = "M 41.00 47.00 L 39.00 53.00 L 47.00 63.00 L 60.00 59.00 L 64.00 54.00 L 62.00 37.00 L 45.00 32.00 L 41.00 35.00" stroke="black" fill="transparent"/>
	<path d = "M 27.00 96.00 L 43.00 100.00 L 52.00 128.00 L 49.00 151.00 L 37.00 164.00 L 67.00 169.00 L 66.00 177.00 L 54.00 199.00 L 39.00 212.00 L 58.00 220.00 L 61.00 247.00" stroke="black" fill="transparent"/>
</svg>