<?xml version="1.0" encoding="UTF-8" standalone="no"?>
<!--Created with ndjsontosvg(https:https://github.com/thompson318/ndjsontosvg) 
	from the simplified Google quickdraw data set. key_id = 5425151371902976-->
<svg width="256" height="256"
	xmlns="http://www.w3.org/2000/svg"
	xmlns:ndjsontosvg="https://github.com/thompson318/ndjsontosvg"
	xmlns:quickdraw="https://quickdraw.withgoogle.com/data"
	xmlns:scikit-surgery="https://doi.org/10.1007/s11548-020-02180-5">

	<rect width="100%" height="100%" fill="white" />
	<path d = "M 36.00 170.00 L 25.00 164.00 L 9.00 172.00 L 0.00 194.00 L 0.00 228.00 L 15.00 243.00 L 30.00 251.00 L 75.00 255.00 L 90.00 241.00 L 95.00 221.00 L 97.00 201.00 L 84.00 187.00 L 64.00 175.00 L 40.00 169.00" stroke="black" fill="transparent"/>
	<path d = "M 52.00 169.00 L 74.00 132.00 L 119.00 79.00" stroke="black" fill="transparent"/>
	<path d = "M 72.00 185.00 L 82.00 158.00 L 94.00 142.00 L 133.00 101.00" stroke="black" fill="transparent"/>
	<path d = "M 127.00 72.00 L 107.00 67.00 L 100.00 61.00 L 101.00 38.00 L 108.00 35.00 L 134.00 48.00 L 142.00 48.00 L 149.00 42.00 L 122.00 25.00 L 117.00 18.00 L 119.00 9.00 L 131.00 0.00 L 154.00 0.00 L 171.00 9.00 L 177.00 17.00 L 179.00 34.00 L 172.00 55.00 L 158.00 79.00 L 136.00 107.00" stroke="black" fill="transparent"/>
</svg>