<?xml version="1.0" encoding="UTF-8" standalone="no"?>
<!--Created with ndjsontosvg(https:https://github.com/thompson318/ndjsontosvg) 
	from the simplified Google quickdraw data set. key_id = 6186838052044800-->
<svg width="256" height="256"
	xmlns="http://www.w3.org/2000/svg"
	xmlns:ndjsontosvg="https://github.com/thompson318/ndjsontosvg"
	xmlns:quickdraw="https://quickdraw.withgoogle.com/data"
	xmlns:scikit-surgery="https://doi.org/10.1007/s11548-020-02180-5">

	<rect width="100%" height="100%" fill="white" />
	<path d = "M 76.00 27.00 L 75.00 17.00 L 69.00 7.00 L 62.00 1.00 L 51.00 0.00 L 31.00 6.00 L 8.00 27.00 L 0.00 46.00 L 3.00 64.00 L 22.00 85.00 L 38.00 89.00 L 63.00 82.00 L 80.00 66.00 L 82.00 39.00 L 78.00 29.00 L 71.00 26.00" stroke="black" fill="transparent"/>
	<path d = "M 84.00 44.00 L 97.00 46.00 L 199.00 39.00" stroke="black" fill="transparent"/>
	<path d = "M 156.00 41.00 L 155.00 67.00 L 156.00 69.00 L 159.00 66.00" stroke="black" fill="transparent"/>
	<path d = "M 195.00 35.00 L 198.00 46.00 L 192.00 62.00 L 196.00 63.00" stroke="black" fill="transparent"/>
	<path d = "M 219.00 96.00 L 246.00 93.00 L 241.00 79.00 L 255.00 31.00 L 246.00 23.00 L 234.00 21.00 L 223.00 28.00 L 219.00 36.00 L 221.00 67.00 L 211.00 94.00 L 219.00 95.00" stroke="black" fill="transparent"/>
</svg>