<?xml version="1.0" encoding="UTF-8" standalone="no"?>
<!--Created with ndjsontosvg(https:https://github.com/thompson318/ndjsontosvg) 
	from the simplified Google quickdraw data set. key_id = 6472784727244800-->
<svg width="256" height="256"
	xmlns="http://www.w3.org/2000/svg"
	xmlns:ndjsontosvg="https://github.com/thompson318/ndjsontosvg"
	xmlns:quickdraw="https://quickdraw.withgoogle.com/data"
	xmlns:scikit-surgery="https://doi.org/10.1007/s11548-020-02180-5">

	<rect width="100%" height="100%" fill="white" />
	<path d = "M 81.00 141.00 L 106.00 121.00 L 111.00 112.00 L 116.00 76.00 L 116.00 48.00 L 112.00 35.00 L 98.00 14.00 L 74.00 1.00 L 49.00 0.00 L 26.00 12.00 L 12.00 47.00 L 1.00 126.00 L 13.00 135.00 L 30.00 140.00 L 89.00 134.00" stroke="black" fill="transparent"/>
	<path d = "M 45.00 139.00 L 38.00 157.00 L 32.00 219.00 L 25.00 253.00 L 57.00 254.00 L 78.00 248.00 L 85.00 228.00 L 54.00 229.00 L 77.00 214.00 L 78.00 210.00 L 61.00 203.00 L 60.00 198.00 L 75.00 182.00 L 49.00 182.00 L 96.00 145.00 L 89.00 142.00 L 82.00 145.00 L 80.00 137.00 L 76.00 138.00 L 89.00 131.00" stroke="black" fill="transparent"/>
</svg>