<?xml version="1.0" encoding="UTF-8" standalone="no"?>
<!--Created with ndjsontosvg(https:https://github.com/thompson318/ndjsontosvg) 
	from the simplified Google quickdraw data set. key_id = 6286279916388352-->
<svg width="256" height="256"
	xmlns="http://www.w3.org/2000/svg"
	xmlns:ndjsontosvg="https://github.com/thompson318/ndjsontosvg"
	xmlns:quickdraw="https://quickdraw.withgoogle.com/data"
	xmlns:scikit-surgery="https://doi.org/10.1007/s11548-020-02180-5">

	<rect width="100%" height="100%" fill="white" />
	<path d = "M 51.00 168.00 L 23.00 182.00 L 4.00 201.00 L 0.00 213.00 L 0.00 226.00 L 5.00 238.00 L 13.00 246.00 L 49.00 255.00 L 64.00 254.00 L 75.00 249.00 L 84.00 241.00 L 93.00 229.00 L 100.00 194.00 L 100.00 161.00 L 87.00 106.00 L 82.00 43.00 L 70.00 13.00 L 61.00 0.00 L 31.00 39.00 L 45.00 37.00 L 46.00 42.00 L 33.00 69.00 L 47.00 67.00 L 46.00 73.00 L 28.00 102.00 L 33.00 103.00 L 55.00 97.00 L 55.00 104.00 L 35.00 138.00 L 56.00 136.00 L 54.00 170.00" stroke="black" fill="transparent"/>
</svg>