<?xml version="1.0" encoding="UTF-8" standalone="no"?>
<!--Created with ndjsontosvg(https:https://github.com/thompson318/ndjsontosvg) 
	from the simplified Google quickdraw data set. key_id = 5223042911305728-->
<svg width="256" height="256"
	xmlns="http://www.w3.org/2000/svg"
	xmlns:ndjsontosvg="https://github.com/thompson318/ndjsontosvg"
	xmlns:quickdraw="https://quickdraw.withgoogle.com/data"
	xmlns:scikit-surgery="https://doi.org/10.1007/s11548-020-02180-5">

	<rect width="100%" height="100%" fill="white" />
	<path d = "M 4.00 202.00 L 0.00 98.00 L 2.00 24.00" stroke="black" fill="transparent"/>
	<path d = "M 1.00 24.00 L 12.00 27.00 L 10.00 55.00 L 25.00 57.00 L 23.00 75.00 L 37.00 79.00 L 40.00 83.00 L 37.00 103.00 L 22.00 107.00 L 28.00 123.00 L 28.00 163.00 L 72.00 175.00 L 79.00 181.00 L 76.00 200.00 L 37.00 214.00 L 25.00 213.00 L 5.00 201.00" stroke="black" fill="transparent"/>
	<path d = "M 4.00 198.00 L 8.00 223.00 L 16.00 246.00 L 33.00 255.00 L 49.00 249.00 L 64.00 236.00 L 77.00 207.00 L 77.00 187.00" stroke="black" fill="transparent"/>
	<path d = "M 166.00 71.00 L 155.00 42.00 L 155.00 24.00 L 171.00 1.00 L 184.00 0.00 L 193.00 3.00 L 202.00 34.00 L 202.00 43.00 L 193.00 58.00 L 202.00 103.00 L 202.00 129.00 L 179.00 132.00 L 164.00 123.00 L 160.00 115.00 L 163.00 78.00" stroke="black" fill="transparent"/>
</svg>