<?xml version="1.0" encoding="UTF-8" standalone="no"?>
<!--Created with ndjsontosvg(https:https://github.com/thompson318/ndjsontosvg) 
	from the simplified Google quickdraw data set. key_id = 4616864615366656-->
<svg width="256" height="256"
	xmlns="http://www.w3.org/2000/svg"
	xmlns:ndjsontosvg="https://github.com/thompson318/ndjsontosvg"
	xmlns:quickdraw="https://quickdraw.withgoogle.com/data"
	xmlns:scikit-surgery="https://doi.org/10.1007/s11548-020-02180-5">

	<rect width="100%" height="100%" fill="white" />
	<path d = "M 170.00 10.00 L 112.00 19.00 L 3.00 17.00 L 0.00 26.00 L 1.00 54.00 L 106.00 47.00 L 159.00 49.00 L 166.00 60.00 L 168.00 80.00 L 179.00 102.00 L 190.00 110.00 L 213.00 110.00 L 233.00 98.00 L 246.00 84.00 L 254.00 69.00 L 253.00 49.00 L 246.00 32.00 L 227.00 15.00 L 193.00 0.00 L 169.00 3.00 L 155.00 14.00" stroke="black" fill="transparent"/>
	<path d = "M 4.00 57.00 L 6.00 64.00 L 6.00 123.00 L 19.00 129.00 L 35.00 128.00 L 43.00 125.00 L 51.00 88.00 L 58.00 89.00 L 65.00 98.00 L 66.00 106.00 L 74.00 109.00 L 79.00 101.00 L 80.00 74.00 L 85.00 65.00" stroke="black" fill="transparent"/>
</svg>