<?xml version="1.0" encoding="UTF-8" standalone="no"?>
<!--Created with ndjsontosvg(https:https://github.com/thompson318/ndjsontosvg) 
	from the simplified Google quickdraw data set. key_id = 4750010463813632-->
<svg width="256" height="256"
	xmlns="http://www.w3.org/2000/svg"
	xmlns:ndjsontosvg="https://github.com/thompson318/ndjsontosvg"
	xmlns:quickdraw="https://quickdraw.withgoogle.com/data"
	xmlns:scikit-surgery="https://doi.org/10.1007/s11548-020-02180-5">

	<rect width="100%" height="100%" fill="white" />
	<path d = "M 12.00 5.00 L 2.00 10.00 L 0.00 16.00 L 2.00 19.00 L 21.00 21.00 L 35.00 14.00 L 35.00 5.00 L 29.00 0.00 L 19.00 0.00 L 11.00 5.00" stroke="black" fill="transparent"/>
	<path d = "M 36.00 7.00 L 104.00 7.00 L 208.00 13.00" stroke="black" fill="transparent"/>
	<path d = "M 34.00 15.00 L 146.00 19.00 L 205.00 16.00" stroke="black" fill="transparent"/>
	<path d = "M 212.00 11.00 L 254.00 13.00 L 255.00 23.00 L 248.00 60.00 L 236.00 56.00 L 239.00 49.00 L 239.00 28.00 L 226.00 25.00 L 225.00 43.00 L 215.00 38.00 L 217.00 23.00 L 201.00 18.00" stroke="black" fill="transparent"/>
	<path d = "M 24.00 9.00 L 11.00 9.00 L 9.00 14.00 L 11.00 15.00 L 32.00 14.00" stroke="black" fill="transparent"/>
</svg>