<?xml version="1.0" encoding="UTF-8" standalone="no"?>
<!--Created with ndjsontosvg(https:https://github.com/thompson318/ndjsontosvg) 
	from the simplified Google quickdraw data set. key_id = 4539481170378752-->
<svg width="256" height="256"
	xmlns="http://www.w3.org/2000/svg"
	xmlns:ndjsontosvg="https://github.com/thompson318/ndjsontosvg"
	xmlns:quickdraw="https://quickdraw.withgoogle.com/data"
	xmlns:scikit-surgery="https://doi.org/10.1007/s11548-020-02180-5">

	<rect width="100%" height="100%" fill="white" />
	<path d = "M 22.00 42.00 L 23.00 23.00 L 36.00 5.00 L 53.00 0.00 L 64.00 8.00 L 66.00 19.00 L 64.00 27.00 L 45.00 46.00 L 63.00 47.00 L 73.00 52.00 L 74.00 61.00 L 52.00 76.00 L 75.00 79.00 L 80.00 84.00 L 81.00 91.00 L 72.00 102.00 L 56.00 114.00 L 56.00 136.00 L 59.00 152.00 L 88.00 162.00 L 99.00 176.00 L 102.00 202.00 L 96.00 220.00 L 77.00 245.00 L 53.00 255.00 L 35.00 255.00 L 20.00 250.00 L 12.00 243.00 L 4.00 230.00 L 0.00 213.00 L 1.00 193.00 L 13.00 176.00 L 36.00 160.00 L 41.00 148.00 L 40.00 126.00 L 33.00 92.00 L 26.00 33.00" stroke="black" fill="transparent"/>
	<path d = "M 60.00 184.00 L 49.00 185.00 L 39.00 193.00 L 36.00 199.00 L 36.00 210.00 L 39.00 216.00 L 52.00 225.00 L 62.00 224.00 L 80.00 215.00 L 86.00 207.00 L 88.00 197.00 L 80.00 185.00 L 68.00 179.00 L 58.00 179.00 L 49.00 184.00" stroke="black" fill="transparent"/>
</svg>