<?xml version="1.0" encoding="UTF-8" standalone="no"?>
<!--Created with ndjsontosvg(https:https://github.com/thompson318/ndjsontosvg) 
	from the simplified Google quickdraw data set. key_id = 6292604155068416-->
<svg width="256" height="256"
	xmlns="http://www.w3.org/2000/svg"
	xmlns:ndjsontosvg="https://github.com/thompson318/ndjsontosvg"
	xmlns:quickdraw="https://quickdraw.withgoogle.com/data"
	xmlns:scikit-surgery="https://doi.org/10.1007/s11548-020-02180-5">

	<rect width="100%" height="100%" fill="white" />
	<path d = "M 54.00 3.00 L 24.00 7.00 L 4.00 25.00 L 0.00 32.00 L 0.00 67.00 L 4.00 82.00 L 15.00 94.00 L 50.00 99.00 L 60.00 112.00 L 64.00 137.00 L 64.00 166.00 L 59.00 173.00 L 56.00 221.00 L 60.00 250.00 L 67.00 254.00 L 81.00 255.00 L 89.00 240.00 L 89.00 189.00 L 86.00 180.00 L 78.00 173.00 L 82.00 109.00 L 90.00 103.00 L 110.00 99.00 L 117.00 92.00 L 124.00 76.00 L 124.00 39.00 L 106.00 12.00 L 93.00 3.00 L 78.00 0.00 L 57.00 4.00" stroke="black" fill="transparent"/>
	<path d = "M 25.00 54.00 L 40.00 50.00 L 53.00 54.00 L 53.00 72.00 L 45.00 81.00 L 38.00 81.00 L 31.00 74.00 L 28.00 61.00" stroke="black" fill="transparent"/>
</svg>