<?xml version="1.0" encoding="UTF-8" standalone="no"?>
<!--Created with ndjsontosvg(https:https://github.com/thompson318/ndjsontosvg) 
	from the simplified Google quickdraw data set. key_id = 5094706637701120-->
<svg width="256" height="256"
	xmlns="http://www.w3.org/2000/svg"
	xmlns:ndjsontosvg="https://github.com/thompson318/ndjsontosvg"
	xmlns:quickdraw="https://quickdraw.withgoogle.com/data"
	xmlns:scikit-surgery="https://doi.org/10.1007/s11548-020-02180-5">

	<rect width="100%" height="100%" fill="white" />
	<path d = "M 193.00 110.00 L 185.00 203.00 L 190.00 215.00 L 209.00 215.00 L 210.00 212.00 L 205.00 201.00 L 212.00 187.00 L 204.00 186.00 L 212.00 175.00 L 215.00 154.00 L 211.00 147.00 L 213.00 135.00 L 200.00 130.00 L 200.00 126.00 L 217.00 99.00 L 243.00 82.00 L 253.00 60.00 L 253.00 51.00 L 249.00 44.00 L 234.00 32.00 L 198.00 30.00 L 186.00 37.00 L 184.00 78.00 L 195.00 109.00 L 194.00 114.00" stroke="black" fill="transparent"/>
	<path d = "M 207.00 62.00 L 207.00 72.00 L 213.00 69.00 L 215.00 63.00 L 212.00 59.00 L 208.00 60.00 L 206.00 64.00" stroke="black" fill="transparent"/>
	<path d = "M 68.00 49.00 L 64.00 45.00 L 43.00 44.00 L 30.00 49.00 L 16.00 62.00 L 9.00 77.00 L 0.00 215.00 L 4.00 240.00 L 18.00 251.00 L 31.00 255.00 L 45.00 254.00 L 68.00 243.00 L 80.00 234.00 L 79.00 228.00 L 62.00 213.00 L 62.00 202.00 L 70.00 182.00 L 57.00 176.00 L 63.00 156.00 L 48.00 145.00 L 47.00 139.00 L 56.00 122.00 L 60.00 109.00 L 100.00 62.00 L 109.00 35.00 L 106.00 11.00 L 99.00 3.00 L 90.00 0.00 L 53.00 19.00 L 35.00 37.00" stroke="black" fill="transparent"/>
	<path d = "M 50.00 60.00 L 46.00 67.00 L 50.00 72.00 L 58.00 66.00" stroke="black" fill="transparent"/>
</svg>