<?xml version="1.0" encoding="UTF-8" standalone="no"?>
<!--Created with ndjsontosvg(https:https://github.com/thompson318/ndjsontosvg) 
	from the simplified Google quickdraw data set. key_id = 5908343749083136-->
<svg width="256" height="256"
	xmlns="http://www.w3.org/2000/svg"
	xmlns:ndjsontosvg="https://github.com/thompson318/ndjsontosvg"
	xmlns:quickdraw="https://quickdraw.withgoogle.com/data"
	xmlns:scikit-surgery="https://doi.org/10.1007/s11548-020-02180-5">

	<rect width="100%" height="100%" fill="white" />
	<path d = "M 77.00 28.00 L 243.00 48.00 L 253.00 46.00 L 255.00 62.00 L 240.00 64.00 L 163.00 64.00 L 107.00 56.00 L 77.00 57.00" stroke="black" fill="transparent"/>
	<path d = "M 81.00 26.00 L 67.00 9.00 L 55.00 1.00 L 27.00 3.00 L 15.00 13.00 L 8.00 23.00 L 0.00 52.00 L 0.00 66.00 L 5.00 73.00 L 21.00 86.00 L 39.00 92.00 L 53.00 92.00 L 69.00 85.00 L 77.00 73.00 L 77.00 61.00" stroke="black" fill="transparent"/>
	<path d = "M 59.00 20.00 L 31.00 31.00 L 27.00 58.00 L 35.00 61.00 L 53.00 58.00 L 64.00 36.00 L 64.00 26.00" stroke="black" fill="transparent"/>
	<path d = "M 221.00 68.00 L 215.00 93.00 L 239.00 94.00 L 245.00 54.00" stroke="black" fill="transparent"/>
</svg>