<?xml version="1.0" encoding="UTF-8" standalone="no"?>
<!--Created with ndjsontosvg(https:https://github.com/thompson318/ndjsontosvg) 
	from the simplified Google quickdraw data set. key_id = 4882436250927104-->
<svg width="256" height="256"
	xmlns="http://www.w3.org/2000/svg"
	xmlns:ndjsontosvg="https://github.com/thompson318/ndjsontosvg"
	xmlns:quickdraw="https://quickdraw.withgoogle.com/data"
	xmlns:scikit-surgery="https://doi.org/10.1007/s11548-020-02180-5">

	<rect width="100%" height="100%" fill="white" />
	<path d = "M 71.00 2.00 L 37.00 0.00 L 22.00 6.00 L 12.00 17.00 L 1.00 45.00 L 0.00 67.00 L 7.00 79.00 L 22.00 91.00 L 52.00 103.00 L 54.00 129.00 L 28.00 136.00 L 26.00 139.00 L 38.00 149.00 L 52.00 177.00 L 41.00 185.00 L 34.00 195.00 L 35.00 198.00 L 46.00 205.00 L 59.00 223.00 L 65.00 251.00 L 71.00 254.00 L 86.00 255.00 L 93.00 239.00 L 98.00 89.00 L 103.00 66.00 L 105.00 30.00 L 94.00 14.00 L 87.00 9.00 L 71.00 7.00" stroke="black" fill="transparent"/>
	<path d = "M 57.00 39.00 L 50.00 38.00 L 46.00 43.00 L 42.00 53.00 L 43.00 66.00" stroke="black" fill="transparent"/>
</svg>