<?xml version="1.0" encoding="UTF-8" standalone="no"?>
<!--Created with ndjsontosvg(https:https://github.com/thompson318/ndjsontosvg) 
	from the simplified Google quickdraw data set. key_id = 5519428856840192-->
<svg width="256" height="256"
	xmlns="http://www.w3.org/2000/svg"
	xmlns:ndjsontosvg="https://github.com/thompson318/ndjsontosvg"
	xmlns:quickdraw="https://quickdraw.withgoogle.com/data"
	xmlns:scikit-surgery="https://doi.org/10.1007/s11548-020-02180-5">

	<rect width="100%" height="100%" fill="white" />
	<path d = "M 115.00 57.00 L 255.00 48.00 L 224.00 81.00 L 219.00 82.00 L 204.00 71.00 L 197.00 74.00 L 185.00 90.00 L 173.00 77.00 L 166.00 75.00 L 143.00 89.00 L 132.00 78.00 L 129.00 78.00 L 115.00 89.00 L 106.00 82.00 L 87.00 109.00 L 76.00 117.00 L 62.00 120.00 L 37.00 118.00 L 16.00 109.00 L 4.00 96.00 L 0.00 76.00 L 3.00 53.00 L 13.00 35.00 L 33.00 18.00 L 51.00 9.00 L 78.00 0.00 L 105.00 3.00 L 119.00 14.00 L 125.00 36.00 L 121.00 72.00" stroke="black" fill="transparent"/>
	<path d = "M 102.00 25.00 L 64.00 29.00 L 50.00 34.00 L 38.00 43.00 L 22.00 67.00 L 19.00 83.00 L 26.00 89.00 L 44.00 86.00 L 77.00 66.00 L 95.00 43.00 L 97.00 31.00 L 88.00 21.00 L 74.00 26.00 L 61.00 39.00" stroke="black" fill="transparent"/>
</svg>