<?xml version="1.0" encoding="UTF-8" standalone="no"?>
<!--Created with ndjsontosvg(https:https://github.com/thompson318/ndjsontosvg) 
	from the simplified Google quickdraw data set. key_id = 6707026673532928-->
<svg width="256" height="256"
	xmlns="http://www.w3.org/2000/svg"
	xmlns:ndjsontosvg="https://github.com/thompson318/ndjsontosvg"
	xmlns:quickdraw="https://quickdraw.withgoogle.com/data"
	xmlns:scikit-surgery="https://doi.org/10.1007/s11548-020-02180-5">

	<rect width="100%" height="100%" fill="white" />
	<path d = "M 6.00 114.00 L 37.00 78.00 L 76.00 77.00 L 151.00 61.00 L 195.00 56.00 L 224.00 46.00 L 237.00 3.00 L 243.00 0.00 L 255.00 25.00 L 231.00 52.00 L 227.00 67.00 L 226.00 85.00 L 221.00 88.00 L 162.00 87.00 L 137.00 95.00 L 150.00 103.00 L 156.00 112.00 L 172.00 169.00 L 120.00 115.00 L 139.00 99.00 L 28.00 111.00 L 0.00 118.00" stroke="black" fill="transparent"/>
	<path d = "M 98.00 74.00 L 128.00 35.00 L 146.00 4.00 L 150.00 14.00 L 135.00 48.00 L 131.00 68.00 L 131.00 60.00" stroke="black" fill="transparent"/>
</svg>