<?xml version="1.0" encoding="UTF-8" standalone="no"?>
<!--Created with ndjsontosvg(https:https://github.com/thompson318/ndjsontosvg) 
	from the simplified Google quickdraw data set. key_id = 5210436930633728-->
<svg width="256" height="256"
	xmlns="http://www.w3.org/2000/svg"
	xmlns:ndjsontosvg="https://github.com/thompson318/ndjsontosvg"
	xmlns:quickdraw="https://quickdraw.withgoogle.com/data"
	xmlns:scikit-surgery="https://doi.org/10.1007/s11548-020-02180-5">

	<rect width="100%" height="100%" fill="white" />
	<path d = "M 194.00 62.00 L 127.00 53.00 L 67.00 38.00 L 33.00 37.00 L 1.00 46.00 L 4.00 74.00 L 11.00 87.00 L 23.00 98.00 L 38.00 105.00 L 70.00 112.00 L 111.00 113.00 L 145.00 106.00 L 165.00 98.00 L 186.00 82.00 L 198.00 66.00 L 210.00 59.00 L 233.00 13.00 L 239.00 19.00 L 250.00 59.00 L 232.00 62.00 L 202.00 60.00" stroke="black" fill="transparent"/>
	<path d = "M 215.00 58.00 L 245.00 95.00 L 253.00 100.00 L 254.00 93.00 L 236.00 59.00" stroke="black" fill="transparent"/>
	<path d = "M 213.00 60.00 L 189.00 24.00 L 223.00 52.00" stroke="black" fill="transparent"/>
	<path d = "M 59.00 35.00 L 53.00 48.00 L 41.00 55.00 L 4.00 52.00" stroke="black" fill="transparent"/>
	<path d = "M 9.00 51.00 L 0.00 51.00" stroke="black" fill="transparent"/>
	<path d = "M 85.00 57.00 L 77.00 90.00 L 73.00 131.00 L 78.00 130.00 L 84.00 123.00 L 118.00 61.00 L 84.00 54.00" stroke="black" fill="transparent"/>
	<path d = "M 92.00 42.00 L 88.00 29.00 L 88.00 0.00 L 101.00 12.00 L 132.00 59.00" stroke="black" fill="transparent"/>
	<path d = "M 50.00 50.00 L 85.00 60.00 L 89.00 49.00" stroke="black" fill="transparent"/>
	<path d = "M 85.00 59.00 L 97.00 59.00" stroke="black" fill="transparent"/>
</svg>