<?xml version="1.0" encoding="UTF-8" standalone="no"?>
<!--Created with ndjsontosvg(https:https://github.com/thompson318/ndjsontosvg) 
	from the simplified Google quickdraw data set. key_id = 5593589151170560-->
<svg width="256" height="256"
	xmlns="http://www.w3.org/2000/svg"
	xmlns:ndjsontosvg="https://github.com/thompson318/ndjsontosvg"
	xmlns:quickdraw="https://quickdraw.withgoogle.com/data"
	xmlns:scikit-surgery="https://doi.org/10.1007/s11548-020-02180-5">

	<rect width="100%" height="100%" fill="white" />
	<path d = "M 102.00 90.00 L 63.00 85.00 L 14.00 85.00 L 2.00 90.00 L 0.00 108.00 L 9.00 124.00 L 29.00 139.00 L 51.00 149.00 L 100.00 154.00 L 142.00 145.00 L 181.00 144.00 L 203.00 134.00 L 216.00 121.00 L 213.00 114.00 L 197.00 104.00 L 177.00 101.00 L 152.00 89.00 L 114.00 81.00 L 106.00 83.00" stroke="black" fill="transparent"/>
	<path d = "M 192.00 103.00 L 193.00 93.00 L 209.00 54.00 L 218.00 50.00" stroke="black" fill="transparent"/>
	<path d = "M 205.00 114.00 L 220.00 52.00" stroke="black" fill="transparent"/>
	<path d = "M 201.00 139.00 L 198.00 142.00 L 220.00 167.00 L 243.00 174.00" stroke="black" fill="transparent"/>
	<path d = "M 204.00 131.00 L 229.00 158.00 L 248.00 172.00 L 255.00 173.00" stroke="black" fill="transparent"/>
	<path d = "M 90.00 99.00 L 93.00 79.00 L 89.00 16.00 L 107.00 1.00 L 122.00 2.00 L 132.00 19.00 L 135.00 45.00 L 131.00 87.00" stroke="black" fill="transparent"/>
	<path d = "M 94.00 151.00 L 92.00 181.00 L 95.00 192.00 L 101.00 203.00 L 115.00 217.00 L 121.00 211.00 L 129.00 182.00 L 130.00 158.00 L 128.00 157.00" stroke="black" fill="transparent"/>
	<path d = "M 18.00 123.00 L 13.00 98.00 L 43.00 96.00 L 53.00 102.00 L 62.00 114.00 L 63.00 123.00 L 56.00 136.00 L 37.00 137.00 L 20.00 122.00" stroke="black" fill="transparent"/>
</svg>