<?xml version="1.0" encoding="UTF-8" standalone="no"?>
<!--Created with ndjsontosvg(https:https://github.com/thompson318/ndjsontosvg) 
	from the simplified Google quickdraw data set. key_id = 5152802093400064-->
<svg width="256" height="256"
	xmlns="http://www.w3.org/2000/svg"
	xmlns:ndjsontosvg="https://github.com/thompson318/ndjsontosvg"
	xmlns:quickdraw="https://quickdraw.withgoogle.com/data"
	xmlns:scikit-surgery="https://doi.org/10.1007/s11548-020-02180-5">

	<rect width="100%" height="100%" fill="white" />
	<path d = "M 167.00 140.00 L 109.00 194.00 L 80.00 227.00 L 69.00 232.00 L 58.00 229.00 L 31.00 229.00 L 57.00 206.00 L 117.00 124.00 L 99.00 123.00 L 52.00 149.00 L 30.00 157.00 L 6.00 159.00 L 1.00 153.00 L 2.00 110.00 L 66.00 82.00 L 98.00 77.00 L 253.00 74.00 L 254.00 109.00 L 246.00 121.00 L 182.00 127.00 L 165.00 120.00" stroke="black" fill="transparent"/>
	<path d = "M 207.00 74.00 L 207.00 103.00 L 210.00 114.00 L 221.00 128.00 L 238.00 135.00" stroke="black" fill="transparent"/>
	<path d = "M 119.00 72.00 L 107.00 41.00 L 76.00 3.00 L 70.00 0.00 L 49.00 1.00 L 39.00 5.00 L 60.00 38.00 L 93.00 70.00" stroke="black" fill="transparent"/>
</svg>