<?xml version="1.0" encoding="UTF-8" standalone="no"?>
<!--Created with ndjsontosvg(https:https://github.com/thompson318/ndjsontosvg) 
	from the simplified Google quickdraw data set. key_id = 6581893006884864-->
<svg width="256" height="256"
	xmlns="http://www.w3.org/2000/svg"
	xmlns:ndjsontosvg="https://github.com/thompson318/ndjsontosvg"
	xmlns:quickdraw="https://quickdraw.withgoogle.com/data"
	xmlns:scikit-surgery="https://doi.org/10.1007/s11548-020-02180-5">

	<rect width="100%" height="100%" fill="white" />
	<path d = "M 136.00 77.00 L 135.00 0.00 L 151.00 3.00 L 160.00 13.00 L 163.00 34.00 L 161.00 62.00" stroke="black" fill="transparent"/>
	<path d = "M 158.00 66.00 L 181.00 65.00 L 190.00 68.00 L 238.00 93.00 L 244.00 100.00 L 233.00 101.00" stroke="black" fill="transparent"/>
	<path d = "M 136.00 77.00 L 126.00 76.00 L 79.00 92.00 L 37.00 97.00 L 40.00 100.00" stroke="black" fill="transparent"/>
	<path d = "M 31.00 100.00 L 33.00 85.00 L 32.00 45.00 L 21.00 55.00 L 9.00 75.00 L 0.00 108.00" stroke="black" fill="transparent"/>
	<path d = "M 0.00 109.00 L 20.00 114.00 L 55.00 115.00 L 78.00 123.00 L 118.00 129.00 L 153.00 138.00 L 157.00 134.00" stroke="black" fill="transparent"/>
	<path d = "M 139.00 129.00 L 149.00 148.00 L 155.00 176.00 L 163.00 179.00 L 168.00 177.00 L 172.00 167.00 L 177.00 136.00" stroke="black" fill="transparent"/>
	<path d = "M 176.00 128.00 L 223.00 131.00 L 255.00 127.00 L 247.00 103.00 L 229.00 95.00" stroke="black" fill="transparent"/>
	<path d = "M 224.00 87.00 L 224.00 106.00 L 254.00 115.00" stroke="black" fill="transparent"/>
</svg>