<?xml version="1.0" encoding="UTF-8" standalone="no"?>
<!--Created with ndjsontosvg(https:https://github.com/thompson318/ndjsontosvg) 
	from the simplified Google quickdraw data set. key_id = 6278469216370688-->
<svg width="256" height="256"
	xmlns="http://www.w3.org/2000/svg"
	xmlns:ndjsontosvg="https://github.com/thompson318/ndjsontosvg"
	xmlns:quickdraw="https://quickdraw.withgoogle.com/data"
	xmlns:scikit-surgery="https://doi.org/10.1007/s11548-020-02180-5">

	<rect width="100%" height="100%" fill="white" />
	<path d = "M 190.00 55.00 L 186.00 44.00 L 191.00 24.00 L 199.00 12.00 L 209.00 7.00 L 219.00 10.00 L 228.00 19.00 L 241.00 49.00 L 241.00 64.00 L 237.00 75.00 L 230.00 84.00 L 218.00 91.00 L 189.00 98.00 L 30.00 116.00 L 7.00 112.00 L 1.00 103.00 L 1.00 94.00 L 8.00 83.00 L 19.00 77.00 L 110.00 69.00 L 198.00 53.00" stroke="black" fill="transparent"/>
	<path d = "M 116.00 95.00 L 148.00 113.00 L 203.00 134.00 L 234.00 144.00 L 254.00 144.00 L 254.00 138.00 L 249.00 129.00 L 223.00 105.00 L 184.00 86.00 L 152.00 77.00" stroke="black" fill="transparent"/>
	<path d = "M 94.00 68.00 L 42.00 35.00 L 31.00 24.00 L 28.00 18.00 L 28.00 9.00 L 43.00 0.00 L 65.00 2.00 L 84.00 11.00 L 119.00 36.00 L 147.00 63.00" stroke="black" fill="transparent"/>
</svg>