<?xml version="1.0" encoding="UTF-8" standalone="no"?>
<!--Created with ndjsontosvg(https:https://github.com/thompson318/ndjsontosvg) 
	from the simplified Google quickdraw data set. key_id = 4832903450066944-->
<svg width="256" height="256"
	xmlns="http://www.w3.org/2000/svg"
	xmlns:ndjsontosvg="https://github.com/thompson318/ndjsontosvg"
	xmlns:quickdraw="https://quickdraw.withgoogle.com/data"
	xmlns:scikit-surgery="https://doi.org/10.1007/s11548-020-02180-5">

	<rect width="100%" height="100%" fill="white" />
	<path d = "M 96.00 34.00 L 25.00 33.00 L 8.00 39.00 L 0.00 50.00 L 7.00 54.00 L 54.00 64.00 L 103.00 65.00 L 104.00 129.00 L 109.00 155.00 L 125.00 154.00 L 129.00 150.00 L 139.00 113.00 L 142.00 69.00 L 165.00 68.00 L 249.00 74.00 L 254.00 72.00 L 255.00 66.00 L 235.00 51.00 L 207.00 40.00 L 142.00 34.00 L 128.00 13.00 L 108.00 1.00 L 96.00 0.00 L 92.00 4.00 L 98.00 24.00 L 100.00 46.00" stroke="black" fill="transparent"/>
	<path d = "M 109.00 88.00 L 124.00 85.00 L 136.00 89.00 L 133.00 95.00 L 114.00 105.00" stroke="black" fill="transparent"/>
</svg>