<?xml version="1.0" encoding="UTF-8" standalone="no"?>
<!--Created with ndjsontosvg(https:https://github.com/thompson318/ndjsontosvg) 
	from the simplified Google quickdraw data set. key_id = 4554736336371712-->
<svg width="256" height="256"
	xmlns="http://www.w3.org/2000/svg"
	xmlns:ndjsontosvg="https://github.com/thompson318/ndjsontosvg"
	xmlns:quickdraw="https://quickdraw.withgoogle.com/data"
	xmlns:scikit-surgery="https://doi.org/10.1007/s11548-020-02180-5">

	<rect width="100%" height="100%" fill="white" />
	<path d = "M 97.00 135.00 L 98.00 0.00 L 110.00 15.00 L 121.00 40.00 L 129.00 117.00 L 136.00 119.00 L 148.00 117.00 L 209.00 94.00 L 245.00 94.00 L 255.00 115.00 L 252.00 124.00 L 221.00 129.00 L 195.00 143.00 L 153.00 158.00 L 149.00 162.00 L 149.00 172.00 L 165.00 213.00 L 166.00 232.00 L 156.00 242.00 L 145.00 246.00 L 139.00 246.00 L 133.00 236.00 L 119.00 204.00 L 111.00 175.00 L 102.00 173.00 L 59.00 182.00 L 46.00 182.00 L 30.00 177.00 L 24.00 201.00 L 8.00 172.00 L 0.00 144.00 L 8.00 142.00 L 22.00 149.00 L 36.00 137.00 L 63.00 136.00 L 84.00 129.00 L 95.00 118.00" stroke="black" fill="transparent"/>
</svg>