<?xml version="1.0" encoding="UTF-8" standalone="no"?>
<!--Created with ndjsontosvg(https:https://github.com/thompson318/ndjsontosvg) 
	from the simplified Google quickdraw data set. key_id = 4764983743217664-->
<svg width="256" height="256"
	xmlns="http://www.w3.org/2000/svg"
	xmlns:ndjsontosvg="https://github.com/thompson318/ndjsontosvg"
	xmlns:quickdraw="https://quickdraw.withgoogle.com/data"
	xmlns:scikit-surgery="https://doi.org/10.1007/s11548-020-02180-5">

	<rect width="100%" height="100%" fill="white" />
	<path d = "M 126.00 58.00 L 99.00 55.00 L 36.00 65.00 L 14.00 71.00 L 5.00 77.00 L 0.00 84.00 L 8.00 91.00 L 41.00 99.00 L 136.00 105.00 L 228.00 98.00 L 229.00 57.00 L 234.00 47.00 L 255.00 29.00 L 232.00 24.00 L 204.00 24.00 L 202.00 32.00 L 203.00 56.00 L 199.00 59.00 L 128.00 58.00" stroke="black" fill="transparent"/>
	<path d = "M 81.00 79.00 L 103.00 105.00 L 135.00 135.00 L 160.00 149.00 L 176.00 153.00 L 184.00 154.00 L 185.00 150.00 L 181.00 142.00 L 125.00 82.00" stroke="black" fill="transparent"/>
	<path d = "M 75.00 54.00 L 100.00 27.00 L 129.00 6.00 L 144.00 0.00 L 148.00 0.00 L 146.00 10.00 L 121.00 48.00" stroke="black" fill="transparent"/>
</svg>