<?xml version="1.0" encoding="UTF-8" standalone="no"?>
<!--Created with ndjsontosvg(https:https://github.com/thompson318/ndjsontosvg) 
	from the simplified Google quickdraw data set. key_id = 4616373701443584-->
<svg width="256" height="256"
	xmlns="http://www.w3.org/2000/svg"
	xmlns:ndjsontosvg="https://github.com/thompson318/ndjsontosvg"
	xmlns:quickdraw="https://quickdraw.withgoogle.com/data"
	xmlns:scikit-surgery="https://doi.org/10.1007/s11548-020-02180-5">

	<rect width="100%" height="100%" fill="white" />
	<path d = "M 109.00 92.00 L 79.00 168.00 L 63.00 199.00 L 65.00 201.00 L 86.00 196.00 L 118.00 174.00 L 134.00 148.00 L 153.00 98.00" stroke="black" fill="transparent"/>
	<path d = "M 46.00 82.00 L 64.00 82.00 L 234.00 116.00 L 246.00 113.00 L 254.00 107.00 L 253.00 91.00 L 233.00 70.00 L 210.00 64.00 L 182.00 60.00 L 138.00 60.00 L 87.00 50.00 L 27.00 48.00" stroke="black" fill="transparent"/>
	<path d = "M 46.00 81.00 L 7.00 72.00" stroke="black" fill="transparent"/>
	<path d = "M 119.00 53.00 L 129.00 17.00 L 130.00 0.00 L 152.00 18.00 L 160.00 29.00 L 163.00 43.00 L 163.00 69.00" stroke="black" fill="transparent"/>
</svg>