<?xml version="1.0" encoding="UTF-8" standalone="no"?>
<!--Created with ndjsontosvg(https:https://github.com/thompson318/ndjsontosvg) 
	from the simplified Google quickdraw data set. key_id = 6293161578070016-->
<svg width="256" height="256"
	xmlns="http://www.w3.org/2000/svg"
	xmlns:ndjsontosvg="https://github.com/thompson318/ndjsontosvg"
	xmlns:quickdraw="https://quickdraw.withgoogle.com/data"
	xmlns:scikit-surgery="https://doi.org/10.1007/s11548-020-02180-5">

	<rect width="100%" height="100%" fill="white" />
	<path d = "M 60.00 89.00 L 110.00 0.00 L 145.00 60.00 L 156.00 96.00 L 147.00 85.00 L 144.00 94.00 L 132.00 82.00 L 131.00 101.00 L 123.00 82.00 L 115.00 94.00 L 113.00 82.00 L 99.00 96.00 L 98.00 79.00 L 84.00 97.00 L 79.00 82.00 L 66.00 95.00 L 64.00 84.00" stroke="black" fill="transparent"/>
	<path d = "M 110.00 22.00 L 104.00 31.00 L 102.00 47.00 L 111.00 53.00 L 119.00 46.00 L 118.00 36.00 L 111.00 25.00" stroke="black" fill="transparent"/>
	<path d = "M 90.00 33.00 L 34.00 42.00 L 0.00 50.00 L 77.00 58.00" stroke="black" fill="transparent"/>
	<path d = "M 129.00 29.00 L 255.00 41.00 L 194.00 54.00 L 142.00 60.00" stroke="black" fill="transparent"/>
</svg>