<?xml version="1.0" encoding="UTF-8" standalone="no"?>
<!--Created with ndjsontosvg(https:https://github.com/thompson318/ndjsontosvg) 
	from the simplified Google quickdraw data set. key_id = 6670046841536512-->
<svg width="256" height="256"
	xmlns="http://www.w3.org/2000/svg"
	xmlns:ndjsontosvg="https://github.com/thompson318/ndjsontosvg"
	xmlns:quickdraw="https://quickdraw.withgoogle.com/data"
	xmlns:scikit-surgery="https://doi.org/10.1007/s11548-020-02180-5">

	<rect width="100%" height="100%" fill="white" />
	<path d = "M 64.00 74.00 L 38.00 77.00 L 23.00 84.00 L 8.00 95.00 L 0.00 111.00 L 6.00 121.00 L 26.00 131.00 L 68.00 142.00" stroke="black" fill="transparent"/>
	<path d = "M 78.00 121.00 L 83.00 154.00 L 97.00 193.00 L 112.00 218.00 L 126.00 228.00 L 135.00 227.00 L 141.00 219.00 L 150.00 198.00 L 153.00 165.00 L 150.00 136.00" stroke="black" fill="transparent"/>
	<path d = "M 58.00 77.00 L 116.00 74.00 L 184.00 86.00 L 223.00 86.00" stroke="black" fill="transparent"/>
	<path d = "M 77.00 85.00 L 76.00 69.00 L 91.00 39.00 L 113.00 11.00 L 126.00 1.00 L 144.00 1.00 L 152.00 12.00 L 159.00 66.00" stroke="black" fill="transparent"/>
	<path d = "M 153.00 150.00 L 203.00 151.00 L 211.00 149.00 L 224.00 135.00 L 245.00 103.00" stroke="black" fill="transparent"/>
	<path d = "M 219.00 84.00 L 218.00 66.00 L 222.00 53.00 L 229.00 46.00 L 238.00 50.00 L 251.00 72.00 L 255.00 106.00" stroke="black" fill="transparent"/>
	<path d = "M 235.00 76.00 L 238.00 89.00 L 245.00 96.00 L 252.00 98.00 L 253.00 77.00" stroke="black" fill="transparent"/>
</svg>