<?xml version="1.0" encoding="UTF-8" standalone="no"?>
<!--Created with ndjsontosvg(https:https://github.com/thompson318/ndjsontosvg) 
	from the simplified Google quickdraw data set. key_id = 5445677096108032-->
<svg width="256" height="256"
	xmlns="http://www.w3.org/2000/svg"
	xmlns:ndjsontosvg="https://github.com/thompson318/ndjsontosvg"
	xmlns:quickdraw="https://quickdraw.withgoogle.com/data"
	xmlns:scikit-surgery="https://doi.org/10.1007/s11548-020-02180-5">

	<rect width="100%" height="100%" fill="white" />
	<path d = "M 93.00 29.00 L 68.00 29.00 L 17.00 38.00 L 0.00 51.00 L 3.00 62.00 L 13.00 65.00 L 38.00 65.00 L 66.00 58.00 L 109.00 53.00 L 114.00 54.00 L 153.00 82.00 L 173.00 90.00 L 184.00 90.00 L 187.00 84.00 L 156.00 59.00 L 147.00 47.00 L 229.00 46.00 L 249.00 19.00 L 255.00 3.00 L 250.00 0.00 L 235.00 0.00 L 204.00 12.00 L 100.00 26.00 L 81.00 26.00 L 61.00 18.00 L 48.00 8.00 L 58.00 6.00 L 96.00 6.00 L 140.00 22.00" stroke="black" fill="transparent"/>
</svg>