<?xml version="1.0" encoding="UTF-8" standalone="no"?>
<!--Created with ndjsontosvg(https:https://github.com/thompson318/ndjsontosvg) 
	from the simplified Google quickdraw data set. key_id = 6338325143093248-->
<svg width="256" height="256"
	xmlns="http://www.w3.org/2000/svg"
	xmlns:ndjsontosvg="https://github.com/thompson318/ndjsontosvg"
	xmlns:quickdraw="https://quickdraw.withgoogle.com/data"
	xmlns:scikit-surgery="https://doi.org/10.1007/s11548-020-02180-5">

	<rect width="100%" height="100%" fill="white" />
	<path d = "M 15.00 125.00 L 13.00 119.00 L 43.00 113.00 L 105.00 106.00 L 163.00 104.00 L 233.00 116.00 L 252.00 127.00 L 255.00 134.00 L 246.00 143.00 L 198.00 157.00 L 171.00 158.00 L 97.00 155.00 L 27.00 166.00 L 14.00 160.00 L 1.00 147.00 L 0.00 137.00 L 7.00 114.00" stroke="black" fill="transparent"/>
	<path d = "M 101.00 128.00 L 101.00 156.00 L 108.00 190.00 L 118.00 213.00 L 136.00 229.00 L 154.00 231.00 L 162.00 226.00 L 165.00 221.00 L 167.00 207.00 L 152.00 168.00 L 156.00 147.00" stroke="black" fill="transparent"/>
	<path d = "M 97.00 117.00 L 88.00 61.00 L 99.00 29.00 L 114.00 11.00 L 123.00 4.00 L 150.00 0.00 L 164.00 4.00 L 173.00 14.00 L 179.00 56.00 L 97.00 117.00" stroke="black" fill="transparent"/>
</svg>