<?xml version="1.0" encoding="UTF-8" standalone="no"?>
<!--Created with ndjsontosvg(https:https://github.com/thompson318/ndjsontosvg) 
	from the simplified Google quickdraw data set. key_id = 4900189414359040-->
<svg width="256" height="256"
	xmlns="http://www.w3.org/2000/svg"
	xmlns:ndjsontosvg="https://github.com/thompson318/ndjsontosvg"
	xmlns:quickdraw="https://quickdraw.withgoogle.com/data"
	xmlns:scikit-surgery="https://doi.org/10.1007/s11548-020-02180-5">

	<rect width="100%" height="100%" fill="white" />
	<path d = "M 209.00 71.00 L 132.00 72.00 L 33.00 89.00 L 10.00 100.00 L 1.00 112.00 L 0.00 126.00 L 4.00 133.00 L 22.00 139.00 L 80.00 139.00 L 106.00 144.00 L 169.00 140.00 L 215.00 126.00 L 233.00 115.00 L 236.00 109.00 L 236.00 96.00 L 233.00 89.00 L 223.00 81.00 L 210.00 77.00" stroke="black" fill="transparent"/>
	<path d = "M 179.00 85.00 L 184.00 55.00 L 222.00 1.00 L 227.00 0.00 L 225.00 72.00" stroke="black" fill="transparent"/>
	<path d = "M 111.00 106.00 L 118.00 124.00 L 206.00 231.00 L 228.00 251.00 L 242.00 255.00 L 247.00 251.00 L 252.00 240.00 L 249.00 207.00 L 227.00 164.00 L 185.00 125.00 L 176.00 108.00 L 172.00 96.00" stroke="black" fill="transparent"/>
</svg>