<?xml version="1.0" encoding="UTF-8" standalone="no"?>
<!--Created with ndjsontosvg(https:https://github.com/thompson318/ndjsontosvg) 
	from the simplified Google quickdraw data set. key_id = 5503027618250752-->
<svg width="256" height="256"
	xmlns="http://www.w3.org/2000/svg"
	xmlns:ndjsontosvg="https://github.com/thompson318/ndjsontosvg"
	xmlns:quickdraw="https://quickdraw.withgoogle.com/data"
	xmlns:scikit-surgery="https://doi.org/10.1007/s11548-020-02180-5">

	<rect width="100%" height="100%" fill="white" />
	<path d = "M 91.00 103.00 L 83.00 118.00 L 77.00 140.00 L 70.00 195.00 L 71.00 215.00 L 82.00 207.00 L 97.00 190.00 L 116.00 149.00 L 128.00 137.00 L 161.00 134.00 L 224.00 146.00 L 248.00 142.00 L 255.00 127.00 L 252.00 113.00 L 246.00 105.00 L 183.00 81.00 L 173.00 73.00 L 185.00 53.00 L 213.00 23.00 L 212.00 10.00 L 204.00 1.00 L 192.00 1.00 L 175.00 9.00 L 158.00 24.00 L 143.00 45.00 L 131.00 52.00 L 103.00 53.00 L 44.00 40.00 L 6.00 50.00 L 2.00 55.00" stroke="black" fill="transparent"/>
	<path d = "M 86.00 111.00 L 45.00 102.00 L 31.00 93.00 L 6.00 61.00 L 1.00 60.00" stroke="black" fill="transparent"/>
	<path d = "M 173.00 117.00 L 173.00 117.00" stroke="black" fill="transparent"/>
	<path d = "M 148.00 103.00 L 148.00 102.00" stroke="black" fill="transparent"/>
	<path d = "M 193.00 120.00 L 193.00 120.00" stroke="black" fill="transparent"/>
	<path d = "M 227.00 120.00 L 216.00 122.00" stroke="black" fill="transparent"/>
	<path d = "M 187.00 109.00 L 186.00 109.00" stroke="black" fill="transparent"/>
	<path d = "M 116.00 103.00 L 114.00 103.00" stroke="black" fill="transparent"/>
	<path d = "M 60.00 83.00 L 59.00 83.00" stroke="black" fill="transparent"/>
	<path d = "M 21.00 71.00 L 21.00 71.00" stroke="black" fill="transparent"/>
	<path d = "M 92.00 127.00 L 69.00 122.00 L 52.00 115.00 L 31.00 98.00 L 12.00 76.00 L 0.00 66.00" stroke="black" fill="transparent"/>
	<path d = "M 124.00 62.00 L 105.00 54.00 L 80.00 50.00 L 0.00 47.00" stroke="black" fill="transparent"/>
	<path d = "M 19.00 61.00 L 17.00 57.00" stroke="black" fill="transparent"/>
	<path d = "M 113.00 55.00 L 201.00 2.00 L 203.00 6.00 L 201.00 24.00 L 183.00 85.00" stroke="black" fill="transparent"/>
	<path d = "M 82.00 119.00 L 78.00 213.00 L 97.00 186.00" stroke="black" fill="transparent"/>
</svg>