<?xml version="1.0" encoding="UTF-8" standalone="no"?>
<!--Created with ndjsontosvg(https:https://github.com/thompson318/ndjsontosvg) 
	from the simplified Google quickdraw data set. key_id = 6532561280958464-->
<svg width="256" height="256"
	xmlns="http://www.w3.org/2000/svg"
	xmlns:ndjsontosvg="https://github.com/thompson318/ndjsontosvg"
	xmlns:quickdraw="https://quickdraw.withgoogle.com/data"
	xmlns:scikit-surgery="https://doi.org/10.1007/s11548-020-02180-5">

	<rect width="100%" height="100%" fill="white" />
	<path d = "M 35.00 116.00 L 16.00 111.00 L 6.00 116.00 L 0.00 127.00 L 6.00 138.00 L 65.00 148.00 L 116.00 148.00" stroke="black" fill="transparent"/>
	<path d = "M 31.00 113.00 L 37.00 109.00 L 90.00 99.00 L 142.00 98.00 L 161.00 91.00 L 203.00 53.00 L 246.00 34.00" stroke="black" fill="transparent"/>
	<path d = "M 114.00 149.00 L 126.00 140.00 L 177.00 121.00 L 223.00 93.00 L 234.00 80.00 L 244.00 60.00" stroke="black" fill="transparent"/>
	<path d = "M 114.00 93.00 L 101.00 0.00 L 120.00 28.00 L 185.00 81.00 L 204.00 92.00" stroke="black" fill="transparent"/>
	<path d = "M 150.00 138.00 L 175.00 170.00 L 254.00 225.00 L 254.00 213.00 L 213.00 133.00 L 208.00 96.00" stroke="black" fill="transparent"/>
</svg>