<?xml version="1.0" encoding="UTF-8" standalone="no"?>
<!--Created with ndjsontosvg(https:https://github.com/thompson318/ndjsontosvg) 
	from the simplified Google quickdraw data set. key_id = 4876393819144192-->
<svg width="256" height="256"
	xmlns="http://www.w3.org/2000/svg"
	xmlns:ndjsontosvg="https://github.com/thompson318/ndjsontosvg"
	xmlns:quickdraw="https://quickdraw.withgoogle.com/data"
	xmlns:scikit-surgery="https://doi.org/10.1007/s11548-020-02180-5">

	<rect width="100%" height="100%" fill="white" />
	<path d = "M 111.00 61.00 L 48.00 76.00 L 14.00 95.00 L 1.00 111.00 L 0.00 119.00 L 7.00 122.00 L 31.00 122.00 L 102.00 110.00 L 192.00 86.00 L 226.00 72.00 L 234.00 64.00 L 237.00 56.00 L 235.00 51.00 L 224.00 43.00 L 182.00 40.00 L 130.00 50.00 L 111.00 59.00" stroke="black" fill="transparent"/>
	<path d = "M 89.00 106.00 L 88.00 160.00 L 92.00 178.00 L 101.00 197.00 L 109.00 198.00 L 141.00 183.00 L 155.00 173.00 L 161.00 164.00 L 161.00 149.00 L 145.00 92.00" stroke="black" fill="transparent"/>
	<path d = "M 83.00 67.00 L 81.00 60.00 L 100.00 16.00 L 118.00 0.00 L 123.00 1.00 L 137.00 24.00 L 143.00 48.00" stroke="black" fill="transparent"/>
	<path d = "M 227.00 54.00 L 228.00 27.00 L 233.00 12.00 L 239.00 7.00 L 255.00 6.00 L 245.00 47.00 L 237.00 64.00" stroke="black" fill="transparent"/>
</svg>