<?xml version="1.0" encoding="UTF-8" standalone="no"?>
<!--Created with ndjsontosvg(https:https://github.com/thompson318/ndjsontosvg) 
	from the simplified Google quickdraw data set. key_id = 6294136770527232-->
<svg width="256" height="256"
	xmlns="http://www.w3.org/2000/svg"
	xmlns:ndjsontosvg="https://github.com/thompson318/ndjsontosvg"
	xmlns:quickdraw="https://quickdraw.withgoogle.com/data"
	xmlns:scikit-surgery="https://doi.org/10.1007/s11548-020-02180-5">

	<rect width="100%" height="100%" fill="white" />
	<path d = "M 163.00 43.00 L 118.00 70.00 L 74.00 26.00 L 58.00 16.00 L 41.00 11.00 L 40.00 34.00 L 50.00 62.00 L 70.00 80.00 L 98.00 91.00 L 99.00 93.00 L 42.00 134.00 L 10.00 176.00 L 8.00 192.00 L 17.00 206.00 L 26.00 209.00 L 53.00 209.00 L 87.00 188.00 L 111.00 168.00 L 141.00 135.00 L 147.00 147.00 L 170.00 165.00 L 187.00 167.00 L 195.00 161.00 L 196.00 152.00 L 167.00 123.00 L 163.00 114.00 L 164.00 107.00 L 187.00 78.00 L 242.00 29.00 L 254.00 14.00 L 255.00 3.00 L 228.00 0.00 L 210.00 4.00 L 180.00 18.00 L 164.00 29.00 L 150.00 44.00" stroke="black" fill="transparent"/>
	<path d = "M 202.00 9.00 L 200.00 26.00 L 212.00 32.00 L 225.00 33.00 L 234.00 26.00 L 246.00 3.00" stroke="black" fill="transparent"/>
	<path d = "M 7.00 183.00 L 4.00 187.00 L 0.00 225.00 L 20.00 210.00 L 24.00 211.00" stroke="black" fill="transparent"/>
	<path d = "M 46.00 41.00 L 39.00 27.00 L 17.00 8.00 L 17.00 18.00 L 24.00 31.00 L 40.00 40.00" stroke="black" fill="transparent"/>
	<path d = "M 170.00 165.00 L 188.00 178.00 L 189.00 186.00 L 181.00 185.00 L 168.00 161.00" stroke="black" fill="transparent"/>
	<path d = "M 98.00 82.00 L 99.00 88.00 L 75.00 126.00 L 103.00 93.00 L 130.00 68.00 L 149.00 56.00 L 112.00 96.00 L 72.00 151.00 L 119.00 89.00 L 158.00 57.00 L 191.00 38.00 L 138.00 77.00 L 94.00 130.00 L 72.00 163.00 L 102.00 119.00 L 121.00 97.00 L 174.00 53.00 L 131.00 92.00 L 85.00 148.00 L 63.00 185.00 L 100.00 127.00 L 154.00 75.00 L 172.00 64.00 L 124.00 121.00 L 82.00 180.00 L 116.00 132.00 L 194.00 48.00 L 155.00 84.00 L 136.00 108.00 L 102.00 161.00 L 119.00 129.00 L 151.00 87.00 L 174.00 64.00 L 183.00 58.00 L 144.00 102.00 L 118.00 143.00 L 160.00 85.00 L 181.00 63.00 L 143.00 111.00 L 159.00 97.00 L 145.00 123.00 L 149.00 120.00" stroke="black" fill="transparent"/>
</svg>