<?xml version="1.0" encoding="UTF-8" standalone="no"?>
<!--Created with ndjsontosvg(https:https://github.com/thompson318/ndjsontosvg) 
	from the simplified Google quickdraw data set. key_id = 5925373025976320-->
<svg width="256" height="256"
	xmlns="http://www.w3.org/2000/svg"
	xmlns:ndjsontosvg="https://github.com/thompson318/ndjsontosvg"
	xmlns:quickdraw="https://quickdraw.withgoogle.com/data"
	xmlns:scikit-surgery="https://doi.org/10.1007/s11548-020-02180-5">

	<rect width="100%" height="100%" fill="white" />
	<path d = "M 172.00 73.00 L 89.00 84.00 L 33.00 96.00 L 2.00 115.00 L 2.00 121.00 L 6.00 121.00 L 41.00 122.00 L 121.00 101.00 L 241.00 87.00 L 254.00 81.00 L 255.00 78.00 L 251.00 76.00 L 151.00 71.00" stroke="black" fill="transparent"/>
	<path d = "M 156.00 65.00 L 150.00 45.00 L 126.00 11.00 L 110.00 1.00 L 97.00 1.00 L 99.00 17.00 L 139.00 78.00" stroke="black" fill="transparent"/>
	<path d = "M 144.00 103.00 L 153.00 124.00 L 160.00 153.00 L 179.00 188.00 L 192.00 193.00 L 200.00 185.00 L 201.00 167.00 L 195.00 153.00" stroke="black" fill="transparent"/>
</svg>