<?xml version="1.0" encoding="UTF-8" standalone="no"?>
<!--Created with ndjsontosvg(https:https://github.com/thompson318/ndjsontosvg) 
	from the simplified Google quickdraw data set. key_id = 6622904974311424-->
<svg width="256" height="256"
	xmlns="http://www.w3.org/2000/svg"
	xmlns:ndjsontosvg="https://github.com/thompson318/ndjsontosvg"
	xmlns:quickdraw="https://quickdraw.withgoogle.com/data"
	xmlns:scikit-surgery="https://doi.org/10.1007/s11548-020-02180-5">

	<rect width="100%" height="100%" fill="white" />
	<path d = "M 2.00 57.00 L 14.00 45.00 L 34.00 38.00 L 126.00 47.00" stroke="black" fill="transparent"/>
	<path d = "M 41.00 62.00 L 46.00 102.00 L 53.00 118.00 L 67.00 118.00 L 83.00 104.00 L 84.00 93.00 L 72.00 82.00 L 69.00 74.00" stroke="black" fill="transparent"/>
	<path d = "M 15.00 54.00 L 25.00 51.00 L 26.00 54.00 L 17.00 54.00" stroke="black" fill="transparent"/>
	<path d = "M 48.00 53.00 L 55.00 50.00 L 61.00 52.00 L 49.00 52.00" stroke="black" fill="transparent"/>
	<path d = "M 75.00 53.00 L 87.00 54.00 L 87.00 56.00 L 69.00 55.00" stroke="black" fill="transparent"/>
	<path d = "M 122.00 48.00 L 140.00 42.00 L 138.00 34.00 L 102.00 23.00 L 111.00 20.00 L 155.00 27.00 L 162.00 30.00 L 167.00 44.00 L 162.00 65.00 L 145.00 78.00 L 124.00 87.00 L 75.00 89.00" stroke="black" fill="transparent"/>
	<path d = "M 46.00 36.00 L 67.00 13.00 L 74.00 8.00 L 80.00 9.00 L 84.00 13.00 L 86.00 29.00 L 75.00 46.00" stroke="black" fill="transparent"/>
	<path d = "M 0.00 56.00 L 7.00 61.00 L 50.00 69.00" stroke="black" fill="transparent"/>
	<path d = "M 201.00 14.00 L 235.00 0.00" stroke="black" fill="transparent"/>
	<path d = "M 221.00 50.00 L 251.00 59.00 L 255.00 64.00" stroke="black" fill="transparent"/>
	<path d = "M 232.00 94.00 L 249.00 102.00" stroke="black" fill="transparent"/>
</svg>