<?xml version="1.0" encoding="UTF-8" standalone="no"?>
<!--Created with ndjsontosvg(https:https://github.com/thompson318/ndjsontosvg) 
	from the simplified Google quickdraw data set. key_id = 6625451218829312-->
<svg width="256" height="256"
	xmlns="http://www.w3.org/2000/svg"
	xmlns:ndjsontosvg="https://github.com/thompson318/ndjsontosvg"
	xmlns:quickdraw="https://quickdraw.withgoogle.com/data"
	xmlns:scikit-surgery="https://doi.org/10.1007/s11548-020-02180-5">

	<rect width="100%" height="100%" fill="white" />
	<path d = "M 58.00 57.00 L 90.00 52.00 L 163.00 53.00 L 190.00 57.00 L 222.00 51.00 L 231.00 47.00 L 243.00 34.00 L 245.00 0.00 L 253.00 41.00 L 255.00 73.00 L 248.00 92.00 L 238.00 99.00 L 210.00 105.00 L 147.00 101.00 L 107.00 105.00 L 46.00 103.00 L 4.00 108.00 L 0.00 105.00 L 2.00 98.00 L 10.00 81.00 L 22.00 66.00 L 39.00 60.00 L 69.00 60.00" stroke="black" fill="transparent"/>
	<path d = "M 67.00 58.00 L 77.00 39.00 L 107.00 7.00 L 111.00 9.00 L 120.00 44.00" stroke="black" fill="transparent"/>
	<path d = "M 105.00 108.00 L 160.00 148.00 L 212.00 174.00 L 217.00 173.00 L 223.00 166.00 L 244.00 135.00 L 219.00 146.00 L 181.00 114.00" stroke="black" fill="transparent"/>
</svg>