<?xml version="1.0" encoding="UTF-8" standalone="no"?>
<!--Created with ndjsontosvg(https:https://github.com/thompson318/ndjsontosvg) 
	from the simplified Google quickdraw data set. key_id = 5078894765932544-->
<svg width="256" height="256"
	xmlns="http://www.w3.org/2000/svg"
	xmlns:ndjsontosvg="https://github.com/thompson318/ndjsontosvg"
	xmlns:quickdraw="https://quickdraw.withgoogle.com/data"
	xmlns:scikit-surgery="https://doi.org/10.1007/s11548-020-02180-5">

	<rect width="100%" height="100%" fill="white" />
	<path d = "M 150.00 86.00 L 140.00 108.00 L 121.00 130.00 L 80.00 161.00 L 48.00 197.00 L 55.00 181.00 L 72.00 122.00 L 91.00 80.00 L 105.00 59.00" stroke="black" fill="transparent"/>
	<path d = "M 151.00 86.00 L 179.00 87.00 L 189.00 97.00 L 199.00 101.00 L 233.00 95.00 L 247.00 89.00 L 254.00 82.00 L 254.00 70.00 L 249.00 63.00 L 225.00 63.00 L 164.00 45.00 L 103.00 32.00 L 52.00 30.00 L 32.00 24.00 L 25.00 26.00" stroke="black" fill="transparent"/>
	<path d = "M 23.00 28.00 L 21.00 29.00" stroke="black" fill="transparent"/>
	<path d = "M 25.00 33.00 L 21.00 2.00 L 0.00 1.00 L 13.00 49.00" stroke="black" fill="transparent"/>
	<path d = "M 11.00 54.00 L 55.00 54.00 L 75.00 60.00 L 96.00 60.00 L 113.00 64.00" stroke="black" fill="transparent"/>
	<path d = "M 108.00 39.00 L 114.00 35.00 L 157.00 31.00 L 178.00 25.00" stroke="black" fill="transparent"/>
</svg>