<?xml version="1.0" encoding="UTF-8" standalone="no"?>
<!--Created with ndjsontosvg(https:https://github.com/thompson318/ndjsontosvg) 
	from the simplified Google quickdraw data set. key_id = 6085120710672384-->
<svg width="256" height="256"
	xmlns="http://www.w3.org/2000/svg"
	xmlns:ndjsontosvg="https://github.com/thompson318/ndjsontosvg"
	xmlns:quickdraw="https://quickdraw.withgoogle.com/data"
	xmlns:scikit-surgery="https://doi.org/10.1007/s11548-020-02180-5">

	<rect width="100%" height="100%" fill="white" />
	<path d = "M 75.00 35.00 L 65.00 45.00 L 60.00 67.00 L 85.00 83.00 L 124.00 85.00 L 166.00 62.00 L 181.00 51.00 L 189.00 32.00 L 184.00 17.00 L 173.00 5.00 L 140.00 0.00 L 111.00 0.00 L 99.00 7.00 L 94.00 22.00" stroke="black" fill="transparent"/>
	<path d = "M 84.00 25.00 L 76.00 29.00 L 60.00 50.00 L 51.00 53.00" stroke="black" fill="transparent"/>
	<path d = "M 51.00 49.00 L 12.00 48.00 L 1.00 64.00 L 3.00 68.00 L 96.00 67.00 L 148.00 57.00 L 163.00 51.00 L 203.00 20.00 L 226.00 10.00 L 233.00 3.00 L 226.00 1.00 L 255.00 2.00 L 200.00 32.00 L 138.00 50.00 L 116.00 63.00 L 113.00 66.00 L 117.00 65.00" stroke="black" fill="transparent"/>
</svg>