<?xml version="1.0" encoding="UTF-8" standalone="no"?>
<!--Created with ndjsontosvg(https:https://github.com/thompson318/ndjsontosvg) 
	from the simplified Google quickdraw data set. key_id = 5518715120517120-->
<svg width="256" height="256"
	xmlns="http://www.w3.org/2000/svg"
	xmlns:ndjsontosvg="https://github.com/thompson318/ndjsontosvg"
	xmlns:quickdraw="https://quickdraw.withgoogle.com/data"
	xmlns:scikit-surgery="https://doi.org/10.1007/s11548-020-02180-5">

	<rect width="100%" height="100%" fill="white" />
	<path d = "M 208.00 65.00 L 158.00 65.00 L 111.00 72.00 L 25.00 75.00 L 13.00 82.00 L 1.00 94.00 L 0.00 102.00 L 5.00 110.00 L 29.00 117.00 L 63.00 118.00 L 172.00 89.00 L 197.00 85.00 L 216.00 73.00" stroke="black" fill="transparent"/>
	<path d = "M 221.00 60.00 L 220.00 55.00 L 226.00 48.00 L 248.00 28.00 L 252.00 20.00 L 254.00 25.00 L 241.00 81.00 L 251.00 101.00 L 255.00 115.00 L 250.00 118.00 L 245.00 115.00 L 215.00 78.00" stroke="black" fill="transparent"/>
	<path d = "M 81.00 103.00 L 81.00 195.00 L 109.00 144.00 L 119.00 109.00" stroke="black" fill="transparent"/>
	<path d = "M 83.00 67.00 L 68.00 21.00 L 57.00 0.00 L 81.00 8.00 L 95.00 22.00 L 115.00 66.00" stroke="black" fill="transparent"/>
	<path d = "M 28.00 93.00 L 48.00 90.00 L 34.00 97.00" stroke="black" fill="transparent"/>
</svg>