<?xml version="1.0" encoding="UTF-8" standalone="no"?>
<!--Created with ndjsontosvg(https:https://github.com/thompson318/ndjsontosvg) 
	from the simplified Google quickdraw data set. key_id = 5903906812985344-->
<svg width="256" height="256"
	xmlns="http://www.w3.org/2000/svg"
	xmlns:ndjsontosvg="https://github.com/thompson318/ndjsontosvg"
	xmlns:quickdraw="https://quickdraw.withgoogle.com/data"
	xmlns:scikit-surgery="https://doi.org/10.1007/s11548-020-02180-5">

	<rect width="100%" height="100%" fill="white" />
	<path d = "M 48.00 53.00 L 114.00 55.00 L 172.00 67.00 L 215.00 70.00 L 255.00 89.00 L 254.00 99.00 L 245.00 105.00 L 182.00 117.00 L 143.00 117.00 L 152.00 120.00 L 128.00 122.00 L 70.00 112.00 L 18.00 95.00 L 0.00 84.00 L 3.00 41.00 L 7.00 30.00 L 20.00 12.00 L 44.00 44.00" stroke="black" fill="transparent"/>
	<path d = "M 97.00 58.00 L 138.00 4.00 L 146.00 0.00 L 150.00 28.00 L 146.00 54.00" stroke="black" fill="transparent"/>
	<path d = "M 107.00 117.00 L 110.00 141.00 L 115.00 147.00 L 124.00 149.00 L 131.00 148.00 L 140.00 140.00 L 149.00 119.00" stroke="black" fill="transparent"/>
	<path d = "M 213.00 77.00 L 212.00 84.00 L 217.00 87.00 L 254.00 88.00" stroke="black" fill="transparent"/>
	<path d = "M 142.00 85.00 L 133.00 90.00 L 130.00 101.00 L 139.00 102.00 L 149.00 97.00 L 144.00 88.00 L 138.00 87.00" stroke="black" fill="transparent"/>
</svg>