<?xml version="1.0" encoding="UTF-8" standalone="no"?>
<!--Created with ndjsontosvg(https:https://github.com/thompson318/ndjsontosvg) 
	from the simplified Google quickdraw data set. key_id = 4832913449287680-->
<svg width="256" height="256"
	xmlns="http://www.w3.org/2000/svg"
	xmlns:ndjsontosvg="https://github.com/thompson318/ndjsontosvg"
	xmlns:quickdraw="https://quickdraw.withgoogle.com/data"
	xmlns:scikit-surgery="https://doi.org/10.1007/s11548-020-02180-5">

	<rect width="100%" height="100%" fill="white" />
	<path d = "M 2.00 60.00 L 71.00 46.00 L 204.00 48.00" stroke="black" fill="transparent"/>
	<path d = "M 11.00 58.00 L 2.00 63.00 L 0.00 74.00 L 8.00 83.00 L 26.00 89.00 L 112.00 91.00 L 223.00 72.00" stroke="black" fill="transparent"/>
	<path d = "M 207.00 48.00 L 225.00 46.00 L 236.00 30.00 L 248.00 34.00 L 238.00 61.00 L 254.00 76.00 L 254.00 82.00 L 247.00 93.00 L 222.00 76.00" stroke="black" fill="transparent"/>
	<path d = "M 78.00 69.00 L 117.00 112.00 L 126.00 127.00 L 150.00 128.00 L 159.00 126.00 L 157.00 115.00 L 131.00 80.00 L 117.00 67.00" stroke="black" fill="transparent"/>
	<path d = "M 61.00 43.00 L 92.00 17.00 L 105.00 0.00 L 177.00 15.00 L 164.00 28.00 L 140.00 43.00" stroke="black" fill="transparent"/>
	<path d = "M 45.00 63.00 L 38.00 73.00 L 38.00 76.00 L 42.00 76.00" stroke="black" fill="transparent"/>
</svg>