<?xml version="1.0" encoding="UTF-8" standalone="no"?>
<!--Created with ndjsontosvg(https:https://github.com/thompson318/ndjsontosvg) 
	from the simplified Google quickdraw data set. key_id = 6673063884095488-->
<svg width="256" height="256"
	xmlns="http://www.w3.org/2000/svg"
	xmlns:ndjsontosvg="https://github.com/thompson318/ndjsontosvg"
	xmlns:quickdraw="https://quickdraw.withgoogle.com/data"
	xmlns:scikit-surgery="https://doi.org/10.1007/s11548-020-02180-5">

	<rect width="100%" height="100%" fill="white" />
	<path d = "M 92.00 102.00 L 88.00 90.00 L 88.00 42.00 L 99.00 8.00 L 108.00 0.00 L 127.00 4.00 L 140.00 21.00 L 150.00 74.00 L 150.00 92.00" stroke="black" fill="transparent"/>
	<path d = "M 0.00 116.00 L 81.00 94.00 L 138.00 102.00 L 226.00 105.00 L 246.00 112.00 L 252.00 121.00 L 254.00 141.00 L 243.00 153.00 L 204.00 170.00 L 183.00 174.00 L 117.00 173.00 L 35.00 164.00 L 19.00 153.00 L 8.00 140.00 L 4.00 123.00 L 25.00 97.00 L 35.00 94.00" stroke="black" fill="transparent"/>
	<path d = "M 105.00 167.00 L 105.00 201.00 L 113.00 229.00 L 128.00 246.00 L 139.00 249.00 L 153.00 241.00 L 162.00 228.00 L 165.00 207.00 L 163.00 178.00" stroke="black" fill="transparent"/>
	<path d = "M 215.00 105.00 L 209.00 129.00 L 214.00 144.00" stroke="black" fill="transparent"/>
</svg>