<?xml version="1.0" encoding="UTF-8" standalone="no"?>
<!--Created with ndjsontosvg(https:https://github.com/thompson318/ndjsontosvg) 
	from the simplified Google quickdraw data set. key_id = 6409561047040000-->
<svg width="256" height="256"
	xmlns="http://www.w3.org/2000/svg"
	xmlns:ndjsontosvg="https://github.com/thompson318/ndjsontosvg"
	xmlns:quickdraw="https://quickdraw.withgoogle.com/data"
	xmlns:scikit-surgery="https://doi.org/10.1007/s11548-020-02180-5">

	<rect width="100%" height="100%" fill="white" />
	<path d = "M 40.00 75.00 L 27.00 75.00 L 14.00 82.00 L 4.00 93.00 L 1.00 105.00 L 126.00 114.00 L 217.00 109.00 L 235.00 95.00 L 249.00 67.00 L 255.00 13.00 L 254.00 7.00 L 249.00 4.00 L 227.00 14.00 L 210.00 51.00 L 181.00 74.00" stroke="black" fill="transparent"/>
	<path d = "M 182.00 73.00 L 132.00 76.00 L 36.00 72.00" stroke="black" fill="transparent"/>
	<path d = "M 94.00 69.00 L 119.00 47.00 L 152.00 0.00 L 149.00 69.00" stroke="black" fill="transparent"/>
	<path d = "M 97.00 118.00 L 117.00 136.00 L 135.00 160.00 L 149.00 166.00 L 156.00 157.00 L 155.00 114.00" stroke="black" fill="transparent"/>
</svg>