<?xml version="1.0" encoding="UTF-8" standalone="no"?>
<!--Created with ndjsontosvg(https:https://github.com/thompson318/ndjsontosvg) 
	from the simplified Google quickdraw data set. key_id = 5104414589190144-->
<svg width="256" height="256"
	xmlns="http://www.w3.org/2000/svg"
	xmlns:ndjsontosvg="https://github.com/thompson318/ndjsontosvg"
	xmlns:quickdraw="https://quickdraw.withgoogle.com/data"
	xmlns:scikit-surgery="https://doi.org/10.1007/s11548-020-02180-5">

	<rect width="100%" height="100%" fill="white" />
	<path d = "M 22.00 49.00 L 35.00 71.00 L 47.00 82.00 L 71.00 82.00 L 118.00 89.00 L 254.00 84.00" stroke="black" fill="transparent"/>
	<path d = "M 26.00 45.00 L 44.00 45.00 L 50.00 62.00 L 55.00 65.00 L 134.00 67.00 L 175.00 58.00 L 199.00 58.00 L 237.00 61.00 L 249.00 71.00 L 251.00 83.00" stroke="black" fill="transparent"/>
	<path d = "M 172.00 89.00 L 167.00 98.00 L 171.00 131.00 L 178.00 140.00 L 191.00 147.00 L 198.00 137.00 L 208.00 109.00 L 211.00 98.00 L 209.00 86.00" stroke="black" fill="transparent"/>
	<path d = "M 178.00 57.00 L 178.00 47.00 L 186.00 26.00 L 210.00 0.00 L 217.00 29.00 L 217.00 43.00 L 205.00 64.00" stroke="black" fill="transparent"/>
	<path d = "M 38.00 44.00 L 5.00 44.00 L 0.00 42.00" stroke="black" fill="transparent"/>
</svg>