<?xml version="1.0" encoding="UTF-8" standalone="no"?>
<!--Created with ndjsontosvg(https:https://github.com/thompson318/ndjsontosvg) 
	from the simplified Google quickdraw data set. key_id = 5876857482248192-->
<svg width="256" height="256"
	xmlns="http://www.w3.org/2000/svg"
	xmlns:ndjsontosvg="https://github.com/thompson318/ndjsontosvg"
	xmlns:quickdraw="https://quickdraw.withgoogle.com/data"
	xmlns:scikit-surgery="https://doi.org/10.1007/s11548-020-02180-5">

	<rect width="100%" height="100%" fill="white" />
	<path d = "M 0.00 53.00 L 22.00 35.00 L 50.00 25.00 L 109.00 27.00 L 152.00 20.00 L 199.00 17.00" stroke="black" fill="transparent"/>
	<path d = "M 0.00 53.00 L 7.00 59.00 L 27.00 67.00 L 72.00 70.00" stroke="black" fill="transparent"/>
	<path d = "M 67.00 50.00 L 70.00 59.00 L 121.00 111.00" stroke="black" fill="transparent"/>
	<path d = "M 106.00 41.00 L 131.00 66.00 L 146.00 91.00" stroke="black" fill="transparent"/>
	<path d = "M 144.00 88.00 L 146.00 97.00 L 140.00 104.00 L 113.00 113.00" stroke="black" fill="transparent"/>
	<path d = "M 126.00 61.00 L 179.00 69.00 L 198.00 66.00 L 215.00 51.00 L 219.00 43.00 L 219.00 30.00 L 215.00 21.00 L 212.00 18.00 L 201.00 16.00" stroke="black" fill="transparent"/>
	<path d = "M 214.00 20.00 L 228.00 21.00 L 255.00 12.00 L 233.00 38.00 L 197.00 65.00" stroke="black" fill="transparent"/>
	<path d = "M 66.00 23.00 L 110.00 0.00" stroke="black" fill="transparent"/>
</svg>