<?xml version="1.0" encoding="UTF-8" standalone="no"?>
<!--Created with ndjsontosvg(https:https://github.com/thompson318/ndjsontosvg) 
	from the simplified Google quickdraw data set. key_id = 5617060258250752-->
<svg width="256" height="256"
	xmlns="http://www.w3.org/2000/svg"
	xmlns:ndjsontosvg="https://github.com/thompson318/ndjsontosvg"
	xmlns:quickdraw="https://quickdraw.withgoogle.com/data"
	xmlns:scikit-surgery="https://doi.org/10.1007/s11548-020-02180-5">

	<rect width="100%" height="100%" fill="white" />
	<path d = "M 16.00 39.00 L 32.00 38.00 L 49.00 25.00" stroke="black" fill="transparent"/>
	<path d = "M 47.00 25.00 L 41.00 23.00 L 30.00 26.00 L 17.00 35.00 L 2.00 52.00 L 2.00 62.00 L 13.00 66.00 L 40.00 71.00 L 114.00 75.00" stroke="black" fill="transparent"/>
	<path d = "M 37.00 23.00 L 141.00 30.00" stroke="black" fill="transparent"/>
	<path d = "M 123.00 47.00 L 112.00 85.00 L 89.00 130.00 L 89.00 135.00 L 94.00 138.00 L 110.00 132.00 L 122.00 118.00 L 133.00 101.00 L 153.00 54.00" stroke="black" fill="transparent"/>
	<path d = "M 127.00 28.00 L 146.00 7.00 L 161.00 0.00 L 164.00 6.00 L 156.00 26.00" stroke="black" fill="transparent"/>
	<path d = "M 140.00 29.00 L 152.00 31.00 L 207.00 30.00" stroke="black" fill="transparent"/>
	<path d = "M 148.00 75.00 L 210.00 67.00" stroke="black" fill="transparent"/>
	<path d = "M 203.00 29.00 L 220.00 31.00 L 239.00 29.00" stroke="black" fill="transparent"/>
	<path d = "M 203.00 71.00 L 220.00 65.00 L 255.00 42.00" stroke="black" fill="transparent"/>
</svg>