<?xml version="1.0" encoding="UTF-8" standalone="no"?>
<!--Created with ndjsontosvg(https:https://github.com/thompson318/ndjsontosvg) 
	from the simplified Google quickdraw data set. key_id = 4888115745390592-->
<svg width="256" height="256"
	xmlns="http://www.w3.org/2000/svg"
	xmlns:ndjsontosvg="https://github.com/thompson318/ndjsontosvg"
	xmlns:quickdraw="https://quickdraw.withgoogle.com/data"
	xmlns:scikit-surgery="https://doi.org/10.1007/s11548-020-02180-5">

	<rect width="100%" height="100%" fill="white" />
	<path d = "M 255.00 54.00 L 149.00 44.00 L 34.00 48.00" stroke="black" fill="transparent"/>
	<path d = "M 34.00 48.00 L 6.00 49.00 L 0.00 54.00 L 3.00 81.00 L 22.00 89.00 L 138.00 96.00 L 201.00 96.00 L 237.00 91.00 L 247.00 85.00" stroke="black" fill="transparent"/>
	<path d = "M 250.00 55.00 L 250.00 75.00 L 246.00 79.00" stroke="black" fill="transparent"/>
	<path d = "M 138.00 65.00 L 170.00 84.00 L 232.00 141.00 L 213.00 149.00 L 189.00 139.00 L 163.00 110.00 L 134.00 65.00" stroke="black" fill="transparent"/>
	<path d = "M 129.00 39.00 L 154.00 31.00 L 168.00 22.00 L 172.00 6.00 L 160.00 0.00 L 154.00 1.00 L 135.00 13.00 L 99.00 48.00" stroke="black" fill="transparent"/>
	<path d = "M 213.00 50.00 L 209.00 69.00" stroke="black" fill="transparent"/>
</svg>