<?xml version="1.0" encoding="UTF-8" standalone="no"?>
<!--Created with ndjsontosvg(https:https://github.com/thompson318/ndjsontosvg) 
	from the simplified Google quickdraw data set. key_id = 4557785863815168-->
<svg width="256" height="256"
	xmlns="http://www.w3.org/2000/svg"
	xmlns:ndjsontosvg="https://github.com/thompson318/ndjsontosvg"
	xmlns:quickdraw="https://quickdraw.withgoogle.com/data"
	xmlns:scikit-surgery="https://doi.org/10.1007/s11548-020-02180-5">

	<rect width="100%" height="100%" fill="white" />
	<path d = "M 114.00 22.00 L 100.00 78.00 L 95.00 117.00 L 94.00 153.00 L 97.00 176.00 L 106.00 199.00 L 119.00 208.00 L 124.00 209.00 L 133.00 207.00 L 141.00 200.00 L 156.00 182.00 L 163.00 164.00 L 165.00 143.00 L 165.00 116.00 L 149.00 24.00 L 144.00 13.00 L 139.00 13.00 L 130.00 23.00" stroke="black" fill="transparent"/>
	<path d = "M 108.00 28.00 L 138.00 0.00" stroke="black" fill="transparent"/>
	<path d = "M 96.00 77.00 L 90.00 76.00 L 73.00 83.00 L 0.00 125.00 L 52.00 115.00 L 102.00 100.00" stroke="black" fill="transparent"/>
	<path d = "M 167.00 73.00 L 192.00 80.00 L 255.00 110.00 L 242.00 114.00 L 199.00 104.00 L 163.00 99.00" stroke="black" fill="transparent"/>
	<path d = "M 116.00 38.00 L 155.00 35.00" stroke="black" fill="transparent"/>
	<path d = "M 135.00 10.00 L 152.00 23.00" stroke="black" fill="transparent"/>
</svg>