<?xml version="1.0" encoding="UTF-8" standalone="no"?>
<!--Created with ndjsontosvg(https:https://github.com/thompson318/ndjsontosvg) 
	from the simplified Google quickdraw data set. key_id = 5643688975794176-->
<svg width="256" height="256"
	xmlns="http://www.w3.org/2000/svg"
	xmlns:ndjsontosvg="https://github.com/thompson318/ndjsontosvg"
	xmlns:quickdraw="https://quickdraw.withgoogle.com/data"
	xmlns:scikit-surgery="https://doi.org/10.1007/s11548-020-02180-5">

	<rect width="100%" height="100%" fill="white" />
	<path d = "M 62.00 58.00 L 85.00 70.00 L 124.00 82.00 L 195.00 98.00 L 236.00 111.00 L 253.00 112.00 L 255.00 115.00 L 246.00 124.00 L 231.00 130.00 L 185.00 136.00 L 157.00 133.00 L 149.00 129.00" stroke="black" fill="transparent"/>
	<path d = "M 148.00 110.00 L 70.00 77.00 L 54.00 73.00 L 27.00 59.00 L 34.00 67.00 L 48.00 99.00 L 61.00 110.00 L 86.00 125.00 L 135.00 144.00 L 151.00 142.00 L 171.00 133.00" stroke="black" fill="transparent"/>
	<path d = "M 72.00 60.00 L 57.00 56.00 L 50.00 48.00 L 48.00 17.00 L 52.00 6.00 L 51.00 1.00 L 48.00 0.00 L 26.00 20.00 L 19.00 35.00 L 17.00 53.00 L 11.00 59.00 L 9.00 74.00 L 0.00 77.00 L 23.00 88.00 L 53.00 108.00" stroke="black" fill="transparent"/>
	<path d = "M 181.00 111.00 L 181.00 111.00" stroke="black" fill="transparent"/>
</svg>