<?xml version="1.0" encoding="UTF-8" standalone="no"?>
<!--Created with ndjsontosvg(https:https://github.com/thompson318/ndjsontosvg) 
	from the simplified Google quickdraw data set. key_id = 5213840859987968-->
<svg width="256" height="256"
	xmlns="http://www.w3.org/2000/svg"
	xmlns:ndjsontosvg="https://github.com/thompson318/ndjsontosvg"
	xmlns:quickdraw="https://quickdraw.withgoogle.com/data"
	xmlns:scikit-surgery="https://doi.org/10.1007/s11548-020-02180-5">

	<rect width="100%" height="100%" fill="white" />
	<path d = "M 78.00 62.00 L 41.00 59.00 L 27.00 63.00 L 13.00 82.00 L 12.00 87.00 L 18.00 90.00 L 53.00 96.00 L 118.00 98.00 L 138.00 102.00 L 199.00 100.00 L 219.00 93.00 L 246.00 65.00 L 248.00 49.00 L 255.00 31.00 L 235.00 40.00 L 220.00 57.00 L 200.00 71.00 L 175.00 64.00 L 149.00 63.00 L 120.00 67.00 L 103.00 62.00 L 78.00 62.00" stroke="black" fill="transparent"/>
	<path d = "M 89.00 68.00 L 114.00 43.00 L 171.00 0.00 L 171.00 12.00 L 162.00 33.00 L 148.00 81.00" stroke="black" fill="transparent"/>
	<path d = "M 52.00 100.00 L 44.00 102.00 L 0.00 143.00 L 70.00 120.00 L 89.00 109.00 L 102.00 96.00" stroke="black" fill="transparent"/>
	<path d = "M 44.00 83.00 L 49.00 71.00 L 70.00 74.00" stroke="black" fill="transparent"/>
</svg>