<?xml version="1.0" encoding="UTF-8" standalone="no"?>
<!--Created with ndjsontosvg(https:https://github.com/thompson318/ndjsontosvg) 
	from the simplified Google quickdraw data set. key_id = 6089450926899200-->
<svg width="256" height="256"
	xmlns="http://www.w3.org/2000/svg"
	xmlns:ndjsontosvg="https://github.com/thompson318/ndjsontosvg"
	xmlns:quickdraw="https://quickdraw.withgoogle.com/data"
	xmlns:scikit-surgery="https://doi.org/10.1007/s11548-020-02180-5">

	<rect width="100%" height="100%" fill="white" />
	<path d = "M 2.00 65.00 L 2.00 45.00 L 6.00 28.00 L 13.00 19.00 L 26.00 17.00 L 41.00 22.00 L 49.00 41.00 L 63.00 47.00 L 147.00 50.00 L 217.00 45.00 L 242.00 49.00 L 249.00 54.00 L 251.00 64.00 L 243.00 77.00 L 227.00 82.00 L 202.00 83.00 L 57.00 85.00 L 25.00 82.00 L 13.00 77.00 L 0.00 68.00 L 2.00 61.00 L 9.00 59.00" stroke="black" fill="transparent"/>
	<path d = "M 85.00 45.00 L 112.00 8.00 L 128.00 0.00 L 147.00 3.00 L 161.00 11.00 L 174.00 32.00 L 172.00 39.00 L 165.00 45.00" stroke="black" fill="transparent"/>
	<path d = "M 99.00 83.00 L 84.00 121.00 L 82.00 142.00 L 88.00 149.00 L 101.00 154.00 L 125.00 153.00 L 146.00 141.00 L 156.00 123.00 L 161.00 73.00" stroke="black" fill="transparent"/>
	<path d = "M 187.00 48.00 L 193.00 61.00 L 199.00 65.00 L 242.00 66.00 L 255.00 62.00" stroke="black" fill="transparent"/>
</svg>