<?xml version="1.0" encoding="UTF-8" standalone="no"?>
<!--Created with ndjsontosvg(https:https://github.com/thompson318/ndjsontosvg) 
	from the simplified Google quickdraw data set. key_id = 5465253586403328-->
<svg width="256" height="256"
	xmlns="http://www.w3.org/2000/svg"
	xmlns:ndjsontosvg="https://github.com/thompson318/ndjsontosvg"
	xmlns:quickdraw="https://quickdraw.withgoogle.com/data"
	xmlns:scikit-surgery="https://doi.org/10.1007/s11548-020-02180-5">

	<rect width="100%" height="100%" fill="white" />
	<path d = "M 228.00 102.00 L 220.00 98.00 L 184.00 93.00 L 97.00 93.00 L 56.00 101.00 L 22.00 116.00 L 2.00 134.00 L 1.00 148.00 L 26.00 156.00 L 192.00 156.00 L 237.00 148.00 L 250.00 143.00 L 255.00 129.00 L 245.00 117.00 L 218.00 105.00" stroke="black" fill="transparent"/>
	<path d = "M 102.00 87.00 L 98.00 84.00 L 74.00 19.00 L 146.00 0.00 L 141.00 14.00 L 127.00 35.00 L 134.00 95.00" stroke="black" fill="transparent"/>
	<path d = "M 107.00 145.00 L 108.00 202.00 L 112.00 224.00 L 121.00 246.00 L 178.00 247.00 L 186.00 243.00 L 189.00 238.00 L 176.00 231.00 L 148.00 223.00 L 146.00 149.00" stroke="black" fill="transparent"/>
	<path d = "M 186.00 95.00 L 186.00 128.00" stroke="black" fill="transparent"/>
</svg>