<?xml version="1.0" encoding="UTF-8" standalone="no"?>
<!--Created with ndjsontosvg(https:https://github.com/thompson318/ndjsontosvg) 
	from the simplified Google quickdraw data set. key_id = 5056266260971520-->
<svg width="256" height="256"
	xmlns="http://www.w3.org/2000/svg"
	xmlns:ndjsontosvg="https://github.com/thompson318/ndjsontosvg"
	xmlns:quickdraw="https://quickdraw.withgoogle.com/data"
	xmlns:scikit-surgery="https://doi.org/10.1007/s11548-020-02180-5">

	<rect width="100%" height="100%" fill="white" />
	<path d = "M 194.00 12.00 L 114.00 8.00 L 57.00 11.00 L 12.00 19.00 L 6.00 28.00 L 3.00 42.00 L 4.00 48.00 L 24.00 53.00 L 191.00 43.00 L 210.00 39.00 L 214.00 23.00 L 207.00 17.00 L 184.00 13.00" stroke="black" fill="transparent"/>
	<path d = "M 110.00 26.00 L 151.00 104.00 L 170.00 122.00 L 182.00 125.00 L 188.00 117.00 L 192.00 102.00 L 190.00 84.00 L 184.00 67.00 L 166.00 46.00 L 144.00 28.00 L 132.00 23.00 L 122.00 24.00" stroke="black" fill="transparent"/>
	<path d = "M 212.00 17.00 L 217.00 0.00 L 226.00 21.00 L 255.00 26.00 L 234.00 32.00 L 207.00 35.00" stroke="black" fill="transparent"/>
	<path d = "M 23.00 18.00 L 31.00 27.00 L 31.00 33.00 L 15.00 38.00 L 0.00 38.00" stroke="black" fill="transparent"/>
	<path d = "M 17.00 37.00 L 120.00 38.00 L 179.00 35.00" stroke="black" fill="transparent"/>
</svg>