<?xml version="1.0" encoding="UTF-8" standalone="no"?>
<!--Created with ndjsontosvg(https:https://github.com/thompson318/ndjsontosvg) 
	from the simplified Google quickdraw data set. key_id = 6541029408768000-->
<svg width="256" height="256"
	xmlns="http://www.w3.org/2000/svg"
	xmlns:ndjsontosvg="https://github.com/thompson318/ndjsontosvg"
	xmlns:quickdraw="https://quickdraw.withgoogle.com/data"
	xmlns:scikit-surgery="https://doi.org/10.1007/s11548-020-02180-5">

	<rect width="100%" height="100%" fill="white" />
	<path d = "M 61.00 65.00 L 43.00 66.00 L 14.00 76.00 L 2.00 87.00 L 0.00 104.00 L 12.00 109.00 L 125.00 109.00 L 124.00 114.00 L 104.00 139.00 L 92.00 162.00 L 89.00 184.00 L 96.00 192.00 L 109.00 191.00 L 144.00 142.00 L 148.00 126.00 L 155.00 118.00 L 165.00 114.00 L 211.00 106.00 L 228.00 96.00 L 253.00 38.00 L 255.00 8.00 L 249.00 0.00 L 239.00 0.00 L 232.00 4.00 L 219.00 17.00 L 198.00 50.00 L 188.00 57.00 L 164.00 61.00 L 160.00 57.00 L 175.00 10.00 L 175.00 5.00 L 172.00 3.00 L 167.00 5.00 L 148.00 30.00 L 129.00 61.00 L 118.00 64.00 L 61.00 64.00" stroke="black" fill="transparent"/>
</svg>