<?xml version="1.0" encoding="UTF-8" standalone="no"?>
<!--Created with ndjsontosvg(https:https://github.com/thompson318/ndjsontosvg) 
	from the simplified Google quickdraw data set. key_id = 6577010312740864-->
<svg width="256" height="256"
	xmlns="http://www.w3.org/2000/svg"
	xmlns:ndjsontosvg="https://github.com/thompson318/ndjsontosvg"
	xmlns:quickdraw="https://quickdraw.withgoogle.com/data"
	xmlns:scikit-surgery="https://doi.org/10.1007/s11548-020-02180-5">

	<rect width="100%" height="100%" fill="white" />
	<path d = "M 90.00 65.00 L 88.00 31.00 L 95.00 12.00 L 104.00 0.00 L 112.00 11.00 L 122.00 65.00" stroke="black" fill="transparent"/>
	<path d = "M 96.00 97.00 L 93.00 129.00 L 99.00 146.00 L 105.00 152.00 L 116.00 149.00 L 121.00 141.00 L 124.00 119.00 L 120.00 108.00" stroke="black" fill="transparent"/>
	<path d = "M 88.00 67.00 L 34.00 64.00 L 26.00 83.00 L 7.00 85.00 L 0.00 90.00 L 21.00 95.00 L 101.00 100.00" stroke="black" fill="transparent"/>
	<path d = "M 49.00 66.00 L 51.00 76.00 L 47.00 82.00 L 32.00 82.00" stroke="black" fill="transparent"/>
	<path d = "M 122.00 67.00 L 193.00 66.00 L 207.00 45.00 L 219.00 71.00 L 255.00 77.00 L 246.00 81.00 L 137.00 87.00" stroke="black" fill="transparent"/>
</svg>