<?xml version="1.0" encoding="UTF-8" standalone="no"?>
<!--Created with ndjsontosvg(https:https://github.com/thompson318/ndjsontosvg) 
	from the simplified Google quickdraw data set. key_id = 5833188599398400-->
<svg width="256" height="256"
	xmlns="http://www.w3.org/2000/svg"
	xmlns:ndjsontosvg="https://github.com/thompson318/ndjsontosvg"
	xmlns:quickdraw="https://quickdraw.withgoogle.com/data"
	xmlns:scikit-surgery="https://doi.org/10.1007/s11548-020-02180-5">

	<rect width="100%" height="100%" fill="white" />
	<path d = "M 28.00 113.00 L 0.00 166.00 L 47.00 169.00" stroke="black" fill="transparent"/>
	<path d = "M 108.00 109.00 L 138.00 172.00 L 94.00 174.00" stroke="black" fill="transparent"/>
	<path d = "M 47.00 170.00 L 52.00 194.00 L 53.00 233.00 L 34.00 249.00 L 49.00 255.00 L 55.00 252.00" stroke="black" fill="transparent"/>
	<path d = "M 92.00 173.00 L 91.00 231.00 L 102.00 241.00 L 103.00 246.00 L 90.00 253.00 L 61.00 253.00 L 58.00 250.00" stroke="black" fill="transparent"/>
	<path d = "M 76.00 226.00 L 67.00 245.00 L 78.00 244.00" stroke="black" fill="transparent"/>
	<path d = "M 25.00 115.00 L 47.00 81.00 L 64.00 40.00 L 65.00 2.00 L 75.00 0.00 L 86.00 6.00 L 95.00 89.00 L 102.00 109.00 L 110.00 116.00" stroke="black" fill="transparent"/>
</svg>