<?xml version="1.0" encoding="UTF-8" standalone="no"?>
<!--Created with ndjsontosvg(https:https://github.com/thompson318/ndjsontosvg) 
	from the simplified Google quickdraw data set. key_id = 5876230014369792-->
<svg width="256" height="256"
	xmlns="http://www.w3.org/2000/svg"
	xmlns:ndjsontosvg="https://github.com/thompson318/ndjsontosvg"
	xmlns:quickdraw="https://quickdraw.withgoogle.com/data"
	xmlns:scikit-surgery="https://doi.org/10.1007/s11548-020-02180-5">

	<rect width="100%" height="100%" fill="white" />
	<path d = "M 2.00 122.00 L 60.00 116.00 L 97.00 116.00 L 237.00 131.00 L 239.00 133.00 L 220.00 143.00 L 172.00 159.00 L 137.00 166.00 L 106.00 167.00 L 2.00 134.00 L 0.00 130.00 L 3.00 127.00 L 20.00 125.00" stroke="black" fill="transparent"/>
	<path d = "M 84.00 115.00 L 79.00 40.00 L 89.00 19.00 L 109.00 0.00 L 124.00 25.00 L 122.00 118.00" stroke="black" fill="transparent"/>
	<path d = "M 87.00 158.00 L 88.00 222.00 L 91.00 251.00 L 95.00 255.00 L 106.00 252.00 L 112.00 239.00 L 117.00 202.00 L 118.00 162.00" stroke="black" fill="transparent"/>
	<path d = "M 211.00 124.00 L 211.00 124.00" stroke="black" fill="transparent"/>
</svg>