<?xml version="1.0" encoding="UTF-8" standalone="no"?>
<!--Created with ndjsontosvg(https:https://github.com/thompson318/ndjsontosvg) 
	from the simplified Google quickdraw data set. key_id = 5044490014294016-->
<svg width="256" height="256"
	xmlns="http://www.w3.org/2000/svg"
	xmlns:ndjsontosvg="https://github.com/thompson318/ndjsontosvg"
	xmlns:quickdraw="https://quickdraw.withgoogle.com/data"
	xmlns:scikit-surgery="https://doi.org/10.1007/s11548-020-02180-5">

	<rect width="100%" height="100%" fill="white" />
	<path d = "M 75.00 87.00 L 51.00 91.00 L 20.00 87.00 L 3.00 80.00 L 0.00 68.00 L 5.00 64.00 L 98.00 50.00 L 148.00 50.00 L 190.00 56.00 L 228.00 58.00 L 237.00 75.00 L 225.00 83.00 L 216.00 85.00 L 182.00 90.00 L 126.00 87.00 L 59.00 91.00" stroke="black" fill="transparent"/>
	<path d = "M 93.00 51.00 L 77.00 5.00 L 81.00 1.00 L 93.00 0.00 L 102.00 4.00 L 108.00 12.00 L 120.00 53.00" stroke="black" fill="transparent"/>
	<path d = "M 95.00 93.00 L 110.00 126.00 L 117.00 132.00 L 126.00 116.00 L 128.00 102.00 L 126.00 91.00 L 118.00 82.00" stroke="black" fill="transparent"/>
	<path d = "M 223.00 65.00 L 255.00 83.00" stroke="black" fill="transparent"/>
</svg>