<?xml version="1.0" encoding="UTF-8" standalone="no"?>
<!--Created with ndjsontosvg(https:https://github.com/thompson318/ndjsontosvg) 
	from the simplified Google quickdraw data set. key_id = 4927566257324032-->
<svg width="256" height="256"
	xmlns="http://www.w3.org/2000/svg"
	xmlns:ndjsontosvg="https://github.com/thompson318/ndjsontosvg"
	xmlns:quickdraw="https://quickdraw.withgoogle.com/data"
	xmlns:scikit-surgery="https://doi.org/10.1007/s11548-020-02180-5">

	<rect width="100%" height="100%" fill="white" />
	<path d = "M 3.00 3.00 L 5.00 34.00 L 15.00 62.00" stroke="black" fill="transparent"/>
	<path d = "M 0.00 1.00 L 36.00 56.00" stroke="black" fill="transparent"/>
	<path d = "M 1.00 35.00 L 27.00 26.00" stroke="black" fill="transparent"/>
	<path d = "M 49.00 23.00 L 50.00 49.00 L 53.00 32.00 L 59.00 23.00 L 70.00 21.00 L 80.00 26.00" stroke="black" fill="transparent"/>
	<path d = "M 85.00 19.00 L 84.00 34.00 L 89.00 52.00" stroke="black" fill="transparent"/>
	<path d = "M 82.00 0.00 L 82.00 1.00" stroke="black" fill="transparent"/>
	<path d = "M 102.00 16.00 L 106.00 73.00" stroke="black" fill="transparent"/>
	<path d = "M 96.00 15.00 L 116.00 10.00 L 131.00 16.00 L 133.00 23.00 L 128.00 28.00 L 107.00 27.00" stroke="black" fill="transparent"/>
	<path d = "M 144.00 2.00 L 141.00 17.00 L 143.00 51.00" stroke="black" fill="transparent"/>
	<path d = "M 171.00 23.00 L 157.00 24.00 L 152.00 34.00 L 159.00 34.00 L 171.00 23.00 L 176.00 40.00" stroke="black" fill="transparent"/>
	<path d = "M 190.00 22.00 L 188.00 40.00 L 199.00 20.00 L 205.00 17.00 L 210.00 19.00 L 219.00 46.00" stroke="black" fill="transparent"/>
	<path d = "M 219.00 30.00 L 234.00 30.00 L 239.00 25.00 L 228.00 25.00 L 228.00 33.00 L 255.00 56.00" stroke="black" fill="transparent"/>
	<path d = "M 151.00 59.00 L 154.00 77.00 L 170.00 70.00 L 191.00 65.00 L 212.00 66.00 L 217.00 72.00" stroke="black" fill="transparent"/>
</svg>