<?xml version="1.0" encoding="UTF-8" standalone="no"?>
<!--Created with ndjsontosvg(https:https://github.com/thompson318/ndjsontosvg) 
	from the simplified Google quickdraw data set. key_id = 5474363648245760-->
<svg width="256" height="256"
	xmlns="http://www.w3.org/2000/svg"
	xmlns:ndjsontosvg="https://github.com/thompson318/ndjsontosvg"
	xmlns:quickdraw="https://quickdraw.withgoogle.com/data"
	xmlns:scikit-surgery="https://doi.org/10.1007/s11548-020-02180-5">

	<rect width="100%" height="100%" fill="white" />
	<path d = "M 0.00 54.00 L 8.00 58.00 L 29.00 58.00 L 46.00 42.00 L 58.00 39.00 L 70.00 39.00 L 91.00 49.00 L 128.00 50.00 L 155.00 47.00 L 185.00 37.00 L 219.00 35.00 L 232.00 39.00 L 243.00 47.00 L 251.00 57.00 L 255.00 75.00 L 254.00 84.00 L 245.00 93.00 L 216.00 96.00 L 159.00 90.00 L 96.00 88.00 L 23.00 74.00 L 0.00 59.00" stroke="black" fill="transparent"/>
	<path d = "M 168.00 94.00 L 176.00 128.00 L 177.00 148.00 L 175.00 155.00 L 168.00 157.00 L 151.00 136.00 L 133.00 88.00" stroke="black" fill="transparent"/>
	<path d = "M 154.00 48.00 L 155.00 40.00 L 147.00 19.00 L 135.00 5.00 L 125.00 0.00 L 119.00 10.00 L 125.00 54.00" stroke="black" fill="transparent"/>
	<path d = "M 97.00 58.00 L 97.00 65.00 L 83.00 67.00 L 83.00 57.00" stroke="black" fill="transparent"/>
</svg>