<?xml version="1.0" encoding="UTF-8" standalone="no"?>
<!--Created with ndjsontosvg(https:https://github.com/thompson318/ndjsontosvg) 
	from the simplified Google quickdraw data set. key_id = 5422542598701056-->
<svg width="256" height="256"
	xmlns="http://www.w3.org/2000/svg"
	xmlns:ndjsontosvg="https://github.com/thompson318/ndjsontosvg"
	xmlns:quickdraw="https://quickdraw.withgoogle.com/data"
	xmlns:scikit-surgery="https://doi.org/10.1007/s11548-020-02180-5">

	<rect width="100%" height="100%" fill="white" />
	<path d = "M 0.00 104.00 L 20.00 92.00 L 54.00 82.00 L 138.00 82.00 L 200.00 100.00 L 254.00 134.00 L 255.00 171.00 L 250.00 187.00 L 193.00 186.00 L 125.00 177.00 L 43.00 153.00 L 23.00 140.00 L 4.00 108.00" stroke="black" fill="transparent"/>
	<path d = "M 108.00 83.00 L 126.00 44.00 L 146.00 16.00 L 173.00 4.00 L 191.00 0.00 L 197.00 0.00 L 197.00 8.00 L 181.00 29.00 L 157.00 81.00" stroke="black" fill="transparent"/>
	<path d = "M 69.00 164.00 L 55.00 191.00 L 51.00 209.00 L 54.00 222.00 L 63.00 228.00 L 87.00 221.00 L 98.00 212.00 L 118.00 164.00" stroke="black" fill="transparent"/>
</svg>