<?xml version="1.0" encoding="UTF-8" standalone="no"?>
<!--Created with ndjsontosvg(https:https://github.com/thompson318/ndjsontosvg) 
	from the simplified Google quickdraw data set. key_id = 5390329924550656-->
<svg width="256" height="256"
	xmlns="http://www.w3.org/2000/svg"
	xmlns:ndjsontosvg="https://github.com/thompson318/ndjsontosvg"
	xmlns:quickdraw="https://quickdraw.withgoogle.com/data"
	xmlns:scikit-surgery="https://doi.org/10.1007/s11548-020-02180-5">

	<rect width="100%" height="100%" fill="white" />
	<path d = "M 103.00 22.00 L 86.00 26.00 L 74.00 23.00 L 68.00 9.00 L 72.00 4.00 L 82.00 1.00 L 150.00 1.00 L 162.00 3.00 L 176.00 9.00 L 174.00 19.00 L 167.00 24.00 L 132.00 30.00 L 140.00 48.00 L 142.00 118.00 L 147.00 121.00 L 181.00 118.00 L 210.00 125.00 L 240.00 139.00 L 249.00 160.00 L 250.00 170.00 L 240.00 174.00 L 168.00 171.00 L 161.00 188.00 L 158.00 212.00 L 148.00 218.00 L 124.00 201.00 L 110.00 173.00 L 103.00 172.00 L 61.00 178.00 L 29.00 178.00 L 11.00 173.00 L 3.00 168.00 L 2.00 161.00 L 3.00 148.00 L 19.00 138.00 L 46.00 131.00 L 92.00 125.00 L 99.00 121.00 L 103.00 96.00 L 100.00 53.00 L 108.00 21.00" stroke="black" fill="transparent"/>
	<path d = "M 144.00 177.00 L 148.00 175.00" stroke="black" fill="transparent"/>
	<path d = "M 123.00 179.00 L 127.00 179.00" stroke="black" fill="transparent"/>
	<path d = "M 142.00 34.00 L 146.00 43.00 L 148.00 104.00 L 140.00 134.00" stroke="black" fill="transparent"/>
	<path d = "M 98.00 32.00 L 101.00 47.00 L 98.00 105.00 L 106.00 133.00" stroke="black" fill="transparent"/>
	<path d = "M 119.00 31.00 L 102.00 36.00 L 83.00 35.00 L 76.00 18.00 L 77.00 12.00 L 86.00 6.00 L 127.00 3.00 L 178.00 4.00 L 185.00 12.00 L 180.00 21.00 L 173.00 26.00 L 153.00 31.00 L 137.00 26.00" stroke="black" fill="transparent"/>
	<path d = "M 153.00 120.00 L 186.00 114.00 L 237.00 115.00 L 248.00 118.00 L 254.00 131.00 L 253.00 159.00 L 249.00 166.00 L 241.00 171.00 L 228.00 174.00 L 188.00 171.00 L 160.00 173.00" stroke="black" fill="transparent"/>
	<path d = "M 97.00 126.00 L 19.00 154.00 L 8.00 160.00 L 0.00 173.00" stroke="black" fill="transparent"/>
</svg>