<?xml version="1.0" encoding="UTF-8" standalone="no"?>
<!--Created with ndjsontosvg(https:https://github.com/thompson318/ndjsontosvg) 
	from the simplified Google quickdraw data set. key_id = 5566165113896960-->
<svg width="256" height="256"
	xmlns="http://www.w3.org/2000/svg"
	xmlns:ndjsontosvg="https://github.com/thompson318/ndjsontosvg"
	xmlns:quickdraw="https://quickdraw.withgoogle.com/data"
	xmlns:scikit-surgery="https://doi.org/10.1007/s11548-020-02180-5">

	<rect width="100%" height="100%" fill="white" />
	<path d = "M 103.00 9.00 L 107.00 47.00 L 98.00 118.00 L 99.00 163.00 L 106.00 176.00 L 118.00 180.00 L 128.00 178.00 L 139.00 168.00 L 145.00 148.00 L 145.00 124.00 L 136.00 23.00 L 131.00 9.00 L 122.00 0.00 L 113.00 3.00 L 100.00 15.00" stroke="black" fill="transparent"/>
	<path d = "M 141.00 46.00 L 181.00 40.00 L 202.00 44.00 L 222.00 51.00 L 240.00 62.00 L 249.00 71.00 L 255.00 81.00 L 249.00 91.00 L 229.00 100.00 L 134.00 113.00" stroke="black" fill="transparent"/>
	<path d = "M 102.00 68.00 L 87.00 61.00 L 53.00 58.00 L 13.00 63.00 L 3.00 67.00 L 0.00 72.00 L 12.00 79.00 L 110.00 103.00" stroke="black" fill="transparent"/>
</svg>