<?xml version="1.0" encoding="UTF-8" standalone="no"?>
<!--Created with ndjsontosvg(https:https://github.com/thompson318/ndjsontosvg) 
	from the simplified Google quickdraw data set. key_id = 4813110126837760-->
<svg width="256" height="256"
	xmlns="http://www.w3.org/2000/svg"
	xmlns:ndjsontosvg="https://github.com/thompson318/ndjsontosvg"
	xmlns:quickdraw="https://quickdraw.withgoogle.com/data"
	xmlns:scikit-surgery="https://doi.org/10.1007/s11548-020-02180-5">

	<rect width="100%" height="100%" fill="white" />
	<path d = "M 39.00 93.00 L 44.00 96.00 L 122.00 88.00 L 250.00 90.00 L 255.00 101.00 L 254.00 112.00 L 237.00 119.00 L 217.00 123.00 L 128.00 128.00 L 126.00 131.00 L 206.00 207.00 L 225.00 233.00 L 229.00 243.00 L 224.00 246.00 L 209.00 245.00 L 186.00 237.00 L 163.00 223.00 L 97.00 136.00" stroke="black" fill="transparent"/>
	<path d = "M 107.00 88.00 L 97.00 71.00 L 76.00 43.00 L 37.00 2.00 L 30.00 0.00 L 28.00 18.00 L 33.00 37.00 L 84.00 101.00" stroke="black" fill="transparent"/>
	<path d = "M 36.00 97.00 L 18.00 62.00 L 4.00 60.00 L 0.00 64.00" stroke="black" fill="transparent"/>
</svg>