<?xml version="1.0" encoding="UTF-8" standalone="no"?>
<!--Created with ndjsontosvg(https:https://github.com/thompson318/ndjsontosvg) 
	from the simplified Google quickdraw data set. key_id = 4634362769309696-->
<svg width="256" height="256"
	xmlns="http://www.w3.org/2000/svg"
	xmlns:ndjsontosvg="https://github.com/thompson318/ndjsontosvg"
	xmlns:quickdraw="https://quickdraw.withgoogle.com/data"
	xmlns:scikit-surgery="https://doi.org/10.1007/s11548-020-02180-5">

	<rect width="100%" height="100%" fill="white" />
	<path d = "M 80.00 110.00 L 78.00 99.00 L 83.00 94.00 L 132.00 70.00 L 181.00 58.00 L 205.00 57.00 L 237.00 64.00 L 251.00 73.00 L 255.00 85.00 L 244.00 100.00 L 229.00 110.00 L 196.00 126.00 L 173.00 133.00 L 100.00 138.00 L 73.00 133.00 L 73.00 131.00" stroke="black" fill="transparent"/>
	<path d = "M 114.00 87.00 L 121.00 74.00 L 123.00 28.00 L 133.00 1.00 L 137.00 1.00 L 139.00 13.00 L 138.00 36.00 L 127.00 75.00" stroke="black" fill="transparent"/>
	<path d = "M 123.00 131.00 L 131.00 143.00 L 138.00 180.00 L 155.00 229.00 L 160.00 234.00 L 164.00 230.00 L 163.00 212.00 L 150.00 169.00 L 146.00 163.00 L 139.00 159.00" stroke="black" fill="transparent"/>
	<path d = "M 90.00 89.00 L 78.00 89.00 L 59.00 96.00 L 42.00 76.00 L 29.00 51.00 L 25.00 46.00 L 21.00 47.00 L 21.00 80.00 L 16.00 108.00 L 0.00 159.00 L 13.00 153.00 L 45.00 145.00 L 58.00 138.00 L 65.00 136.00 L 67.00 138.00 L 60.00 101.00 L 61.00 90.00 L 60.00 121.00" stroke="black" fill="transparent"/>
</svg>