<?xml version="1.0" encoding="UTF-8" standalone="no"?>
<!--Created with ndjsontosvg(https:https://github.com/thompson318/ndjsontosvg) 
	from the simplified Google quickdraw data set. key_id = 4629979700658176-->
<svg width="256" height="256"
	xmlns="http://www.w3.org/2000/svg"
	xmlns:ndjsontosvg="https://github.com/thompson318/ndjsontosvg"
	xmlns:quickdraw="https://quickdraw.withgoogle.com/data"
	xmlns:scikit-surgery="https://doi.org/10.1007/s11548-020-02180-5">

	<rect width="100%" height="100%" fill="white" />
	<path d = "M 236.00 105.00 L 200.00 100.00 L 79.00 103.00 L 31.00 113.00 L 19.00 118.00 L 12.00 125.00 L 27.00 132.00 L 57.00 137.00 L 205.00 141.00 L 222.00 137.00 L 239.00 128.00 L 255.00 109.00 L 250.00 103.00 L 235.00 95.00" stroke="black" fill="transparent"/>
	<path d = "M 133.00 95.00 L 139.00 37.00 L 145.00 11.00 L 155.00 0.00 L 170.00 50.00 L 177.00 88.00 L 176.00 106.00 L 166.00 127.00" stroke="black" fill="transparent"/>
	<path d = "M 127.00 149.00 L 130.00 191.00 L 138.00 203.00 L 145.00 206.00 L 150.00 201.00 L 172.00 153.00 L 170.00 137.00 L 159.00 120.00" stroke="black" fill="transparent"/>
	<path d = "M 15.00 118.00 L 7.00 90.00 L 0.00 79.00 L 36.00 97.00 L 42.00 89.00 L 44.00 127.00 L 49.00 142.00" stroke="black" fill="transparent"/>
</svg>