<?xml version="1.0" encoding="UTF-8" standalone="no"?>
<!--Created with ndjsontosvg(https:https://github.com/thompson318/ndjsontosvg) 
	from the simplified Google quickdraw data set. key_id = 5339719476969472-->
<svg width="256" height="256"
	xmlns="http://www.w3.org/2000/svg"
	xmlns:ndjsontosvg="https://github.com/thompson318/ndjsontosvg"
	xmlns:quickdraw="https://quickdraw.withgoogle.com/data"
	xmlns:scikit-surgery="https://doi.org/10.1007/s11548-020-02180-5">

	<rect width="100%" height="100%" fill="white" />
	<path d = "M 192.00 42.00 L 210.00 54.00 L 253.00 70.00 L 255.00 73.00 L 252.00 76.00 L 227.00 92.00 L 201.00 97.00 L 198.00 102.00 L 136.00 118.00 L 131.00 170.00 L 121.00 163.00 L 114.00 149.00 L 113.00 114.00" stroke="black" fill="transparent"/>
	<path d = "M 200.00 54.00 L 180.00 41.00 L 108.00 54.00 L 110.00 27.00 L 102.00 4.00 L 95.00 0.00 L 89.00 21.00 L 85.00 63.00 L 45.00 72.00 L 21.00 84.00 L 0.00 120.00 L 16.00 132.00 L 43.00 136.00 L 79.00 119.00 L 98.00 116.00 L 117.00 118.00" stroke="black" fill="transparent"/>
	<path d = "M 193.00 58.00 L 200.00 101.00" stroke="black" fill="transparent"/>
</svg>