<?xml version="1.0" encoding="UTF-8" standalone="no"?>
<!--Created with ndjsontosvg(https:https://github.com/thompson318/ndjsontosvg) 
	from the simplified Google quickdraw data set. key_id = 5898665342271488-->
<svg width="256" height="256"
	xmlns="http://www.w3.org/2000/svg"
	xmlns:ndjsontosvg="https://github.com/thompson318/ndjsontosvg"
	xmlns:quickdraw="https://quickdraw.withgoogle.com/data"
	xmlns:scikit-surgery="https://doi.org/10.1007/s11548-020-02180-5">

	<rect width="100%" height="100%" fill="white" />
	<path d = "M 50.00 99.00 L 40.00 101.00 L 11.00 118.00 L 2.00 125.00 L 0.00 132.00 L 9.00 136.00 L 24.00 136.00 L 55.00 131.00 L 62.00 132.00 L 155.00 254.00 L 165.00 255.00 L 172.00 247.00 L 170.00 225.00 L 126.00 162.00 L 97.00 114.00" stroke="black" fill="transparent"/>
	<path d = "M 45.00 95.00 L 120.00 89.00" stroke="black" fill="transparent"/>
	<path d = "M 40.00 98.00 L 162.00 83.00" stroke="black" fill="transparent"/>
	<path d = "M 47.00 90.00 L 39.00 76.00 L 23.00 26.00 L 20.00 0.00 L 25.00 0.00 L 44.00 10.00 L 63.00 32.00 L 72.00 50.00 L 86.00 91.00" stroke="black" fill="transparent"/>
	<path d = "M 38.00 82.00 L 49.00 99.00" stroke="black" fill="transparent"/>
	<path d = "M 150.00 81.00 L 163.00 82.00 L 189.00 76.00 L 197.00 30.00 L 208.00 25.00 L 214.00 37.00 L 214.00 83.00 L 207.00 95.00 L 159.00 105.00 L 99.00 113.00" stroke="black" fill="transparent"/>
</svg>