<?xml version="1.0" encoding="UTF-8" standalone="no"?>
<!--Created with ndjsontosvg(https:https://github.com/thompson318/ndjsontosvg) 
	from the simplified Google quickdraw data set. key_id = 4885112569200640-->
<svg width="256" height="256"
	xmlns="http://www.w3.org/2000/svg"
	xmlns:ndjsontosvg="https://github.com/thompson318/ndjsontosvg"
	xmlns:quickdraw="https://quickdraw.withgoogle.com/data"
	xmlns:scikit-surgery="https://doi.org/10.1007/s11548-020-02180-5">

	<rect width="100%" height="100%" fill="white" />
	<path d = "M 105.00 52.00 L 102.00 26.00 L 106.00 14.00 L 112.00 3.00 L 126.00 0.00 L 133.00 4.00 L 137.00 14.00 L 139.00 77.00 L 209.00 65.00 L 235.00 65.00 L 250.00 71.00 L 255.00 82.00 L 243.00 94.00 L 227.00 99.00 L 188.00 96.00 L 162.00 106.00 L 155.00 106.00" stroke="black" fill="transparent"/>
	<path d = "M 104.00 48.00 L 106.00 71.00 L 83.00 61.00 L 30.00 69.00 L 0.00 78.00 L 11.00 88.00 L 35.00 100.00 L 89.00 107.00 L 111.00 105.00 L 117.00 109.00 L 125.00 129.00 L 125.00 139.00 L 124.00 201.00 L 120.00 213.00 L 128.00 220.00 L 147.00 218.00 L 151.00 214.00 L 139.00 188.00 L 139.00 162.00 L 142.00 149.00" stroke="black" fill="transparent"/>
</svg>