<?xml version="1.0" encoding="UTF-8" standalone="no"?>
<!--Created with ndjsontosvg(https:https://github.com/thompson318/ndjsontosvg) 
	from the simplified Google quickdraw data set. key_id = 5919543719362560-->
<svg width="256" height="256"
	xmlns="http://www.w3.org/2000/svg"
	xmlns:ndjsontosvg="https://github.com/thompson318/ndjsontosvg"
	xmlns:quickdraw="https://quickdraw.withgoogle.com/data"
	xmlns:scikit-surgery="https://doi.org/10.1007/s11548-020-02180-5">

	<rect width="100%" height="100%" fill="white" />
	<path d = "M 74.00 51.00 L 160.00 48.00 L 204.00 58.00 L 239.00 80.00 L 249.00 90.00 L 254.00 99.00 L 255.00 109.00 L 248.00 115.00 L 223.00 119.00 L 190.00 116.00 L 117.00 103.00 L 49.00 83.00 L 23.00 68.00 L 0.00 67.00 L 13.00 58.00 L 31.00 53.00 L 84.00 51.00" stroke="black" fill="transparent"/>
	<path d = "M 126.00 47.00 L 123.00 44.00 L 123.00 31.00 L 128.00 8.00 L 134.00 1.00 L 145.00 0.00 L 153.00 11.00 L 155.00 52.00" stroke="black" fill="transparent"/>
	<path d = "M 127.00 105.00 L 123.00 121.00 L 125.00 143.00 L 131.00 158.00 L 143.00 163.00 L 150.00 162.00 L 154.00 150.00 L 157.00 109.00" stroke="black" fill="transparent"/>
</svg>