<?xml version="1.0" encoding="UTF-8" standalone="no"?>
<!--Created with ndjsontosvg(https:https://github.com/thompson318/ndjsontosvg) 
	from the simplified Google quickdraw data set. key_id = 4980213937078272-->
<svg width="256" height="256"
	xmlns="http://www.w3.org/2000/svg"
	xmlns:ndjsontosvg="https://github.com/thompson318/ndjsontosvg"
	xmlns:quickdraw="https://quickdraw.withgoogle.com/data"
	xmlns:scikit-surgery="https://doi.org/10.1007/s11548-020-02180-5">

	<rect width="100%" height="100%" fill="white" />
	<path d = "M 19.00 54.00 L 29.00 53.00 L 61.00 59.00 L 168.00 82.00 L 244.00 91.00 L 244.00 94.00 L 219.00 107.00 L 157.00 129.00 L 71.00 137.00 L 17.00 138.00 L 4.00 133.00 L 0.00 125.00 L 3.00 88.00 L 10.00 68.00 L 32.00 66.00" stroke="black" fill="transparent"/>
	<path d = "M 160.00 88.00 L 148.00 69.00 L 129.00 21.00 L 114.00 1.00 L 111.00 0.00 L 103.00 10.00 L 85.00 53.00" stroke="black" fill="transparent"/>
	<path d = "M 150.00 137.00 L 124.00 191.00 L 109.00 209.00 L 104.00 206.00 L 88.00 181.00 L 77.00 149.00 L 73.00 152.00" stroke="black" fill="transparent"/>
	<path d = "M 228.00 101.00 L 234.00 95.00 L 240.00 65.00 L 247.00 58.00 L 255.00 81.00 L 248.00 104.00" stroke="black" fill="transparent"/>
</svg>