<?xml version="1.0" encoding="UTF-8" standalone="no"?>
<!--Created with ndjsontosvg(https:https://github.com/thompson318/ndjsontosvg) 
	from the simplified Google quickdraw data set. key_id = 5794738374443008-->
<svg width="256" height="256"
	xmlns="http://www.w3.org/2000/svg"
	xmlns:ndjsontosvg="https://github.com/thompson318/ndjsontosvg"
	xmlns:quickdraw="https://quickdraw.withgoogle.com/data"
	xmlns:scikit-surgery="https://doi.org/10.1007/s11548-020-02180-5">

	<rect width="100%" height="100%" fill="white" />
	<path d = "M 137.00 135.00 L 154.00 222.00 L 160.00 234.00 L 171.00 240.00 L 184.00 232.00 L 193.00 220.00 L 193.00 138.00 L 245.00 132.00 L 249.00 128.00 L 255.00 117.00 L 254.00 112.00 L 249.00 107.00 L 229.00 97.00 L 215.00 94.00 L 190.00 94.00 L 188.00 71.00 L 176.00 31.00 L 160.00 6.00 L 151.00 0.00 L 145.00 1.00 L 142.00 5.00 L 133.00 29.00 L 139.00 85.00 L 138.00 100.00 L 108.00 103.00 L 0.00 105.00 L 7.00 130.00 L 26.00 144.00 L 85.00 149.00 L 135.00 143.00" stroke="black" fill="transparent"/>
	<path d = "M 45.00 102.00 L 27.00 55.00 L 48.00 76.00 L 61.00 95.00" stroke="black" fill="transparent"/>
	<path d = "M 61.00 140.00 L 36.00 182.00 L 37.00 188.00 L 43.00 190.00 L 64.00 182.00 L 85.00 140.00" stroke="black" fill="transparent"/>
	<path d = "M 21.00 133.00 L 15.00 138.00 L 0.00 157.00 L 0.00 162.00" stroke="black" fill="transparent"/>
	<path d = "M 0.00 127.00 L 0.00 127.00" stroke="black" fill="transparent"/>
</svg>