<?xml version="1.0" encoding="UTF-8" standalone="no"?>
<!--Created with ndjsontosvg(https:https://github.com/thompson318/ndjsontosvg) 
	from the simplified Google quickdraw data set. key_id = 5612701638197248-->
<svg width="256" height="256"
	xmlns="http://www.w3.org/2000/svg"
	xmlns:ndjsontosvg="https://github.com/thompson318/ndjsontosvg"
	xmlns:quickdraw="https://quickdraw.withgoogle.com/data"
	xmlns:scikit-surgery="https://doi.org/10.1007/s11548-020-02180-5">

	<rect width="100%" height="100%" fill="white" />
	<path d = "M 146.00 54.00 L 175.00 54.00 L 218.00 68.00 L 254.00 99.00 L 254.00 103.00 L 247.00 106.00 L 170.00 111.00 L 106.00 110.00 L 71.00 100.00 L 45.00 99.00 L 16.00 103.00 L 1.00 98.00 L 3.00 84.00 L 34.00 54.00 L 62.00 37.00 L 100.00 38.00 L 131.00 46.00 L 161.00 47.00 L 175.00 56.00" stroke="black" fill="transparent"/>
	<path d = "M 115.00 49.00 L 63.00 66.00 L 40.00 83.00 L 21.00 107.00 L 6.00 142.00 L 5.00 156.00 L 16.00 160.00 L 42.00 161.00 L 87.00 147.00 L 111.00 127.00 L 148.00 75.00" stroke="black" fill="transparent"/>
	<path d = "M 134.00 41.00 L 175.00 3.00 L 180.00 0.00 L 186.00 1.00 L 190.00 10.00 L 190.00 20.00 L 181.00 41.00 L 164.00 62.00" stroke="black" fill="transparent"/>
	<path d = "M 191.00 94.00 L 198.00 93.00" stroke="black" fill="transparent"/>
</svg>