<?xml version="1.0" encoding="UTF-8" standalone="no"?>
<!--Created with ndjsontosvg(https:https://github.com/thompson318/ndjsontosvg) 
	from the simplified Google quickdraw data set. key_id = 5679837131833344-->
<svg width="256" height="256"
	xmlns="http://www.w3.org/2000/svg"
	xmlns:ndjsontosvg="https://github.com/thompson318/ndjsontosvg"
	xmlns:quickdraw="https://quickdraw.withgoogle.com/data"
	xmlns:scikit-surgery="https://doi.org/10.1007/s11548-020-02180-5">

	<rect width="100%" height="100%" fill="white" />
	<path d = "M 118.00 130.00 L 151.00 214.00 L 161.00 150.00 L 159.00 127.00" stroke="black" fill="transparent"/>
	<path d = "M 102.00 68.00 L 112.00 36.00 L 128.00 0.00 L 175.00 82.00" stroke="black" fill="transparent"/>
	<path d = "M 104.00 69.00 L 72.00 69.00 L 15.00 53.00 L 7.00 81.00 L 25.00 92.00 L 0.00 107.00 L 1.00 118.00 L 147.00 124.00 L 160.00 127.00 L 179.00 133.00 L 195.00 149.00 L 208.00 168.00 L 224.00 174.00 L 239.00 174.00 L 246.00 154.00 L 244.00 148.00 L 228.00 147.00 L 225.00 144.00 L 251.00 145.00 L 255.00 142.00 L 250.00 116.00 L 239.00 105.00 L 209.00 102.00 L 200.00 83.00 L 194.00 76.00 L 182.00 73.00 L 179.00 82.00" stroke="black" fill="transparent"/>
</svg>