<?xml version="1.0" encoding="UTF-8" standalone="no"?>
<!--Created with ndjsontosvg(https:https://github.com/thompson318/ndjsontosvg) 
	from the simplified Google quickdraw data set. key_id = 6370730012835840-->
<svg width="256" height="256"
	xmlns="http://www.w3.org/2000/svg"
	xmlns:ndjsontosvg="https://github.com/thompson318/ndjsontosvg"
	xmlns:quickdraw="https://quickdraw.withgoogle.com/data"
	xmlns:scikit-surgery="https://doi.org/10.1007/s11548-020-02180-5">

	<rect width="100%" height="100%" fill="white" />
	<path d = "M 27.00 124.00 L 6.00 119.00 L 0.00 111.00 L 3.00 104.00 L 24.00 93.00 L 53.00 86.00 L 203.00 79.00 L 204.00 45.00 L 209.00 42.00 L 222.00 41.00 L 227.00 47.00 L 230.00 75.00 L 234.00 77.00 L 252.00 73.00 L 255.00 77.00 L 254.00 99.00 L 250.00 102.00 L 158.00 117.00 L 76.00 116.00 L 20.00 125.00 L 20.00 121.00" stroke="black" fill="transparent"/>
	<path d = "M 66.00 85.00 L 137.00 24.00 L 164.00 7.00 L 183.00 0.00 L 185.00 9.00 L 172.00 30.00 L 105.00 93.00" stroke="black" fill="transparent"/>
	<path d = "M 67.00 114.00 L 95.00 148.00 L 163.00 212.00 L 176.00 218.00 L 183.00 215.00 L 181.00 202.00 L 142.00 156.00 L 117.00 120.00" stroke="black" fill="transparent"/>
</svg>