<?xml version="1.0" encoding="UTF-8" standalone="no"?>
<!--Created with ndjsontosvg(https:https://github.com/thompson318/ndjsontosvg) 
	from the simplified Google quickdraw data set. key_id = 6246570007724032-->
<svg width="256" height="256"
	xmlns="http://www.w3.org/2000/svg"
	xmlns:ndjsontosvg="https://github.com/thompson318/ndjsontosvg"
	xmlns:quickdraw="https://quickdraw.withgoogle.com/data"
	xmlns:scikit-surgery="https://doi.org/10.1007/s11548-020-02180-5">

	<rect width="100%" height="100%" fill="white" />
	<path d = "M 205.00 102.00 L 181.00 85.00 L 169.00 84.00 L 143.00 89.00 L 131.00 95.00 L 124.00 103.00 L 104.00 110.00 L 17.00 112.00 L 26.00 127.00 L 47.00 144.00 L 76.00 140.00 L 130.00 141.00" stroke="black" fill="transparent"/>
	<path d = "M 165.00 125.00 L 53.00 197.00 L 5.00 232.00 L 0.00 243.00 L 7.00 248.00 L 17.00 250.00 L 42.00 244.00 L 60.00 235.00 L 116.00 187.00 L 144.00 154.00 L 161.00 128.00" stroke="black" fill="transparent"/>
	<path d = "M 172.00 80.00 L 172.00 80.00" stroke="black" fill="transparent"/>
	<path d = "M 172.00 80.00 L 187.00 46.00 L 206.00 19.00 L 229.00 4.00 L 249.00 0.00 L 254.00 4.00 L 255.00 13.00 L 248.00 25.00 L 214.00 58.00 L 186.00 80.00" stroke="black" fill="transparent"/>
	<path d = "M 203.00 100.00 L 205.00 100.00" stroke="black" fill="transparent"/>
</svg>