<?xml version="1.0" encoding="UTF-8" standalone="no"?>
<!--Created with ndjsontosvg(https:https://github.com/thompson318/ndjsontosvg) 
	from the simplified Google quickdraw data set. key_id = 6171868732063744-->
<svg width="256" height="256"
	xmlns="http://www.w3.org/2000/svg"
	xmlns:ndjsontosvg="https://github.com/thompson318/ndjsontosvg"
	xmlns:quickdraw="https://quickdraw.withgoogle.com/data"
	xmlns:scikit-surgery="https://doi.org/10.1007/s11548-020-02180-5">

	<rect width="100%" height="100%" fill="white" />
	<path d = "M 164.00 42.00 L 45.00 32.00 L 3.00 33.00 L 1.00 53.00 L 8.00 63.00 L 91.00 89.00 L 130.00 93.00 L 154.00 87.00 L 172.00 79.00 L 192.00 54.00 L 191.00 47.00 L 187.00 46.00 L 158.00 43.00" stroke="black" fill="transparent"/>
	<path d = "M 189.00 53.00 L 228.00 59.00 L 231.00 69.00 L 225.00 85.00 L 162.00 66.00" stroke="black" fill="transparent"/>
	<path d = "M 207.00 51.00 L 230.00 17.00 L 255.00 0.00 L 238.00 52.00 L 234.00 59.00 L 230.00 59.00" stroke="black" fill="transparent"/>
	<path d = "M 204.00 79.00 L 203.00 129.00 L 197.00 161.00 L 200.00 145.00 L 234.00 98.00 L 235.00 92.00 L 231.00 81.00" stroke="black" fill="transparent"/>
</svg>