<?xml version="1.0" encoding="UTF-8" standalone="no"?>
<!--Created with ndjsontosvg(https:https://github.com/thompson318/ndjsontosvg) 
	from the simplified Google quickdraw data set. key_id = 5120080096526336-->
<svg width="256" height="256"
	xmlns="http://www.w3.org/2000/svg"
	xmlns:ndjsontosvg="https://github.com/thompson318/ndjsontosvg"
	xmlns:quickdraw="https://quickdraw.withgoogle.com/data"
	xmlns:scikit-surgery="https://doi.org/10.1007/s11548-020-02180-5">

	<rect width="100%" height="100%" fill="white" />
	<path d = "M 57.00 64.00 L 41.00 66.00 L 2.00 65.00 L 2.00 72.00 L 37.00 97.00 L 38.00 103.00" stroke="black" fill="transparent"/>
	<path d = "M 46.00 64.00 L 160.00 52.00 L 183.00 45.00 L 242.00 18.00 L 249.00 23.00 L 253.00 33.00 L 253.00 77.00 L 230.00 105.00 L 185.00 123.00 L 147.00 123.00 L 33.00 107.00" stroke="black" fill="transparent"/>
	<path d = "M 215.00 42.00 L 230.00 65.00 L 236.00 85.00 L 208.00 33.00" stroke="black" fill="transparent"/>
	<path d = "M 86.00 63.00 L 75.00 48.00 L 70.00 22.00 L 69.00 0.00 L 121.00 17.00 L 143.00 37.00" stroke="black" fill="transparent"/>
	<path d = "M 97.00 123.00 L 107.00 141.00 L 127.00 167.00 L 134.00 174.00 L 146.00 176.00 L 149.00 176.00 L 155.00 167.00 L 170.00 123.00" stroke="black" fill="transparent"/>
	<path d = "M 155.00 55.00 L 142.00 79.00 L 143.00 84.00 L 151.00 89.00 L 172.00 98.00 L 183.00 87.00 L 185.00 72.00 L 179.00 58.00 L 169.00 47.00 L 163.00 46.00 L 154.00 51.00" stroke="black" fill="transparent"/>
</svg>