<?xml version="1.0" encoding="UTF-8" standalone="no"?>
<!--Created with ndjsontosvg(https:https://github.com/thompson318/ndjsontosvg) 
	from the simplified Google quickdraw data set. key_id = 6440733382803456-->
<svg width="256" height="256"
	xmlns="http://www.w3.org/2000/svg"
	xmlns:ndjsontosvg="https://github.com/thompson318/ndjsontosvg"
	xmlns:quickdraw="https://quickdraw.withgoogle.com/data"
	xmlns:scikit-surgery="https://doi.org/10.1007/s11548-020-02180-5">

	<rect width="100%" height="100%" fill="white" />
	<path d = "M 37.00 178.00 L 106.00 111.00 L 137.00 87.00 L 151.00 80.00 L 157.00 83.00 L 164.00 93.00 L 166.00 104.00 L 162.00 114.00 L 140.00 140.00 L 109.00 165.00 L 61.00 191.00 L 60.00 223.00 L 66.00 255.00 L 61.00 252.00 L 36.00 212.00 L 8.00 178.00 L 0.00 154.00 L 51.00 170.00" stroke="black" fill="transparent"/>
	<path d = "M 79.00 123.00 L 60.00 112.00 L 47.00 94.00 L 41.00 66.00 L 41.00 0.00 L 55.00 8.00 L 113.00 57.00 L 125.00 73.00 L 139.00 104.00" stroke="black" fill="transparent"/>
	<path d = "M 116.00 160.00 L 192.00 206.00 L 214.00 215.00 L 239.00 218.00 L 239.00 208.00 L 211.00 166.00 L 160.00 134.00 L 146.00 128.00" stroke="black" fill="transparent"/>
</svg>