<?xml version="1.0" encoding="UTF-8" standalone="no"?>
<!--Created with ndjsontosvg(https:https://github.com/thompson318/ndjsontosvg) 
	from the simplified Google quickdraw data set. key_id = 5093587060523008-->
<svg width="256" height="256"
	xmlns="http://www.w3.org/2000/svg"
	xmlns:ndjsontosvg="https://github.com/thompson318/ndjsontosvg"
	xmlns:quickdraw="https://quickdraw.withgoogle.com/data"
	xmlns:scikit-surgery="https://doi.org/10.1007/s11548-020-02180-5">

	<rect width="100%" height="100%" fill="white" />
	<path d = "M 48.00 63.00 L 74.00 67.00 L 124.00 67.00 L 126.00 9.00 L 129.00 4.00 L 141.00 0.00 L 144.00 6.00 L 141.00 64.00 L 172.00 65.00 L 204.00 60.00 L 237.00 60.00 L 251.00 66.00 L 255.00 81.00 L 251.00 87.00 L 224.00 98.00 L 194.00 102.00 L 140.00 98.00 L 142.00 133.00 L 116.00 140.00 L 113.00 119.00 L 120.00 101.00 L 119.00 98.00 L 98.00 95.00 L 44.00 99.00 L 8.00 92.00 L 1.00 88.00 L 2.00 75.00 L 15.00 64.00 L 52.00 64.00" stroke="black" fill="transparent"/>
	<path d = "M 26.00 65.00 L 32.00 20.00 L 18.00 21.00" stroke="black" fill="transparent"/>
</svg>