<?xml version="1.0" encoding="UTF-8" standalone="no"?>
<!--Created with ndjsontosvg(https:https://github.com/thompson318/ndjsontosvg) 
	from the simplified Google quickdraw data set. key_id = 5363293810065408-->
<svg width="256" height="256"
	xmlns="http://www.w3.org/2000/svg"
	xmlns:ndjsontosvg="https://github.com/thompson318/ndjsontosvg"
	xmlns:quickdraw="https://quickdraw.withgoogle.com/data"
	xmlns:scikit-surgery="https://doi.org/10.1007/s11548-020-02180-5">

	<rect width="100%" height="100%" fill="white" />
	<path d = "M 150.00 105.00 L 75.00 103.00 L 34.00 108.00 L 6.00 124.00 L 0.00 136.00 L 1.00 144.00 L 21.00 159.00 L 50.00 165.00 L 144.00 164.00 L 190.00 155.00 L 202.00 150.00 L 206.00 144.00 L 208.00 126.00 L 205.00 122.00 L 184.00 105.00 L 147.00 101.00 L 146.00 98.00" stroke="black" fill="transparent"/>
	<path d = "M 89.00 161.00 L 84.00 169.00 L 34.00 203.00 L 16.00 220.00 L 5.00 240.00 L 6.00 249.00 L 16.00 255.00 L 30.00 254.00 L 57.00 236.00 L 138.00 165.00" stroke="black" fill="transparent"/>
	<path d = "M 88.00 107.00 L 88.00 95.00 L 92.00 81.00 L 119.00 38.00 L 137.00 18.00 L 158.00 1.00 L 175.00 1.00 L 176.00 17.00 L 139.00 57.00 L 125.00 79.00 L 114.00 105.00 L 111.00 126.00" stroke="black" fill="transparent"/>
	<path d = "M 169.00 115.00 L 161.00 118.00 L 161.00 115.00" stroke="black" fill="transparent"/>
</svg>