<?xml version="1.0" encoding="UTF-8" standalone="no"?>
<!--Created with ndjsontosvg(https:https://github.com/thompson318/ndjsontosvg) 
	from the simplified Google quickdraw data set. key_id = 5513603237019648-->
<svg width="256" height="256"
	xmlns="http://www.w3.org/2000/svg"
	xmlns:ndjsontosvg="https://github.com/thompson318/ndjsontosvg"
	xmlns:quickdraw="https://quickdraw.withgoogle.com/data"
	xmlns:scikit-surgery="https://doi.org/10.1007/s11548-020-02180-5">

	<rect width="100%" height="100%" fill="white" />
	<path d = "M 182.00 103.00 L 48.00 108.00 L 14.00 121.00 L 5.00 129.00 L 0.00 138.00 L 3.00 145.00 L 16.00 158.00 L 53.00 170.00 L 155.00 172.00 L 182.00 169.00 L 210.00 164.00 L 231.00 156.00 L 249.00 137.00 L 254.00 127.00 L 255.00 117.00 L 236.00 108.00 L 182.00 102.00 L 160.00 102.00 L 136.00 110.00" stroke="black" fill="transparent"/>
	<path d = "M 99.00 132.00 L 97.00 192.00 L 110.00 233.00 L 121.00 218.00 L 160.00 134.00" stroke="black" fill="transparent"/>
	<path d = "M 97.00 92.00 L 115.00 62.00 L 141.00 29.00 L 167.00 7.00 L 184.00 0.00 L 191.00 103.00" stroke="black" fill="transparent"/>
	<path d = "M 26.00 152.00 L 25.00 136.00 L 32.00 118.00 L 38.00 115.00 L 56.00 148.00" stroke="black" fill="transparent"/>
</svg>