<?xml version="1.0" encoding="UTF-8" standalone="no"?>
<!--Created with ndjsontosvg(https:https://github.com/thompson318/ndjsontosvg) 
	from the simplified Google quickdraw data set. key_id = 6687207765049344-->
<svg width="256" height="256"
	xmlns="http://www.w3.org/2000/svg"
	xmlns:ndjsontosvg="https://github.com/thompson318/ndjsontosvg"
	xmlns:quickdraw="https://quickdraw.withgoogle.com/data"
	xmlns:scikit-surgery="https://doi.org/10.1007/s11548-020-02180-5">

	<rect width="100%" height="100%" fill="white" />
	<path d = "M 1.00 100.00 L 2.00 47.00 L 8.00 60.00 L 17.00 69.00 L 22.00 84.00 L 28.00 87.00 L 94.00 82.00 L 99.00 75.00 L 99.00 23.00 L 102.00 10.00 L 105.00 4.00 L 113.00 0.00 L 119.00 0.00 L 123.00 7.00 L 123.00 46.00 L 126.00 69.00 L 132.00 71.00 L 223.00 71.00 L 246.00 76.00 L 255.00 111.00 L 255.00 128.00 L 247.00 133.00 L 172.00 128.00 L 149.00 121.00 L 156.00 151.00 L 155.00 210.00 L 154.00 202.00 L 133.00 169.00 L 128.00 145.00 L 120.00 130.00 L 92.00 116.00 L 83.00 121.00 L 32.00 121.00" stroke="black" fill="transparent"/>
</svg>