<?xml version="1.0" encoding="UTF-8" standalone="no"?>
<!--Created with ndjsontosvg(https:https://github.com/thompson318/ndjsontosvg) 
	from the simplified Google quickdraw data set. key_id = 5394799882403840-->
<svg width="256" height="256"
	xmlns="http://www.w3.org/2000/svg"
	xmlns:ndjsontosvg="https://github.com/thompson318/ndjsontosvg"
	xmlns:quickdraw="https://quickdraw.withgoogle.com/data"
	xmlns:scikit-surgery="https://doi.org/10.1007/s11548-020-02180-5">

	<rect width="100%" height="100%" fill="white" />
	<path d = "M 38.00 59.00 L 51.00 58.00 L 13.00 57.00 L 0.00 59.00 L 48.00 74.00" stroke="black" fill="transparent"/>
	<path d = "M 55.00 56.00 L 55.00 18.00 L 69.00 4.00 L 89.00 0.00 L 102.00 3.00 L 107.00 11.00 L 112.00 59.00 L 120.00 56.00 L 173.00 62.00 L 115.00 75.00 L 113.00 82.00 L 118.00 132.00 L 114.00 145.00 L 105.00 159.00 L 90.00 161.00 L 72.00 160.00 L 45.00 153.00 L 28.00 142.00 L 22.00 123.00 L 25.00 109.00 L 48.00 71.00" stroke="black" fill="transparent"/>
	<path d = "M 48.00 71.00 L 69.00 86.00 L 93.00 95.00 L 152.00 103.00 L 235.00 95.00 L 255.00 90.00 L 237.00 79.00 L 196.00 85.00 L 142.00 105.00 L 85.00 137.00 L 16.00 180.00" stroke="black" fill="transparent"/>
</svg>