<?xml version="1.0" encoding="UTF-8" standalone="no"?>
<!--Created with ndjsontosvg(https:https://github.com/thompson318/ndjsontosvg) 
	from the simplified Google quickdraw data set. key_id = 4679950571405312-->
<svg width="256" height="256"
	xmlns="http://www.w3.org/2000/svg"
	xmlns:ndjsontosvg="https://github.com/thompson318/ndjsontosvg"
	xmlns:quickdraw="https://quickdraw.withgoogle.com/data"
	xmlns:scikit-surgery="https://doi.org/10.1007/s11548-020-02180-5">

	<rect width="100%" height="100%" fill="white" />
	<path d = "M 114.00 63.00 L 57.00 82.00 L 48.00 104.00 L 37.00 111.00 L 28.00 124.00 L 26.00 134.00 L 28.00 138.00 L 76.00 128.00" stroke="black" fill="transparent"/>
	<path d = "M 134.00 83.00 L 223.00 91.00 L 255.00 99.00 L 254.00 102.00 L 213.00 115.00 L 147.00 122.00 L 87.00 123.00" stroke="black" fill="transparent"/>
	<path d = "M 75.00 125.00 L 90.00 124.00 L 102.00 119.00" stroke="black" fill="transparent"/>
	<path d = "M 72.00 75.00 L 28.00 74.00 L 2.00 68.00" stroke="black" fill="transparent"/>
	<path d = "M 2.00 68.00 L 47.00 78.00" stroke="black" fill="transparent"/>
	<path d = "M 0.00 71.00 L 42.00 102.00 L 51.00 104.00" stroke="black" fill="transparent"/>
	<path d = "M 114.00 63.00 L 206.00 49.00 L 226.00 24.00 L 237.00 0.00 L 241.00 12.00 L 240.00 26.00 L 226.00 52.00 L 218.00 62.00 L 237.00 65.00 L 237.00 70.00 L 231.00 73.00 L 241.00 78.00 L 204.00 81.00" stroke="black" fill="transparent"/>
	<path d = "M 70.00 95.00 L 75.00 92.00 L 70.00 87.00" stroke="black" fill="transparent"/>
	<path d = "M 92.00 80.00 L 93.00 85.00 L 99.00 83.00 L 96.00 81.00" stroke="black" fill="transparent"/>
	<path d = "M 109.00 78.00 L 110.00 83.00 L 117.00 83.00" stroke="black" fill="transparent"/>
</svg>