<?xml version="1.0" encoding="UTF-8" standalone="no"?>
<!--Created with ndjsontosvg(https:https://github.com/thompson318/ndjsontosvg) 
	from the simplified Google quickdraw data set. key_id = 6230447774236672-->
<svg width="256" height="256"
	xmlns="http://www.w3.org/2000/svg"
	xmlns:ndjsontosvg="https://github.com/thompson318/ndjsontosvg"
	xmlns:quickdraw="https://quickdraw.withgoogle.com/data"
	xmlns:scikit-surgery="https://doi.org/10.1007/s11548-020-02180-5">

	<rect width="100%" height="100%" fill="white" />
	<path d = "M 174.00 65.00 L 152.00 63.00 L 65.00 76.00 L 17.00 92.00 L 4.00 104.00 L 3.00 108.00 L 8.00 113.00 L 74.00 117.00 L 190.00 109.00 L 228.00 102.00 L 249.00 94.00 L 255.00 87.00 L 253.00 81.00 L 230.00 71.00 L 197.00 65.00 L 143.00 66.00" stroke="black" fill="transparent"/>
	<path d = "M 63.00 120.00 L 58.00 121.00 L 16.00 177.00 L 2.00 201.00 L 1.00 214.00 L 13.00 215.00 L 27.00 202.00 L 41.00 184.00 L 68.00 136.00" stroke="black" fill="transparent"/>
	<path d = "M 81.00 80.00 L 79.00 75.00 L 82.00 66.00 L 120.00 18.00 L 144.00 1.00 L 152.00 0.00 L 152.00 7.00 L 151.00 12.00 L 127.00 41.00 L 80.00 83.00" stroke="black" fill="transparent"/>
	<path d = "M 191.00 93.00 L 204.00 50.00 L 211.00 37.00 L 219.00 30.00 L 224.00 34.00 L 224.00 58.00 L 210.00 87.00" stroke="black" fill="transparent"/>
	<path d = "M 181.00 109.00 L 166.00 131.00 L 159.00 146.00 L 159.00 153.00 L 168.00 152.00 L 187.00 123.00" stroke="black" fill="transparent"/>
	<path d = "M 214.00 70.00 L 225.00 53.00 L 243.00 37.00 L 244.00 47.00 L 228.00 68.00" stroke="black" fill="transparent"/>
</svg>