<?xml version="1.0" encoding="UTF-8" standalone="no"?>
<!--Created with ndjsontosvg(https:https://github.com/thompson318/ndjsontosvg) 
	from the simplified Google quickdraw data set. key_id = 5119431657127936-->
<svg width="256" height="256"
	xmlns="http://www.w3.org/2000/svg"
	xmlns:ndjsontosvg="https://github.com/thompson318/ndjsontosvg"
	xmlns:quickdraw="https://quickdraw.withgoogle.com/data"
	xmlns:scikit-surgery="https://doi.org/10.1007/s11548-020-02180-5">

	<rect width="100%" height="100%" fill="white" />
	<path d = "M 131.00 86.00 L 85.00 93.00 L 46.00 105.00 L 15.00 118.00 L 2.00 129.00 L 1.00 140.00 L 19.00 149.00 L 48.00 152.00 L 89.00 148.00 L 203.00 128.00 L 242.00 114.00 L 253.00 105.00 L 255.00 98.00 L 248.00 92.00 L 228.00 84.00 L 173.00 78.00 L 110.00 82.00 L 65.00 95.00" stroke="black" fill="transparent"/>
	<path d = "M 93.00 27.00 L 89.00 37.00 L 88.00 53.00 L 89.00 68.00 L 94.00 77.00 L 104.00 84.00 L 114.00 84.00 L 127.00 66.00 L 124.00 35.00 L 113.00 21.00 L 98.00 12.00" stroke="black" fill="transparent"/>
	<path d = "M 124.00 134.00 L 124.00 168.00 L 130.00 194.00 L 137.00 205.00 L 148.00 212.00 L 155.00 210.00 L 160.00 202.00 L 160.00 181.00 L 152.00 155.00 L 137.00 128.00 L 129.00 119.00 L 126.00 122.00" stroke="black" fill="transparent"/>
	<path d = "M 97.00 6.00 L 89.00 12.00 L 83.00 24.00 L 85.00 47.00 L 103.00 77.00 L 112.00 82.00 L 120.00 77.00 L 126.00 52.00 L 124.00 24.00 L 115.00 4.00 L 107.00 0.00 L 100.00 2.00" stroke="black" fill="transparent"/>
	<path d = "M 52.00 126.00 L 52.00 125.00" stroke="black" fill="transparent"/>
	<path d = "M 118.00 114.00 L 129.00 114.00" stroke="black" fill="transparent"/>
	<path d = "M 178.00 114.00 L 181.00 114.00" stroke="black" fill="transparent"/>
</svg>