<?xml version="1.0" encoding="UTF-8" standalone="no"?>
<!--Created with ndjsontosvg(https:https://github.com/thompson318/ndjsontosvg) 
	from the simplified Google quickdraw data set. key_id = 4984446795120640-->
<svg width="256" height="256"
	xmlns="http://www.w3.org/2000/svg"
	xmlns:ndjsontosvg="https://github.com/thompson318/ndjsontosvg"
	xmlns:quickdraw="https://quickdraw.withgoogle.com/data"
	xmlns:scikit-surgery="https://doi.org/10.1007/s11548-020-02180-5">

	<rect width="100%" height="100%" fill="white" />
	<path d = "M 98.00 29.00 L 122.00 12.00 L 153.00 0.00 L 154.00 20.00 L 139.00 58.00" stroke="black" fill="transparent"/>
	<path d = "M 101.00 30.00 L 54.00 51.00 L 28.00 75.00 L 5.00 88.00 L 1.00 96.00 L 1.00 109.00 L 8.00 124.00 L 17.00 133.00 L 35.00 139.00 L 76.00 133.00 L 102.00 137.00 L 149.00 168.00 L 172.00 176.00 L 173.00 170.00 L 153.00 131.00 L 152.00 119.00 L 162.00 116.00 L 205.00 115.00 L 223.00 111.00" stroke="black" fill="transparent"/>
	<path d = "M 131.00 53.00 L 199.00 61.00 L 218.00 53.00 L 241.00 34.00 L 252.00 29.00 L 255.00 33.00 L 253.00 44.00 L 243.00 75.00 L 253.00 123.00 L 236.00 125.00 L 218.00 118.00" stroke="black" fill="transparent"/>
	<path d = "M 44.00 82.00 L 39.00 103.00 L 43.00 108.00 L 62.00 109.00 L 77.00 104.00 L 79.00 92.00 L 76.00 80.00 L 47.00 79.00" stroke="black" fill="transparent"/>
	<path d = "M 120.00 81.00 L 121.00 105.00 L 132.00 107.00 L 156.00 105.00 L 159.00 100.00 L 147.00 84.00 L 137.00 80.00 L 127.00 81.00" stroke="black" fill="transparent"/>
	<path d = "M 189.00 80.00 L 183.00 94.00 L 189.00 100.00 L 199.00 100.00 L 213.00 95.00 L 217.00 90.00 L 215.00 85.00 L 205.00 76.00" stroke="black" fill="transparent"/>
</svg>