<?xml version="1.0" encoding="UTF-8" standalone="no"?>
<!--Created with ndjsontosvg(https:https://github.com/thompson318/ndjsontosvg) 
	from the simplified Google quickdraw data set. key_id = 5276477224386560-->
<svg width="256" height="256"
	xmlns="http://www.w3.org/2000/svg"
	xmlns:ndjsontosvg="https://github.com/thompson318/ndjsontosvg"
	xmlns:quickdraw="https://quickdraw.withgoogle.com/data"
	xmlns:scikit-surgery="https://doi.org/10.1007/s11548-020-02180-5">

	<rect width="100%" height="100%" fill="white" />
	<path d = "M 21.00 129.00 L 46.00 122.00 L 150.00 121.00 L 239.00 113.00 L 245.00 111.00 L 254.00 103.00 L 254.00 86.00 L 249.00 80.00 L 218.00 76.00 L 54.00 77.00 L 44.00 74.00 L 25.00 56.00 L 1.00 54.00 L 1.00 121.00 L 18.00 126.00 L 47.00 124.00" stroke="black" fill="transparent"/>
	<path d = "M 144.00 75.00 L 126.00 56.00 L 120.00 43.00 L 86.00 10.00 L 75.00 4.00 L 52.00 0.00 L 48.00 2.00 L 49.00 6.00 L 77.00 44.00 L 84.00 60.00 L 101.00 77.00" stroke="black" fill="transparent"/>
	<path d = "M 159.00 99.00 L 155.00 102.00 L 139.00 139.00 L 131.00 150.00 L 106.00 175.00 L 84.00 190.00 L 73.00 184.00 L 47.00 183.00 L 58.00 173.00 L 69.00 173.00 L 83.00 163.00 L 116.00 126.00 L 127.00 106.00" stroke="black" fill="transparent"/>
</svg>