<?xml version="1.0" encoding="UTF-8" standalone="no"?>
<!--Created with ndjsontosvg(https:https://github.com/thompson318/ndjsontosvg) 
	from the simplified Google quickdraw data set. key_id = 6062602146807808-->
<svg width="256" height="256"
	xmlns="http://www.w3.org/2000/svg"
	xmlns:ndjsontosvg="https://github.com/thompson318/ndjsontosvg"
	xmlns:quickdraw="https://quickdraw.withgoogle.com/data"
	xmlns:scikit-surgery="https://doi.org/10.1007/s11548-020-02180-5">

	<rect width="100%" height="100%" fill="white" />
	<path d = "M 108.00 52.00 L 80.00 45.00 L 52.00 45.00 L 14.00 58.00 L 1.00 69.00 L 1.00 81.00 L 11.00 93.00 L 30.00 100.00 L 73.00 103.00 L 199.00 77.00" stroke="black" fill="transparent"/>
	<path d = "M 100.00 50.00 L 160.00 49.00 L 209.00 43.00" stroke="black" fill="transparent"/>
	<path d = "M 196.00 47.00 L 219.00 35.00" stroke="black" fill="transparent"/>
	<path d = "M 190.00 48.00 L 213.00 39.00 L 228.00 19.00 L 228.00 54.00" stroke="black" fill="transparent"/>
	<path d = "M 189.00 48.00 L 255.00 47.00" stroke="black" fill="transparent"/>
	<path d = "M 197.00 76.00 L 253.00 72.00" stroke="black" fill="transparent"/>
	<path d = "M 100.00 49.00 L 137.00 0.00" stroke="black" fill="transparent"/>
	<path d = "M 137.00 1.00 L 140.00 56.00" stroke="black" fill="transparent"/>
	<path d = "M 100.00 76.00 L 160.00 148.00" stroke="black" fill="transparent"/>
	<path d = "M 121.00 69.00 L 145.00 101.00 L 164.00 140.00" stroke="black" fill="transparent"/>
	<path d = "M 10.00 61.00 L 12.00 85.00 L 21.00 86.00 L 56.00 61.00 L 64.00 53.00 L 65.00 47.00" stroke="black" fill="transparent"/>
</svg>