<?xml version="1.0" encoding="UTF-8" standalone="no"?>
<!--Created with ndjsontosvg(https:https://github.com/thompson318/ndjsontosvg) 
	from the simplified Google quickdraw data set. key_id = 5297352690630656-->
<svg width="256" height="256"
	xmlns="http://www.w3.org/2000/svg"
	xmlns:ndjsontosvg="https://github.com/thompson318/ndjsontosvg"
	xmlns:quickdraw="https://quickdraw.withgoogle.com/data"
	xmlns:scikit-surgery="https://doi.org/10.1007/s11548-020-02180-5">

	<rect width="100%" height="100%" fill="white" />
	<path d = "M 136.00 73.00 L 186.00 63.00 L 220.00 62.00 L 234.00 64.00 L 248.00 70.00 L 255.00 84.00 L 255.00 90.00 L 246.00 101.00 L 171.00 123.00 L 145.00 127.00 L 96.00 127.00 L 53.00 123.00 L 46.00 119.00 L 47.00 107.00 L 70.00 81.00 L 110.00 69.00 L 122.00 71.00 L 129.00 78.00 L 132.00 76.00" stroke="black" fill="transparent"/>
	<path d = "M 127.00 73.00 L 129.00 44.00 L 149.00 0.00 L 164.00 0.00 L 179.00 14.00 L 184.00 32.00 L 186.00 60.00" stroke="black" fill="transparent"/>
	<path d = "M 136.00 128.00 L 138.00 153.00 L 145.00 163.00 L 153.00 166.00 L 175.00 166.00 L 185.00 157.00 L 193.00 136.00 L 184.00 114.00" stroke="black" fill="transparent"/>
	<path d = "M 51.00 104.00 L 5.00 110.00 L 1.00 106.00 L 0.00 93.00 L 10.00 67.00 L 22.00 50.00 L 31.00 50.00 L 45.00 45.00 L 56.00 47.00 L 73.00 69.00 L 77.00 87.00 L 40.00 93.00" stroke="black" fill="transparent"/>
</svg>