<?xml version="1.0" encoding="UTF-8" standalone="no"?>
<!--Created with ndjsontosvg(https:https://github.com/thompson318/ndjsontosvg) 
	from the simplified Google quickdraw data set. key_id = 6206860652707840-->
<svg width="256" height="256"
	xmlns="http://www.w3.org/2000/svg"
	xmlns:ndjsontosvg="https://github.com/thompson318/ndjsontosvg"
	xmlns:quickdraw="https://quickdraw.withgoogle.com/data"
	xmlns:scikit-surgery="https://doi.org/10.1007/s11548-020-02180-5">

	<rect width="100%" height="100%" fill="white" />
	<path d = "M 0.00 116.00 L 147.00 105.00 L 226.00 106.00 L 244.00 109.00 L 249.00 114.00 L 255.00 130.00 L 251.00 135.00 L 243.00 137.00 L 198.00 143.00 L 45.00 142.00 L 9.00 129.00 L 4.00 118.00 L 15.00 113.00" stroke="black" fill="transparent"/>
	<path d = "M 82.00 108.00 L 95.00 41.00 L 103.00 18.00 L 131.00 0.00 L 136.00 0.00 L 140.00 4.00 L 143.00 27.00 L 130.00 84.00 L 122.00 103.00" stroke="black" fill="transparent"/>
	<path d = "M 82.00 142.00 L 73.00 181.00 L 72.00 211.00 L 76.00 228.00 L 83.00 240.00 L 97.00 219.00 L 103.00 204.00 L 113.00 148.00" stroke="black" fill="transparent"/>
</svg>