<?xml version="1.0" encoding="UTF-8" standalone="no"?>
<!--Created with ndjsontosvg(https:https://github.com/thompson318/ndjsontosvg) 
	from the simplified Google quickdraw data set. key_id = 5754697136734208-->
<svg width="256" height="256"
	xmlns="http://www.w3.org/2000/svg"
	xmlns:ndjsontosvg="https://github.com/thompson318/ndjsontosvg"
	xmlns:quickdraw="https://quickdraw.withgoogle.com/data"
	xmlns:scikit-surgery="https://doi.org/10.1007/s11548-020-02180-5">

	<rect width="100%" height="100%" fill="white" />
	<path d = "M 97.00 57.00 L 158.00 47.00 L 200.00 45.00 L 236.00 58.00 L 254.00 71.00 L 252.00 87.00 L 236.00 101.00 L 150.00 123.00" stroke="black" fill="transparent"/>
	<path d = "M 121.00 52.00 L 131.00 34.00 L 168.00 0.00 L 185.00 3.00 L 189.00 7.00 L 189.00 22.00 L 179.00 47.00" stroke="black" fill="transparent"/>
	<path d = "M 173.00 116.00 L 181.00 132.00 L 182.00 149.00 L 174.00 158.00 L 161.00 162.00 L 144.00 154.00 L 112.00 129.00 L 98.00 110.00" stroke="black" fill="transparent"/>
	<path d = "M 100.00 55.00 L 56.00 57.00 L 36.00 71.00 L 31.00 83.00 L 31.00 93.00 L 35.00 101.00 L 45.00 105.00 L 70.00 105.00 L 102.00 111.00" stroke="black" fill="transparent"/>
	<path d = "M 46.00 61.00 L 22.00 13.00 L 5.00 44.00 L 0.00 68.00 L 0.00 110.00 L 7.00 130.00 L 13.00 129.00 L 43.00 105.00" stroke="black" fill="transparent"/>
</svg>