<?xml version="1.0" encoding="UTF-8" standalone="no"?>
<!--Created with ndjsontosvg(https:https://github.com/thompson318/ndjsontosvg) 
	from the simplified Google quickdraw data set. key_id = 6285226256891904-->
<svg width="256" height="256"
	xmlns="http://www.w3.org/2000/svg"
	xmlns:ndjsontosvg="https://github.com/thompson318/ndjsontosvg"
	xmlns:quickdraw="https://quickdraw.withgoogle.com/data"
	xmlns:scikit-surgery="https://doi.org/10.1007/s11548-020-02180-5">

	<rect width="100%" height="100%" fill="white" />
	<path d = "M 134.00 73.00 L 112.00 64.00 L 92.00 61.00 L 57.00 64.00 L 40.00 71.00 L 24.00 85.00 L 8.00 108.00 L 0.00 143.00 L 0.00 172.00 L 4.00 186.00 L 24.00 208.00 L 57.00 224.00 L 92.00 231.00 L 107.00 228.00 L 143.00 209.00 L 161.00 186.00 L 162.00 135.00 L 154.00 109.00 L 142.00 89.00 L 114.00 66.00" stroke="black" fill="transparent"/>
	<path d = "M 32.00 216.00 L 32.00 212.00 L 28.00 212.00 L 30.00 232.00 L 42.00 249.00 L 60.00 250.00 L 64.00 241.00 L 71.00 248.00 L 86.00 254.00 L 111.00 255.00 L 119.00 248.00 L 120.00 242.00 L 121.00 215.00" stroke="black" fill="transparent"/>
	<path d = "M 113.00 34.00 L 111.00 34.00" stroke="black" fill="transparent"/>
	<path d = "M 90.00 51.00 L 88.00 56.00 L 81.00 57.00 L 77.00 53.00 L 78.00 39.00 L 86.00 25.00 L 103.00 12.00 L 137.00 1.00 L 174.00 1.00 L 181.00 5.00" stroke="black" fill="transparent"/>
</svg>