<?xml version="1.0" encoding="UTF-8" standalone="no"?>
<!--Created with ndjsontosvg(https:https://github.com/thompson318/ndjsontosvg) 
	from the simplified Google quickdraw data set. key_id = 4519387648229376-->
<svg width="256" height="256"
	xmlns="http://www.w3.org/2000/svg"
	xmlns:ndjsontosvg="https://github.com/thompson318/ndjsontosvg"
	xmlns:quickdraw="https://quickdraw.withgoogle.com/data"
	xmlns:scikit-surgery="https://doi.org/10.1007/s11548-020-02180-5">

	<rect width="100%" height="100%" fill="white" />
	<path d = "M 74.00 103.00 L 57.00 91.00 L 29.00 88.00 L 15.00 99.00 L 7.00 110.00 L 0.00 136.00 L 0.00 157.00 L 5.00 203.00 L 11.00 223.00 L 25.00 247.00 L 35.00 253.00 L 45.00 253.00 L 57.00 246.00 L 74.00 224.00 L 84.00 249.00 L 99.00 255.00 L 118.00 253.00 L 138.00 234.00 L 146.00 209.00 L 148.00 182.00 L 135.00 124.00 L 125.00 92.00 L 118.00 83.00 L 97.00 79.00 L 72.00 107.00" stroke="black" fill="transparent"/>
	<path d = "M 73.00 74.00 L 69.00 69.00 L 69.00 62.00 L 87.00 26.00 L 116.00 2.00 L 132.00 0.00 L 136.00 4.00" stroke="black" fill="transparent"/>
	<path d = "M 65.00 83.00 L 79.00 83.00 L 97.00 76.00 L 115.00 60.00 L 129.00 33.00 L 133.00 6.00" stroke="black" fill="transparent"/>
</svg>