<?xml version="1.0" encoding="UTF-8" standalone="no"?>
<!--Created with ndjsontosvg(https:https://github.com/thompson318/ndjsontosvg) 
	from the simplified Google quickdraw data set. key_id = 5582486862036992-->
<svg width="256" height="256"
	xmlns="http://www.w3.org/2000/svg"
	xmlns:ndjsontosvg="https://github.com/thompson318/ndjsontosvg"
	xmlns:quickdraw="https://quickdraw.withgoogle.com/data"
	xmlns:scikit-surgery="https://doi.org/10.1007/s11548-020-02180-5">

	<rect width="100%" height="100%" fill="white" />
	<path d = "M 34.00 217.00 L 12.00 184.00 L 4.00 166.00 L 0.00 150.00 L 1.00 130.00 L 16.00 95.00 L 32.00 75.00 L 54.00 64.00 L 76.00 67.00 L 104.00 86.00 L 112.00 96.00 L 119.00 122.00 L 127.00 117.00 L 155.00 93.00 L 182.00 80.00 L 202.00 78.00 L 227.00 81.00 L 245.00 92.00 L 251.00 101.00 L 255.00 120.00 L 254.00 144.00 L 247.00 174.00 L 235.00 195.00 L 192.00 233.00 L 170.00 243.00 L 148.00 247.00 L 113.00 233.00 L 93.00 238.00 L 69.00 239.00 L 48.00 230.00 L 33.00 217.00" stroke="black" fill="transparent"/>
	<path d = "M 131.00 118.00 L 149.00 42.00 L 159.00 16.00 L 170.00 0.00" stroke="black" fill="transparent"/>
	<path d = "M 173.00 19.00 L 231.00 23.00 L 204.00 40.00 L 161.00 49.00" stroke="black" fill="transparent"/>
</svg>