<?xml version="1.0" encoding="UTF-8" standalone="no"?>
<!--Created with ndjsontosvg(https:https://github.com/thompson318/ndjsontosvg) 
	from the simplified Google quickdraw data set. key_id = 5236216402280448-->
<svg width="256" height="256"
	xmlns="http://www.w3.org/2000/svg"
	xmlns:ndjsontosvg="https://github.com/thompson318/ndjsontosvg"
	xmlns:quickdraw="https://quickdraw.withgoogle.com/data"
	xmlns:scikit-surgery="https://doi.org/10.1007/s11548-020-02180-5">

	<rect width="100%" height="100%" fill="white" />
	<path d = "M 17.00 112.00 L 5.00 148.00 L 3.00 182.00 L 8.00 200.00 L 19.00 216.00 L 47.00 240.00 L 63.00 250.00 L 100.00 255.00 L 133.00 254.00 L 153.00 250.00 L 183.00 236.00 L 191.00 226.00 L 195.00 214.00 L 195.00 179.00 L 189.00 151.00 L 182.00 126.00 L 167.00 105.00 L 126.00 78.00 L 99.00 72.00 L 61.00 71.00 L 50.00 72.00 L 29.00 82.00 L 11.00 98.00 L 0.00 115.00" stroke="black" fill="transparent"/>
	<path d = "M 89.00 68.00 L 89.00 23.00 L 93.00 0.00 L 94.00 56.00" stroke="black" fill="transparent"/>
</svg>