<?xml version="1.0" encoding="UTF-8" standalone="no"?>
<!--Created with ndjsontosvg(https:https://github.com/thompson318/ndjsontosvg) 
	from the simplified Google quickdraw data set. key_id = 5254968095277056-->
<svg width="256" height="256"
	xmlns="http://www.w3.org/2000/svg"
	xmlns:ndjsontosvg="https://github.com/thompson318/ndjsontosvg"
	xmlns:quickdraw="https://quickdraw.withgoogle.com/data"
	xmlns:scikit-surgery="https://doi.org/10.1007/s11548-020-02180-5">

	<rect width="100%" height="100%" fill="white" />
	<path d = "M 122.00 98.00 L 114.00 83.00 L 108.00 78.00 L 88.00 73.00 L 63.00 78.00 L 35.00 96.00 L 11.00 122.00 L 1.00 144.00 L 0.00 162.00 L 6.00 189.00 L 23.00 223.00 L 32.00 233.00 L 48.00 241.00 L 64.00 242.00 L 102.00 230.00 L 112.00 234.00 L 121.00 250.00 L 131.00 255.00 L 141.00 254.00 L 162.00 243.00 L 182.00 219.00 L 208.00 177.00 L 216.00 145.00 L 216.00 121.00 L 205.00 99.00 L 192.00 83.00 L 181.00 77.00 L 171.00 75.00 L 165.00 77.00 L 151.00 92.00 L 136.00 101.00 L 126.00 94.00" stroke="black" fill="transparent"/>
	<path d = "M 124.00 97.00 L 121.00 89.00 L 123.00 76.00 L 135.00 49.00 L 159.00 12.00 L 173.00 0.00 L 178.00 4.00 L 177.00 9.00 L 155.00 32.00 L 134.00 61.00 L 121.00 91.00" stroke="black" fill="transparent"/>
</svg>