<?xml version="1.0" encoding="UTF-8" standalone="no"?>
<!--Created with ndjsontosvg(https:https://github.com/thompson318/ndjsontosvg) 
	from the simplified Google quickdraw data set. key_id = 6204803866689536-->
<svg width="256" height="256"
	xmlns="http://www.w3.org/2000/svg"
	xmlns:ndjsontosvg="https://github.com/thompson318/ndjsontosvg"
	xmlns:quickdraw="https://quickdraw.withgoogle.com/data"
	xmlns:scikit-surgery="https://doi.org/10.1007/s11548-020-02180-5">

	<rect width="100%" height="100%" fill="white" />
	<path d = "M 113.00 60.00 L 91.00 42.00 L 76.00 35.00 L 47.00 33.00 L 41.00 36.00 L 17.00 56.00 L 5.00 76.00 L 0.00 93.00 L 1.00 129.00 L 23.00 172.00 L 63.00 208.00 L 73.00 213.00 L 96.00 214.00 L 107.00 208.00 L 116.00 181.00 L 122.00 200.00 L 129.00 206.00 L 137.00 207.00 L 142.00 202.00 L 147.00 179.00" stroke="black" fill="transparent"/>
	<path d = "M 109.00 59.00 L 112.00 49.00 L 129.00 22.00 L 146.00 7.00 L 161.00 1.00 L 194.00 0.00 L 211.00 4.00 L 232.00 16.00 L 248.00 36.00 L 255.00 77.00 L 255.00 101.00 L 249.00 119.00 L 227.00 152.00 L 204.00 173.00 L 182.00 183.00 L 163.00 182.00" stroke="black" fill="transparent"/>
</svg>