<?xml version="1.0" encoding="UTF-8" standalone="no"?>
<!--Created with ndjsontosvg(https:https://github.com/thompson318/ndjsontosvg) 
	from the simplified Google quickdraw data set. key_id = 5939070196776960-->
<svg width="256" height="256"
	xmlns="http://www.w3.org/2000/svg"
	xmlns:ndjsontosvg="https://github.com/thompson318/ndjsontosvg"
	xmlns:quickdraw="https://quickdraw.withgoogle.com/data"
	xmlns:scikit-surgery="https://doi.org/10.1007/s11548-020-02180-5">

	<rect width="100%" height="100%" fill="white" />
	<path d = "M 67.00 71.00 L 84.00 59.00 L 94.00 56.00 L 105.00 57.00 L 136.00 68.00 L 175.00 93.00 L 189.00 121.00 L 196.00 165.00 L 196.00 182.00 L 193.00 190.00 L 182.00 209.00 L 162.00 235.00 L 145.00 248.00 L 126.00 254.00 L 96.00 254.00 L 80.00 246.00 L 65.00 230.00 L 52.00 200.00 L 50.00 145.00 L 54.00 119.00 L 63.00 98.00 L 90.00 76.00 L 97.00 66.00" stroke="black" fill="transparent"/>
	<path d = "M 92.00 60.00 L 77.00 21.00 L 67.00 10.00 L 55.00 3.00 L 43.00 0.00 L 26.00 1.00 L 10.00 10.00 L 0.00 23.00" stroke="black" fill="transparent"/>
</svg>