<?xml version="1.0" encoding="UTF-8" standalone="no"?>
<!--Created with ndjsontosvg(https:https://github.com/thompson318/ndjsontosvg) 
	from the simplified Google quickdraw data set. key_id = 6492007205699584-->
<svg width="256" height="256"
	xmlns="http://www.w3.org/2000/svg"
	xmlns:ndjsontosvg="https://github.com/thompson318/ndjsontosvg"
	xmlns:quickdraw="https://quickdraw.withgoogle.com/data"
	xmlns:scikit-surgery="https://doi.org/10.1007/s11548-020-02180-5">

	<rect width="100%" height="100%" fill="white" />
	<path d = "M 93.00 121.00 L 95.00 113.00 L 100.00 105.00 L 115.00 89.00 L 134.00 76.00 L 161.00 71.00 L 186.00 71.00 L 204.00 79.00 L 226.00 99.00 L 238.00 117.00 L 244.00 137.00 L 248.00 159.00 L 248.00 193.00 L 240.00 214.00 L 228.00 228.00 L 215.00 237.00 L 169.00 250.00 L 116.00 255.00 L 81.00 255.00 L 64.00 249.00 L 48.00 236.00 L 20.00 206.00 L 8.00 183.00 L 0.00 149.00 L 3.00 115.00 L 17.00 102.00 L 33.00 96.00 L 69.00 96.00 L 103.00 107.00" stroke="black" fill="transparent"/>
	<path d = "M 112.00 99.00 L 100.00 79.00 L 103.00 39.00 L 114.00 18.00 L 131.00 0.00" stroke="black" fill="transparent"/>
</svg>