<?xml version="1.0" encoding="UTF-8" standalone="no"?>
<!--Created with ndjsontosvg(https:https://github.com/thompson318/ndjsontosvg) 
	from the simplified Google quickdraw data set. key_id = 6318520574935040-->
<svg width="256" height="256"
	xmlns="http://www.w3.org/2000/svg"
	xmlns:ndjsontosvg="https://github.com/thompson318/ndjsontosvg"
	xmlns:quickdraw="https://quickdraw.withgoogle.com/data"
	xmlns:scikit-surgery="https://doi.org/10.1007/s11548-020-02180-5">

	<rect width="100%" height="100%" fill="white" />
	<path d = "M 22.00 60.00 L 76.00 54.00 L 190.00 54.00 L 205.00 59.00 L 225.00 73.00 L 245.00 112.00 L 244.00 135.00 L 224.00 183.00 L 201.00 218.00 L 190.00 229.00" stroke="black" fill="transparent"/>
	<path d = "M 18.00 54.00 L 12.00 58.00 L 3.00 75.00 L 0.00 109.00 L 34.00 196.00 L 42.00 229.00 L 54.00 251.00 L 66.00 255.00 L 138.00 252.00 L 167.00 243.00 L 190.00 232.00 L 195.00 226.00 L 195.00 219.00" stroke="black" fill="transparent"/>
	<path d = "M 74.00 82.00 L 94.00 91.00 L 110.00 92.00 L 118.00 90.00 L 128.00 78.00" stroke="black" fill="transparent"/>
	<path d = "M 96.00 0.00 L 106.00 90.00 L 116.00 72.00 L 118.00 61.00 L 129.00 43.00 L 153.00 25.00 L 164.00 20.00 L 159.00 40.00 L 148.00 56.00 L 105.00 106.00" stroke="black" fill="transparent"/>
</svg>