<?xml version="1.0" encoding="UTF-8" standalone="no"?>
<!--Created with ndjsontosvg(https:https://github.com/thompson318/ndjsontosvg) 
	from the simplified Google quickdraw data set. key_id = 5933434427932672-->
<svg width="256" height="256"
	xmlns="http://www.w3.org/2000/svg"
	xmlns:ndjsontosvg="https://github.com/thompson318/ndjsontosvg"
	xmlns:quickdraw="https://quickdraw.withgoogle.com/data"
	xmlns:scikit-surgery="https://doi.org/10.1007/s11548-020-02180-5">

	<rect width="100%" height="100%" fill="white" />
	<path d = "M 78.00 90.00 L 16.00 98.00 L 7.00 108.00 L 0.00 130.00 L 0.00 166.00 L 10.00 208.00 L 35.00 241.00 L 60.00 253.00 L 111.00 255.00 L 167.00 251.00 L 174.00 248.00 L 188.00 233.00 L 187.00 201.00 L 197.00 150.00 L 197.00 116.00 L 193.00 109.00 L 183.00 100.00 L 152.00 91.00 L 101.00 87.00 L 74.00 89.00" stroke="black" fill="transparent"/>
	<path d = "M 85.00 88.00 L 97.00 68.00 L 164.00 23.00" stroke="black" fill="transparent"/>
	<path d = "M 125.00 45.00 L 125.00 24.00 L 133.00 6.00 L 141.00 1.00 L 148.00 1.00 L 149.00 16.00 L 140.00 31.00" stroke="black" fill="transparent"/>
	<path d = "M 110.00 55.00 L 122.00 51.00 L 142.00 52.00" stroke="black" fill="transparent"/>
</svg>