<?xml version="1.0" encoding="UTF-8" standalone="no"?>
<!--Created with ndjsontosvg(https:https://github.com/thompson318/ndjsontosvg) 
	from the simplified Google quickdraw data set. key_id = 4743002691993600-->
<svg width="256" height="256"
	xmlns="http://www.w3.org/2000/svg"
	xmlns:ndjsontosvg="https://github.com/thompson318/ndjsontosvg"
	xmlns:quickdraw="https://quickdraw.withgoogle.com/data"
	xmlns:scikit-surgery="https://doi.org/10.1007/s11548-020-02180-5">

	<rect width="100%" height="100%" fill="white" />
	<path d = "M 94.00 109.00 L 85.00 85.00 L 75.00 76.00 L 37.00 76.00 L 21.00 95.00 L 4.00 136.00 L 0.00 176.00 L 14.00 209.00 L 35.00 231.00 L 55.00 244.00 L 91.00 255.00 L 124.00 255.00 L 147.00 248.00 L 161.00 240.00 L 170.00 213.00 L 177.00 161.00 L 176.00 120.00 L 163.00 85.00 L 146.00 77.00 L 132.00 79.00 L 121.00 84.00 L 115.00 96.00 L 96.00 110.00 L 113.00 59.00 L 142.00 16.00 L 128.00 16.00 L 124.00 25.00 L 107.00 90.00 L 98.00 112.00" stroke="black" fill="transparent"/>
	<path d = "M 106.00 71.00 L 132.00 51.00 L 156.00 24.00 L 201.00 1.00 L 223.00 0.00 L 227.00 6.00 L 225.00 10.00 L 165.00 48.00 L 123.00 66.00" stroke="black" fill="transparent"/>
</svg>