<?xml version="1.0" encoding="UTF-8" standalone="no"?>
<!--Created with ndjsontosvg(https:https://github.com/thompson318/ndjsontosvg) 
	from the simplified Google quickdraw data set. key_id = 5744991685050368-->
<svg width="256" height="256"
	xmlns="http://www.w3.org/2000/svg"
	xmlns:ndjsontosvg="https://github.com/thompson318/ndjsontosvg"
	xmlns:quickdraw="https://quickdraw.withgoogle.com/data"
	xmlns:scikit-surgery="https://doi.org/10.1007/s11548-020-02180-5">

	<rect width="100%" height="100%" fill="white" />
	<path d = "M 136.00 103.00 L 134.00 96.00 L 123.00 86.00 L 78.00 58.00 L 61.00 59.00 L 25.00 72.00 L 9.00 83.00 L 3.00 95.00 L 0.00 167.00 L 4.00 180.00 L 26.00 207.00 L 57.00 228.00 L 71.00 242.00 L 93.00 253.00 L 110.00 253.00 L 129.00 246.00 L 194.00 213.00 L 204.00 205.00 L 232.00 164.00 L 246.00 138.00 L 255.00 112.00 L 252.00 101.00 L 242.00 90.00 L 194.00 63.00 L 182.00 63.00 L 167.00 69.00 L 138.00 95.00" stroke="black" fill="transparent"/>
	<path d = "M 138.00 95.00 L 138.00 95.00" stroke="black" fill="transparent"/>
	<path d = "M 124.00 0.00 L 122.00 47.00 L 133.00 78.00 L 133.00 97.00" stroke="black" fill="transparent"/>
</svg>