<?xml version="1.0" encoding="UTF-8" standalone="no"?>
<!--Created with ndjsontosvg(https:https://github.com/thompson318/ndjsontosvg) 
	from the simplified Google quickdraw data set. key_id = 4666255363538944-->
<svg width="256" height="256"
	xmlns="http://www.w3.org/2000/svg"
	xmlns:ndjsontosvg="https://github.com/thompson318/ndjsontosvg"
	xmlns:quickdraw="https://quickdraw.withgoogle.com/data"
	xmlns:scikit-surgery="https://doi.org/10.1007/s11548-020-02180-5">

	<rect width="100%" height="100%" fill="white" />
	<path d = "M 15.00 109.00 L 35.00 72.00 L 49.00 63.00 L 107.00 64.00 L 127.00 68.00 L 134.00 73.00 L 153.00 114.00 L 156.00 186.00 L 148.00 220.00 L 141.00 234.00 L 128.00 248.00 L 105.00 255.00 L 65.00 255.00 L 27.00 238.00 L 11.00 225.00 L 3.00 209.00 L 0.00 195.00 L 1.00 105.00 L 16.00 63.00 L 36.00 55.00 L 56.00 65.00 L 64.00 65.00" stroke="black" fill="transparent"/>
	<path d = "M 72.00 63.00 L 72.00 0.00" stroke="black" fill="transparent"/>
	<path d = "M 71.00 41.00 L 88.00 30.00 L 98.00 17.00 L 100.00 22.00 L 99.00 29.00 L 73.00 59.00" stroke="black" fill="transparent"/>
</svg>