<?xml version="1.0" encoding="UTF-8" standalone="no"?>
<!--Created with ndjsontosvg(https:https://github.com/thompson318/ndjsontosvg) 
	from the simplified Google quickdraw data set. key_id = 6583711099256832-->
<svg width="256" height="256"
	xmlns="http://www.w3.org/2000/svg"
	xmlns:ndjsontosvg="https://github.com/thompson318/ndjsontosvg"
	xmlns:quickdraw="https://quickdraw.withgoogle.com/data"
	xmlns:scikit-surgery="https://doi.org/10.1007/s11548-020-02180-5">

	<rect width="100%" height="100%" fill="white" />
	<path d = "M 31.00 233.00 L 63.00 238.00 L 81.00 233.00 L 100.00 224.00 L 127.00 238.00 L 146.00 238.00 L 158.00 230.00" stroke="black" fill="transparent"/>
	<path d = "M 36.00 232.00 L 28.00 229.00 L 12.00 214.00 L 3.00 195.00 L 0.00 181.00 L 2.00 119.00 L 6.00 104.00 L 37.00 60.00 L 49.00 52.00 L 80.00 52.00 L 94.00 55.00 L 115.00 67.00 L 145.00 92.00 L 155.00 105.00 L 160.00 118.00 L 163.00 143.00 L 164.00 205.00 L 167.00 224.00 L 166.00 253.00" stroke="black" fill="transparent"/>
	<path d = "M 63.00 50.00 L 70.00 14.00 L 75.00 7.00 L 88.00 8.00 L 78.00 41.00 L 77.00 0.00 L 64.00 48.00 L 81.00 16.00 L 79.00 35.00 L 79.00 31.00 L 65.00 53.00 L 72.00 27.00" stroke="black" fill="transparent"/>
</svg>