<?xml version="1.0" encoding="UTF-8" standalone="no"?>
<!--Created with ndjsontosvg(https:https://github.com/thompson318/ndjsontosvg) 
	from the simplified Google quickdraw data set. key_id = 5867655649034240-->
<svg width="256" height="256"
	xmlns="http://www.w3.org/2000/svg"
	xmlns:ndjsontosvg="https://github.com/thompson318/ndjsontosvg"
	xmlns:quickdraw="https://quickdraw.withgoogle.com/data"
	xmlns:scikit-surgery="https://doi.org/10.1007/s11548-020-02180-5">

	<rect width="100%" height="100%" fill="white" />
	<path d = "M 72.00 72.00 L 59.00 71.00 L 39.00 77.00 L 10.00 95.00 L 1.00 118.00 L 0.00 177.00 L 13.00 207.00 L 43.00 235.00 L 77.00 249.00 L 102.00 249.00" stroke="black" fill="transparent"/>
	<path d = "M 67.00 67.00 L 83.00 68.00 L 111.00 76.00 L 133.00 76.00 L 155.00 68.00 L 185.00 67.00 L 201.00 74.00 L 206.00 89.00 L 206.00 134.00 L 197.00 191.00 L 192.00 204.00 L 182.00 218.00 L 162.00 234.00 L 107.00 255.00" stroke="black" fill="transparent"/>
	<path d = "M 111.00 68.00 L 113.00 43.00 L 117.00 32.00 L 129.00 16.00" stroke="black" fill="transparent"/>
	<path d = "M 108.00 24.00 L 83.00 6.00 L 70.00 0.00 L 58.00 0.00 L 52.00 3.00 L 50.00 22.00 L 74.00 34.00 L 116.00 40.00" stroke="black" fill="transparent"/>
</svg>