<?xml version="1.0" encoding="UTF-8" standalone="no"?>
<!--Created with ndjsontosvg(https:https://github.com/thompson318/ndjsontosvg) 
	from the simplified Google quickdraw data set. key_id = 5347789833764864-->
<svg width="256" height="256"
	xmlns="http://www.w3.org/2000/svg"
	xmlns:ndjsontosvg="https://github.com/thompson318/ndjsontosvg"
	xmlns:quickdraw="https://quickdraw.withgoogle.com/data"
	xmlns:scikit-surgery="https://doi.org/10.1007/s11548-020-02180-5">

	<rect width="100%" height="100%" fill="white" />
	<path d = "M 75.00 81.00 L 79.00 89.00 L 85.00 93.00 L 102.00 96.00 L 134.00 94.00 L 150.00 85.00 L 188.00 74.00 L 204.00 76.00 L 225.00 88.00 L 240.00 101.00 L 243.00 108.00 L 215.00 122.00 L 202.00 132.00 L 187.00 148.00 L 176.00 173.00 L 177.00 179.00 L 182.00 186.00 L 200.00 192.00 L 225.00 190.00 L 226.00 199.00 L 202.00 240.00 L 170.00 255.00 L 115.00 241.00 L 87.00 239.00 L 71.00 241.00 L 55.00 248.00 L 33.00 249.00 L 24.00 246.00 L 10.00 229.00 L 5.00 218.00 L 0.00 183.00 L 5.00 154.00 L 9.00 139.00 L 31.00 104.00 L 61.00 83.00 L 71.00 81.00" stroke="black" fill="transparent"/>
	<path d = "M 112.00 43.00 L 114.00 35.00 L 127.00 25.00 L 168.00 3.00 L 175.00 0.00 L 177.00 7.00 L 176.00 14.00 L 167.00 37.00 L 155.00 51.00 L 106.00 64.00 L 109.00 53.00" stroke="black" fill="transparent"/>
</svg>