<?xml version="1.0" encoding="UTF-8" standalone="no"?>
<!--Created with ndjsontosvg(https:https://github.com/thompson318/ndjsontosvg) 
	from the simplified Google quickdraw data set. key_id = 5792280126423040-->
<svg width="256" height="256"
	xmlns="http://www.w3.org/2000/svg"
	xmlns:ndjsontosvg="https://github.com/thompson318/ndjsontosvg"
	xmlns:quickdraw="https://quickdraw.withgoogle.com/data"
	xmlns:scikit-surgery="https://doi.org/10.1007/s11548-020-02180-5">

	<rect width="100%" height="100%" fill="white" />
	<path d = "M 109.00 128.00 L 90.00 88.00 L 82.00 82.00 L 66.00 82.00 L 33.00 105.00 L 5.00 137.00 L 0.00 152.00 L 0.00 168.00 L 6.00 184.00 L 17.00 195.00 L 60.00 220.00 L 93.00 220.00 L 124.00 198.00 L 135.00 200.00 L 153.00 216.00 L 170.00 222.00 L 203.00 205.00 L 220.00 190.00 L 233.00 173.00 L 255.00 121.00 L 255.00 112.00 L 245.00 96.00 L 201.00 72.00 L 173.00 66.00 L 140.00 66.00 L 115.00 69.00 L 104.00 76.00 L 88.00 107.00 L 87.00 117.00 L 91.00 124.00 L 99.00 129.00 L 107.00 129.00 L 112.00 121.00 L 102.00 93.00 L 102.00 69.00 L 114.00 34.00 L 118.00 25.00 L 136.00 6.00 L 143.00 0.00 L 151.00 8.00 L 150.00 2.00" stroke="black" fill="transparent"/>
</svg>