<?xml version="1.0" encoding="UTF-8" standalone="no"?>
<!--Created with ndjsontosvg(https:https://github.com/thompson318/ndjsontosvg) 
	from the simplified Google quickdraw data set. key_id = 4943499617107968-->
<svg width="256" height="256"
	xmlns="http://www.w3.org/2000/svg"
	xmlns:ndjsontosvg="https://github.com/thompson318/ndjsontosvg"
	xmlns:quickdraw="https://quickdraw.withgoogle.com/data"
	xmlns:scikit-surgery="https://doi.org/10.1007/s11548-020-02180-5">

	<rect width="100%" height="100%" fill="white" />
	<path d = "M 59.00 61.00 L 83.00 92.00 L 102.00 101.00 L 121.00 101.00 L 133.00 96.00 L 147.00 85.00 L 160.00 68.00 L 168.00 63.00 L 186.00 63.00 L 204.00 75.00 L 214.00 95.00 L 219.00 115.00 L 220.00 174.00 L 208.00 215.00 L 184.00 239.00 L 157.00 247.00 L 147.00 246.00 L 118.00 230.00 L 81.00 239.00 L 52.00 238.00 L 43.00 235.00 L 25.00 219.00 L 3.00 173.00 L 0.00 155.00 L 3.00 123.00 L 21.00 80.00 L 34.00 63.00 L 51.00 48.00 L 69.00 42.00" stroke="black" fill="transparent"/>
	<path d = "M 106.00 235.00 L 105.00 241.00 L 111.00 255.00 L 115.00 254.00 L 119.00 243.00 L 127.00 243.00" stroke="black" fill="transparent"/>
	<path d = "M 104.00 102.00 L 98.00 60.00 L 101.00 32.00 L 111.00 17.00 L 128.00 5.00 L 140.00 0.00 L 138.00 10.00" stroke="black" fill="transparent"/>
</svg>