<?xml version="1.0" encoding="UTF-8" standalone="no"?>
<!--Created with ndjsontosvg(https:https://github.com/thompson318/ndjsontosvg) 
	from the simplified Google quickdraw data set. key_id = 6329411269820416-->
<svg width="256" height="256"
	xmlns="http://www.w3.org/2000/svg"
	xmlns:ndjsontosvg="https://github.com/thompson318/ndjsontosvg"
	xmlns:quickdraw="https://quickdraw.withgoogle.com/data"
	xmlns:scikit-surgery="https://doi.org/10.1007/s11548-020-02180-5">

	<rect width="100%" height="100%" fill="white" />
	<path d = "M 102.00 54.00 L 102.00 50.00 L 95.00 48.00 L 72.00 46.00 L 26.00 58.00 L 16.00 62.00 L 6.00 72.00 L 0.00 87.00 L 1.00 119.00 L 45.00 184.00 L 66.00 243.00" stroke="black" fill="transparent"/>
	<path d = "M 102.00 48.00 L 101.00 44.00 L 107.00 35.00 L 126.00 20.00 L 145.00 19.00 L 153.00 22.00 L 169.00 31.00 L 185.00 50.00 L 194.00 88.00 L 194.00 110.00 L 172.00 191.00 L 170.00 233.00 L 159.00 242.00 L 134.00 250.00 L 126.00 246.00 L 118.00 229.00" stroke="black" fill="transparent"/>
	<path d = "M 67.00 236.00 L 64.00 241.00 L 69.00 250.00 L 93.00 255.00 L 115.00 245.00 L 122.00 229.00" stroke="black" fill="transparent"/>
	<path d = "M 99.00 49.00 L 96.00 30.00 L 89.00 18.00 L 61.00 0.00" stroke="black" fill="transparent"/>
	<path d = "M 93.00 39.00 L 59.00 19.00 L 38.00 13.00 L 24.00 13.00 L 18.00 18.00 L 24.00 34.00" stroke="black" fill="transparent"/>
</svg>