<?xml version="1.0" encoding="UTF-8" standalone="no"?>
<!--Created with ndjsontosvg(https:https://github.com/thompson318/ndjsontosvg) 
	from the simplified Google quickdraw data set. key_id = 5475923962888192-->
<svg width="256" height="256"
	xmlns="http://www.w3.org/2000/svg"
	xmlns:ndjsontosvg="https://github.com/thompson318/ndjsontosvg"
	xmlns:quickdraw="https://quickdraw.withgoogle.com/data"
	xmlns:scikit-surgery="https://doi.org/10.1007/s11548-020-02180-5">

	<rect width="100%" height="100%" fill="white" />
	<path d = "M 75.00 106.00 L 45.00 108.00 L 28.00 119.00 L 15.00 136.00 L 1.00 176.00 L 1.00 218.00 L 10.00 229.00 L 28.00 237.00 L 47.00 236.00 L 61.00 223.00 L 65.00 241.00 L 74.00 250.00 L 81.00 252.00 L 108.00 255.00 L 141.00 254.00 L 155.00 247.00 L 175.00 209.00 L 180.00 179.00 L 180.00 160.00 L 177.00 148.00 L 150.00 120.00 L 129.00 112.00 L 66.00 109.00" stroke="black" fill="transparent"/>
	<path d = "M 85.00 106.00 L 85.00 46.00 L 92.00 49.00 L 118.00 77.00 L 152.00 0.00 L 156.00 9.00 L 156.00 34.00 L 151.00 66.00 L 180.00 47.00 L 193.00 45.00 L 194.00 52.00 L 194.00 58.00 L 172.00 108.00 L 166.00 147.00" stroke="black" fill="transparent"/>
</svg>