<?xml version="1.0" encoding="UTF-8" standalone="no"?>
<!--Created with ndjsontosvg(https:https://github.com/thompson318/ndjsontosvg) 
	from the simplified Google quickdraw data set. key_id = 5513346281373696-->
<svg width="256" height="256"
	xmlns="http://www.w3.org/2000/svg"
	xmlns:ndjsontosvg="https://github.com/thompson318/ndjsontosvg"
	xmlns:quickdraw="https://quickdraw.withgoogle.com/data"
	xmlns:scikit-surgery="https://doi.org/10.1007/s11548-020-02180-5">

	<rect width="100%" height="100%" fill="white" />
	<path d = "M 181.00 44.00 L 172.00 46.00 L 154.00 66.00 L 141.00 76.00 L 133.00 91.00 L 131.00 105.00 L 133.00 117.00 L 146.00 130.00 L 154.00 118.00 L 160.00 133.00 L 171.00 128.00 L 184.00 148.00 L 194.00 139.00 L 197.00 142.00 L 206.00 164.00 L 210.00 192.00 L 209.00 212.00 L 202.00 224.00 L 168.00 247.00 L 141.00 255.00 L 121.00 255.00 L 84.00 236.00 L 37.00 197.00 L 21.00 177.00 L 7.00 154.00 L 0.00 133.00 L 3.00 108.00 L 20.00 82.00 L 52.00 53.00 L 80.00 34.00 L 93.00 29.00 L 158.00 22.00 L 179.00 34.00 L 180.00 43.00" stroke="black" fill="transparent"/>
	<path d = "M 105.00 20.00 L 114.00 7.00 L 132.00 0.00" stroke="black" fill="transparent"/>
</svg>