<?xml version="1.0" encoding="UTF-8" standalone="no"?>
<!--Created with ndjsontosvg(https:https://github.com/thompson318/ndjsontosvg) 
	from the simplified Google quickdraw data set. key_id = 6456634324811776-->
<svg width="256" height="256"
	xmlns="http://www.w3.org/2000/svg"
	xmlns:ndjsontosvg="https://github.com/thompson318/ndjsontosvg"
	xmlns:quickdraw="https://quickdraw.withgoogle.com/data"
	xmlns:scikit-surgery="https://doi.org/10.1007/s11548-020-02180-5">

	<rect width="100%" height="100%" fill="white" />
	<path d = "M 85.00 106.00 L 80.00 91.00 L 65.00 81.00 L 47.00 75.00 L 29.00 82.00 L 22.00 91.00 L 11.00 121.00 L 2.00 173.00 L 0.00 205.00 L 9.00 233.00 L 24.00 248.00 L 58.00 255.00 L 82.00 251.00 L 106.00 237.00 L 123.00 219.00 L 134.00 202.00 L 143.00 179.00 L 149.00 145.00 L 149.00 127.00 L 140.00 103.00 L 124.00 93.00 L 116.00 92.00 L 102.00 107.00 L 95.00 110.00 L 91.00 68.00 L 84.00 58.00 L 34.00 13.00 L 30.00 6.00 L 54.00 0.00 L 62.00 5.00 L 91.00 43.00 L 95.00 60.00 L 103.00 62.00 L 129.00 41.00 L 143.00 24.00" stroke="black" fill="transparent"/>
</svg>