<?xml version="1.0" encoding="UTF-8" standalone="no"?>
<!--Created with ndjsontosvg(https:https://github.com/thompson318/ndjsontosvg) 
	from the simplified Google quickdraw data set. key_id = 4943878123683840-->
<svg width="256" height="256"
	xmlns="http://www.w3.org/2000/svg"
	xmlns:ndjsontosvg="https://github.com/thompson318/ndjsontosvg"
	xmlns:quickdraw="https://quickdraw.withgoogle.com/data"
	xmlns:scikit-surgery="https://doi.org/10.1007/s11548-020-02180-5">

	<rect width="100%" height="100%" fill="white" />
	<path d = "M 130.00 86.00 L 126.00 80.00 L 102.00 62.00 L 73.00 47.00 L 59.00 48.00 L 36.00 65.00 L 16.00 95.00 L 1.00 141.00 L 0.00 183.00 L 2.00 190.00 L 10.00 200.00 L 26.00 210.00 L 41.00 215.00 L 74.00 216.00 L 91.00 208.00 L 112.00 191.00 L 123.00 172.00 L 123.00 200.00 L 125.00 211.00 L 131.00 217.00 L 158.00 227.00 L 185.00 228.00 L 222.00 213.00 L 236.00 202.00 L 247.00 189.00 L 255.00 156.00 L 255.00 128.00 L 228.00 76.00 L 209.00 65.00 L 152.00 64.00 L 140.00 69.00 L 137.00 87.00 L 131.00 95.00 L 126.00 90.00 L 137.00 56.00 L 142.00 18.00 L 147.00 0.00 L 153.00 11.00 L 153.00 17.00 L 145.00 37.00 L 140.00 65.00" stroke="black" fill="transparent"/>
</svg>