<?xml version="1.0" encoding="UTF-8" standalone="no"?>
<!--Created with ndjsontosvg(https:https://github.com/thompson318/ndjsontosvg) 
	from the simplified Google quickdraw data set. key_id = 6510060014403584-->
<svg width="256" height="256"
	xmlns="http://www.w3.org/2000/svg"
	xmlns:ndjsontosvg="https://github.com/thompson318/ndjsontosvg"
	xmlns:quickdraw="https://quickdraw.withgoogle.com/data"
	xmlns:scikit-surgery="https://doi.org/10.1007/s11548-020-02180-5">

	<rect width="100%" height="100%" fill="white" />
	<path d = "M 254.00 102.00 L 228.00 88.00 L 207.00 85.00 L 201.00 93.00 L 201.00 106.00 L 205.00 111.00 L 190.00 113.00 L 181.00 121.00 L 181.00 130.00 L 190.00 139.00 L 174.00 146.00 L 164.00 155.00 L 163.00 168.00 L 179.00 184.00 L 165.00 191.00 L 162.00 199.00 L 162.00 213.00 L 167.00 220.00 L 179.00 228.00 L 202.00 232.00" stroke="black" fill="transparent"/>
	<path d = "M 255.00 93.00 L 249.00 78.00 L 238.00 67.00 L 216.00 52.00 L 180.00 41.00 L 158.00 41.00 L 148.00 45.00 L 117.00 75.00 L 114.00 75.00 L 95.00 53.00 L 72.00 44.00 L 48.00 45.00 L 33.00 51.00 L 17.00 70.00 L 4.00 107.00 L 0.00 151.00 L 12.00 200.00 L 18.00 214.00 L 24.00 222.00 L 46.00 236.00 L 68.00 239.00 L 84.00 239.00 L 111.00 228.00 L 131.00 246.00 L 154.00 255.00 L 181.00 254.00 L 190.00 251.00 L 196.00 241.00 L 194.00 225.00" stroke="black" fill="transparent"/>
	<path d = "M 113.00 68.00 L 111.00 39.00 L 105.00 11.00 L 120.00 60.00 L 122.00 74.00 L 121.00 38.00 L 128.00 18.00 L 144.00 3.00 L 156.00 0.00 L 161.00 4.00 L 162.00 22.00 L 158.00 34.00 L 114.00 72.00" stroke="black" fill="transparent"/>
	<path d = "M 152.00 5.00 L 120.00 74.00" stroke="black" fill="transparent"/>
</svg>