<?xml version="1.0" encoding="UTF-8" standalone="no"?>
<!--Created with ndjsontosvg(https:https://github.com/thompson318/ndjsontosvg) 
	from the simplified Google quickdraw data set. key_id = 4587619411296256-->
<svg width="256" height="256"
	xmlns="http://www.w3.org/2000/svg"
	xmlns:ndjsontosvg="https://github.com/thompson318/ndjsontosvg"
	xmlns:quickdraw="https://quickdraw.withgoogle.com/data"
	xmlns:scikit-surgery="https://doi.org/10.1007/s11548-020-02180-5">

	<rect width="100%" height="100%" fill="white" />
	<path d = "M 104.00 54.00 L 80.00 38.00 L 54.00 38.00 L 28.00 53.00 L 11.00 80.00 L 0.00 128.00 L 1.00 164.00 L 8.00 183.00 L 20.00 201.00 L 51.00 228.00 L 90.00 244.00 L 111.00 249.00 L 147.00 250.00 L 170.00 244.00 L 198.00 232.00 L 213.00 220.00 L 229.00 197.00 L 248.00 157.00 L 255.00 126.00 L 255.00 97.00 L 243.00 68.00 L 221.00 45.00 L 213.00 41.00 L 161.00 35.00 L 120.00 54.00 L 111.00 66.00 L 110.00 50.00 L 117.00 32.00 L 141.00 0.00 L 115.00 61.00" stroke="black" fill="transparent"/>
</svg>