<?xml version="1.0" encoding="UTF-8" standalone="no"?>
<!--Created with ndjsontosvg(https:https://github.com/thompson318/ndjsontosvg) 
	from the simplified Google quickdraw data set. key_id = 5131781453905920-->
<svg width="256" height="256"
	xmlns="http://www.w3.org/2000/svg"
	xmlns:ndjsontosvg="https://github.com/thompson318/ndjsontosvg"
	xmlns:quickdraw="https://quickdraw.withgoogle.com/data"
	xmlns:scikit-surgery="https://doi.org/10.1007/s11548-020-02180-5">

	<rect width="100%" height="100%" fill="white" />
	<path d = "M 0.00 85.00 L 14.00 71.00 L 28.00 68.00 L 59.00 69.00 L 74.00 79.00 L 87.00 81.00 L 110.00 81.00 L 134.00 71.00 L 147.00 71.00 L 161.00 74.00 L 175.00 81.00 L 185.00 116.00 L 185.00 141.00 L 178.00 160.00 L 175.00 176.00 L 151.00 232.00 L 138.00 252.00 L 131.00 255.00 L 118.00 254.00 L 111.00 241.00 L 93.00 247.00 L 71.00 247.00 L 66.00 241.00 L 41.00 177.00 L 21.00 148.00 L 8.00 103.00 L 8.00 90.00 L 32.00 80.00" stroke="black" fill="transparent"/>
	<path d = "M 99.00 64.00 L 95.00 72.00 L 95.00 34.00 L 103.00 10.00 L 115.00 0.00 L 138.00 0.00" stroke="black" fill="transparent"/>
	<path d = "M 86.00 32.00 L 109.00 27.00 L 131.00 30.00 L 138.00 34.00 L 139.00 40.00 L 134.00 47.00 L 126.00 49.00" stroke="black" fill="transparent"/>
</svg>