<?xml version="1.0" encoding="UTF-8" standalone="no"?>
<!--Created with ndjsontosvg(https:https://github.com/thompson318/ndjsontosvg) 
	from the simplified Google quickdraw data set. key_id = 5255180373196800-->
<svg width="256" height="256"
	xmlns="http://www.w3.org/2000/svg"
	xmlns:ndjsontosvg="https://github.com/thompson318/ndjsontosvg"
	xmlns:quickdraw="https://quickdraw.withgoogle.com/data"
	xmlns:scikit-surgery="https://doi.org/10.1007/s11548-020-02180-5">

	<rect width="100%" height="100%" fill="white" />
	<path d = "M 133.00 71.00 L 129.00 64.00 L 119.00 55.00 L 72.00 42.00 L 28.00 53.00 L 3.00 106.00 L 0.00 132.00 L 4.00 161.00 L 11.00 183.00 L 37.00 229.00 L 51.00 243.00 L 65.00 249.00 L 100.00 254.00 L 148.00 255.00 L 165.00 250.00 L 208.00 224.00 L 231.00 187.00 L 243.00 144.00 L 240.00 96.00 L 225.00 65.00 L 212.00 52.00 L 199.00 48.00 L 187.00 48.00 L 153.00 59.00 L 133.00 75.00" stroke="black" fill="transparent"/>
	<path d = "M 130.00 62.00 L 118.00 0.00 L 133.00 4.00 L 138.00 42.00 L 144.00 61.00 L 142.00 74.00" stroke="black" fill="transparent"/>
</svg>