<?xml version="1.0" encoding="UTF-8" standalone="no"?>
<!--Created with ndjsontosvg(https:https://github.com/thompson318/ndjsontosvg) 
	from the simplified Google quickdraw data set. key_id = 5931192824102912-->
<svg width="256" height="256"
	xmlns="http://www.w3.org/2000/svg"
	xmlns:ndjsontosvg="https://github.com/thompson318/ndjsontosvg"
	xmlns:quickdraw="https://quickdraw.withgoogle.com/data"
	xmlns:scikit-surgery="https://doi.org/10.1007/s11548-020-02180-5">

	<rect width="100%" height="100%" fill="white" />
	<path d = "M 65.00 241.00 L 35.00 243.00 L 22.00 238.00 L 6.00 211.00 L 0.00 169.00 L 0.00 126.00 L 5.00 107.00 L 22.00 83.00 L 49.00 71.00 L 55.00 71.00 L 67.00 81.00 L 75.00 81.00 L 109.00 63.00 L 121.00 80.00 L 150.00 104.00 L 156.00 150.00 L 156.00 173.00 L 148.00 201.00 L 134.00 228.00 L 121.00 242.00 L 108.00 251.00 L 95.00 255.00 L 62.00 255.00 L 58.00 242.00" stroke="black" fill="transparent"/>
	<path d = "M 70.00 83.00 L 73.00 36.00 L 79.00 19.00 L 90.00 11.00 L 116.00 1.00 L 130.00 0.00 L 165.00 30.00" stroke="black" fill="transparent"/>
</svg>