<?xml version="1.0" encoding="UTF-8" standalone="no"?>
<!--Created with ndjsontosvg(https:https://github.com/thompson318/ndjsontosvg) 
	from the simplified Google quickdraw data set. key_id = 6083063693967360-->
<svg width="256" height="256"
	xmlns="http://www.w3.org/2000/svg"
	xmlns:ndjsontosvg="https://github.com/thompson318/ndjsontosvg"
	xmlns:quickdraw="https://quickdraw.withgoogle.com/data"
	xmlns:scikit-surgery="https://doi.org/10.1007/s11548-020-02180-5">

	<rect width="100%" height="100%" fill="white" />
	<path d = "M 167.00 67.00 L 163.00 59.00 L 150.00 50.00 L 111.00 33.00 L 74.00 32.00 L 51.00 29.00 L 40.00 36.00 L 15.00 71.00 L 8.00 91.00 L 0.00 126.00 L 0.00 149.00 L 3.00 159.00 L 19.00 180.00 L 82.00 208.00 L 121.00 207.00 L 126.00 201.00 L 128.00 192.00" stroke="black" fill="transparent"/>
	<path d = "M 168.00 63.00 L 206.00 56.00 L 209.00 51.00 L 221.00 50.00 L 235.00 57.00 L 255.00 77.00 L 255.00 153.00 L 251.00 169.00 L 235.00 191.00 L 220.00 202.00 L 204.00 208.00 L 148.00 208.00 L 112.00 202.00 L 107.00 195.00" stroke="black" fill="transparent"/>
	<path d = "M 166.00 0.00 L 167.00 53.00 L 170.00 26.00 L 175.00 16.00 L 190.00 5.00 L 196.00 4.00 L 200.00 9.00 L 193.00 31.00 L 176.00 56.00" stroke="black" fill="transparent"/>
</svg>