<?xml version="1.0" encoding="UTF-8" standalone="no"?>
<!--Created with ndjsontosvg(https:https://github.com/thompson318/ndjsontosvg) 
	from the simplified Google quickdraw data set. key_id = 4784787082444800-->
<svg width="256" height="256"
	xmlns="http://www.w3.org/2000/svg"
	xmlns:ndjsontosvg="https://github.com/thompson318/ndjsontosvg"
	xmlns:quickdraw="https://quickdraw.withgoogle.com/data"
	xmlns:scikit-surgery="https://doi.org/10.1007/s11548-020-02180-5">

	<rect width="100%" height="100%" fill="white" />
	<path d = "M 116.00 56.00 L 90.00 38.00 L 50.00 40.00 L 32.00 54.00 L 23.00 65.00 L 1.00 125.00 L 0.00 149.00 L 9.00 161.00 L 40.00 187.00 L 77.00 203.00 L 101.00 224.00 L 117.00 246.00 L 122.00 249.00 L 172.00 255.00 L 208.00 255.00 L 222.00 250.00 L 228.00 244.00 L 233.00 234.00 L 236.00 217.00 L 236.00 132.00 L 231.00 110.00 L 216.00 88.00 L 195.00 70.00 L 170.00 59.00 L 113.00 53.00" stroke="black" fill="transparent"/>
	<path d = "M 113.00 53.00 L 112.00 5.00 L 113.00 0.00 L 116.00 0.00" stroke="black" fill="transparent"/>
</svg>