<?xml version="1.0" encoding="UTF-8" standalone="no"?>
<!--Created with ndjsontosvg(https:https://github.com/thompson318/ndjsontosvg) 
	from the simplified Google quickdraw data set. key_id = 4828791035658240-->
<svg width="256" height="256"
	xmlns="http://www.w3.org/2000/svg"
	xmlns:ndjsontosvg="https://github.com/thompson318/ndjsontosvg"
	xmlns:quickdraw="https://quickdraw.withgoogle.com/data"
	xmlns:scikit-surgery="https://doi.org/10.1007/s11548-020-02180-5">

	<rect width="100%" height="100%" fill="white" />
	<path d = "M 95.00 81.00 L 91.00 75.00 L 83.00 71.00 L 52.00 64.00 L 30.00 69.00 L 15.00 77.00 L 9.00 84.00 L 0.00 121.00 L 4.00 170.00 L 14.00 208.00 L 23.00 226.00 L 47.00 242.00 L 81.00 248.00 L 104.00 247.00 L 143.00 255.00 L 163.00 251.00 L 173.00 240.00 L 194.00 185.00 L 203.00 150.00 L 204.00 128.00 L 200.00 97.00 L 185.00 79.00 L 152.00 68.00 L 121.00 68.00 L 92.00 77.00" stroke="black" fill="transparent"/>
	<path d = "M 101.00 75.00 L 99.00 48.00 L 79.00 18.00 L 91.00 19.00 L 98.00 23.00 L 100.00 31.00 L 96.00 63.00" stroke="black" fill="transparent"/>
	<path d = "M 92.00 72.00 L 93.00 65.00 L 72.00 20.00 L 46.00 4.00 L 13.00 0.00" stroke="black" fill="transparent"/>
	<path d = "M 13.00 3.00 L 11.00 8.00 L 14.00 17.00 L 23.00 29.00 L 38.00 42.00 L 66.00 54.00 L 83.00 57.00" stroke="black" fill="transparent"/>
</svg>