<?xml version="1.0" encoding="UTF-8" standalone="no"?>
<!--Created with ndjsontosvg(https:https://github.com/thompson318/ndjsontosvg) 
	from the simplified Google quickdraw data set. key_id = 6210169908232192-->
<svg width="256" height="256"
	xmlns="http://www.w3.org/2000/svg"
	xmlns:ndjsontosvg="https://github.com/thompson318/ndjsontosvg"
	xmlns:quickdraw="https://quickdraw.withgoogle.com/data"
	xmlns:scikit-surgery="https://doi.org/10.1007/s11548-020-02180-5">

	<rect width="100%" height="100%" fill="white" />
	<path d = "M 25.00 225.00 L 5.00 182.00 L 2.00 163.00 L 0.00 122.00 L 8.00 103.00 L 17.00 97.00 L 37.00 91.00 L 67.00 89.00 L 78.00 96.00 L 87.00 109.00 L 88.00 96.00 L 94.00 87.00 L 103.00 80.00 L 117.00 77.00 L 138.00 80.00 L 156.00 98.00 L 163.00 117.00 L 172.00 199.00 L 171.00 230.00 L 162.00 244.00 L 135.00 252.00 L 94.00 255.00 L 31.00 235.00 L 21.00 226.00 L 17.00 210.00" stroke="black" fill="transparent"/>
	<path d = "M 86.00 106.00 L 84.00 84.00 L 88.00 62.00 L 96.00 49.00 L 111.00 35.00" stroke="black" fill="transparent"/>
	<path d = "M 112.00 36.00 L 113.00 28.00 L 125.00 16.00 L 162.00 0.00" stroke="black" fill="transparent"/>
	<path d = "M 110.00 46.00 L 114.00 46.00" stroke="black" fill="transparent"/>
</svg>