<?xml version="1.0" encoding="UTF-8" standalone="no"?>
<!--Created with ndjsontosvg(https:https://github.com/thompson318/ndjsontosvg) 
	from the simplified Google quickdraw data set. key_id = 5619070302945280-->
<svg width="256" height="256"
	xmlns="http://www.w3.org/2000/svg"
	xmlns:ndjsontosvg="https://github.com/thompson318/ndjsontosvg"
	xmlns:quickdraw="https://quickdraw.withgoogle.com/data"
	xmlns:scikit-surgery="https://doi.org/10.1007/s11548-020-02180-5">

	<rect width="100%" height="100%" fill="white" />
	<path d = "M 38.00 128.00 L 38.00 128.00" stroke="black" fill="transparent"/>
	<path d = "M 114.00 68.00 L 124.00 50.00 L 138.00 39.00 L 149.00 41.00 L 183.00 54.00 L 192.00 63.00 L 212.00 105.00 L 218.00 125.00 L 215.00 145.00 L 194.00 213.00 L 155.00 246.00 L 145.00 250.00 L 101.00 255.00 L 68.00 244.00 L 45.00 229.00 L 37.00 221.00 L 17.00 180.00 L 0.00 134.00 L 3.00 99.00 L 24.00 77.00 L 42.00 66.00 L 65.00 60.00 L 98.00 67.00 L 111.00 90.00 L 101.00 34.00 L 90.00 13.00 L 78.00 1.00 L 118.00 0.00 L 124.00 4.00 L 110.00 89.00" stroke="black" fill="transparent"/>
</svg>