<?xml version="1.0" encoding="UTF-8" standalone="no"?>
<!--Created with ndjsontosvg(https:https://github.com/thompson318/ndjsontosvg) 
	from the simplified Google quickdraw data set. key_id = 4938530608381952-->
<svg width="256" height="256"
	xmlns="http://www.w3.org/2000/svg"
	xmlns:ndjsontosvg="https://github.com/thompson318/ndjsontosvg"
	xmlns:quickdraw="https://quickdraw.withgoogle.com/data"
	xmlns:scikit-surgery="https://doi.org/10.1007/s11548-020-02180-5">

	<rect width="100%" height="100%" fill="white" />
	<path d = "M 12.00 106.00 L 22.00 158.00 L 42.00 203.00 L 73.00 235.00 L 111.00 254.00 L 145.00 254.00 L 178.00 243.00 L 201.00 229.00 L 226.00 206.00 L 242.00 179.00 L 251.00 147.00 L 255.00 116.00 L 246.00 99.00 L 210.00 74.00 L 192.00 69.00 L 182.00 71.00 L 169.00 78.00 L 140.00 117.00 L 124.00 123.00 L 112.00 113.00 L 89.00 84.00 L 70.00 77.00 L 41.00 76.00 L 22.00 82.00 L 7.00 91.00 L 0.00 104.00" stroke="black" fill="transparent"/>
	<path d = "M 131.00 110.00 L 121.00 51.00 L 118.00 7.00 L 133.00 1.00 L 201.00 1.00 L 192.00 17.00 L 174.00 39.00 L 136.00 70.00" stroke="black" fill="transparent"/>
</svg>