<?xml version="1.0" encoding="UTF-8" standalone="no"?>
<!--Created with ndjsontosvg(https:https://github.com/thompson318/ndjsontosvg) 
	from the simplified Google quickdraw data set. key_id = 6444306409717760-->
<svg width="256" height="256"
	xmlns="http://www.w3.org/2000/svg"
	xmlns:ndjsontosvg="https://github.com/thompson318/ndjsontosvg"
	xmlns:quickdraw="https://quickdraw.withgoogle.com/data"
	xmlns:scikit-surgery="https://doi.org/10.1007/s11548-020-02180-5">

	<rect width="100%" height="100%" fill="white" />
	<path d = "M 50.00 106.00 L 47.00 92.00 L 34.00 91.00 L 29.00 100.00 L 9.00 142.00 L 1.00 176.00 L 0.00 193.00 L 2.00 209.00 L 13.00 232.00 L 33.00 244.00 L 57.00 251.00 L 99.00 255.00 L 138.00 252.00 L 152.00 248.00 L 179.00 226.00 L 189.00 209.00 L 199.00 185.00 L 198.00 159.00 L 182.00 122.00 L 171.00 112.00 L 149.00 117.00 L 123.00 129.00 L 115.00 144.00 L 91.00 135.00 L 61.00 97.00 L 46.00 89.00 L 32.00 86.00 L 17.00 96.00 L 16.00 101.00" stroke="black" fill="transparent"/>
	<path d = "M 103.00 153.00 L 99.00 88.00 L 105.00 0.00" stroke="black" fill="transparent"/>
	<path d = "M 108.00 91.00 L 109.00 71.00 L 121.00 54.00 L 139.00 47.00 L 154.00 48.00 L 162.00 53.00" stroke="black" fill="transparent"/>
	<path d = "M 116.00 100.00 L 147.00 91.00 L 164.00 77.00 L 175.00 52.00 L 169.00 49.00" stroke="black" fill="transparent"/>
</svg>