<?xml version="1.0" encoding="UTF-8" standalone="no"?>
<!--Created with ndjsontosvg(https:https://github.com/thompson318/ndjsontosvg) 
	from the simplified Google quickdraw data set. key_id = 4981428552990720-->
<svg width="256" height="256"
	xmlns="http://www.w3.org/2000/svg"
	xmlns:ndjsontosvg="https://github.com/thompson318/ndjsontosvg"
	xmlns:quickdraw="https://quickdraw.withgoogle.com/data"
	xmlns:scikit-surgery="https://doi.org/10.1007/s11548-020-02180-5">

	<rect width="100%" height="100%" fill="white" />
	<path d = "M 89.00 62.00 L 34.00 65.00 L 25.00 69.00 L 17.00 81.00 L 3.00 120.00 L 0.00 142.00 L 0.00 177.00 L 17.00 212.00 L 46.00 232.00 L 55.00 234.00 L 59.00 232.00 L 61.00 237.00 L 67.00 236.00 L 81.00 225.00 L 82.00 229.00 L 71.00 241.00 L 74.00 246.00 L 89.00 254.00 L 110.00 255.00 L 138.00 244.00 L 162.00 230.00 L 172.00 217.00 L 179.00 198.00 L 182.00 149.00 L 167.00 113.00 L 153.00 93.00 L 137.00 81.00 L 118.00 73.00 L 95.00 74.00 L 86.00 86.00" stroke="black" fill="transparent"/>
	<path d = "M 86.00 86.00 L 86.00 31.00 L 93.00 0.00" stroke="black" fill="transparent"/>
	<path d = "M 90.00 63.00 L 100.00 50.00 L 113.00 38.00 L 131.00 31.00 L 148.00 30.00 L 154.00 37.00 L 149.00 49.00 L 118.00 82.00 L 71.00 85.00 L 66.00 84.00 L 63.00 80.00 L 65.00 78.00" stroke="black" fill="transparent"/>
</svg>