<?xml version="1.0" encoding="UTF-8" standalone="no"?>
<!--Created with ndjsontosvg(https:https://github.com/thompson318/ndjsontosvg) 
	from the simplified Google quickdraw data set. key_id = 6103858478579712-->
<svg width="256" height="256"
	xmlns="http://www.w3.org/2000/svg"
	xmlns:ndjsontosvg="https://github.com/thompson318/ndjsontosvg"
	xmlns:quickdraw="https://quickdraw.withgoogle.com/data"
	xmlns:scikit-surgery="https://doi.org/10.1007/s11548-020-02180-5">

	<rect width="100%" height="100%" fill="white" />
	<path d = "M 133.00 156.00 L 132.00 133.00 L 126.00 170.00 L 131.00 193.00 L 142.00 208.00 L 175.00 230.00 L 180.00 239.00 L 179.00 254.00 L 133.00 252.00 L 91.00 244.00 L 55.00 233.00 L 36.00 221.00 L 1.00 125.00 L 1.00 109.00 L 16.00 97.00 L 97.00 71.00 L 108.00 70.00 L 122.00 74.00 L 153.00 108.00 L 151.00 118.00 L 132.00 126.00 L 127.00 134.00" stroke="black" fill="transparent"/>
	<path d = "M 123.00 83.00 L 126.00 56.00 L 121.00 45.00 L 107.00 26.00 L 89.00 15.00 L 80.00 14.00" stroke="black" fill="transparent"/>
	<path d = "M 80.00 9.00 L 96.00 5.00 L 105.00 0.00 L 116.00 0.00 L 124.00 1.00 L 145.00 16.00 L 146.00 23.00 L 141.00 32.00 L 118.00 61.00 L 113.00 73.00" stroke="black" fill="transparent"/>
</svg>