<?xml version="1.0" encoding="UTF-8" standalone="no"?>
<!--Created with ndjsontosvg(https:https://github.com/thompson318/ndjsontosvg) 
	from the simplified Google quickdraw data set. key_id = 5149473074315264-->
<svg width="256" height="256"
	xmlns="http://www.w3.org/2000/svg"
	xmlns:ndjsontosvg="https://github.com/thompson318/ndjsontosvg"
	xmlns:quickdraw="https://quickdraw.withgoogle.com/data"
	xmlns:scikit-surgery="https://doi.org/10.1007/s11548-020-02180-5">

	<rect width="100%" height="100%" fill="white" />
	<path d = "M 100.00 141.00 L 104.00 123.00 L 117.00 98.00 L 144.00 87.00 L 160.00 90.00 L 168.00 97.00 L 177.00 112.00 L 182.00 136.00 L 182.00 177.00 L 179.00 195.00 L 171.00 210.00 L 155.00 227.00 L 141.00 236.00 L 125.00 236.00 L 98.00 244.00" stroke="black" fill="transparent"/>
	<path d = "M 84.00 137.00 L 95.00 145.00" stroke="black" fill="transparent"/>
	<path d = "M 95.00 141.00 L 72.00 104.00 L 50.00 93.00 L 25.00 93.00 L 7.00 100.00 L 0.00 127.00 L 0.00 152.00 L 15.00 186.00 L 53.00 230.00 L 78.00 247.00 L 103.00 255.00 L 110.00 253.00" stroke="black" fill="transparent"/>
	<path d = "M 86.00 123.00 L 78.00 99.00 L 75.00 75.00 L 78.00 52.00 L 86.00 32.00 L 100.00 19.00 L 154.00 0.00 L 163.00 0.00" stroke="black" fill="transparent"/>
	<path d = "M 106.00 16.00 L 129.00 12.00 L 155.00 28.00 L 155.00 36.00 L 143.00 52.00 L 118.00 67.00 L 101.00 73.00 L 79.00 72.00" stroke="black" fill="transparent"/>
</svg>