<?xml version="1.0" encoding="UTF-8" standalone="no"?>
<!--Created with ndjsontosvg(https:https://github.com/thompson318/ndjsontosvg) 
	from the simplified Google quickdraw data set. key_id = 4986110117675008-->
<svg width="256" height="256"
	xmlns="http://www.w3.org/2000/svg"
	xmlns:ndjsontosvg="https://github.com/thompson318/ndjsontosvg"
	xmlns:quickdraw="https://quickdraw.withgoogle.com/data"
	xmlns:scikit-surgery="https://doi.org/10.1007/s11548-020-02180-5">

	<rect width="100%" height="100%" fill="white" />
	<path d = "M 95.00 62.00 L 79.00 50.00 L 68.00 49.00 L 31.00 74.00 L 17.00 91.00 L 9.00 113.00 L 1.00 163.00 L 0.00 220.00 L 4.00 226.00 L 54.00 249.00 L 103.00 255.00 L 130.00 255.00 L 168.00 244.00 L 190.00 231.00 L 204.00 215.00 L 219.00 187.00 L 228.00 152.00 L 222.00 151.00 L 210.00 160.00 L 200.00 160.00 L 194.00 156.00 L 197.00 140.00 L 203.00 137.00 L 192.00 134.00 L 189.00 115.00 L 190.00 109.00 L 209.00 88.00 L 207.00 82.00 L 197.00 71.00 L 179.00 63.00 L 107.00 62.00 L 100.00 65.00" stroke="black" fill="transparent"/>
	<path d = "M 100.00 58.00 L 100.00 17.00 L 104.00 1.00 L 110.00 0.00 L 115.00 12.00 L 115.00 22.00 L 108.00 44.00 L 107.00 64.00" stroke="black" fill="transparent"/>
</svg>