<?xml version="1.0" encoding="UTF-8" standalone="no"?>
<!--Created with ndjsontosvg(https:https://github.com/thompson318/ndjsontosvg) 
	from the simplified Google quickdraw data set. key_id = 6461334008889344-->
<svg width="256" height="256"
	xmlns="http://www.w3.org/2000/svg"
	xmlns:ndjsontosvg="https://github.com/thompson318/ndjsontosvg"
	xmlns:quickdraw="https://quickdraw.withgoogle.com/data"
	xmlns:scikit-surgery="https://doi.org/10.1007/s11548-020-02180-5">

	<rect width="100%" height="100%" fill="white" />
	<path d = "M 68.00 51.00 L 63.00 48.00 L 42.00 49.00 L 24.00 58.00 L 12.00 74.00 L 3.00 96.00 L 0.00 151.00 L 2.00 196.00 L 9.00 215.00 L 21.00 234.00 L 40.00 250.00 L 59.00 255.00 L 77.00 254.00 L 94.00 247.00 L 108.00 235.00 L 132.00 200.00 L 148.00 146.00 L 148.00 110.00 L 137.00 87.00 L 115.00 66.00 L 76.00 50.00 L 74.00 46.00 L 74.00 35.00 L 78.00 25.00 L 93.00 6.00 L 107.00 0.00 L 94.00 3.00 L 85.00 14.00 L 74.00 32.00 L 70.00 52.00" stroke="black" fill="transparent"/>
	<path d = "M 81.00 18.00 L 81.00 18.00" stroke="black" fill="transparent"/>
</svg>