<?xml version="1.0" encoding="UTF-8" standalone="no"?>
<!--Created with ndjsontosvg(https:https://github.com/thompson318/ndjsontosvg) 
	from the simplified Google quickdraw data set. key_id = 5005456399400960-->
<svg width="256" height="256"
	xmlns="http://www.w3.org/2000/svg"
	xmlns:ndjsontosvg="https://github.com/thompson318/ndjsontosvg"
	xmlns:quickdraw="https://quickdraw.withgoogle.com/data"
	xmlns:scikit-surgery="https://doi.org/10.1007/s11548-020-02180-5">

	<rect width="100%" height="100%" fill="white" />
	<path d = "M 118.00 87.00 L 136.00 65.00 L 152.00 57.00 L 178.00 52.00 L 213.00 53.00 L 231.00 63.00 L 241.00 76.00 L 251.00 99.00 L 255.00 116.00 L 253.00 142.00 L 245.00 173.00 L 233.00 196.00 L 216.00 214.00 L 210.00 220.00 L 189.00 228.00 L 125.00 236.00 L 72.00 233.00 L 47.00 222.00 L 28.00 204.00 L 6.00 170.00 L 0.00 144.00 L 0.00 104.00 L 9.00 81.00 L 25.00 65.00 L 52.00 51.00 L 84.00 43.00 L 104.00 44.00 L 126.00 87.00" stroke="black" fill="transparent"/>
	<path d = "M 128.00 76.00 L 124.00 66.00 L 124.00 0.00" stroke="black" fill="transparent"/>
	<path d = "M 126.00 79.00 L 125.00 67.00 L 134.00 43.00 L 144.00 35.00 L 149.00 35.00 L 153.00 40.00 L 150.00 62.00 L 128.00 86.00" stroke="black" fill="transparent"/>
</svg>