<?xml version="1.0" encoding="UTF-8" standalone="no"?>
<!--Created with ndjsontosvg(https:https://github.com/thompson318/ndjsontosvg) 
	from the simplified Google quickdraw data set. key_id = 5546629002166272-->
<svg width="256" height="256"
	xmlns="http://www.w3.org/2000/svg"
	xmlns:ndjsontosvg="https://github.com/thompson318/ndjsontosvg"
	xmlns:quickdraw="https://quickdraw.withgoogle.com/data"
	xmlns:scikit-surgery="https://doi.org/10.1007/s11548-020-02180-5">

	<rect width="100%" height="100%" fill="white" />
	<path d = "M 86.00 91.00 L 48.00 84.00 L 22.00 85.00 L 10.00 90.00 L 4.00 99.00 L 0.00 124.00 L 0.00 153.00 L 4.00 166.00 L 15.00 185.00 L 36.00 211.00 L 69.00 235.00 L 110.00 252.00 L 156.00 255.00 L 196.00 244.00 L 209.00 235.00 L 229.00 199.00 L 240.00 131.00 L 239.00 72.00 L 229.00 62.00 L 217.00 59.00 L 151.00 60.00 L 118.00 70.00 L 103.00 81.00 L 95.00 94.00 L 76.00 63.00 L 54.00 39.00" stroke="black" fill="transparent"/>
	<path d = "M 83.00 65.00 L 103.00 22.00 L 113.00 11.00 L 130.00 0.00 L 130.00 44.00 L 122.00 58.00 L 97.00 91.00" stroke="black" fill="transparent"/>
</svg>