<?xml version="1.0" encoding="UTF-8" standalone="no"?>
<!--Created with ndjsontosvg(https:https://github.com/thompson318/ndjsontosvg) 
	from the simplified Google quickdraw data set. key_id = 6244965350899712-->
<svg width="256" height="256"
	xmlns="http://www.w3.org/2000/svg"
	xmlns:ndjsontosvg="https://github.com/thompson318/ndjsontosvg"
	xmlns:quickdraw="https://quickdraw.withgoogle.com/data"
	xmlns:scikit-surgery="https://doi.org/10.1007/s11548-020-02180-5">

	<rect width="100%" height="100%" fill="white" />
	<path d = "M 119.00 48.00 L 102.00 35.00 L 75.00 26.00 L 40.00 24.00 L 18.00 40.00 L 14.00 48.00 L 4.00 100.00 L 0.00 152.00 L 9.00 178.00 L 19.00 194.00 L 108.00 201.00 L 146.00 212.00 L 169.00 212.00 L 184.00 205.00 L 216.00 181.00 L 236.00 157.00 L 244.00 144.00 L 251.00 117.00 L 255.00 80.00 L 252.00 66.00 L 157.00 52.00 L 130.00 49.00 L 126.00 52.00" stroke="black" fill="transparent"/>
	<path d = "M 110.00 63.00 L 125.00 76.00 L 149.00 77.00 L 149.00 72.00" stroke="black" fill="transparent"/>
	<path d = "M 131.00 61.00 L 132.00 49.00 L 151.00 23.00 L 168.00 7.00 L 185.00 0.00" stroke="black" fill="transparent"/>
	<path d = "M 153.00 36.00 L 171.00 30.00 L 192.00 29.00 L 194.00 37.00 L 170.00 50.00 L 141.00 52.00 L 134.00 50.00" stroke="black" fill="transparent"/>
</svg>