<?xml version="1.0" encoding="UTF-8" standalone="no"?>
<!--Created with ndjsontosvg(https:https://github.com/thompson318/ndjsontosvg) 
	from the simplified Google quickdraw data set. key_id = 4541885710336000-->
<svg width="256" height="256"
	xmlns="http://www.w3.org/2000/svg"
	xmlns:ndjsontosvg="https://github.com/thompson318/ndjsontosvg"
	xmlns:quickdraw="https://quickdraw.withgoogle.com/data"
	xmlns:scikit-surgery="https://doi.org/10.1007/s11548-020-02180-5">

	<rect width="100%" height="100%" fill="white" />
	<path d = "M 91.00 237.00 L 60.00 247.00 L 48.00 247.00 L 34.00 241.00 L 20.00 224.00 L 2.00 181.00 L 0.00 164.00 L 10.00 131.00 L 23.00 115.00 L 38.00 103.00 L 59.00 94.00 L 75.00 91.00 L 97.00 91.00 L 116.00 100.00 L 132.00 113.00 L 144.00 130.00 L 151.00 149.00 L 151.00 171.00 L 147.00 192.00 L 132.00 215.00 L 111.00 234.00 L 86.00 248.00 L 60.00 255.00 L 34.00 251.00" stroke="black" fill="transparent"/>
	<path d = "M 55.00 99.00 L 59.00 72.00 L 68.00 49.00 L 96.00 17.00 L 113.00 4.00 L 125.00 0.00 L 134.00 0.00 L 136.00 6.00 L 116.00 41.00 L 97.00 65.00 L 64.00 98.00" stroke="black" fill="transparent"/>
	<path d = "M 77.00 52.00 L 99.00 51.00 L 105.00 48.00" stroke="black" fill="transparent"/>
	<path d = "M 106.00 14.00 L 131.00 16.00" stroke="black" fill="transparent"/>
</svg>