<?xml version="1.0" encoding="UTF-8" standalone="no"?>
<!--Created with ndjsontosvg(https:https://github.com/thompson318/ndjsontosvg) 
	from the simplified Google quickdraw data set. key_id = 5715847744061440-->
<svg width="256" height="256"
	xmlns="http://www.w3.org/2000/svg"
	xmlns:ndjsontosvg="https://github.com/thompson318/ndjsontosvg"
	xmlns:quickdraw="https://quickdraw.withgoogle.com/data"
	xmlns:scikit-surgery="https://doi.org/10.1007/s11548-020-02180-5">

	<rect width="100%" height="100%" fill="white" />
	<path d = "M 15.00 255.00 L 6.00 238.00 L 1.00 213.00 L 0.00 133.00 L 8.00 100.00 L 26.00 64.00 L 38.00 52.00 L 57.00 38.00 L 82.00 36.00 L 102.00 48.00 L 125.00 68.00 L 139.00 83.00 L 149.00 103.00 L 151.00 121.00 L 147.00 141.00 L 124.00 181.00 L 110.00 198.00 L 62.00 235.00 L 47.00 241.00 L 25.00 240.00 L 11.00 234.00 L 7.00 228.00" stroke="black" fill="transparent"/>
	<path d = "M 77.00 41.00 L 77.00 2.00" stroke="black" fill="transparent"/>
	<path d = "M 74.00 33.00 L 69.00 58.00 L 64.00 67.00 L 55.00 73.00" stroke="black" fill="transparent"/>
</svg>