<?xml version="1.0" encoding="UTF-8" standalone="no"?>
<!--Created with ndjsontosvg(https:https://github.com/thompson318/ndjsontosvg) 
	from the simplified Google quickdraw data set. key_id = 5628163654680576-->
<svg width="256" height="256"
	xmlns="http://www.w3.org/2000/svg"
	xmlns:ndjsontosvg="https://github.com/thompson318/ndjsontosvg"
	xmlns:quickdraw="https://quickdraw.withgoogle.com/data"
	xmlns:scikit-surgery="https://doi.org/10.1007/s11548-020-02180-5">

	<rect width="100%" height="100%" fill="white" />
	<path d = "M 102.00 71.00 L 88.00 63.00 L 75.00 61.00 L 49.00 61.00 L 40.00 64.00 L 24.00 74.00 L 11.00 87.00 L 3.00 98.00 L 0.00 114.00 L 4.00 135.00 L 24.00 168.00 L 70.00 206.00 L 87.00 217.00 L 101.00 221.00" stroke="black" fill="transparent"/>
	<path d = "M 103.00 68.00 L 153.00 44.00 L 183.00 35.00 L 201.00 33.00 L 215.00 34.00 L 233.00 42.00 L 247.00 54.00 L 252.00 66.00 L 255.00 106.00 L 243.00 139.00 L 228.00 157.00 L 180.00 190.00 L 148.00 221.00" stroke="black" fill="transparent"/>
	<path d = "M 98.00 218.00 L 122.00 213.00 L 145.00 215.00 L 151.00 211.00" stroke="black" fill="transparent"/>
	<path d = "M 101.00 70.00 L 110.00 41.00 L 120.00 27.00 L 139.00 10.00 L 166.00 0.00" stroke="black" fill="transparent"/>
	<path d = "M 166.00 0.00 L 168.00 3.00 L 130.00 32.00 L 110.00 65.00" stroke="black" fill="transparent"/>
</svg>