<?xml version="1.0" encoding="UTF-8" standalone="no"?>
<!--Created with ndjsontosvg(https:https://github.com/thompson318/ndjsontosvg) 
	from the simplified Google quickdraw data set. key_id = 5589733180702720-->
<svg width="256" height="256"
	xmlns="http://www.w3.org/2000/svg"
	xmlns:ndjsontosvg="https://github.com/thompson318/ndjsontosvg"
	xmlns:quickdraw="https://quickdraw.withgoogle.com/data"
	xmlns:scikit-surgery="https://doi.org/10.1007/s11548-020-02180-5">

	<rect width="100%" height="100%" fill="white" />
	<path d = "M 59.00 59.00 L 31.00 78.00 L 4.00 115.00 L 0.00 156.00 L 7.00 180.00 L 43.00 223.00 L 74.00 245.00 L 114.00 255.00 L 144.00 254.00 L 164.00 249.00 L 195.00 231.00 L 207.00 218.00 L 217.00 199.00 L 231.00 153.00 L 231.00 125.00 L 225.00 110.00 L 206.00 90.00 L 187.00 79.00 L 141.00 63.00 L 86.00 60.00 L 43.00 65.00" stroke="black" fill="transparent"/>
	<path d = "M 89.00 49.00 L 87.00 13.00 L 89.00 38.00 L 96.00 65.00 L 93.00 42.00 L 92.00 0.00" stroke="black" fill="transparent"/>
	<path d = "M 81.00 19.00 L 52.00 18.00 L 48.00 24.00 L 51.00 27.00 L 85.00 32.00 L 102.00 30.00" stroke="black" fill="transparent"/>
</svg>