<?xml version="1.0" encoding="UTF-8" standalone="no"?>
<!--Created with ndjsontosvg(https:https://github.com/thompson318/ndjsontosvg) 
	from the simplified Google quickdraw data set. key_id = 5001225990832128-->
<svg width="256" height="256"
	xmlns="http://www.w3.org/2000/svg"
	xmlns:ndjsontosvg="https://github.com/thompson318/ndjsontosvg"
	xmlns:quickdraw="https://quickdraw.withgoogle.com/data"
	xmlns:scikit-surgery="https://doi.org/10.1007/s11548-020-02180-5">

	<rect width="100%" height="100%" fill="white" />
	<path d = "M 88.00 0.00 L 105.00 43.00 L 113.00 77.00 L 93.00 58.00 L 61.00 48.00 L 46.00 48.00 L 16.00 76.00 L 2.00 114.00 L 2.00 168.00 L 22.00 206.00 L 45.00 232.00 L 63.00 243.00 L 101.00 254.00 L 122.00 246.00 L 176.00 238.00 L 216.00 226.00 L 228.00 215.00 L 249.00 179.00 L 255.00 145.00 L 249.00 112.00 L 235.00 80.00 L 219.00 60.00 L 209.00 50.00 L 189.00 43.00 L 163.00 42.00 L 147.00 46.00 L 127.00 67.00 L 107.00 75.00 L 104.00 73.00" stroke="black" fill="transparent"/>
	<path d = "M 44.00 125.00 L 39.00 138.00" stroke="black" fill="transparent"/>
</svg>