<?xml version="1.0" encoding="UTF-8" standalone="no"?>
<!--Created with ndjsontosvg(https:https://github.com/thompson318/ndjsontosvg) 
	from the simplified Google quickdraw data set. key_id = 6420579601088512-->
<svg width="256" height="256"
	xmlns="http://www.w3.org/2000/svg"
	xmlns:ndjsontosvg="https://github.com/thompson318/ndjsontosvg"
	xmlns:quickdraw="https://quickdraw.withgoogle.com/data"
	xmlns:scikit-surgery="https://doi.org/10.1007/s11548-020-02180-5">

	<rect width="100%" height="100%" fill="white" />
	<path d = "M 255.00 0.00 L 255.00 0.00" stroke="black" fill="transparent"/>
	<path d = "M 255.00 0.00 L 255.00 0.00" stroke="black" fill="transparent"/>
	<path d = "M 255.00 0.00 L 255.00 0.00" stroke="black" fill="transparent"/>
	<path d = "M 255.00 0.00 L 254.00 1.00" stroke="black" fill="transparent"/>
	<path d = "M 131.00 50.00 L 124.00 39.00 L 114.00 39.00 L 69.00 59.00 L 37.00 89.00 L 10.00 127.00 L 0.00 172.00 L 0.00 194.00 L 5.00 215.00 L 16.00 233.00 L 31.00 244.00 L 50.00 249.00 L 68.00 249.00 L 86.00 241.00 L 101.00 225.00 L 115.00 203.00 L 126.00 174.00 L 135.00 143.00 L 137.00 114.00 L 135.00 88.00 L 122.00 65.00 L 106.00 45.00" stroke="black" fill="transparent"/>
	<path d = "M 84.00 97.00 L 77.00 85.00 L 81.00 52.00 L 88.00 34.00 L 99.00 18.00 L 122.00 4.00 L 138.00 1.00 L 161.00 2.00 L 180.00 12.00" stroke="black" fill="transparent"/>
</svg>