<?xml version="1.0" encoding="UTF-8" standalone="no"?>
<!--Created with ndjsontosvg(https:https://github.com/thompson318/ndjsontosvg) 
	from the simplified Google quickdraw data set. key_id = 5891869735124992-->
<svg width="256" height="256"
	xmlns="http://www.w3.org/2000/svg"
	xmlns:ndjsontosvg="https://github.com/thompson318/ndjsontosvg"
	xmlns:quickdraw="https://quickdraw.withgoogle.com/data"
	xmlns:scikit-surgery="https://doi.org/10.1007/s11548-020-02180-5">

	<rect width="100%" height="100%" fill="white" />
	<path d = "M 109.00 71.00 L 87.00 71.00 L 60.00 77.00 L 40.00 88.00 L 24.00 103.00 L 5.00 138.00 L 1.00 160.00 L 0.00 184.00 L 7.00 207.00 L 18.00 227.00 L 48.00 246.00 L 89.00 255.00 L 109.00 251.00 L 137.00 236.00 L 147.00 222.00 L 163.00 183.00 L 175.00 119.00 L 173.00 124.00 L 164.00 117.00 L 121.00 75.00 L 113.00 72.00 L 96.00 81.00" stroke="black" fill="transparent"/>
	<path d = "M 119.00 76.00 L 116.00 69.00 L 120.00 56.00 L 143.00 26.00 L 169.00 7.00 L 185.00 0.00" stroke="black" fill="transparent"/>
</svg>