<?xml version="1.0" encoding="UTF-8" standalone="no"?>
<!--Created with ndjsontosvg(https:https://github.com/thompson318/ndjsontosvg) 
	from the simplified Google quickdraw data set. key_id = 5634061718519808-->
<svg width="256" height="256"
	xmlns="http://www.w3.org/2000/svg"
	xmlns:ndjsontosvg="https://github.com/thompson318/ndjsontosvg"
	xmlns:quickdraw="https://quickdraw.withgoogle.com/data"
	xmlns:scikit-surgery="https://doi.org/10.1007/s11548-020-02180-5">

	<rect width="100%" height="100%" fill="white" />
	<path d = "M 105.00 227.00 L 100.00 220.00 L 72.00 220.00 L 53.00 213.00 L 13.00 178.00 L 0.00 145.00 L 1.00 119.00 L 12.00 99.00 L 21.00 93.00 L 49.00 87.00 L 89.00 87.00 L 102.00 93.00 L 111.00 80.00 L 125.00 71.00 L 164.00 64.00 L 182.00 64.00 L 221.00 86.00 L 242.00 104.00 L 253.00 122.00 L 255.00 153.00 L 243.00 176.00 L 224.00 194.00 L 181.00 221.00 L 166.00 229.00 L 134.00 237.00 L 122.00 237.00 L 111.00 234.00 L 101.00 225.00 L 93.00 205.00" stroke="black" fill="transparent"/>
	<path d = "M 101.00 87.00 L 97.00 66.00 L 97.00 35.00 L 106.00 14.00 L 116.00 2.00 L 122.00 0.00" stroke="black" fill="transparent"/>
	<path d = "M 206.00 84.00 L 200.00 94.00 L 199.00 117.00" stroke="black" fill="transparent"/>
</svg>