<?xml version="1.0" encoding="UTF-8" standalone="no"?>
<!--Created with ndjsontosvg(https:https://github.com/thompson318/ndjsontosvg) 
	from the simplified Google quickdraw data set. key_id = 5464797179019264-->
<svg width="256" height="256"
	xmlns="http://www.w3.org/2000/svg"
	xmlns:ndjsontosvg="https://github.com/thompson318/ndjsontosvg"
	xmlns:quickdraw="https://quickdraw.withgoogle.com/data"
	xmlns:scikit-surgery="https://doi.org/10.1007/s11548-020-02180-5">

	<rect width="100%" height="100%" fill="white" />
	<path d = "M 135.00 60.00 L 83.00 61.00 L 47.00 50.00 L 34.00 50.00 L 16.00 61.00 L 6.00 75.00 L 0.00 90.00 L 1.00 136.00 L 6.00 151.00 L 31.00 200.00 L 58.00 229.00 L 78.00 240.00 L 106.00 248.00 L 135.00 251.00 L 177.00 251.00 L 198.00 244.00 L 221.00 225.00 L 236.00 206.00 L 247.00 188.00 L 255.00 160.00 L 255.00 133.00 L 251.00 119.00 L 232.00 77.00 L 218.00 61.00 L 183.00 46.00 L 148.00 46.00 L 122.00 57.00" stroke="black" fill="transparent"/>
	<path d = "M 124.00 54.00 L 116.00 49.00 L 115.00 22.00 L 125.00 2.00 L 137.00 0.00" stroke="black" fill="transparent"/>
</svg>