<?xml version="1.0" encoding="UTF-8" standalone="no"?>
<!--Created with ndjsontosvg(https:https://github.com/thompson318/ndjsontosvg) 
	from the simplified Google quickdraw data set. key_id = 4754065516920832-->
<svg width="256" height="256"
	xmlns="http://www.w3.org/2000/svg"
	xmlns:ndjsontosvg="https://github.com/thompson318/ndjsontosvg"
	xmlns:quickdraw="https://quickdraw.withgoogle.com/data"
	xmlns:scikit-surgery="https://doi.org/10.1007/s11548-020-02180-5">

	<rect width="100%" height="100%" fill="white" />
	<path d = "M 62.00 64.00 L 24.00 78.00 L 15.00 83.00 L 9.00 91.00 L 1.00 117.00 L 1.00 160.00 L 3.00 168.00 L 16.00 184.00 L 46.00 215.00 L 82.00 236.00 L 120.00 244.00 L 163.00 243.00 L 228.00 217.00 L 241.00 210.00 L 249.00 202.00 L 255.00 167.00 L 245.00 101.00 L 238.00 80.00 L 224.00 75.00 L 143.00 78.00 L 132.00 102.00" stroke="black" fill="transparent"/>
	<path d = "M 62.00 63.00 L 82.00 68.00 L 112.00 99.00 L 123.00 98.00 L 124.00 81.00 L 120.00 52.00 L 123.00 8.00 L 120.00 0.00" stroke="black" fill="transparent"/>
</svg>