<?xml version="1.0" encoding="UTF-8" standalone="no"?>
<!--Created with ndjsontosvg(https:https://github.com/thompson318/ndjsontosvg) 
	from the simplified Google quickdraw data set. key_id = 4515750666567680-->
<svg width="256" height="256"
	xmlns="http://www.w3.org/2000/svg"
	xmlns:ndjsontosvg="https://github.com/thompson318/ndjsontosvg"
	xmlns:quickdraw="https://quickdraw.withgoogle.com/data"
	xmlns:scikit-surgery="https://doi.org/10.1007/s11548-020-02180-5">

	<rect width="100%" height="100%" fill="white" />
	<path d = "M 134.00 101.00 L 98.00 100.00 L 67.00 105.00 L 21.00 119.00 L 3.00 137.00 L 0.00 149.00 L 1.00 175.00 L 8.00 193.00 L 26.00 217.00 L 53.00 239.00 L 72.00 247.00 L 103.00 254.00 L 151.00 255.00 L 174.00 249.00 L 184.00 241.00 L 188.00 194.00 L 181.00 168.00 L 170.00 148.00 L 155.00 133.00 L 130.00 117.00 L 88.00 97.00 L 78.00 96.00 L 106.00 0.00" stroke="black" fill="transparent"/>
	<path d = "M 78.00 59.00 L 68.00 41.00 L 55.00 36.00 L 25.00 37.00 L 20.00 41.00 L 18.00 49.00 L 22.00 55.00 L 46.00 66.00 L 79.00 75.00" stroke="black" fill="transparent"/>
</svg>