<?xml version="1.0" encoding="UTF-8" standalone="no"?>
<!--Created with ndjsontosvg(https:https://github.com/thompson318/ndjsontosvg) 
	from the simplified Google quickdraw data set. key_id = 6576737045446656-->
<svg width="256" height="256"
	xmlns="http://www.w3.org/2000/svg"
	xmlns:ndjsontosvg="https://github.com/thompson318/ndjsontosvg"
	xmlns:quickdraw="https://quickdraw.withgoogle.com/data"
	xmlns:scikit-surgery="https://doi.org/10.1007/s11548-020-02180-5">

	<rect width="100%" height="100%" fill="white" />
	<path d = "M 6.00 125.00 L 24.00 104.00 L 52.00 92.00 L 85.00 92.00 L 99.00 105.00 L 108.00 126.00 L 116.00 110.00 L 148.00 86.00 L 179.00 85.00 L 185.00 88.00 L 199.00 99.00 L 207.00 112.00 L 216.00 155.00 L 219.00 232.00 L 213.00 243.00 L 199.00 253.00 L 163.00 255.00 L 158.00 253.00 L 142.00 233.00 L 127.00 224.00 L 88.00 217.00 L 77.00 218.00 L 75.00 224.00 L 61.00 243.00 L 48.00 246.00 L 41.00 244.00 L 10.00 207.00 L 3.00 192.00 L 0.00 174.00 L 0.00 144.00 L 1.00 136.00 L 10.00 124.00" stroke="black" fill="transparent"/>
	<path d = "M 112.00 109.00 L 109.00 100.00 L 110.00 39.00 L 99.00 17.00 L 79.00 0.00" stroke="black" fill="transparent"/>
</svg>