<?xml version="1.0" encoding="UTF-8" standalone="no"?>
<!--Created with ndjsontosvg(https:https://github.com/thompson318/ndjsontosvg) 
	from the simplified Google quickdraw data set. key_id = 4663477023014912-->
<svg width="256" height="256"
	xmlns="http://www.w3.org/2000/svg"
	xmlns:ndjsontosvg="https://github.com/thompson318/ndjsontosvg"
	xmlns:quickdraw="https://quickdraw.withgoogle.com/data"
	xmlns:scikit-surgery="https://doi.org/10.1007/s11548-020-02180-5">

	<rect width="100%" height="100%" fill="white" />
	<path d = "M 106.00 89.00 L 79.00 73.00 L 61.00 71.00 L 43.00 82.00 L 25.00 102.00 L 14.00 121.00 L 3.00 150.00 L 0.00 168.00 L 1.00 195.00 L 10.00 219.00 L 23.00 231.00 L 42.00 241.00 L 65.00 247.00 L 83.00 245.00 L 99.00 238.00 L 121.00 213.00 L 139.00 225.00 L 157.00 230.00 L 174.00 233.00 L 209.00 231.00 L 221.00 225.00 L 233.00 213.00 L 251.00 181.00 L 255.00 165.00 L 255.00 143.00 L 254.00 130.00 L 248.00 118.00 L 226.00 100.00 L 201.00 89.00 L 163.00 83.00 L 109.00 87.00 L 107.00 85.00 L 104.00 62.00 L 118.00 33.00 L 139.00 10.00 L 160.00 0.00 L 162.00 5.00 L 159.00 12.00 L 139.00 34.00 L 124.00 57.00 L 117.00 86.00" stroke="black" fill="transparent"/>
</svg>