<?xml version="1.0" encoding="UTF-8" standalone="no"?>
<!--Created with ndjsontosvg(https:https://github.com/thompson318/ndjsontosvg) 
	from the simplified Google quickdraw data set. key_id = 4992579747708928-->
<svg width="256" height="256"
	xmlns="http://www.w3.org/2000/svg"
	xmlns:ndjsontosvg="https://github.com/thompson318/ndjsontosvg"
	xmlns:quickdraw="https://quickdraw.withgoogle.com/data"
	xmlns:scikit-surgery="https://doi.org/10.1007/s11548-020-02180-5">

	<rect width="100%" height="100%" fill="white" />
	<path d = "M 117.00 90.00 L 107.00 86.00 L 76.00 84.00 L 49.00 94.00 L 32.00 105.00 L 18.00 119.00 L 3.00 147.00 L 0.00 185.00 L 10.00 208.00 L 38.00 235.00 L 53.00 243.00 L 70.00 247.00 L 118.00 255.00 L 149.00 254.00 L 170.00 249.00 L 199.00 232.00 L 211.00 220.00 L 221.00 199.00 L 224.00 180.00 L 222.00 144.00 L 215.00 127.00 L 203.00 113.00 L 169.00 95.00 L 114.00 93.00 L 108.00 88.00" stroke="black" fill="transparent"/>
	<path d = "M 127.00 93.00 L 126.00 64.00 L 119.00 36.00 L 103.00 10.00 L 89.00 0.00 L 91.00 32.00 L 122.00 91.00" stroke="black" fill="transparent"/>
</svg>