<?xml version="1.0" encoding="UTF-8" standalone="no"?>
<!--Created with ndjsontosvg(https:https://github.com/thompson318/ndjsontosvg) 
	from the simplified Google quickdraw data set. key_id = 4837849931186176-->
<svg width="256" height="256"
	xmlns="http://www.w3.org/2000/svg"
	xmlns:ndjsontosvg="https://github.com/thompson318/ndjsontosvg"
	xmlns:quickdraw="https://quickdraw.withgoogle.com/data"
	xmlns:scikit-surgery="https://doi.org/10.1007/s11548-020-02180-5">

	<rect width="100%" height="100%" fill="white" />
	<path d = "M 115.00 145.00 L 103.00 105.00 L 93.00 89.00 L 83.00 82.00 L 72.00 80.00 L 60.00 83.00 L 32.00 107.00 L 11.00 133.00 L 0.00 164.00 L 3.00 191.00 L 21.00 236.00 L 32.00 252.00 L 39.00 255.00 L 64.00 249.00 L 75.00 240.00 L 91.00 202.00 L 109.00 235.00 L 121.00 248.00 L 142.00 254.00 L 166.00 250.00 L 191.00 231.00 L 210.00 187.00 L 218.00 143.00 L 218.00 131.00 L 211.00 110.00 L 203.00 98.00 L 192.00 93.00 L 149.00 105.00 L 129.00 118.00 L 106.00 149.00" stroke="black" fill="transparent"/>
	<path d = "M 105.00 143.00 L 106.00 112.00 L 118.00 51.00 L 128.00 26.00 L 143.00 0.00" stroke="black" fill="transparent"/>
	<path d = "M 116.00 74.00 L 188.00 31.00 L 209.00 24.00 L 177.00 71.00 L 162.00 100.00" stroke="black" fill="transparent"/>
	<path d = "M 202.00 25.00 L 177.00 42.00 L 140.00 78.00 L 112.00 115.00 L 105.00 133.00" stroke="black" fill="transparent"/>
</svg>