<?xml version="1.0" encoding="UTF-8" standalone="no"?>
<!--Created with ndjsontosvg(https:https://github.com/thompson318/ndjsontosvg) 
	from the simplified Google quickdraw data set. key_id = 5242594160279552-->
<svg width="256" height="256"
	xmlns="http://www.w3.org/2000/svg"
	xmlns:ndjsontosvg="https://github.com/thompson318/ndjsontosvg"
	xmlns:quickdraw="https://quickdraw.withgoogle.com/data"
	xmlns:scikit-surgery="https://doi.org/10.1007/s11548-020-02180-5">

	<rect width="100%" height="100%" fill="white" />
	<path d = "M 115.00 237.00 L 117.00 240.00 L 115.00 245.00 L 93.00 255.00 L 56.00 251.00 L 41.00 244.00 L 19.00 228.00 L 12.00 218.00 L 13.00 213.00 L 7.00 205.00 L 7.00 200.00 L 2.00 197.00 L 0.00 186.00 L 3.00 181.00 L 0.00 179.00 L 3.00 178.00 L 6.00 156.00 L 12.00 149.00 L 39.00 133.00 L 93.00 120.00 L 136.00 123.00 L 160.00 132.00 L 187.00 159.00 L 196.00 180.00 L 208.00 197.00 L 205.00 199.00 L 208.00 201.00 L 206.00 217.00 L 194.00 229.00 L 184.00 234.00 L 168.00 239.00 L 127.00 239.00 L 100.00 245.00 L 97.00 240.00" stroke="black" fill="transparent"/>
	<path d = "M 85.00 120.00 L 81.00 116.00 L 80.00 103.00 L 82.00 97.00 L 80.00 81.00 L 75.00 70.00 L 74.00 51.00 L 82.00 41.00 L 107.00 22.00 L 120.00 16.00 L 137.00 0.00 L 154.00 13.00 L 154.00 18.00 L 159.00 23.00 L 161.00 33.00 L 158.00 44.00 L 145.00 52.00 L 112.00 53.00 L 84.00 50.00 L 69.00 56.00" stroke="black" fill="transparent"/>
	<path d = "M 104.00 238.00 L 103.00 232.00 L 107.00 231.00 L 119.00 233.00 L 120.00 239.00 L 107.00 232.00 L 102.00 240.00" stroke="black" fill="transparent"/>
</svg>