<?xml version="1.0" encoding="UTF-8" standalone="no"?>
<!--Created with ndjsontosvg(https:https://github.com/thompson318/ndjsontosvg) 
	from the simplified Google quickdraw data set. key_id = 5888302693482496-->
<svg width="256" height="256"
	xmlns="http://www.w3.org/2000/svg"
	xmlns:ndjsontosvg="https://github.com/thompson318/ndjsontosvg"
	xmlns:quickdraw="https://quickdraw.withgoogle.com/data"
	xmlns:scikit-surgery="https://doi.org/10.1007/s11548-020-02180-5">

	<rect width="100%" height="100%" fill="white" />
	<path d = "M 112.00 95.00 L 105.00 78.00 L 95.00 68.00 L 85.00 64.00 L 67.00 64.00 L 24.00 80.00 L 14.00 90.00 L 2.00 113.00 L 1.00 136.00 L 10.00 161.00 L 42.00 216.00 L 56.00 235.00 L 73.00 251.00 L 84.00 255.00 L 100.00 252.00 L 127.00 229.00 L 138.00 227.00 L 152.00 228.00 L 168.00 242.00 L 183.00 245.00 L 197.00 236.00 L 214.00 215.00 L 222.00 180.00 L 223.00 120.00 L 216.00 93.00 L 204.00 66.00 L 188.00 53.00 L 162.00 41.00 L 142.00 41.00 L 128.00 45.00 L 110.00 59.00 L 104.00 70.00 L 103.00 86.00 L 109.00 102.00" stroke="black" fill="transparent"/>
	<path d = "M 107.00 91.00 L 105.00 57.00 L 92.00 21.00" stroke="black" fill="transparent"/>
	<path d = "M 96.00 34.00 L 98.00 27.00 L 111.00 13.00 L 133.00 0.00 L 134.00 12.00 L 129.00 25.00 L 109.00 58.00" stroke="black" fill="transparent"/>
	<path d = "M 107.00 45.00 L 114.00 31.00" stroke="black" fill="transparent"/>
</svg>