<?xml version="1.0" encoding="UTF-8" standalone="no"?>
<!--Created with ndjsontosvg(https:https://github.com/thompson318/ndjsontosvg) 
	from the simplified Google quickdraw data set. key_id = 6137126708051968-->
<svg width="256" height="256"
	xmlns="http://www.w3.org/2000/svg"
	xmlns:ndjsontosvg="https://github.com/thompson318/ndjsontosvg"
	xmlns:quickdraw="https://quickdraw.withgoogle.com/data"
	xmlns:scikit-surgery="https://doi.org/10.1007/s11548-020-02180-5">

	<rect width="100%" height="100%" fill="white" />
	<path d = "M 73.00 38.00 L 53.00 37.00 L 46.00 40.00 L 37.00 46.00 L 20.00 71.00 L 7.00 109.00 L 5.00 148.00 L 9.00 167.00 L 32.00 197.00 L 66.00 218.00 L 86.00 223.00 L 101.00 223.00 L 121.00 217.00 L 134.00 202.00 L 143.00 184.00 L 147.00 167.00 L 149.00 126.00 L 144.00 105.00 L 123.00 68.00 L 114.00 58.00 L 86.00 41.00 L 65.00 38.00" stroke="black" fill="transparent"/>
	<path d = "M 56.00 39.00 L 58.00 18.00 L 64.00 0.00" stroke="black" fill="transparent"/>
	<path d = "M 35.00 129.00 L 55.00 158.00 L 48.00 105.00 L 54.00 101.00 L 64.00 104.00" stroke="black" fill="transparent"/>
	<path d = "M 70.00 140.00 L 78.00 116.00 L 72.00 128.00 L 71.00 144.00 L 75.00 150.00 L 80.00 150.00" stroke="black" fill="transparent"/>
	<path d = "M 112.00 108.00 L 100.00 112.00 L 96.00 122.00 L 96.00 134.00 L 106.00 140.00 L 120.00 136.00" stroke="black" fill="transparent"/>
	<path d = "M 97.00 79.00 L 101.00 92.00 L 123.00 127.00" stroke="black" fill="transparent"/>
	<path d = "M 124.00 144.00 L 134.00 133.00" stroke="black" fill="transparent"/>
	<path d = "M 61.00 215.00 L 57.00 221.00 L 58.00 233.00 L 71.00 235.00 L 78.00 232.00 L 85.00 221.00 L 95.00 230.00 L 108.00 233.00 L 125.00 213.00" stroke="black" fill="transparent"/>
	<path d = "M 26.00 255.00 L 19.00 243.00 L 5.00 185.00 L 0.00 112.00 L 9.00 14.00" stroke="black" fill="transparent"/>
</svg>