<?xml version="1.0" encoding="UTF-8" standalone="no"?>
<!--Created with ndjsontosvg(https:https://github.com/thompson318/ndjsontosvg) 
	from the simplified Google quickdraw data set. key_id = 4972552935964672-->
<svg width="256" height="256"
	xmlns="http://www.w3.org/2000/svg"
	xmlns:ndjsontosvg="https://github.com/thompson318/ndjsontosvg"
	xmlns:quickdraw="https://quickdraw.withgoogle.com/data"
	xmlns:scikit-surgery="https://doi.org/10.1007/s11548-020-02180-5">

	<rect width="100%" height="100%" fill="white" />
	<path d = "M 114.00 114.00 L 115.00 109.00 L 107.00 99.00 L 83.00 92.00 L 60.00 92.00 L 37.00 103.00 L 12.00 131.00 L 1.00 155.00 L 0.00 183.00 L 13.00 212.00 L 30.00 232.00 L 48.00 247.00 L 65.00 253.00 L 132.00 255.00 L 152.00 246.00 L 161.00 236.00 L 194.00 187.00 L 202.00 169.00 L 204.00 141.00 L 196.00 124.00 L 184.00 112.00 L 174.00 109.00 L 123.00 109.00 L 111.00 112.00 L 109.00 120.00 L 114.00 120.00 L 123.00 105.00 L 171.00 0.00" stroke="black" fill="transparent"/>
	<path d = "M 132.00 56.00 L 161.00 45.00 L 200.00 40.00 L 211.00 47.00 L 212.00 61.00 L 199.00 76.00 L 131.00 106.00" stroke="black" fill="transparent"/>
</svg>