<?xml version="1.0" encoding="UTF-8" standalone="no"?>
<!--Created with ndjsontosvg(https:https://github.com/thompson318/ndjsontosvg) 
	from the simplified Google quickdraw data set. key_id = 5979911997095936-->
<svg width="256" height="256"
	xmlns="http://www.w3.org/2000/svg"
	xmlns:ndjsontosvg="https://github.com/thompson318/ndjsontosvg"
	xmlns:quickdraw="https://quickdraw.withgoogle.com/data"
	xmlns:scikit-surgery="https://doi.org/10.1007/s11548-020-02180-5">

	<rect width="100%" height="100%" fill="white" />
	<path d = "M 0.00 129.00 L 21.00 115.00 L 64.00 102.00 L 100.00 102.00 L 123.00 105.00 L 152.00 118.00 L 166.00 127.00 L 177.00 143.00 L 185.00 176.00 L 186.00 207.00 L 176.00 231.00 L 154.00 246.00 L 131.00 254.00 L 64.00 255.00 L 46.00 251.00 L 37.00 242.00 L 19.00 215.00 L 15.00 192.00 L 15.00 138.00 L 19.00 127.00 L 34.00 110.00" stroke="black" fill="transparent"/>
	<path d = "M 96.00 92.00 L 100.00 87.00 L 110.00 22.00 L 117.00 0.00" stroke="black" fill="transparent"/>
	<path d = "M 107.00 48.00 L 154.00 40.00 L 189.00 39.00 L 197.00 46.00 L 200.00 52.00 L 199.00 65.00 L 187.00 70.00 L 134.00 71.00 L 110.00 67.00" stroke="black" fill="transparent"/>
</svg>