<?xml version="1.0" encoding="UTF-8" standalone="no"?>
<!--Created with ndjsontosvg(https:https://github.com/thompson318/ndjsontosvg) 
	from the simplified Google quickdraw data set. key_id = 5894535345340416-->
<svg width="256" height="256"
	xmlns="http://www.w3.org/2000/svg"
	xmlns:ndjsontosvg="https://github.com/thompson318/ndjsontosvg"
	xmlns:quickdraw="https://quickdraw.withgoogle.com/data"
	xmlns:scikit-surgery="https://doi.org/10.1007/s11548-020-02180-5">

	<rect width="100%" height="100%" fill="white" />
	<path d = "M 96.00 98.00 L 88.00 91.00 L 65.00 92.00 L 43.00 106.00 L 1.00 144.00 L 0.00 173.00 L 29.00 233.00 L 49.00 244.00 L 79.00 245.00 L 94.00 229.00 L 98.00 217.00 L 117.00 246.00 L 132.00 254.00 L 147.00 255.00 L 163.00 241.00 L 203.00 217.00 L 209.00 198.00 L 208.00 171.00 L 188.00 122.00 L 166.00 107.00 L 148.00 102.00 L 97.00 99.00 L 91.00 103.00" stroke="black" fill="transparent"/>
	<path d = "M 103.00 96.00 L 93.00 54.00 L 96.00 25.00 L 109.00 7.00 L 117.00 1.00 L 152.00 0.00" stroke="black" fill="transparent"/>
	<path d = "M 109.00 99.00 L 102.00 92.00 L 102.00 62.00 L 112.00 47.00 L 122.00 45.00 L 132.00 49.00 L 138.00 61.00 L 138.00 83.00 L 120.00 96.00 L 105.00 98.00" stroke="black" fill="transparent"/>
</svg>