<?xml version="1.0" encoding="UTF-8" standalone="no"?>
<!--Created with ndjsontosvg(https:https://github.com/thompson318/ndjsontosvg) 
	from the simplified Google quickdraw data set. key_id = 4992290558836736-->
<svg width="256" height="256"
	xmlns="http://www.w3.org/2000/svg"
	xmlns:ndjsontosvg="https://github.com/thompson318/ndjsontosvg"
	xmlns:quickdraw="https://quickdraw.withgoogle.com/data"
	xmlns:scikit-surgery="https://doi.org/10.1007/s11548-020-02180-5">

	<rect width="100%" height="100%" fill="white" />
	<path d = "M 130.00 115.00 L 82.00 98.00 L 51.00 97.00 L 33.00 110.00 L 23.00 123.00 L 8.00 150.00 L 1.00 169.00 L 0.00 202.00 L 7.00 212.00 L 29.00 232.00 L 67.00 253.00 L 102.00 255.00 L 120.00 252.00 L 135.00 244.00 L 143.00 235.00 L 148.00 218.00 L 148.00 183.00 L 141.00 136.00 L 139.00 130.00 L 128.00 125.00" stroke="black" fill="transparent"/>
	<path d = "M 60.00 73.00 L 61.00 103.00 L 66.00 105.00" stroke="black" fill="transparent"/>
	<path d = "M 107.00 80.00 L 103.00 90.00 L 106.00 119.00" stroke="black" fill="transparent"/>
	<path d = "M 54.00 55.00 L 62.00 60.00 L 110.00 60.00 L 111.00 66.00 L 105.00 84.00 L 105.00 101.00" stroke="black" fill="transparent"/>
	<path d = "M 91.00 85.00 L 121.00 66.00 L 168.00 5.00 L 175.00 1.00 L 189.00 0.00 L 195.00 8.00 L 198.00 20.00 L 195.00 47.00 L 178.00 63.00 L 121.00 97.00 L 116.00 105.00" stroke="black" fill="transparent"/>
</svg>