<?xml version="1.0" encoding="UTF-8" standalone="no"?>
<!--Created with ndjsontosvg(https:https://github.com/thompson318/ndjsontosvg) 
	from the simplified Google quickdraw data set. key_id = 6671845325537280-->
<svg width="256" height="256"
	xmlns="http://www.w3.org/2000/svg"
	xmlns:ndjsontosvg="https://github.com/thompson318/ndjsontosvg"
	xmlns:quickdraw="https://quickdraw.withgoogle.com/data"
	xmlns:scikit-surgery="https://doi.org/10.1007/s11548-020-02180-5">

	<rect width="100%" height="100%" fill="white" />
	<path d = "M 33.00 82.00 L 9.00 122.00 L 0.00 160.00 L 1.00 194.00 L 28.00 230.00 L 50.00 247.00 L 84.00 255.00 L 120.00 254.00 L 157.00 234.00 L 167.00 221.00 L 176.00 196.00 L 178.00 136.00 L 168.00 108.00 L 155.00 90.00 L 133.00 72.00 L 80.00 50.00 L 58.00 45.00 L 48.00 51.00 L 24.00 78.00 L 21.00 92.00 L 23.00 92.00" stroke="black" fill="transparent"/>
	<path d = "M 62.00 18.00 L 64.00 55.00 L 68.00 58.00 L 83.00 56.00 L 85.00 51.00 L 84.00 36.00 L 71.00 2.00 L 64.00 0.00 L 53.00 9.00 L 50.00 23.00" stroke="black" fill="transparent"/>
	<path d = "M 65.00 39.00 L 11.00 25.00 L 6.00 28.00 L 5.00 52.00 L 13.00 60.00 L 53.00 63.00 L 73.00 70.00" stroke="black" fill="transparent"/>
</svg>