<?xml version="1.0" encoding="UTF-8" standalone="no"?>
<!--Created with ndjsontosvg(https:https://github.com/thompson318/ndjsontosvg) 
	from the simplified Google quickdraw data set. key_id = 5037423853568000-->
<svg width="256" height="256"
	xmlns="http://www.w3.org/2000/svg"
	xmlns:ndjsontosvg="https://github.com/thompson318/ndjsontosvg"
	xmlns:quickdraw="https://quickdraw.withgoogle.com/data"
	xmlns:scikit-surgery="https://doi.org/10.1007/s11548-020-02180-5">

	<rect width="100%" height="100%" fill="white" />
	<path d = "M 129.00 66.00 L 120.00 58.00 L 101.00 51.00 L 63.00 50.00 L 26.00 62.00 L 14.00 71.00 L 5.00 83.00 L 1.00 96.00 L 0.00 121.00 L 11.00 158.00 L 33.00 199.00 L 47.00 217.00 L 60.00 229.00 L 81.00 239.00 L 90.00 240.00 L 155.00 240.00 L 174.00 235.00 L 217.00 212.00 L 231.00 194.00 L 245.00 170.00 L 254.00 141.00 L 255.00 110.00 L 248.00 85.00 L 236.00 63.00 L 224.00 56.00 L 152.00 57.00 L 145.00 40.00 L 142.00 18.00 L 152.00 2.00 L 201.00 1.00 L 197.00 10.00 L 172.00 26.00 L 159.00 40.00 L 139.00 72.00" stroke="black" fill="transparent"/>
</svg>