<?xml version="1.0" encoding="UTF-8" standalone="no"?>
<!--Created with ndjsontosvg(https:https://github.com/thompson318/ndjsontosvg) 
	from the simplified Google quickdraw data set. key_id = 6675675261960192-->
<svg width="256" height="256"
	xmlns="http://www.w3.org/2000/svg"
	xmlns:ndjsontosvg="https://github.com/thompson318/ndjsontosvg"
	xmlns:quickdraw="https://quickdraw.withgoogle.com/data"
	xmlns:scikit-surgery="https://doi.org/10.1007/s11548-020-02180-5">

	<rect width="100%" height="100%" fill="white" />
	<path d = "M 142.00 104.00 L 150.00 84.00 L 170.00 68.00 L 196.00 63.00 L 227.00 66.00 L 243.00 76.00 L 251.00 88.00 L 255.00 105.00 L 253.00 139.00 L 246.00 155.00 L 229.00 168.00 L 219.00 172.00 L 198.00 172.00 L 158.00 169.00 L 112.00 160.00 L 62.00 144.00 L 28.00 127.00 L 14.00 116.00 L 1.00 97.00 L 0.00 70.00 L 8.00 58.00 L 36.00 44.00 L 66.00 44.00 L 132.00 89.00 L 134.00 62.00 L 151.00 36.00 L 184.00 14.00 L 213.00 3.00 L 235.00 0.00" stroke="black" fill="transparent"/>
</svg>