<?xml version="1.0" encoding="UTF-8" standalone="no"?>
<!--Created with ndjsontosvg(https:https://github.com/thompson318/ndjsontosvg) 
	from the simplified Google quickdraw data set. key_id = 5698275594207232-->
<svg width="256" height="256"
	xmlns="http://www.w3.org/2000/svg"
	xmlns:ndjsontosvg="https://github.com/thompson318/ndjsontosvg"
	xmlns:quickdraw="https://quickdraw.withgoogle.com/data"
	xmlns:scikit-surgery="https://doi.org/10.1007/s11548-020-02180-5">

	<rect width="100%" height="100%" fill="white" />
	<path d = "M 57.00 59.00 L 25.00 91.00 L 7.00 126.00 L 0.00 154.00 L 0.00 183.00 L 2.00 192.00 L 23.00 230.00 L 31.00 237.00 L 64.00 250.00 L 92.00 255.00 L 132.00 253.00 L 159.00 242.00 L 187.00 220.00 L 201.00 203.00 L 222.00 150.00 L 225.00 86.00 L 212.00 72.00 L 171.00 47.00 L 54.00 47.00 L 38.00 54.00" stroke="black" fill="transparent"/>
	<path d = "M 74.00 67.00 L 74.00 77.00 L 90.00 95.00 L 107.00 106.00 L 126.00 113.00 L 164.00 119.00 L 188.00 119.00 L 222.00 108.00" stroke="black" fill="transparent"/>
	<path d = "M 144.00 100.00 L 137.00 83.00 L 137.00 64.00 L 139.00 52.00 L 150.00 34.00 L 174.00 17.00 L 202.00 5.00 L 222.00 0.00 L 239.00 0.00" stroke="black" fill="transparent"/>
</svg>