<?xml version="1.0" encoding="UTF-8" standalone="no"?>
<!--Created with ndjsontosvg(https:https://github.com/thompson318/ndjsontosvg) 
	from the simplified Google quickdraw data set. key_id = 5521084667396096-->
<svg width="256" height="256"
	xmlns="http://www.w3.org/2000/svg"
	xmlns:ndjsontosvg="https://github.com/thompson318/ndjsontosvg"
	xmlns:quickdraw="https://quickdraw.withgoogle.com/data"
	xmlns:scikit-surgery="https://doi.org/10.1007/s11548-020-02180-5">

	<rect width="100%" height="100%" fill="white" />
	<path d = "M 34.00 229.00 L 37.00 245.00 L 41.00 253.00 L 45.00 255.00 L 60.00 250.00 L 78.00 233.00 L 103.00 252.00 L 122.00 255.00 L 132.00 251.00 L 147.00 235.00 L 158.00 213.00 L 161.00 192.00 L 161.00 145.00 L 156.00 133.00 L 144.00 118.00 L 130.00 109.00 L 108.00 109.00 L 84.00 155.00 L 79.00 161.00 L 72.00 162.00 L 29.00 122.00 L 17.00 119.00 L 3.00 140.00 L 0.00 160.00 L 23.00 210.00 L 40.00 228.00" stroke="black" fill="transparent"/>
	<path d = "M 78.00 177.00 L 74.00 159.00 L 75.00 83.00 L 90.00 0.00" stroke="black" fill="transparent"/>
</svg>