<?xml version="1.0" encoding="UTF-8" standalone="no"?>
<!--Created with ndjsontosvg(https:https://github.com/thompson318/ndjsontosvg) 
	from the simplified Google quickdraw data set. key_id = 5836980166328320-->
<svg width="256" height="256"
	xmlns="http://www.w3.org/2000/svg"
	xmlns:ndjsontosvg="https://github.com/thompson318/ndjsontosvg"
	xmlns:quickdraw="https://quickdraw.withgoogle.com/data"
	xmlns:scikit-surgery="https://doi.org/10.1007/s11548-020-02180-5">

	<rect width="100%" height="100%" fill="white" />
	<path d = "M 68.00 88.00 L 41.00 77.00 L 20.00 77.00 L 4.00 98.00 L 1.00 111.00 L 0.00 159.00 L 12.00 193.00 L 38.00 240.00 L 53.00 251.00 L 69.00 255.00 L 97.00 255.00 L 146.00 248.00 L 172.00 241.00 L 189.00 230.00 L 201.00 210.00 L 209.00 183.00 L 214.00 150.00 L 212.00 97.00 L 180.00 77.00 L 154.00 67.00 L 148.00 72.00 L 133.00 99.00 L 122.00 105.00 L 99.00 105.00 L 70.00 93.00" stroke="black" fill="transparent"/>
	<path d = "M 99.00 94.00 L 93.00 87.00 L 88.00 28.00 L 95.00 2.00 L 105.00 0.00 L 111.00 2.00 L 113.00 7.00 L 116.00 60.00 L 125.00 90.00 L 125.00 100.00" stroke="black" fill="transparent"/>
</svg>