<?xml version="1.0" encoding="UTF-8" standalone="no"?>
<!--Created with ndjsontosvg(https:https://github.com/thompson318/ndjsontosvg) 
	from the simplified Google quickdraw data set. key_id = 5198601426829312-->
<svg width="256" height="256"
	xmlns="http://www.w3.org/2000/svg"
	xmlns:ndjsontosvg="https://github.com/thompson318/ndjsontosvg"
	xmlns:quickdraw="https://quickdraw.withgoogle.com/data"
	xmlns:scikit-surgery="https://doi.org/10.1007/s11548-020-02180-5">

	<rect width="100%" height="100%" fill="white" />
	<path d = "M 85.00 112.00 L 76.00 101.00 L 61.00 96.00 L 45.00 96.00 L 34.00 104.00 L 10.00 134.00 L 4.00 148.00 L 0.00 199.00 L 4.00 209.00 L 30.00 227.00 L 58.00 240.00 L 87.00 247.00" stroke="black" fill="transparent"/>
	<path d = "M 89.00 243.00 L 126.00 242.00 L 162.00 226.00 L 213.00 208.00 L 236.00 192.00 L 254.00 172.00 L 254.00 143.00 L 243.00 111.00 L 236.00 99.00 L 218.00 83.00 L 189.00 75.00 L 143.00 72.00 L 123.00 77.00 L 107.00 93.00" stroke="black" fill="transparent"/>
	<path d = "M 69.00 107.00 L 68.00 91.00 L 75.00 52.00 L 77.00 15.00 L 83.00 1.00 L 87.00 1.00 L 109.00 21.00 L 118.00 37.00 L 119.00 58.00 L 113.00 85.00 L 102.00 103.00 L 75.00 103.00" stroke="black" fill="transparent"/>
</svg>