<?xml version="1.0" encoding="UTF-8" standalone="no"?>
<!--Created with ndjsontosvg(https:https://github.com/thompson318/ndjsontosvg) 
	from the simplified Google quickdraw data set. key_id = 6406673805606912-->
<svg width="256" height="256"
	xmlns="http://www.w3.org/2000/svg"
	xmlns:ndjsontosvg="https://github.com/thompson318/ndjsontosvg"
	xmlns:quickdraw="https://quickdraw.withgoogle.com/data"
	xmlns:scikit-surgery="https://doi.org/10.1007/s11548-020-02180-5">

	<rect width="100%" height="100%" fill="white" />
	<path d = "M 58.00 88.00 L 22.00 92.00 L 9.00 105.00 L 0.00 127.00 L 1.00 162.00 L 16.00 188.00 L 47.00 217.00 L 68.00 227.00 L 93.00 235.00 L 111.00 237.00 L 163.00 235.00 L 180.00 229.00 L 204.00 216.00 L 235.00 190.00 L 248.00 176.00 L 254.00 160.00 L 253.00 135.00 L 226.00 106.00 L 200.00 89.00 L 185.00 84.00 L 154.00 78.00 L 75.00 73.00 L 53.00 77.00 L 31.00 87.00" stroke="black" fill="transparent"/>
	<path d = "M 101.00 69.00 L 103.00 55.00 L 95.00 33.00 L 86.00 19.00 L 63.00 0.00" stroke="black" fill="transparent"/>
	<path d = "M 102.00 43.00 L 113.00 37.00 L 118.00 39.00 L 106.00 55.00" stroke="black" fill="transparent"/>
</svg>