<?xml version="1.0" encoding="UTF-8" standalone="no"?>
<!--Created with ndjsontosvg(https:https://github.com/thompson318/ndjsontosvg) 
	from the simplified Google quickdraw data set. key_id = 5256464115433472-->
<svg width="256" height="256"
	xmlns="http://www.w3.org/2000/svg"
	xmlns:ndjsontosvg="https://github.com/thompson318/ndjsontosvg"
	xmlns:quickdraw="https://quickdraw.withgoogle.com/data"
	xmlns:scikit-surgery="https://doi.org/10.1007/s11548-020-02180-5">

	<rect width="100%" height="100%" fill="white" />
	<path d = "M 97.00 159.00 L 96.00 139.00 L 110.00 114.00 L 130.00 94.00 L 148.00 87.00 L 178.00 88.00 L 185.00 101.00 L 194.00 139.00 L 199.00 177.00 L 199.00 210.00 L 197.00 221.00 L 188.00 238.00 L 170.00 250.00 L 132.00 255.00 L 110.00 227.00" stroke="black" fill="transparent"/>
	<path d = "M 101.00 155.00 L 98.00 147.00 L 97.00 132.00 L 91.00 117.00 L 76.00 107.00 L 47.00 105.00 L 36.00 110.00 L 14.00 129.00 L 4.00 147.00 L 1.00 165.00 L 0.00 197.00 L 3.00 210.00 L 11.00 230.00 L 24.00 242.00 L 37.00 249.00 L 70.00 251.00 L 85.00 242.00 L 94.00 232.00" stroke="black" fill="transparent"/>
	<path d = "M 108.00 219.00 L 106.00 242.00 L 109.00 246.00" stroke="black" fill="transparent"/>
	<path d = "M 105.00 221.00 L 106.00 243.00" stroke="black" fill="transparent"/>
	<path d = "M 109.00 216.00 L 106.00 225.00 L 106.00 242.00" stroke="black" fill="transparent"/>
	<path d = "M 102.00 222.00 L 98.00 228.00 L 98.00 243.00" stroke="black" fill="transparent"/>
	<path d = "M 95.00 228.00 L 95.00 246.00" stroke="black" fill="transparent"/>
	<path d = "M 91.00 140.00 L 90.00 59.00 L 87.00 43.00 L 116.00 47.00 L 119.00 51.00 L 97.00 122.00 L 98.00 138.00" stroke="black" fill="transparent"/>
	<path d = "M 94.00 121.00 L 96.00 114.00 L 112.00 94.00 L 161.00 50.00 L 193.00 26.00 L 223.00 10.00 L 233.00 0.00 L 234.00 11.00 L 229.00 29.00 L 202.00 52.00 L 133.00 100.00 L 110.00 123.00" stroke="black" fill="transparent"/>
</svg>