<?xml version="1.0" encoding="UTF-8" standalone="no"?>
<!--Created with ndjsontosvg(https:https://github.com/thompson318/ndjsontosvg) 
	from the simplified Google quickdraw data set. key_id = 5173190777110528-->
<svg width="256" height="256"
	xmlns="http://www.w3.org/2000/svg"
	xmlns:ndjsontosvg="https://github.com/thompson318/ndjsontosvg"
	xmlns:quickdraw="https://quickdraw.withgoogle.com/data"
	xmlns:scikit-surgery="https://doi.org/10.1007/s11548-020-02180-5">

	<rect width="100%" height="100%" fill="white" />
	<path d = "M 141.00 69.00 L 125.00 62.00 L 108.00 62.00 L 95.00 66.00 L 68.00 77.00 L 31.00 103.00 L 18.00 116.00 L 4.00 142.00 L 0.00 161.00 L 0.00 193.00 L 10.00 224.00 L 18.00 235.00 L 28.00 242.00 L 88.00 254.00 L 119.00 255.00 L 150.00 247.00 L 167.00 237.00 L 200.00 206.00 L 205.00 188.00" stroke="black" fill="transparent"/>
	<path d = "M 134.00 60.00 L 164.00 75.00" stroke="black" fill="transparent"/>
	<path d = "M 200.00 183.00 L 162.00 168.00 L 152.00 157.00 L 140.00 133.00 L 136.00 115.00 L 136.00 73.00 L 140.00 64.00 L 154.00 59.00" stroke="black" fill="transparent"/>
	<path d = "M 92.00 60.00 L 86.00 60.00 L 56.00 26.00 L 56.00 15.00 L 62.00 8.00 L 97.00 0.00 L 106.00 2.00 L 101.00 4.00 L 88.00 34.00 L 88.00 53.00 L 101.00 76.00 L 102.00 72.00 L 63.00 2.00 L 75.00 26.00 L 81.00 53.00" stroke="black" fill="transparent"/>
</svg>