<?xml version="1.0" encoding="UTF-8" standalone="no"?>
<!--Created with ndjsontosvg(https:https://github.com/thompson318/ndjsontosvg) 
	from the simplified Google quickdraw data set. key_id = 5963746449031168-->
<svg width="256" height="256"
	xmlns="http://www.w3.org/2000/svg"
	xmlns:ndjsontosvg="https://github.com/thompson318/ndjsontosvg"
	xmlns:quickdraw="https://quickdraw.withgoogle.com/data"
	xmlns:scikit-surgery="https://doi.org/10.1007/s11548-020-02180-5">

	<rect width="100%" height="100%" fill="white" />
	<path d = "M 147.00 113.00 L 128.00 91.00 L 80.00 60.00 L 46.00 70.00 L 25.00 83.00 L 8.00 105.00 L 0.00 125.00" stroke="black" fill="transparent"/>
	<path d = "M 0.00 125.00 L 4.00 158.00 L 18.00 202.00 L 24.00 210.00 L 78.00 229.00 L 99.00 233.00 L 125.00 231.00 L 158.00 223.00" stroke="black" fill="transparent"/>
	<path d = "M 158.00 223.00 L 190.00 202.00 L 195.00 195.00 L 246.00 151.00 L 251.00 143.00 L 255.00 110.00 L 248.00 82.00 L 243.00 74.00 L 228.00 61.00 L 206.00 50.00 L 176.00 56.00 L 161.00 65.00 L 147.00 82.00 L 145.00 98.00 L 148.00 101.00" stroke="black" fill="transparent"/>
	<path d = "M 148.00 101.00 L 138.00 57.00 L 132.00 0.00" stroke="black" fill="transparent"/>
	<path d = "M 132.00 6.00 L 116.00 3.00" stroke="black" fill="transparent"/>
</svg>