<?xml version="1.0" encoding="UTF-8" standalone="no"?>
<!--Created with ndjsontosvg(https:https://github.com/thompson318/ndjsontosvg) 
	from the simplified Google quickdraw data set. key_id = 6097274193051648-->
<svg width="256" height="256"
	xmlns="http://www.w3.org/2000/svg"
	xmlns:ndjsontosvg="https://github.com/thompson318/ndjsontosvg"
	xmlns:quickdraw="https://quickdraw.withgoogle.com/data"
	xmlns:scikit-surgery="https://doi.org/10.1007/s11548-020-02180-5">

	<rect width="100%" height="100%" fill="white" />
	<path d = "M 133.00 86.00 L 149.00 68.00 L 160.00 64.00 L 186.00 65.00 L 216.00 75.00 L 233.00 93.00 L 248.00 128.00 L 255.00 159.00 L 255.00 181.00 L 252.00 194.00 L 245.00 203.00 L 211.00 222.00 L 193.00 238.00 L 184.00 243.00 L 155.00 248.00 L 113.00 242.00 L 56.00 226.00 L 37.00 213.00 L 12.00 182.00 L 3.00 159.00 L 0.00 126.00 L 8.00 111.00 L 27.00 93.00 L 62.00 70.00 L 134.00 82.00" stroke="black" fill="transparent"/>
	<path d = "M 130.00 83.00 L 100.00 54.00 L 76.00 40.00" stroke="black" fill="transparent"/>
	<path d = "M 83.00 45.00 L 85.00 34.00 L 104.00 5.00 L 109.00 0.00 L 96.00 14.00 L 91.00 27.00 L 89.00 57.00 L 70.00 48.00 L 51.00 48.00 L 37.00 52.00" stroke="black" fill="transparent"/>
</svg>