<?xml version="1.0" encoding="UTF-8" standalone="no"?>
<!--Created with ndjsontosvg(https:https://github.com/thompson318/ndjsontosvg) 
	from the simplified Google quickdraw data set. key_id = 6472916466139136-->
<svg width="256" height="256"
	xmlns="http://www.w3.org/2000/svg"
	xmlns:ndjsontosvg="https://github.com/thompson318/ndjsontosvg"
	xmlns:quickdraw="https://quickdraw.withgoogle.com/data"
	xmlns:scikit-surgery="https://doi.org/10.1007/s11548-020-02180-5">

	<rect width="100%" height="100%" fill="white" />
	<path d = "M 99.00 255.00 L 78.00 241.00 L 34.00 219.00 L 10.00 190.00 L 0.00 163.00 L 1.00 134.00 L 4.00 121.00 L 19.00 96.00 L 35.00 87.00 L 57.00 85.00 L 69.00 88.00 L 88.00 101.00 L 96.00 127.00 L 178.00 103.00 L 208.00 99.00 L 230.00 108.00 L 243.00 131.00 L 246.00 155.00 L 245.00 188.00 L 238.00 204.00 L 213.00 226.00 L 189.00 237.00 L 129.00 241.00 L 117.00 236.00 L 102.00 235.00 L 93.00 227.00 L 91.00 212.00 L 94.00 203.00" stroke="black" fill="transparent"/>
	<path d = "M 113.00 125.00 L 113.00 108.00 L 125.00 73.00 L 129.00 42.00 L 134.00 25.00 L 153.00 3.00 L 165.00 0.00 L 175.00 5.00 L 179.00 31.00 L 171.00 43.00 L 161.00 52.00 L 130.00 57.00" stroke="black" fill="transparent"/>
</svg>