<?xml version="1.0" encoding="UTF-8" standalone="no"?>
<!--Created with ndjsontosvg(https:https://github.com/thompson318/ndjsontosvg) 
	from the simplified Google quickdraw data set. key_id = 4784638352424960-->
<svg width="256" height="256"
	xmlns="http://www.w3.org/2000/svg"
	xmlns:ndjsontosvg="https://github.com/thompson318/ndjsontosvg"
	xmlns:quickdraw="https://quickdraw.withgoogle.com/data"
	xmlns:scikit-surgery="https://doi.org/10.1007/s11548-020-02180-5">

	<rect width="100%" height="100%" fill="white" />
	<path d = "M 95.00 52.00 L 67.00 53.00 L 47.00 64.00 L 24.00 90.00 L 7.00 124.00 L 2.00 144.00 L 0.00 176.00 L 10.00 207.00 L 26.00 233.00 L 52.00 251.00 L 67.00 255.00 L 109.00 253.00 L 128.00 243.00 L 143.00 231.00 L 155.00 215.00 L 163.00 193.00 L 168.00 172.00 L 168.00 116.00 L 145.00 51.00 L 129.00 26.00 L 120.00 21.00 L 99.00 21.00 L 83.00 37.00" stroke="black" fill="transparent"/>
	<path d = "M 67.00 51.00 L 66.00 1.00" stroke="black" fill="transparent"/>
	<path d = "M 72.00 20.00 L 77.00 5.00 L 82.00 2.00 L 91.00 1.00 L 96.00 5.00 L 96.00 13.00 L 91.00 24.00 L 64.00 54.00" stroke="black" fill="transparent"/>
	<path d = "M 63.00 27.00 L 40.00 14.00 L 32.00 19.00 L 30.00 36.00 L 31.00 44.00 L 37.00 52.00 L 64.00 66.00" stroke="black" fill="transparent"/>
</svg>