<?xml version="1.0" encoding="UTF-8" standalone="no"?>
<!--Created with ndjsontosvg(https:https://github.com/thompson318/ndjsontosvg) 
	from the simplified Google quickdraw data set. key_id = 6339676359098368-->
<svg width="256" height="256"
	xmlns="http://www.w3.org/2000/svg"
	xmlns:ndjsontosvg="https://github.com/thompson318/ndjsontosvg"
	xmlns:quickdraw="https://quickdraw.withgoogle.com/data"
	xmlns:scikit-surgery="https://doi.org/10.1007/s11548-020-02180-5">

	<rect width="100%" height="100%" fill="white" />
	<path d = "M 114.00 81.00 L 145.00 62.00 L 173.00 62.00 L 193.00 70.00 L 208.00 86.00 L 228.00 123.00 L 228.00 156.00 L 226.00 166.00 L 194.00 227.00 L 179.00 242.00 L 163.00 248.00 L 118.00 248.00 L 101.00 253.00 L 75.00 255.00 L 56.00 255.00 L 48.00 252.00 L 20.00 236.00 L 12.00 229.00 L 2.00 204.00 L 0.00 184.00 L 0.00 139.00 L 8.00 112.00 L 25.00 96.00 L 41.00 87.00 L 67.00 81.00 L 102.00 80.00 L 109.00 72.00 L 94.00 38.00 L 70.00 23.00" stroke="black" fill="transparent"/>
	<path d = "M 104.00 70.00 L 112.00 64.00 L 124.00 39.00 L 134.00 5.00 L 124.00 1.00 L 111.00 19.00 L 106.00 39.00" stroke="black" fill="transparent"/>
</svg>