<?xml version="1.0" encoding="UTF-8" standalone="no"?>
<!--Created with ndjsontosvg(https:https://github.com/thompson318/ndjsontosvg) 
	from the simplified Google quickdraw data set. key_id = 5097335761666048-->
<svg width="256" height="256"
	xmlns="http://www.w3.org/2000/svg"
	xmlns:ndjsontosvg="https://github.com/thompson318/ndjsontosvg"
	xmlns:quickdraw="https://quickdraw.withgoogle.com/data"
	xmlns:scikit-surgery="https://doi.org/10.1007/s11548-020-02180-5">

	<rect width="100%" height="100%" fill="white" />
	<path d = "M 77.00 73.00 L 77.00 69.00 L 71.00 63.00 L 57.00 61.00 L 41.00 65.00 L 22.00 74.00 L 8.00 91.00 L 0.00 120.00 L 6.00 152.00 L 25.00 194.00 L 56.00 242.00 L 69.00 252.00 L 86.00 255.00 L 107.00 253.00 L 135.00 244.00 L 154.00 231.00 L 163.00 220.00 L 178.00 189.00 L 190.00 151.00 L 196.00 117.00 L 194.00 74.00 L 184.00 56.00 L 177.00 50.00 L 154.00 44.00 L 143.00 44.00 L 121.00 52.00 L 92.00 72.00 L 85.00 74.00 L 78.00 0.00" stroke="black" fill="transparent"/>
</svg>