<?xml version="1.0" encoding="UTF-8" standalone="no"?>
<!--Created with ndjsontosvg(https:https://github.com/thompson318/ndjsontosvg) 
	from the simplified Google quickdraw data set. key_id = 6489395261603840-->
<svg width="256" height="256"
	xmlns="http://www.w3.org/2000/svg"
	xmlns:ndjsontosvg="https://github.com/thompson318/ndjsontosvg"
	xmlns:quickdraw="https://quickdraw.withgoogle.com/data"
	xmlns:scikit-surgery="https://doi.org/10.1007/s11548-020-02180-5">

	<rect width="100%" height="100%" fill="white" />
	<path d = "M 115.00 61.00 L 136.00 39.00 L 155.00 32.00 L 208.00 30.00 L 232.00 40.00 L 249.00 59.00 L 254.00 79.00 L 254.00 109.00 L 245.00 145.00 L 221.00 191.00 L 200.00 213.00 L 181.00 222.00 L 159.00 229.00 L 146.00 229.00 L 138.00 221.00 L 130.00 219.00 L 116.00 230.00 L 101.00 223.00 L 84.00 228.00 L 71.00 221.00 L 62.00 211.00 L 20.00 138.00 L 4.00 97.00 L 0.00 71.00 L 17.00 43.00 L 30.00 34.00 L 45.00 30.00 L 65.00 33.00 L 111.00 62.00 L 109.00 34.00 L 125.00 5.00 L 130.00 0.00 L 136.00 1.00" stroke="black" fill="transparent"/>
	<path d = "M 110.00 25.00 L 111.00 12.00 L 97.00 10.00 L 93.00 13.00 L 93.00 28.00 L 101.00 42.00 L 110.00 45.00" stroke="black" fill="transparent"/>
</svg>