<?xml version="1.0" encoding="UTF-8" standalone="no"?>
<!--Created with ndjsontosvg(https:https://github.com/thompson318/ndjsontosvg) 
	from the simplified Google quickdraw data set. key_id = 5473974932733952-->
<svg width="256" height="256"
	xmlns="http://www.w3.org/2000/svg"
	xmlns:ndjsontosvg="https://github.com/thompson318/ndjsontosvg"
	xmlns:quickdraw="https://quickdraw.withgoogle.com/data"
	xmlns:scikit-surgery="https://doi.org/10.1007/s11548-020-02180-5">

	<rect width="100%" height="100%" fill="white" />
	<path d = "M 89.00 86.00 L 83.00 73.00 L 91.00 66.00 L 112.00 58.00 L 161.00 48.00 L 160.00 80.00 L 85.00 97.00" stroke="black" fill="transparent"/>
	<path d = "M 94.00 62.00 L 96.00 49.00 L 164.00 43.00" stroke="black" fill="transparent"/>
	<path d = "M 122.00 16.00 L 114.00 10.00 L 106.00 16.00 L 106.00 44.00 L 114.00 48.00 L 119.00 44.00 L 121.00 38.00 L 128.00 42.00 L 133.00 40.00 L 135.00 27.00 L 131.00 14.00 L 126.00 12.00 L 122.00 17.00" stroke="black" fill="transparent"/>
	<path d = "M 122.00 17.00 L 122.00 5.00 L 129.00 0.00 L 125.00 18.00" stroke="black" fill="transparent"/>
	<path d = "M 112.00 17.00 L 110.00 24.00 L 112.00 25.00 L 112.00 20.00" stroke="black" fill="transparent"/>
	<path d = "M 214.00 18.00 L 193.00 19.00 L 190.00 32.00 L 199.00 48.00 L 222.00 60.00 L 222.00 44.00 L 243.00 50.00 L 253.00 47.00 L 255.00 32.00 L 252.00 21.00 L 244.00 10.00 L 233.00 6.00 L 225.00 10.00 L 217.00 24.00" stroke="black" fill="transparent"/>
	<path d = "M 217.00 24.00 L 214.00 15.00 L 215.00 1.00 L 215.00 24.00" stroke="black" fill="transparent"/>
	<path d = "M 234.00 8.00 L 237.00 11.00 L 235.00 7.00" stroke="black" fill="transparent"/>
	<path d = "M 38.00 22.00 L 13.00 22.00 L 4.00 24.00 L 0.00 39.00 L 9.00 57.00 L 19.00 60.00 L 27.00 57.00 L 34.00 49.00 L 36.00 39.00 L 40.00 48.00 L 50.00 54.00 L 57.00 54.00 L 64.00 44.00" stroke="black" fill="transparent"/>
</svg>