<?xml version="1.0" encoding="UTF-8" standalone="no"?>
<!--Created with ndjsontosvg(https:https://github.com/thompson318/ndjsontosvg) 
	from the simplified Google quickdraw data set. key_id = 5930906470580224-->
<svg width="256" height="256"
	xmlns="http://www.w3.org/2000/svg"
	xmlns:ndjsontosvg="https://github.com/thompson318/ndjsontosvg"
	xmlns:quickdraw="https://quickdraw.withgoogle.com/data"
	xmlns:scikit-surgery="https://doi.org/10.1007/s11548-020-02180-5">

	<rect width="100%" height="100%" fill="white" />
	<path d = "M 122.00 88.00 L 106.00 63.00 L 93.00 53.00 L 69.00 44.00 L 48.00 46.00 L 27.00 57.00 L 13.00 75.00 L 1.00 107.00 L 3.00 131.00 L 9.00 144.00 L 25.00 160.00 L 46.00 170.00 L 63.00 174.00 L 83.00 177.00 L 129.00 163.00 L 148.00 163.00 L 167.00 166.00 L 185.00 174.00 L 203.00 173.00 L 224.00 160.00 L 231.00 152.00 L 254.00 110.00 L 254.00 101.00 L 243.00 77.00 L 218.00 67.00 L 184.00 61.00 L 152.00 62.00 L 133.00 69.00 L 124.00 92.00" stroke="black" fill="transparent"/>
	<path d = "M 129.00 85.00 L 126.00 0.00" stroke="black" fill="transparent"/>
	<path d = "M 131.00 42.00 L 136.00 29.00 L 151.00 17.00 L 183.00 4.00 L 181.00 12.00 L 162.00 36.00 L 150.00 46.00 L 143.00 48.00 L 126.00 44.00" stroke="black" fill="transparent"/>
	<path d = "M 135.00 41.00 L 162.00 22.00" stroke="black" fill="transparent"/>
</svg>