<?xml version="1.0" encoding="UTF-8" standalone="no"?>
<!--Created with ndjsontosvg(https:https://github.com/thompson318/ndjsontosvg) 
	from the simplified Google quickdraw data set. key_id = 5778556149825536-->
<svg width="256" height="256"
	xmlns="http://www.w3.org/2000/svg"
	xmlns:ndjsontosvg="https://github.com/thompson318/ndjsontosvg"
	xmlns:quickdraw="https://quickdraw.withgoogle.com/data"
	xmlns:scikit-surgery="https://doi.org/10.1007/s11548-020-02180-5">

	<rect width="100%" height="100%" fill="white" />
	<path d = "M 66.00 110.00 L 29.00 106.00 L 20.00 112.00 L 9.00 129.00 L 0.00 162.00 L 0.00 196.00 L 9.00 222.00 L 25.00 239.00 L 40.00 248.00 L 69.00 254.00 L 97.00 255.00 L 105.00 250.00 L 111.00 241.00 L 123.00 207.00 L 122.00 182.00 L 111.00 164.00 L 90.00 164.00 L 89.00 155.00 L 109.00 139.00 L 120.00 125.00 L 112.00 120.00 L 76.00 113.00 L 115.00 105.00 L 122.00 100.00 L 123.00 94.00 L 87.00 86.00 L 55.00 86.00 L 39.00 92.00 L 22.00 93.00" stroke="black" fill="transparent"/>
	<path d = "M 46.00 90.00 L 47.00 82.00 L 24.00 0.00" stroke="black" fill="transparent"/>
</svg>