<?xml version="1.0" encoding="UTF-8" standalone="no"?>
<!--Created with ndjsontosvg(https:https://github.com/thompson318/ndjsontosvg) 
	from the simplified Google quickdraw data set. key_id = 6463336822603776-->
<svg width="256" height="256"
	xmlns="http://www.w3.org/2000/svg"
	xmlns:ndjsontosvg="https://github.com/thompson318/ndjsontosvg"
	xmlns:quickdraw="https://quickdraw.withgoogle.com/data"
	xmlns:scikit-surgery="https://doi.org/10.1007/s11548-020-02180-5">

	<rect width="100%" height="100%" fill="white" />
	<path d = "M 70.00 55.00 L 54.00 63.00 L 40.00 76.00 L 14.00 113.00 L 2.00 140.00 L 1.00 165.00 L 10.00 202.00 L 24.00 223.00 L 44.00 241.00 L 59.00 248.00 L 88.00 255.00 L 120.00 253.00 L 136.00 245.00 L 156.00 230.00 L 177.00 202.00 L 197.00 154.00 L 198.00 132.00 L 193.00 108.00 L 179.00 78.00 L 167.00 63.00 L 151.00 52.00 L 144.00 50.00 L 121.00 59.00 L 96.00 57.00 L 83.00 63.00" stroke="black" fill="transparent"/>
	<path d = "M 104.00 54.00 L 99.00 47.00 L 103.00 30.00 L 120.00 8.00 L 132.00 0.00" stroke="black" fill="transparent"/>
	<path d = "M 60.00 67.00 L 92.00 67.00" stroke="black" fill="transparent"/>
</svg>