<?xml version="1.0" encoding="UTF-8" standalone="no"?>
<!--Created with ndjsontosvg(https:https://github.com/thompson318/ndjsontosvg) 
	from the simplified Google quickdraw data set. key_id = 6232518250463232-->
<svg width="256" height="256"
	xmlns="http://www.w3.org/2000/svg"
	xmlns:ndjsontosvg="https://github.com/thompson318/ndjsontosvg"
	xmlns:quickdraw="https://quickdraw.withgoogle.com/data"
	xmlns:scikit-surgery="https://doi.org/10.1007/s11548-020-02180-5">

	<rect width="100%" height="100%" fill="white" />
	<path d = "M 93.00 133.00 L 99.00 124.00 L 139.00 87.00 L 165.00 80.00 L 187.00 84.00 L 201.00 90.00 L 214.00 112.00 L 215.00 140.00 L 204.00 194.00 L 190.00 212.00 L 182.00 219.00 L 144.00 226.00 L 107.00 248.00 L 78.00 255.00 L 58.00 251.00 L 39.00 241.00 L 10.00 183.00 L 3.00 159.00 L 0.00 127.00 L 5.00 106.00 L 15.00 87.00 L 32.00 74.00 L 54.00 65.00 L 91.00 62.00 L 111.00 66.00 L 128.00 76.00 L 143.00 97.00 L 146.00 71.00 L 158.00 42.00 L 196.00 16.00 L 241.00 0.00 L 215.00 26.00 L 214.00 37.00 L 202.00 54.00 L 184.00 65.00 L 175.00 76.00 L 174.00 93.00 L 178.00 102.00 L 196.00 113.00 L 220.00 119.00" stroke="black" fill="transparent"/>
</svg>