<?xml version="1.0" encoding="UTF-8" standalone="no"?>
<!--Created with ndjsontosvg(https:https://github.com/thompson318/ndjsontosvg) 
	from the simplified Google quickdraw data set. key_id = 6395046288949248-->
<svg width="256" height="256"
	xmlns="http://www.w3.org/2000/svg"
	xmlns:ndjsontosvg="https://github.com/thompson318/ndjsontosvg"
	xmlns:quickdraw="https://quickdraw.withgoogle.com/data"
	xmlns:scikit-surgery="https://doi.org/10.1007/s11548-020-02180-5">

	<rect width="100%" height="100%" fill="white" />
	<path d = "M 90.00 247.00 L 90.00 215.00 L 84.00 196.00 L 72.00 183.00 L 24.00 156.00 L 6.00 129.00 L 0.00 104.00 L 1.00 92.00 L 6.00 70.00 L 17.00 49.00 L 25.00 40.00 L 42.00 28.00 L 62.00 24.00 L 80.00 25.00 L 100.00 34.00 L 124.00 78.00 L 118.00 72.00 L 118.00 53.00 L 128.00 25.00 L 148.00 5.00 L 156.00 1.00 L 171.00 1.00 L 190.00 7.00 L 211.00 25.00 L 223.00 47.00 L 228.00 67.00 L 228.00 82.00 L 223.00 100.00 L 204.00 125.00 L 186.00 143.00 L 150.00 169.00 L 152.00 195.00 L 163.00 236.00 L 162.00 245.00 L 148.00 255.00 L 144.00 252.00 L 141.00 237.00 L 136.00 252.00 L 121.00 241.00 L 112.00 251.00 L 105.00 246.00 L 96.00 248.00 L 90.00 243.00" stroke="black" fill="transparent"/>
</svg>