<?xml version="1.0" encoding="UTF-8" standalone="no"?>
<!--Created with ndjsontosvg(https:https://github.com/thompson318/ndjsontosvg) 
	from the simplified Google quickdraw data set. key_id = 4826235060355072-->
<svg width="256" height="256"
	xmlns="http://www.w3.org/2000/svg"
	xmlns:ndjsontosvg="https://github.com/thompson318/ndjsontosvg"
	xmlns:quickdraw="https://quickdraw.withgoogle.com/data"
	xmlns:scikit-surgery="https://doi.org/10.1007/s11548-020-02180-5">

	<rect width="100%" height="100%" fill="white" />
	<path d = "M 184.00 250.00 L 160.00 229.00 L 135.00 224.00 L 100.00 251.00 L 50.00 255.00 L 14.00 234.00 L 4.00 175.00 L 0.00 118.00 L 27.00 77.00 L 50.00 58.00 L 70.00 56.00 L 108.00 68.00 L 156.00 68.00 L 201.00 106.00 L 218.00 131.00 L 221.00 145.00 L 223.00 163.00 L 212.00 203.00 L 196.00 218.00 L 180.00 218.00" stroke="black" fill="transparent"/>
	<path d = "M 111.00 61.00 L 107.00 55.00 L 100.00 0.00" stroke="black" fill="transparent"/>
	<path d = "M 99.00 42.00 L 76.00 37.00 L 70.00 27.00 L 74.00 25.00 L 83.00 28.00" stroke="black" fill="transparent"/>
</svg>