<?xml version="1.0" encoding="UTF-8" standalone="no"?>
<!--Created with ndjsontosvg(https:https://github.com/thompson318/ndjsontosvg) 
	from the simplified Google quickdraw data set. key_id = 6484481147928576-->
<svg width="256" height="256"
	xmlns="http://www.w3.org/2000/svg"
	xmlns:ndjsontosvg="https://github.com/thompson318/ndjsontosvg"
	xmlns:quickdraw="https://quickdraw.withgoogle.com/data"
	xmlns:scikit-surgery="https://doi.org/10.1007/s11548-020-02180-5">

	<rect width="100%" height="100%" fill="white" />
	<path d = "M 55.00 116.00 L 51.00 118.00 L 15.00 119.00 L 6.00 127.00 L 2.00 144.00 L 0.00 185.00 L 6.00 205.00 L 24.00 247.00 L 40.00 254.00 L 67.00 255.00 L 97.00 248.00 L 172.00 218.00 L 179.00 208.00 L 184.00 184.00 L 187.00 142.00 L 182.00 122.00 L 164.00 108.00 L 122.00 106.00 L 88.00 110.00 L 55.00 118.00 L 53.00 74.00" stroke="black" fill="transparent"/>
	<path d = "M 50.00 75.00 L 57.00 52.00 L 72.00 29.00 L 108.00 0.00 L 112.00 6.00 L 111.00 18.00 L 104.00 30.00 L 86.00 50.00 L 57.00 68.00" stroke="black" fill="transparent"/>
</svg>