<?xml version="1.0" encoding="UTF-8" standalone="no"?>
<!--Created with ndjsontosvg(https:https://github.com/thompson318/ndjsontosvg) 
	from the simplified Google quickdraw data set. key_id = 5952003639345152-->
<svg width="256" height="256"
	xmlns="http://www.w3.org/2000/svg"
	xmlns:ndjsontosvg="https://github.com/thompson318/ndjsontosvg"
	xmlns:quickdraw="https://quickdraw.withgoogle.com/data"
	xmlns:scikit-surgery="https://doi.org/10.1007/s11548-020-02180-5">

	<rect width="100%" height="100%" fill="white" />
	<path d = "M 54.00 243.00 L 24.00 207.00 L 0.00 160.00 L 13.00 125.00 L 33.00 102.00 L 47.00 93.00 L 71.00 85.00 L 86.00 85.00 L 95.00 89.00 L 97.00 106.00 L 138.00 82.00 L 164.00 72.00 L 192.00 73.00 L 205.00 80.00 L 209.00 86.00 L 196.00 123.00 L 185.00 142.00 L 133.00 217.00 L 103.00 238.00 L 46.00 255.00" stroke="black" fill="transparent"/>
	<path d = "M 112.00 105.00 L 90.00 56.00 L 87.00 29.00 L 95.00 18.00 L 119.00 4.00 L 142.00 0.00 L 150.00 4.00 L 150.00 16.00 L 143.00 36.00 L 121.00 69.00 L 88.00 100.00" stroke="black" fill="transparent"/>
</svg>