<?xml version="1.0" encoding="UTF-8" standalone="no"?>
<!--Created with ndjsontosvg(https:https://github.com/thompson318/ndjsontosvg) 
	from the simplified Google quickdraw data set. key_id = 5319852027805696-->
<svg width="256" height="256"
	xmlns="http://www.w3.org/2000/svg"
	xmlns:ndjsontosvg="https://github.com/thompson318/ndjsontosvg"
	xmlns:quickdraw="https://quickdraw.withgoogle.com/data"
	xmlns:scikit-surgery="https://doi.org/10.1007/s11548-020-02180-5">

	<rect width="100%" height="100%" fill="white" />
	<path d = "M 99.00 122.00 L 96.00 108.00 L 82.00 97.00 L 54.00 84.00 L 38.00 83.00 L 20.00 93.00 L 2.00 129.00 L 0.00 144.00 L 0.00 176.00 L 16.00 212.00 L 24.00 223.00 L 34.00 230.00 L 99.00 250.00 L 140.00 255.00 L 174.00 254.00 L 203.00 238.00 L 219.00 219.00 L 231.00 200.00 L 236.00 174.00 L 236.00 149.00 L 235.00 138.00 L 228.00 126.00 L 210.00 108.00 L 172.00 83.00 L 152.00 77.00 L 134.00 76.00 L 121.00 81.00 L 99.00 99.00 L 92.00 108.00 L 86.00 126.00" stroke="black" fill="transparent"/>
	<path d = "M 82.00 0.00 L 84.00 17.00 L 85.00 115.00" stroke="black" fill="transparent"/>
	<path d = "M 82.00 3.00 L 96.00 2.00 L 100.00 7.00 L 100.00 93.00" stroke="black" fill="transparent"/>
</svg>