<?xml version="1.0" encoding="UTF-8" standalone="no"?>
<!--Created with ndjsontosvg(https:https://github.com/thompson318/ndjsontosvg) 
	from the simplified Google quickdraw data set. key_id = 6523987263750144-->
<svg width="256" height="256"
	xmlns="http://www.w3.org/2000/svg"
	xmlns:ndjsontosvg="https://github.com/thompson318/ndjsontosvg"
	xmlns:quickdraw="https://quickdraw.withgoogle.com/data"
	xmlns:scikit-surgery="https://doi.org/10.1007/s11548-020-02180-5">

	<rect width="100%" height="100%" fill="white" />
	<path d = "M 42.00 92.00 L 69.00 150.00 L 92.00 214.00 L 110.00 255.00 L 132.00 121.00 L 148.00 64.00 L 49.00 78.00 L 40.00 80.00 L 38.00 86.00 L 35.00 67.00 L 8.00 40.00 L 0.00 23.00 L 39.00 55.00 L 50.00 57.00 L 54.00 54.00 L 59.00 41.00 L 63.00 17.00 L 63.00 34.00 L 68.00 44.00 L 75.00 50.00 L 88.00 41.00 L 105.00 13.00 L 104.00 50.00 L 107.00 49.00 L 137.00 0.00 L 144.00 28.00 L 152.00 40.00 L 159.00 38.00 L 170.00 25.00 L 176.00 12.00 L 159.00 32.00 L 147.00 64.00" stroke="black" fill="transparent"/>
	<path d = "M 76.00 107.00 L 101.00 104.00" stroke="black" fill="transparent"/>
	<path d = "M 92.00 127.00 L 97.00 132.00 L 111.00 132.00" stroke="black" fill="transparent"/>
	<path d = "M 105.00 169.00 L 114.00 180.00" stroke="black" fill="transparent"/>
	<path d = "M 109.00 205.00 L 109.00 228.00" stroke="black" fill="transparent"/>
</svg>