<?xml version="1.0" encoding="UTF-8" standalone="no"?>
<!--Created with ndjsontosvg(https:https://github.com/thompson318/ndjsontosvg) 
	from the simplified Google quickdraw data set. key_id = 5425840546381824-->
<svg width="256" height="256"
	xmlns="http://www.w3.org/2000/svg"
	xmlns:ndjsontosvg="https://github.com/thompson318/ndjsontosvg"
	xmlns:quickdraw="https://quickdraw.withgoogle.com/data"
	xmlns:scikit-surgery="https://doi.org/10.1007/s11548-020-02180-5">

	<rect width="100%" height="100%" fill="white" />
	<path d = "M 67.00 70.00 L 92.00 79.00 L 104.00 87.00 L 107.00 95.00 L 105.00 112.00 L 62.00 184.00 L 2.00 255.00 L 0.00 251.00 L 1.00 226.00 L 37.00 142.00 L 58.00 85.00 L 66.00 72.00 L 74.00 71.00" stroke="black" fill="transparent"/>
	<path d = "M 83.00 73.00 L 90.00 69.00 L 96.00 56.00 L 84.00 21.00 L 102.00 20.00 L 111.00 23.00 L 113.00 6.00 L 119.00 0.00 L 127.00 2.00 L 135.00 8.00 L 150.00 8.00 L 151.00 13.00 L 149.00 17.00 L 135.00 31.00 L 136.00 34.00 L 154.00 41.00 L 156.00 52.00 L 114.00 61.00 L 109.00 65.00 L 99.00 83.00" stroke="black" fill="transparent"/>
</svg>