<?xml version="1.0" encoding="UTF-8" standalone="no"?>
<!--Created with ndjsontosvg(https:https://github.com/thompson318/ndjsontosvg) 
	from the simplified Google quickdraw data set. key_id = 5521174912040960-->
<svg width="256" height="256"
	xmlns="http://www.w3.org/2000/svg"
	xmlns:ndjsontosvg="https://github.com/thompson318/ndjsontosvg"
	xmlns:quickdraw="https://quickdraw.withgoogle.com/data"
	xmlns:scikit-surgery="https://doi.org/10.1007/s11548-020-02180-5">

	<rect width="100%" height="100%" fill="white" />
	<path d = "M 55.00 86.00 L 51.00 105.00 L 21.00 181.00 L 0.00 255.00 L 13.00 227.00 L 29.00 201.00 L 123.00 76.00 L 107.00 76.00 L 72.00 65.00 L 47.00 66.00" stroke="black" fill="transparent"/>
	<path d = "M 78.00 60.00 L 85.00 40.00 L 80.00 38.00 L 75.00 30.00 L 76.00 19.00 L 86.00 12.00 L 102.00 11.00 L 87.00 12.00 L 86.00 7.00 L 92.00 1.00 L 121.00 2.00 L 123.00 7.00 L 109.00 15.00 L 124.00 22.00 L 127.00 29.00 L 115.00 34.00 L 112.00 50.00 L 95.00 56.00 L 94.00 78.00" stroke="black" fill="transparent"/>
	<path d = "M 48.00 126.00 L 79.00 132.00 L 90.00 131.00 L 99.00 124.00" stroke="black" fill="transparent"/>
	<path d = "M 63.00 97.00 L 70.00 102.00 L 95.00 103.00" stroke="black" fill="transparent"/>
	<path d = "M 62.00 71.00 L 69.00 75.00 L 94.00 80.00" stroke="black" fill="transparent"/>
	<path d = "M 42.00 152.00 L 71.00 155.00" stroke="black" fill="transparent"/>
	<path d = "M 27.00 184.00 L 35.00 189.00 L 58.00 192.00" stroke="black" fill="transparent"/>
	<path d = "M 27.00 208.00 L 45.00 208.00" stroke="black" fill="transparent"/>
</svg>