<?xml version="1.0" encoding="UTF-8" standalone="no"?>
<!--Created with ndjsontosvg(https:https://github.com/thompson318/ndjsontosvg) 
	from the simplified Google quickdraw data set. key_id = 5720822394126336-->
<svg width="256" height="256"
	xmlns="http://www.w3.org/2000/svg"
	xmlns:ndjsontosvg="https://github.com/thompson318/ndjsontosvg"
	xmlns:quickdraw="https://quickdraw.withgoogle.com/data"
	xmlns:scikit-surgery="https://doi.org/10.1007/s11548-020-02180-5">

	<rect width="100%" height="100%" fill="white" />
	<path d = "M 97.00 87.00 L 62.00 85.00 L 51.00 97.00 L 47.00 107.00 L 47.00 117.00 L 81.00 185.00 L 92.00 222.00 L 97.00 255.00 L 100.00 85.00" stroke="black" fill="transparent"/>
	<path d = "M 95.00 84.00 L 96.00 57.00 L 100.00 44.00 L 118.00 23.00 L 126.00 17.00 L 136.00 16.00 L 138.00 20.00 L 130.00 27.00 L 73.00 34.00 L 62.00 41.00 L 59.00 48.00 L 58.00 65.00 L 72.00 88.00 L 74.00 83.00 L 70.00 70.00 L 55.00 34.00 L 42.00 11.00 L 29.00 0.00 L 20.00 0.00 L 14.00 4.00 L 2.00 16.00 L 2.00 23.00 L 96.00 64.00 L 100.00 68.00 L 103.00 78.00 L 99.00 86.00 L 91.00 88.00 L 81.00 77.00 L 70.00 52.00 L 66.00 40.00 L 64.00 17.00 L 66.00 10.00 L 75.00 7.00 L 92.00 10.00 L 100.00 24.00 L 100.00 43.00 L 96.00 51.00 L 76.00 70.00" stroke="black" fill="transparent"/>
</svg>