<?xml version="1.0" encoding="UTF-8" standalone="no"?>
<!--Created with ndjsontosvg(https:https://github.com/thompson318/ndjsontosvg) 
	from the simplified Google quickdraw data set. key_id = 5801895438319616-->
<svg width="256" height="256"
	xmlns="http://www.w3.org/2000/svg"
	xmlns:ndjsontosvg="https://github.com/thompson318/ndjsontosvg"
	xmlns:quickdraw="https://quickdraw.withgoogle.com/data"
	xmlns:scikit-surgery="https://doi.org/10.1007/s11548-020-02180-5">

	<rect width="100%" height="100%" fill="white" />
	<path d = "M 32.00 111.00 L 35.00 185.00 L 42.00 213.00 L 45.00 246.00 L 51.00 255.00 L 79.00 216.00 L 93.00 199.00 L 99.00 199.00 L 103.00 193.00 L 120.00 161.00 L 129.00 133.00 L 133.00 129.00 L 138.00 107.00 L 128.00 97.00 L 96.00 91.00 L 68.00 106.00 L 26.00 109.00" stroke="black" fill="transparent"/>
	<path d = "M 62.00 108.00 L 63.00 94.00 L 44.00 59.00 L 24.00 37.00 L 0.00 25.00" stroke="black" fill="transparent"/>
	<path d = "M 85.00 111.00 L 87.00 0.00" stroke="black" fill="transparent"/>
	<path d = "M 103.00 97.00 L 109.00 80.00 L 117.00 69.00 L 130.00 62.00 L 149.00 56.00 L 191.00 54.00" stroke="black" fill="transparent"/>
</svg>