<?xml version="1.0" encoding="UTF-8" standalone="no"?>
<!--Created with ndjsontosvg(https:https://github.com/thompson318/ndjsontosvg) 
	from the simplified Google quickdraw data set. key_id = 4910845517627392-->
<svg width="256" height="256"
	xmlns="http://www.w3.org/2000/svg"
	xmlns:ndjsontosvg="https://github.com/thompson318/ndjsontosvg"
	xmlns:quickdraw="https://quickdraw.withgoogle.com/data"
	xmlns:scikit-surgery="https://doi.org/10.1007/s11548-020-02180-5">

	<rect width="100%" height="100%" fill="white" />
	<path d = "M 116.00 32.00 L 102.00 30.00 L 83.00 39.00" stroke="black" fill="transparent"/>
	<path d = "M 78.00 52.00 L 101.00 47.00" stroke="black" fill="transparent"/>
	<path d = "M 115.00 46.00 L 102.00 63.00" stroke="black" fill="transparent"/>
	<path d = "M 113.00 67.00 L 141.00 33.00" stroke="black" fill="transparent"/>
	<path d = "M 142.00 32.00 L 153.00 39.00 L 164.00 39.00" stroke="black" fill="transparent"/>
	<path d = "M 171.00 32.00 L 134.00 30.00" stroke="black" fill="transparent"/>
	<path d = "M 152.00 22.00 L 159.00 10.00 L 154.00 8.00 L 120.00 31.00" stroke="black" fill="transparent"/>
	<path d = "M 94.00 58.00 L 95.00 72.00 L 107.00 94.00 L 159.00 157.00 L 215.00 255.00 L 218.00 249.00 L 210.00 217.00 L 208.00 195.00 L 190.00 117.00 L 178.00 84.00 L 157.00 44.00" stroke="black" fill="transparent"/>
	<path d = "M 112.00 23.00 L 82.00 3.00 L 68.00 0.00 L 56.00 1.00 L 27.00 13.00 L 5.00 29.00 L 0.00 37.00" stroke="black" fill="transparent"/>
	<path d = "M 127.00 37.00 L 109.00 11.00 L 100.00 5.00 L 91.00 5.00 L 47.00 40.00 L 14.00 57.00" stroke="black" fill="transparent"/>
	<path d = "M 128.00 37.00 L 80.00 15.00 L 69.00 16.00 L 52.00 26.00 L 36.00 49.00 L 27.00 70.00 L 32.00 76.00" stroke="black" fill="transparent"/>
	<path d = "M 127.00 35.00 L 79.00 32.00 L 61.00 35.00 L 43.00 50.00 L 40.00 57.00 L 41.00 68.00" stroke="black" fill="transparent"/>
	<path d = "M 95.00 17.00 L 43.00 28.00" stroke="black" fill="transparent"/>
</svg>