<?xml version="1.0" encoding="UTF-8" standalone="no"?>
<!--Created with ndjsontosvg(https:https://github.com/thompson318/ndjsontosvg) 
	from the simplified Google quickdraw data set. key_id = 6274045433610240-->
<svg width="256" height="256"
	xmlns="http://www.w3.org/2000/svg"
	xmlns:ndjsontosvg="https://github.com/thompson318/ndjsontosvg"
	xmlns:quickdraw="https://quickdraw.withgoogle.com/data"
	xmlns:scikit-surgery="https://doi.org/10.1007/s11548-020-02180-5">

	<rect width="100%" height="100%" fill="white" />
	<path d = "M 71.00 42.00 L 48.00 28.00 L 24.00 30.00 L 2.00 48.00 L 1.00 76.00 L 27.00 137.00 L 77.00 227.00 L 98.00 255.00 L 114.00 192.00 L 114.00 132.00 L 95.00 71.00 L 81.00 43.00" stroke="black" fill="transparent"/>
	<path d = "M 11.00 48.00 L 4.00 36.00 L 3.00 7.00 L 7.00 5.00 L 11.00 10.00 L 27.00 45.00 L 30.00 16.00 L 34.00 2.00 L 38.00 0.00 L 54.00 21.00 L 64.00 27.00 L 70.00 26.00 L 80.00 2.00 L 84.00 48.00 L 85.00 51.00 L 92.00 50.00" stroke="black" fill="transparent"/>
	<path d = "M 26.00 94.00 L 35.00 92.00" stroke="black" fill="transparent"/>
	<path d = "M 71.00 82.00 L 71.00 82.00" stroke="black" fill="transparent"/>
	<path d = "M 56.00 89.00 L 72.00 84.00" stroke="black" fill="transparent"/>
	<path d = "M 52.00 129.00 L 72.00 130.00" stroke="black" fill="transparent"/>
	<path d = "M 79.00 171.00 L 96.00 162.00" stroke="black" fill="transparent"/>
</svg>