<?xml version="1.0" encoding="UTF-8" standalone="no"?>
<!--Created with ndjsontosvg(https:https://github.com/thompson318/ndjsontosvg) 
	from the simplified Google quickdraw data set. key_id = 6632540683108352-->
<svg width="256" height="256"
	xmlns="http://www.w3.org/2000/svg"
	xmlns:ndjsontosvg="https://github.com/thompson318/ndjsontosvg"
	xmlns:quickdraw="https://quickdraw.withgoogle.com/data"
	xmlns:scikit-surgery="https://doi.org/10.1007/s11548-020-02180-5">

	<rect width="100%" height="100%" fill="white" />
	<path d = "M 68.00 83.00 L 95.00 87.00 L 101.00 92.00 L 103.00 111.00 L 98.00 125.00 L 86.00 137.00 L 46.00 163.00 L 1.00 202.00 L 9.00 178.00 L 41.00 136.00 L 64.00 112.00 L 72.00 94.00 L 83.00 93.00" stroke="black" fill="transparent"/>
	<path d = "M 62.00 111.00 L 75.00 121.00 L 85.00 140.00" stroke="black" fill="transparent"/>
	<path d = "M 51.00 140.00 L 56.00 164.00" stroke="black" fill="transparent"/>
	<path d = "M 30.00 163.00 L 36.00 170.00" stroke="black" fill="transparent"/>
	<path d = "M 98.00 87.00 L 93.00 90.00" stroke="black" fill="transparent"/>
	<path d = "M 96.00 93.00 L 142.00 58.00 L 242.00 14.00" stroke="black" fill="transparent"/>
	<path d = "M 108.00 82.00 L 111.00 69.00 L 136.00 27.00 L 150.00 9.00 L 167.00 0.00" stroke="black" fill="transparent"/>
	<path d = "M 103.00 109.00 L 236.00 55.00 L 255.00 43.00" stroke="black" fill="transparent"/>
</svg>