<?xml version="1.0" encoding="UTF-8" standalone="no"?>
<!--Created with ndjsontosvg(https:https://github.com/thompson318/ndjsontosvg) 
	from the simplified Google quickdraw data set. key_id = 4869046761684992-->
<svg width="256" height="256"
	xmlns="http://www.w3.org/2000/svg"
	xmlns:ndjsontosvg="https://github.com/thompson318/ndjsontosvg"
	xmlns:quickdraw="https://quickdraw.withgoogle.com/data"
	xmlns:scikit-surgery="https://doi.org/10.1007/s11548-020-02180-5">

	<rect width="100%" height="100%" fill="white" />
	<path d = "M 105.00 87.00 L 63.00 144.00 L 38.00 187.00 L 16.00 214.00 L 3.00 237.00 L 0.00 252.00 L 12.00 255.00 L 26.00 250.00 L 48.00 232.00 L 70.00 221.00 L 92.00 202.00 L 125.00 182.00 L 175.00 135.00 L 178.00 129.00 L 177.00 110.00 L 154.00 87.00 L 140.00 83.00 L 119.00 81.00 L 106.00 81.00 L 104.00 85.00" stroke="black" fill="transparent"/>
	<path d = "M 92.00 108.00 L 99.00 113.00" stroke="black" fill="transparent"/>
	<path d = "M 89.00 183.00 L 94.00 189.00" stroke="black" fill="transparent"/>
	<path d = "M 39.00 189.00 L 47.00 192.00" stroke="black" fill="transparent"/>
	<path d = "M 141.00 82.00 L 162.00 57.00 L 179.00 21.00 L 185.00 0.00 L 186.00 13.00 L 179.00 34.00 L 149.00 82.00 L 150.00 76.00 L 156.00 69.00 L 190.00 36.00 L 227.00 21.00 L 191.00 49.00 L 153.00 84.00 L 163.00 74.00 L 190.00 62.00 L 242.00 61.00 L 202.00 66.00 L 160.00 85.00 L 169.00 80.00 L 200.00 77.00 L 215.00 81.00 L 222.00 87.00 L 206.00 83.00 L 171.00 83.00 L 164.00 87.00" stroke="black" fill="transparent"/>
</svg>