<?xml version="1.0" encoding="UTF-8" standalone="no"?>
<!--Created with ndjsontosvg(https:https://github.com/thompson318/ndjsontosvg) 
	from the simplified Google quickdraw data set. key_id = 5436460104679424-->
<svg width="256" height="256"
	xmlns="http://www.w3.org/2000/svg"
	xmlns:ndjsontosvg="https://github.com/thompson318/ndjsontosvg"
	xmlns:quickdraw="https://quickdraw.withgoogle.com/data"
	xmlns:scikit-surgery="https://doi.org/10.1007/s11548-020-02180-5">

	<rect width="100%" height="100%" fill="white" />
	<path d = "M 88.00 28.00 L 54.00 32.00 L 13.00 32.00 L 2.00 40.00 L 0.00 49.00 L 20.00 72.00 L 34.00 94.00 L 69.00 180.00 L 79.00 229.00 L 86.00 246.00 L 94.00 255.00 L 105.00 238.00 L 121.00 70.00 L 113.00 27.00 L 95.00 22.00 L 77.00 24.00" stroke="black" fill="transparent"/>
	<path d = "M 58.00 29.00 L 45.00 18.00 L 41.00 10.00 L 41.00 2.00 L 49.00 3.00 L 55.00 13.00 L 56.00 4.00 L 60.00 2.00 L 71.00 8.00 L 78.00 0.00 L 82.00 3.00 L 83.00 18.00 L 75.00 36.00 L 70.00 38.00" stroke="black" fill="transparent"/>
	<path d = "M 30.00 61.00 L 112.00 63.00" stroke="black" fill="transparent"/>
	<path d = "M 57.00 91.00 L 98.00 94.00" stroke="black" fill="transparent"/>
	<path d = "M 73.00 126.00 L 87.00 128.00" stroke="black" fill="transparent"/>
</svg>