<?xml version="1.0" encoding="UTF-8" standalone="no"?>
<!--Created with ndjsontosvg(https:https://github.com/thompson318/ndjsontosvg) 
	from the simplified Google quickdraw data set. key_id = 4565243084668928-->
<svg width="256" height="256"
	xmlns="http://www.w3.org/2000/svg"
	xmlns:ndjsontosvg="https://github.com/thompson318/ndjsontosvg"
	xmlns:quickdraw="https://quickdraw.withgoogle.com/data"
	xmlns:scikit-surgery="https://doi.org/10.1007/s11548-020-02180-5">

	<rect width="100%" height="100%" fill="white" />
	<path d = "M 90.00 30.00 L 44.00 64.00 L 35.00 75.00 L 30.00 85.00 L 30.00 99.00 L 34.00 106.00 L 67.00 135.00 L 208.00 209.00 L 228.00 218.00 L 248.00 217.00 L 255.00 205.00 L 252.00 186.00 L 211.00 123.00 L 137.00 52.00 L 101.00 27.00 L 91.00 29.00" stroke="black" fill="transparent"/>
	<path d = "M 90.00 66.00 L 67.00 101.00" stroke="black" fill="transparent"/>
	<path d = "M 152.00 103.00 L 139.00 121.00 L 130.00 152.00" stroke="black" fill="transparent"/>
	<path d = "M 211.00 155.00 L 192.00 179.00" stroke="black" fill="transparent"/>
	<path d = "M 74.00 36.00 L 78.00 24.00 L 78.00 10.00 L 72.00 3.00 L 66.00 0.00 L 58.00 11.00 L 55.00 33.00 L 42.00 20.00 L 26.00 17.00 L 20.00 23.00 L 36.00 37.00 L 1.00 41.00 L 0.00 47.00 L 13.00 59.00 L 32.00 69.00 L 50.00 68.00" stroke="black" fill="transparent"/>
</svg>