<?xml version="1.0" encoding="UTF-8" standalone="no"?>
<!--Created with ndjsontosvg(https:https://github.com/thompson318/ndjsontosvg) 
	from the simplified Google quickdraw data set. key_id = 6144011137974272-->
<svg width="256" height="256"
	xmlns="http://www.w3.org/2000/svg"
	xmlns:ndjsontosvg="https://github.com/thompson318/ndjsontosvg"
	xmlns:quickdraw="https://quickdraw.withgoogle.com/data"
	xmlns:scikit-surgery="https://doi.org/10.1007/s11548-020-02180-5">

	<rect width="100%" height="100%" fill="white" />
	<path d = "M 28.00 89.00 L 79.00 79.00 L 87.00 92.00 L 89.00 102.00 L 90.00 255.00 L 69.00 217.00 L 56.00 176.00 L 47.00 108.00 L 32.00 90.00 L 46.00 135.00 L 51.00 166.00" stroke="black" fill="transparent"/>
	<path d = "M 56.00 77.00 L 0.00 18.00 L 41.00 48.00 L 41.00 4.00 L 48.00 66.00 L 54.00 15.00 L 59.00 0.00 L 66.00 17.00 L 67.00 42.00 L 80.00 15.00 L 83.00 13.00 L 62.00 77.00" stroke="black" fill="transparent"/>
	<path d = "M 62.00 113.00 L 62.00 116.00 L 72.00 122.00 L 62.00 136.00 L 62.00 144.00 L 75.00 155.00 L 79.00 163.00 L 73.00 169.00 L 71.00 177.00 L 58.00 187.00 L 62.00 191.00" stroke="black" fill="transparent"/>
</svg>