<?xml version="1.0" encoding="UTF-8" standalone="no"?>
<!--Created with ndjsontosvg(https:https://github.com/thompson318/ndjsontosvg) 
	from the simplified Google quickdraw data set. key_id = 4632435939606528-->
<svg width="256" height="256"
	xmlns="http://www.w3.org/2000/svg"
	xmlns:ndjsontosvg="https://github.com/thompson318/ndjsontosvg"
	xmlns:quickdraw="https://quickdraw.withgoogle.com/data"
	xmlns:scikit-surgery="https://doi.org/10.1007/s11548-020-02180-5">

	<rect width="100%" height="100%" fill="white" />
	<path d = "M 15.00 73.00 L 78.00 72.00 L 88.00 77.00 L 94.00 87.00 L 93.00 106.00 L 65.00 220.00 L 49.00 247.00 L 38.00 254.00 L 29.00 253.00 L 25.00 243.00 L 19.00 197.00 L 4.00 143.00 L 0.00 104.00 L 0.00 91.00 L 6.00 77.00 L 12.00 75.00 L 20.00 77.00" stroke="black" fill="transparent"/>
	<path d = "M 39.00 67.00 L 24.00 29.00 L 30.00 28.00 L 36.00 51.00 L 37.00 22.00 L 44.00 31.00 L 46.00 23.00 L 46.00 0.00 L 47.00 37.00 L 53.00 28.00 L 55.00 35.00 L 53.00 70.00 L 66.00 24.00 L 47.00 59.00 L 52.00 55.00 L 61.00 41.00 L 45.00 61.00 L 56.00 32.00 L 54.00 30.00 L 50.00 36.00 L 45.00 56.00 L 39.00 38.00 L 38.00 61.00 L 41.00 47.00 L 34.00 25.00 L 41.00 42.00 L 47.00 51.00 L 48.00 47.00 L 41.00 28.00 L 39.00 32.00 L 38.00 55.00 L 42.00 68.00 L 46.00 69.00 L 48.00 49.00 L 44.00 26.00 L 42.00 46.00 L 37.00 54.00 L 27.00 30.00 L 33.00 57.00 L 17.00 36.00 L 24.00 57.00 L 27.00 60.00 L 28.00 55.00 L 22.00 36.00 L 24.00 51.00 L 26.00 54.00 L 29.00 53.00" stroke="black" fill="transparent"/>
</svg>