<?xml version="1.0" encoding="UTF-8" standalone="no"?>
<!--Created with ndjsontosvg(https:https://github.com/thompson318/ndjsontosvg) 
	from the simplified Google quickdraw data set. key_id = 6421355429888000-->
<svg width="256" height="256"
	xmlns="http://www.w3.org/2000/svg"
	xmlns:ndjsontosvg="https://github.com/thompson318/ndjsontosvg"
	xmlns:quickdraw="https://quickdraw.withgoogle.com/data"
	xmlns:scikit-surgery="https://doi.org/10.1007/s11548-020-02180-5">

	<rect width="100%" height="100%" fill="white" />
	<path d = "M 82.00 72.00 L 77.00 88.00 L 19.00 186.00 L 4.00 219.00 L 0.00 244.00 L 1.00 250.00 L 7.00 255.00 L 24.00 253.00 L 43.00 237.00 L 104.00 163.00 L 148.00 97.00 L 146.00 91.00 L 84.00 66.00" stroke="black" fill="transparent"/>
	<path d = "M 112.00 77.00 L 128.00 45.00 L 129.00 25.00 L 119.00 11.00 L 102.00 0.00" stroke="black" fill="transparent"/>
	<path d = "M 111.00 79.00 L 129.00 48.00 L 147.00 32.00 L 166.00 22.00 L 193.00 20.00" stroke="black" fill="transparent"/>
	<path d = "M 66.00 116.00 L 94.00 123.00" stroke="black" fill="transparent"/>
	<path d = "M 37.00 145.00 L 63.00 162.00" stroke="black" fill="transparent"/>
	<path d = "M 6.00 186.00 L 30.00 206.00" stroke="black" fill="transparent"/>
	<path d = "M 107.00 147.00 L 90.00 134.00" stroke="black" fill="transparent"/>
	<path d = "M 72.00 193.00 L 56.00 192.00 L 41.00 184.00" stroke="black" fill="transparent"/>
</svg>