<?xml version="1.0" encoding="UTF-8" standalone="no"?>
<!--Created with ndjsontosvg(https:https://github.com/thompson318/ndjsontosvg) 
	from the simplified Google quickdraw data set. key_id = 4508750339637248-->
<svg width="256" height="256"
	xmlns="http://www.w3.org/2000/svg"
	xmlns:ndjsontosvg="https://github.com/thompson318/ndjsontosvg"
	xmlns:quickdraw="https://quickdraw.withgoogle.com/data"
	xmlns:scikit-surgery="https://doi.org/10.1007/s11548-020-02180-5">

	<rect width="100%" height="100%" fill="white" />
	<path d = "M 60.00 6.00 L 0.00 15.00 L 10.00 22.00 L 25.00 26.00 L 68.00 28.00 L 82.00 41.00 L 91.00 55.00 L 100.00 59.00 L 159.00 62.00 L 192.00 68.00 L 231.00 67.00 L 239.00 64.00 L 248.00 55.00 L 255.00 31.00 L 236.00 18.00 L 184.00 5.00 L 106.00 0.00 L 59.00 0.00 L 58.00 3.00" stroke="black" fill="transparent"/>
	<path d = "M 143.00 62.00 L 143.00 96.00 L 139.00 105.00 L 114.00 113.00 L 94.00 125.00 L 100.00 133.00 L 124.00 140.00 L 153.00 141.00 L 229.00 133.00 L 230.00 124.00 L 222.00 110.00 L 172.00 99.00 L 164.00 86.00 L 166.00 66.00" stroke="black" fill="transparent"/>
</svg>