<?xml version="1.0" encoding="UTF-8" standalone="no"?>
<!--Created with ndjsontosvg(https:https://github.com/thompson318/ndjsontosvg) 
	from the simplified Google quickdraw data set. key_id = 6550980919296000-->
<svg width="256" height="256"
	xmlns="http://www.w3.org/2000/svg"
	xmlns:ndjsontosvg="https://github.com/thompson318/ndjsontosvg"
	xmlns:quickdraw="https://quickdraw.withgoogle.com/data"
	xmlns:scikit-surgery="https://doi.org/10.1007/s11548-020-02180-5">

	<rect width="100%" height="100%" fill="white" />
	<path d = "M 75.00 4.00 L 14.00 16.00 L 0.00 24.00 L 82.00 39.00" stroke="black" fill="transparent"/>
	<path d = "M 171.00 6.00 L 237.00 6.00 L 255.00 10.00 L 245.00 16.00 L 222.00 23.00 L 200.00 34.00" stroke="black" fill="transparent"/>
	<path d = "M 79.00 0.00 L 104.00 3.00 L 173.00 2.00 L 176.00 5.00 L 180.00 46.00 L 146.00 50.00 L 89.00 50.00 L 82.00 0.00" stroke="black" fill="transparent"/>
	<path d = "M 110.00 53.00 L 110.00 72.00 L 101.00 87.00 L 55.00 114.00 L 202.00 111.00 L 203.00 109.00 L 194.00 103.00 L 169.00 97.00 L 163.00 93.00 L 156.00 47.00" stroke="black" fill="transparent"/>
</svg>