<?xml version="1.0" encoding="UTF-8" standalone="no"?>
<!--Created with ndjsontosvg(https:https://github.com/thompson318/ndjsontosvg) 
	from the simplified Google quickdraw data set. key_id = 6463800125423616-->
<svg width="256" height="256"
	xmlns="http://www.w3.org/2000/svg"
	xmlns:ndjsontosvg="https://github.com/thompson318/ndjsontosvg"
	xmlns:quickdraw="https://quickdraw.withgoogle.com/data"
	xmlns:scikit-surgery="https://doi.org/10.1007/s11548-020-02180-5">

	<rect width="100%" height="100%" fill="white" />
	<path d = "M 22.00 237.00 L 57.00 244.00 L 165.00 255.00 L 168.00 249.00 L 168.00 225.00 L 176.00 192.00 L 170.00 188.00 L 101.00 187.00 L 35.00 177.00 L 30.00 184.00 L 30.00 229.00" stroke="black" fill="transparent"/>
	<path d = "M 82.00 175.00 L 79.00 163.00 L 79.00 106.00" stroke="black" fill="transparent"/>
	<path d = "M 120.00 176.00 L 122.00 91.00 L 128.00 89.00 L 180.00 104.00 L 224.00 110.00 L 230.00 82.00 L 240.00 52.00 L 244.00 10.00 L 125.00 11.00 L 79.00 2.00 L 1.00 0.00 L 4.00 90.00 L 49.00 97.00 L 85.00 98.00" stroke="black" fill="transparent"/>
</svg>