<?xml version="1.0" encoding="UTF-8" standalone="no"?>
<!--Created with ndjsontosvg(https:https://github.com/thompson318/ndjsontosvg) 
	from the simplified Google quickdraw data set. key_id = 5432409883410432-->
<svg width="256" height="256"
	xmlns="http://www.w3.org/2000/svg"
	xmlns:ndjsontosvg="https://github.com/thompson318/ndjsontosvg"
	xmlns:quickdraw="https://quickdraw.withgoogle.com/data"
	xmlns:scikit-surgery="https://doi.org/10.1007/s11548-020-02180-5">

	<rect width="100%" height="100%" fill="white" />
	<path d = "M 124.00 9.00 L 60.00 5.00 L 25.00 11.00 L 1.00 11.00 L 0.00 33.00 L 2.00 80.00 L 12.00 118.00 L 77.00 118.00 L 116.00 106.00 L 125.00 145.00 L 124.00 185.00 L 109.00 191.00 L 86.00 195.00 L 82.00 240.00 L 92.00 246.00 L 126.00 253.00 L 164.00 255.00 L 173.00 253.00 L 175.00 249.00 L 184.00 200.00 L 153.00 191.00 L 151.00 154.00 L 154.00 98.00 L 222.00 86.00 L 229.00 52.00 L 230.00 7.00 L 200.00 1.00 L 137.00 0.00 L 111.00 7.00" stroke="black" fill="transparent"/>
</svg>