<?xml version="1.0" encoding="UTF-8" standalone="no"?>
<!--Created with ndjsontosvg(https:https://github.com/thompson318/ndjsontosvg) 
	from the simplified Google quickdraw data set. key_id = 4890279347748864-->
<svg width="256" height="256"
	xmlns="http://www.w3.org/2000/svg"
	xmlns:ndjsontosvg="https://github.com/thompson318/ndjsontosvg"
	xmlns:quickdraw="https://quickdraw.withgoogle.com/data"
	xmlns:scikit-surgery="https://doi.org/10.1007/s11548-020-02180-5">

	<rect width="100%" height="100%" fill="white" />
	<path d = "M 39.00 0.00 L 60.00 5.00 L 164.00 5.00 L 225.00 1.00 L 231.00 14.00 L 237.00 53.00 L 225.00 60.00 L 198.00 64.00 L 181.00 95.00 L 174.00 120.00 L 198.00 121.00 L 237.00 114.00 L 253.00 114.00 L 255.00 118.00 L 255.00 159.00 L 251.00 169.00 L 249.00 172.00 L 229.00 178.00 L 144.00 178.00 L 110.00 177.00 L 88.00 173.00 L 8.00 172.00 L 4.00 168.00 L 0.00 149.00 L 0.00 89.00 L 5.00 84.00 L 18.00 80.00 L 51.00 94.00" stroke="black" fill="transparent"/>
</svg>