<?xml version="1.0" encoding="UTF-8" standalone="no"?>
<!--Created with ndjsontosvg(https:https://github.com/thompson318/ndjsontosvg) 
	from the simplified Google quickdraw data set. key_id = 4581035142545408-->
<svg width="256" height="256"
	xmlns="http://www.w3.org/2000/svg"
	xmlns:ndjsontosvg="https://github.com/thompson318/ndjsontosvg"
	xmlns:quickdraw="https://quickdraw.withgoogle.com/data"
	xmlns:scikit-surgery="https://doi.org/10.1007/s11548-020-02180-5">

	<rect width="100%" height="100%" fill="white" />
	<path d = "M 81.00 33.00 L 88.00 37.00 L 200.00 37.00 L 219.00 36.00 L 255.00 26.00 L 244.00 47.00 L 241.00 126.00 L 229.00 185.00 L 223.00 189.00 L 195.00 190.00 L 171.00 182.00 L 168.00 163.00 L 178.00 144.00 L 178.00 136.00 L 168.00 124.00 L 144.00 111.00 L 132.00 114.00 L 90.00 145.00 L 73.00 147.00 L 60.00 137.00 L 55.00 113.00 L 56.00 91.00 L 65.00 79.00 L 69.00 65.00 L 68.00 41.00 L 59.00 25.00" stroke="black" fill="transparent"/>
	<path d = "M 85.00 17.00 L 43.00 2.00 L 5.00 0.00 L 0.00 7.00 L 3.00 17.00 L 33.00 33.00 L 102.00 58.00" stroke="black" fill="transparent"/>
</svg>