<?xml version="1.0" encoding="UTF-8" standalone="no"?>
<!--Created with ndjsontosvg(https:https://github.com/thompson318/ndjsontosvg) 
	from the simplified Google quickdraw data set. key_id = 6182298443579392-->
<svg width="256" height="256"
	xmlns="http://www.w3.org/2000/svg"
	xmlns:ndjsontosvg="https://github.com/thompson318/ndjsontosvg"
	xmlns:quickdraw="https://quickdraw.withgoogle.com/data"
	xmlns:scikit-surgery="https://doi.org/10.1007/s11548-020-02180-5">

	<rect width="100%" height="100%" fill="white" />
	<path d = "M 2.00 20.00 L 11.00 17.00 L 126.00 1.00 L 197.00 5.00 L 199.00 10.00 L 238.00 46.00 L 255.00 55.00 L 208.00 89.00 L 155.00 94.00 L 174.00 94.00 L 174.00 121.00" stroke="black" fill="transparent"/>
	<path d = "M 81.00 102.00 L 83.00 125.00 L 38.00 137.00 L 26.00 143.00 L 25.00 149.00 L 28.00 178.00 L 32.00 181.00 L 101.00 167.00 L 177.00 169.00 L 215.00 165.00 L 209.00 136.00 L 201.00 129.00 L 153.00 139.00" stroke="black" fill="transparent"/>
	<path d = "M 76.00 103.00 L 29.00 100.00 L 8.00 105.00 L 3.00 97.00 L 1.00 35.00" stroke="black" fill="transparent"/>
</svg>