<?xml version="1.0" encoding="UTF-8" standalone="no"?>
<!--Created with ndjsontosvg(https:https://github.com/thompson318/ndjsontosvg) 
	from the simplified Google quickdraw data set. key_id = 5466511844048896-->
<svg width="256" height="256"
	xmlns="http://www.w3.org/2000/svg"
	xmlns:ndjsontosvg="https://github.com/thompson318/ndjsontosvg"
	xmlns:quickdraw="https://quickdraw.withgoogle.com/data"
	xmlns:scikit-surgery="https://doi.org/10.1007/s11548-020-02180-5">

	<rect width="100%" height="100%" fill="white" />
	<path d = "M 16.00 81.00 L 10.00 38.00 L 0.00 7.00 L 3.00 1.00 L 200.00 15.00 L 249.00 15.00 L 254.00 19.00 L 255.00 27.00 L 251.00 87.00 L 247.00 94.00 L 214.00 99.00 L 150.00 90.00 L 139.00 92.00 L 126.00 103.00 L 124.00 124.00 L 128.00 135.00 L 173.00 148.00 L 183.00 154.00 L 186.00 159.00 L 185.00 164.00 L 175.00 175.00 L 154.00 185.00 L 100.00 190.00 L 79.00 186.00 L 63.00 179.00 L 56.00 165.00 L 60.00 150.00 L 89.00 144.00 L 98.00 136.00 L 104.00 103.00 L 103.00 88.00 L 91.00 84.00 L 13.00 81.00" stroke="black" fill="transparent"/>
</svg>