<?xml version="1.0" encoding="UTF-8" standalone="no"?>
<!--Created with ndjsontosvg(https:https://github.com/thompson318/ndjsontosvg) 
	from the simplified Google quickdraw data set. key_id = 6001586348228608-->
<svg width="256" height="256"
	xmlns="http://www.w3.org/2000/svg"
	xmlns:ndjsontosvg="https://github.com/thompson318/ndjsontosvg"
	xmlns:quickdraw="https://quickdraw.withgoogle.com/data"
	xmlns:scikit-surgery="https://doi.org/10.1007/s11548-020-02180-5">

	<rect width="100%" height="100%" fill="white" />
	<path d = "M 57.00 120.00 L 47.00 101.00 L 41.00 102.00 L 37.00 108.00 L 36.00 119.00 L 38.00 122.00 L 53.00 130.00" stroke="black" fill="transparent"/>
	<path d = "M 49.00 128.00 L 66.00 133.00 L 78.00 142.00" stroke="black" fill="transparent"/>
	<path d = "M 57.00 113.00 L 68.00 126.00 L 83.00 135.00" stroke="black" fill="transparent"/>
	<path d = "M 82.00 131.00 L 78.00 143.00" stroke="black" fill="transparent"/>
	<path d = "M 79.00 139.00 L 97.00 153.00" stroke="black" fill="transparent"/>
	<path d = "M 100.00 153.00 L 53.00 230.00 L 43.00 255.00" stroke="black" fill="transparent"/>
	<path d = "M 98.00 158.00 L 108.00 228.00 L 108.00 245.00 L 103.00 255.00" stroke="black" fill="transparent"/>
	<path d = "M 103.00 152.00 L 46.00 155.00 L 0.00 172.00" stroke="black" fill="transparent"/>
	<path d = "M 110.00 157.00 L 144.00 146.00" stroke="black" fill="transparent"/>
	<path d = "M 106.00 152.00 L 118.00 110.00 L 141.00 56.00 L 145.00 35.00" stroke="black" fill="transparent"/>
	<path d = "M 105.00 160.00 L 139.00 211.00 L 145.00 235.00" stroke="black" fill="transparent"/>
	<path d = "M 109.00 158.00 L 105.00 152.00 L 92.00 64.00 L 89.00 16.00" stroke="black" fill="transparent"/>
	<path d = "M 100.00 141.00 L 75.00 112.00 L 64.00 88.00 L 58.00 56.00 L 60.00 0.00" stroke="black" fill="transparent"/>
</svg>