<?xml version="1.0" encoding="UTF-8" standalone="no"?>
<!--Created with ndjsontosvg(https:https://github.com/thompson318/ndjsontosvg) 
	from the simplified Google quickdraw data set. key_id = 5324770620997632-->
<svg width="256" height="256"
	xmlns="http://www.w3.org/2000/svg"
	xmlns:ndjsontosvg="https://github.com/thompson318/ndjsontosvg"
	xmlns:quickdraw="https://quickdraw.withgoogle.com/data"
	xmlns:scikit-surgery="https://doi.org/10.1007/s11548-020-02180-5">

	<rect width="100%" height="100%" fill="white" />
	<path d = "M 88.00 68.00 L 21.00 96.00 L 0.00 108.00 L 5.00 112.00 L 23.00 113.00 L 90.00 113.00 L 98.00 110.00" stroke="black" fill="transparent"/>
	<path d = "M 100.00 67.00 L 92.00 3.00 L 102.00 0.00 L 179.00 0.00 L 182.00 6.00 L 185.00 103.00 L 181.00 107.00 L 99.00 115.00 L 93.00 122.00" stroke="black" fill="transparent"/>
	<path d = "M 105.00 120.00 L 101.00 128.00 L 77.00 149.00 L 20.00 181.00 L 22.00 187.00 L 29.00 190.00 L 55.00 194.00 L 88.00 194.00 L 226.00 164.00 L 253.00 161.00 L 255.00 157.00 L 243.00 145.00 L 203.00 130.00 L 164.00 104.00" stroke="black" fill="transparent"/>
</svg>