<?xml version="1.0" encoding="UTF-8" standalone="no"?>
<!--Created with ndjsontosvg(https:https://github.com/thompson318/ndjsontosvg) 
	from the simplified Google quickdraw data set. key_id = 5831761395187712-->
<svg width="256" height="256"
	xmlns="http://www.w3.org/2000/svg"
	xmlns:ndjsontosvg="https://github.com/thompson318/ndjsontosvg"
	xmlns:quickdraw="https://quickdraw.withgoogle.com/data"
	xmlns:scikit-surgery="https://doi.org/10.1007/s11548-020-02180-5">

	<rect width="100%" height="100%" fill="white" />
	<path d = "M 0.00 0.00 L 103.00 2.00 L 164.00 5.00 L 191.00 12.00 L 218.00 12.00" stroke="black" fill="transparent"/>
	<path d = "M 5.00 11.00 L 5.00 43.00 L 11.00 93.00 L 85.00 91.00 L 171.00 82.00 L 221.00 82.00 L 207.00 14.00" stroke="black" fill="transparent"/>
	<path d = "M 100.00 87.00 L 101.00 136.00 L 98.00 144.00 L 90.00 153.00 L 71.00 162.00" stroke="black" fill="transparent"/>
	<path d = "M 164.00 87.00 L 164.00 110.00 L 173.00 142.00 L 179.00 154.00 L 193.00 166.00" stroke="black" fill="transparent"/>
	<path d = "M 4.00 157.00 L 58.00 155.00 L 114.00 143.00 L 154.00 139.00 L 242.00 152.00 L 251.00 205.00 L 253.00 255.00 L 123.00 251.00 L 105.00 246.00 L 32.00 246.00 L 13.00 234.00 L 5.00 224.00 L 2.00 159.00" stroke="black" fill="transparent"/>
</svg>