<?xml version="1.0" encoding="UTF-8" standalone="no"?>
<!--Created with ndjsontosvg(https:https://github.com/thompson318/ndjsontosvg) 
	from the simplified Google quickdraw data set. key_id = 5031901834248192-->
<svg width="256" height="256"
	xmlns="http://www.w3.org/2000/svg"
	xmlns:ndjsontosvg="https://github.com/thompson318/ndjsontosvg"
	xmlns:quickdraw="https://quickdraw.withgoogle.com/data"
	xmlns:scikit-surgery="https://doi.org/10.1007/s11548-020-02180-5">

	<rect width="100%" height="100%" fill="white" />
	<path d = "M 54.00 143.00 L 62.00 140.00 L 112.00 138.00 L 222.00 143.00 L 234.00 139.00 L 241.00 130.00 L 239.00 110.00 L 226.00 93.00 L 202.00 86.00 L 156.00 90.00 L 153.00 84.00 L 153.00 70.00 L 158.00 49.00 L 216.00 50.00 L 255.00 44.00 L 241.00 33.00 L 188.00 8.00 L 103.00 1.00 L 27.00 0.00 L 0.00 38.00 L 93.00 43.00 L 88.00 106.00 L 54.00 94.00 L 33.00 93.00 L 18.00 103.00 L 10.00 113.00 L 10.00 128.00 L 16.00 136.00 L 32.00 140.00 L 79.00 144.00" stroke="black" fill="transparent"/>
</svg>