<?xml version="1.0" encoding="UTF-8" standalone="no"?>
<!--Created with ndjsontosvg(https:https://github.com/thompson318/ndjsontosvg) 
	from the simplified Google quickdraw data set. key_id = 5423810520023040-->
<svg width="256" height="256"
	xmlns="http://www.w3.org/2000/svg"
	xmlns:ndjsontosvg="https://github.com/thompson318/ndjsontosvg"
	xmlns:quickdraw="https://quickdraw.withgoogle.com/data"
	xmlns:scikit-surgery="https://doi.org/10.1007/s11548-020-02180-5">

	<rect width="100%" height="100%" fill="white" />
	<path d = "M 8.00 117.00 L 54.00 100.00 L 62.00 93.00 L 69.00 69.00 L 68.00 61.00 L 65.00 58.00 L 41.00 53.00 L 3.00 36.00 L 0.00 15.00 L 8.00 6.00 L 18.00 3.00 L 181.00 4.00 L 207.00 0.00 L 254.00 0.00 L 254.00 12.00 L 237.00 28.00 L 208.00 44.00 L 180.00 53.00 L 142.00 58.00 L 139.00 65.00 L 140.00 74.00 L 162.00 92.00 L 194.00 109.00 L 196.00 113.00 L 188.00 116.00 L 178.00 120.00 L 128.00 118.00 L 82.00 110.00 L 59.00 109.00 L 16.00 98.00" stroke="black" fill="transparent"/>
</svg>