<?xml version="1.0" encoding="UTF-8" standalone="no"?>
<!--Created with ndjsontosvg(https:https://github.com/thompson318/ndjsontosvg) 
	from the simplified Google quickdraw data set. key_id = 5072588785057792-->
<svg width="256" height="256"
	xmlns="http://www.w3.org/2000/svg"
	xmlns:ndjsontosvg="https://github.com/thompson318/ndjsontosvg"
	xmlns:quickdraw="https://quickdraw.withgoogle.com/data"
	xmlns:scikit-surgery="https://doi.org/10.1007/s11548-020-02180-5">

	<rect width="100%" height="100%" fill="white" />
	<path d = "M 42.00 66.00 L 98.00 63.00 L 176.00 68.00 L 224.00 66.00 L 220.00 35.00 L 174.00 32.00 L 138.00 34.00 L 90.00 30.00 L 66.00 36.00 L 35.00 33.00 L 41.00 42.00 L 43.00 66.00 L 37.00 62.00 L 9.00 58.00 L 0.00 47.00 L 8.00 25.00 L 27.00 27.00 L 40.00 33.00" stroke="black" fill="transparent"/>
	<path d = "M 11.00 19.00 L 215.00 0.00 L 219.00 1.00 L 221.00 9.00 L 222.00 36.00" stroke="black" fill="transparent"/>
	<path d = "M 66.00 69.00 L 69.00 112.00 L 41.00 117.00 L 15.00 126.00 L 21.00 160.00 L 72.00 151.00 L 129.00 151.00 L 255.00 159.00 L 242.00 113.00 L 219.00 111.00" stroke="black" fill="transparent"/>
</svg>