<?xml version="1.0" encoding="UTF-8" standalone="no"?>
<!--Created with ndjsontosvg(https:https://github.com/thompson318/ndjsontosvg) 
	from the simplified Google quickdraw data set. key_id = 4996581851922432-->
<svg width="256" height="256"
	xmlns="http://www.w3.org/2000/svg"
	xmlns:ndjsontosvg="https://github.com/thompson318/ndjsontosvg"
	xmlns:quickdraw="https://quickdraw.withgoogle.com/data"
	xmlns:scikit-surgery="https://doi.org/10.1007/s11548-020-02180-5">

	<rect width="100%" height="100%" fill="white" />
	<path d = "M 31.00 36.00 L 59.00 23.00 L 87.00 3.00 L 112.00 36.00 L 95.00 43.00 L 26.00 55.00 L 23.00 35.00 L 32.00 34.00" stroke="black" fill="transparent"/>
	<path d = "M 21.00 36.00 L 0.00 50.00 L 4.00 53.00 L 27.00 51.00" stroke="black" fill="transparent"/>
	<path d = "M 89.00 0.00 L 154.00 5.00 L 152.00 11.00 L 113.00 36.00" stroke="black" fill="transparent"/>
	<path d = "M 47.00 50.00 L 42.00 77.00 L 33.00 93.00 L 44.00 93.00 L 72.00 87.00 L 104.00 85.00 L 104.00 80.00 L 84.00 46.00" stroke="black" fill="transparent"/>
	<path d = "M 183.00 137.00 L 207.00 97.00 L 240.00 115.00 L 255.00 131.00 L 240.00 138.00 L 207.00 142.00 L 178.00 140.00 L 183.00 131.00" stroke="black" fill="transparent"/>
	<path d = "M 176.00 99.00 L 209.00 96.00 L 243.00 86.00 L 246.00 84.00 L 243.00 83.00" stroke="black" fill="transparent"/>
</svg>