<?xml version="1.0" encoding="UTF-8" standalone="no"?>
<!--Created with ndjsontosvg(https:https://github.com/thompson318/ndjsontosvg) 
	from the simplified Google quickdraw data set. key_id = 5715853184073728-->
<svg width="256" height="256"
	xmlns="http://www.w3.org/2000/svg"
	xmlns:ndjsontosvg="https://github.com/thompson318/ndjsontosvg"
	xmlns:quickdraw="https://quickdraw.withgoogle.com/data"
	xmlns:scikit-surgery="https://doi.org/10.1007/s11548-020-02180-5">

	<rect width="100%" height="100%" fill="white" />
	<path d = "M 57.00 116.00 L 73.00 62.00 L 54.00 36.00 L 28.00 16.00 L 34.00 9.00 L 79.00 2.00 L 148.00 0.00 L 235.00 4.00 L 241.00 5.00 L 249.00 17.00 L 247.00 31.00 L 240.00 39.00 L 194.00 57.00 L 182.00 65.00 L 168.00 86.00 L 165.00 107.00 L 169.00 120.00 L 176.00 126.00 L 187.00 129.00 L 238.00 133.00 L 253.00 137.00 L 255.00 144.00 L 249.00 152.00 L 229.00 166.00 L 180.00 173.00 L 110.00 167.00 L 1.00 147.00 L 7.00 135.00 L 28.00 119.00 L 46.00 111.00 L 66.00 107.00 L 72.00 103.00 L 76.00 57.00" stroke="black" fill="transparent"/>
</svg>