<?xml version="1.0" encoding="UTF-8" standalone="no"?>
<!--Created with ndjsontosvg(https:https://github.com/thompson318/ndjsontosvg) 
	from the simplified Google quickdraw data set. key_id = 6651787220090880-->
<svg width="256" height="256"
	xmlns="http://www.w3.org/2000/svg"
	xmlns:ndjsontosvg="https://github.com/thompson318/ndjsontosvg"
	xmlns:quickdraw="https://quickdraw.withgoogle.com/data"
	xmlns:scikit-surgery="https://doi.org/10.1007/s11548-020-02180-5">

	<rect width="100%" height="100%" fill="white" />
	<path d = "M 22.00 243.00 L 29.00 220.00 L 44.00 139.00 L 64.00 89.00 L 76.00 86.00 L 127.00 84.00 L 153.00 169.00 L 169.00 245.00 L 126.00 249.00 L 57.00 249.00 L 35.00 255.00 L 12.00 252.00" stroke="black" fill="transparent"/>
	<path d = "M 78.00 146.00 L 82.00 147.00 L 93.00 139.00 L 103.00 139.00 L 113.00 143.00 L 117.00 148.00 L 117.00 158.00 L 113.00 162.00 L 91.00 159.00 L 85.00 148.00" stroke="black" fill="transparent"/>
	<path d = "M 100.00 148.00 L 99.00 148.00" stroke="black" fill="transparent"/>
	<path d = "M 61.00 87.00 L 35.00 90.00" stroke="black" fill="transparent"/>
	<path d = "M 59.00 85.00 L 56.00 25.00 L 58.00 20.00 L 98.00 7.00 L 159.00 0.00 L 160.00 5.00 L 143.00 52.00 L 142.00 75.00 L 138.00 87.00" stroke="black" fill="transparent"/>
	<path d = "M 132.00 79.00 L 192.00 77.00 L 220.00 72.00" stroke="black" fill="transparent"/>
	<path d = "M 52.00 93.00 L 0.00 96.00" stroke="black" fill="transparent"/>
</svg>