<?xml version="1.0" encoding="UTF-8" standalone="no"?>
<!--Created with ndjsontosvg(https:https://github.com/thompson318/ndjsontosvg) 
	from the simplified Google quickdraw data set. key_id = 4657392849518592-->
<svg width="256" height="256"
	xmlns="http://www.w3.org/2000/svg"
	xmlns:ndjsontosvg="https://github.com/thompson318/ndjsontosvg"
	xmlns:quickdraw="https://quickdraw.withgoogle.com/data"
	xmlns:scikit-surgery="https://doi.org/10.1007/s11548-020-02180-5">

	<rect width="100%" height="100%" fill="white" />
	<path d = "M 144.00 5.00 L 127.00 0.00 L 101.00 3.00 L 77.00 21.00 L 68.00 37.00 L 68.00 46.00 L 79.00 65.00 L 86.00 74.00 L 99.00 80.00 L 100.00 83.00 L 91.00 192.00 L 87.00 208.00 L 54.00 183.00 L 7.00 131.00 L 4.00 129.00 L 1.00 138.00 L 1.00 168.00 L 14.00 198.00 L 34.00 220.00 L 82.00 255.00 L 96.00 251.00 L 112.00 241.00 L 182.00 184.00 L 218.00 140.00 L 200.00 145.00 L 117.00 189.00 L 121.00 69.00 L 123.00 65.00 L 134.00 64.00 L 143.00 57.00 L 155.00 38.00 L 160.00 24.00 L 159.00 8.00 L 151.00 3.00 L 146.00 5.00" stroke="black" fill="transparent"/>
	<path d = "M 125.00 31.00 L 122.00 32.00 L 105.00 56.00 L 108.00 62.00 L 119.00 66.00 L 127.00 51.00 L 123.00 38.00 L 116.00 36.00 L 107.00 55.00 L 107.00 58.00 L 121.00 62.00 L 124.00 48.00 L 121.00 46.00" stroke="black" fill="transparent"/>
</svg>