<?xml version="1.0" encoding="UTF-8" standalone="no"?>
<!--Created with ndjsontosvg(https:https://github.com/thompson318/ndjsontosvg) 
	from the simplified Google quickdraw data set. key_id = 4505235412221952-->
<svg width="256" height="256"
	xmlns="http://www.w3.org/2000/svg"
	xmlns:ndjsontosvg="https://github.com/thompson318/ndjsontosvg"
	xmlns:quickdraw="https://quickdraw.withgoogle.com/data"
	xmlns:scikit-surgery="https://doi.org/10.1007/s11548-020-02180-5">

	<rect width="100%" height="100%" fill="white" />
	<path d = "M 20.00 123.00 L 6.00 134.00 L 1.00 143.00 L 1.00 152.00 L 9.00 165.00 L 25.00 162.00 L 30.00 158.00" stroke="black" fill="transparent"/>
	<path d = "M 27.00 120.00 L 96.00 64.00 L 103.00 64.00 L 120.00 74.00" stroke="black" fill="transparent"/>
	<path d = "M 117.00 75.00 L 119.00 83.00 L 35.00 156.00 L 55.00 140.00 L 83.00 171.00" stroke="black" fill="transparent"/>
	<path d = "M 100.00 101.00 L 120.00 122.00" stroke="black" fill="transparent"/>
	<path d = "M 65.00 199.00 L 68.00 192.00 L 104.00 151.00 L 144.00 109.00 L 152.00 134.00 L 163.00 155.00 L 161.00 166.00 L 146.00 177.00 L 98.00 198.00 L 77.00 214.00" stroke="black" fill="transparent"/>
	<path d = "M 109.00 68.00 L 124.00 32.00 L 126.00 0.00 L 130.00 47.00 L 126.00 78.00" stroke="black" fill="transparent"/>
	<path d = "M 69.00 202.00 L 73.00 205.00" stroke="black" fill="transparent"/>
	<path d = "M 21.00 255.00 L 52.00 246.00 L 86.00 225.00 L 180.00 119.00 L 219.00 80.00" stroke="black" fill="transparent"/>
</svg>