<?xml version="1.0" encoding="UTF-8" standalone="no"?>
<!--Created with ndjsontosvg(https:https://github.com/thompson318/ndjsontosvg) 
	from the simplified Google quickdraw data set. key_id = 6381635605889024-->
<svg width="256" height="256"
	xmlns="http://www.w3.org/2000/svg"
	xmlns:ndjsontosvg="https://github.com/thompson318/ndjsontosvg"
	xmlns:quickdraw="https://quickdraw.withgoogle.com/data"
	xmlns:scikit-surgery="https://doi.org/10.1007/s11548-020-02180-5">

	<rect width="100%" height="100%" fill="white" />
	<path d = "M 55.00 42.00 L 3.00 67.00 L 0.00 70.00 L 3.00 74.00 L 6.00 77.00 L 76.00 65.00" stroke="black" fill="transparent"/>
	<path d = "M 53.00 39.00 L 57.00 36.00 L 58.00 21.00 L 67.00 6.00 L 237.00 0.00 L 239.00 15.00 L 255.00 49.00 L 223.00 63.00 L 119.00 89.00 L 93.00 91.00 L 86.00 89.00 L 69.00 63.00" stroke="black" fill="transparent"/>
	<path d = "M 122.00 81.00 L 130.00 96.00 L 122.00 112.00 L 109.00 127.00 L 74.00 146.00 L 73.00 165.00 L 118.00 162.00 L 226.00 165.00 L 231.00 137.00 L 220.00 138.00 L 203.00 134.00 L 195.00 128.00 L 187.00 116.00 L 180.00 90.00 L 184.00 69.00" stroke="black" fill="transparent"/>
	<path d = "M 87.00 88.00 L 93.00 99.00 L 98.00 102.00 L 135.00 99.00 L 230.00 75.00 L 245.00 68.00 L 252.00 52.00" stroke="black" fill="transparent"/>
</svg>