<?xml version="1.0" encoding="UTF-8" standalone="no"?>
<!--Created with ndjsontosvg(https:https://github.com/thompson318/ndjsontosvg) 
	from the simplified Google quickdraw data set. key_id = 5341788975923200-->
<svg width="256" height="256"
	xmlns="http://www.w3.org/2000/svg"
	xmlns:ndjsontosvg="https://github.com/thompson318/ndjsontosvg"
	xmlns:quickdraw="https://quickdraw.withgoogle.com/data"
	xmlns:scikit-surgery="https://doi.org/10.1007/s11548-020-02180-5">

	<rect width="100%" height="100%" fill="white" />
	<path d = "M 40.00 7.00 L 208.00 15.00 L 208.00 44.00 L 215.00 72.00 L 190.00 72.00 L 161.00 79.00 L 133.00 96.00 L 125.00 108.00 L 126.00 121.00 L 139.00 141.00 L 149.00 148.00 L 184.00 164.00 L 198.00 205.00 L 207.00 255.00 L 200.00 249.00 L 182.00 246.00 L 84.00 246.00 L 0.00 242.00 L 4.00 171.00 L 56.00 168.00 L 88.00 159.00 L 96.00 151.00 L 102.00 141.00 L 107.00 121.00 L 105.00 103.00 L 93.00 95.00 L 72.00 90.00 L 34.00 87.00 L 22.00 78.00 L 20.00 49.00 L 24.00 0.00 L 61.00 1.00 L 94.00 7.00" stroke="black" fill="transparent"/>
</svg>