<?xml version="1.0" encoding="UTF-8" standalone="no"?>
<!--Created with ndjsontosvg(https:https://github.com/thompson318/ndjsontosvg) 
	from the simplified Google quickdraw data set. key_id = 6349819830337536-->
<svg width="256" height="256"
	xmlns="http://www.w3.org/2000/svg"
	xmlns:ndjsontosvg="https://github.com/thompson318/ndjsontosvg"
	xmlns:quickdraw="https://quickdraw.withgoogle.com/data"
	xmlns:scikit-surgery="https://doi.org/10.1007/s11548-020-02180-5">

	<rect width="100%" height="100%" fill="white" />
	<path d = "M 150.00 11.00 L 140.00 11.00 L 92.00 23.00 L 57.00 20.00 L 41.00 22.00 L 26.00 35.00 L 0.00 74.00 L 11.00 77.00 L 52.00 77.00 L 199.00 63.00" stroke="black" fill="transparent"/>
	<path d = "M 210.00 60.00 L 216.00 47.00 L 245.00 5.00 L 238.00 1.00 L 218.00 0.00 L 138.00 12.00" stroke="black" fill="transparent"/>
	<path d = "M 6.00 72.00 L 3.00 77.00 L 12.00 145.00 L 20.00 135.00" stroke="black" fill="transparent"/>
	<path d = "M 209.00 63.00 L 204.00 121.00" stroke="black" fill="transparent"/>
	<path d = "M 249.00 6.00 L 249.00 28.00 L 255.00 59.00 L 216.00 107.00" stroke="black" fill="transparent"/>
	<path d = "M 25.00 155.00 L 43.00 149.00 L 173.00 138.00 L 212.00 128.00" stroke="black" fill="transparent"/>
	<path d = "M 104.00 143.00 L 101.00 186.00 L 60.00 197.00 L 59.00 222.00 L 72.00 230.00 L 93.00 230.00 L 111.00 225.00 L 146.00 225.00 L 183.00 219.00 L 186.00 210.00 L 182.00 184.00 L 176.00 181.00 L 140.00 184.00 L 135.00 182.00 L 131.00 161.00 L 133.00 146.00" stroke="black" fill="transparent"/>
</svg>