<?xml version="1.0" encoding="UTF-8" standalone="no"?>
<!--Created with ndjsontosvg(https:https://github.com/thompson318/ndjsontosvg) 
	from the simplified Google quickdraw data set. key_id = 5249367218847744-->
<svg width="256" height="256"
	xmlns="http://www.w3.org/2000/svg"
	xmlns:ndjsontosvg="https://github.com/thompson318/ndjsontosvg"
	xmlns:quickdraw="https://quickdraw.withgoogle.com/data"
	xmlns:scikit-surgery="https://doi.org/10.1007/s11548-020-02180-5">

	<rect width="100%" height="100%" fill="white" />
	<path d = "M 135.00 106.00 L 137.00 115.00 L 137.00 153.00 L 134.00 198.00 L 183.00 192.00 L 165.00 147.00 L 159.00 95.00 L 134.00 102.00 L 116.00 116.00" stroke="black" fill="transparent"/>
	<path d = "M 126.00 100.00 L 123.00 94.00 L 110.00 88.00 L 88.00 87.00 L 82.00 89.00 L 75.00 100.00 L 75.00 112.00 L 81.00 120.00 L 92.00 128.00 L 107.00 131.00 L 108.00 121.00 L 89.00 84.00 L 85.00 80.00 L 82.00 81.00 L 75.00 100.00 L 77.00 120.00 L 89.00 132.00 L 110.00 132.00 L 118.00 127.00 L 121.00 116.00 L 112.00 87.00 L 120.00 95.00 L 128.00 99.00 L 151.00 100.00 L 163.00 96.00 L 177.00 81.00 L 183.00 54.00 L 181.00 28.00 L 181.00 49.00 L 184.00 60.00 L 192.00 71.00 L 204.00 72.00 L 220.00 62.00 L 236.00 27.00 L 218.00 36.00 L 213.00 44.00 L 211.00 69.00 L 215.00 81.00 L 214.00 65.00 L 205.00 49.00 L 174.00 24.00 L 153.00 15.00 L 145.00 14.00 L 139.00 18.00 L 130.00 29.00 L 125.00 44.00 L 123.00 73.00 L 128.00 84.00 L 134.00 85.00 L 137.00 77.00 L 125.00 58.00 L 114.00 49.00 L 92.00 39.00 L 84.00 39.00 L 73.00 50.00 L 59.00 82.00 L 60.00 93.00 L 65.00 98.00 L 80.00 102.00 L 91.00 101.00 L 93.00 96.00 L 92.00 84.00 L 75.00 64.00 L 57.00 59.00 L 46.00 59.00 L 37.00 64.00 L 34.00 70.00 L 35.00 86.00 L 50.00 108.00 L 60.00 114.00 L 75.00 117.00 L 73.00 101.00 L 67.00 90.00 L 55.00 80.00 L 43.00 77.00 L 39.00 80.00 L 38.00 100.00 L 58.00 124.00 L 95.00 145.00 L 123.00 147.00 L 141.00 134.00 L 151.00 117.00 L 153.00 95.00 L 149.00 84.00 L 146.00 83.00 L 133.00 107.00 L 129.00 123.00 L 131.00 128.00 L 166.00 115.00 L 206.00 87.00 L 212.00 73.00 L 210.00 60.00 L 199.00 52.00 L 181.00 54.00 L 172.00 64.00 L 169.00 82.00 L 179.00 96.00 L 198.00 104.00 L 221.00 105.00 L 240.00 99.00 L 254.00 85.00 L 255.00 77.00 L 250.00 69.00 L 231.00 55.00 L 203.00 43.00 L 182.00 37.00 L 147.00 33.00 L 135.00 43.00 L 126.00 68.00 L 126.00 86.00 L 134.00 94.00 L 155.00 96.00 L 169.00 90.00 L 192.00 72.00 L 198.00 62.00 L 197.00 55.00 L 180.00 41.00 L 154.00 29.00 L 131.00 22.00 L 115.00 21.00 L 106.00 30.00 L 103.00 47.00 L 108.00 61.00 L 116.00 71.00 L 133.00 84.00 L 156.00 91.00 L 174.00 92.00 L 178.00 88.00 L 175.00 76.00 L 166.00 66.00 L 152.00 60.00 L 129.00 60.00 L 98.00 67.00 L 81.00 78.00 L 77.00 84.00 L 77.00 95.00 L 89.00 103.00 L 111.00 105.00 L 119.00 102.00 L 130.00 85.00 L 135.00 50.00 L 134.00 37.00 L 126.00 23.00 L 90.00 21.00 L 79.00 24.00 L 62.00 38.00 L 51.00 65.00 L 51.00 84.00 L 56.00 100.00 L 68.00 120.00 L 73.00 123.00 L 78.00 123.00 L 96.00 102.00 L 105.00 80.00 L 103.00 65.00 L 91.00 48.00 L 75.00 41.00 L 42.00 39.00 L 15.00 57.00 L 4.00 73.00 L 0.00 90.00 L 1.00 106.00 L 7.00 112.00 L 20.00 114.00 L 35.00 113.00 L 53.00 107.00 L 64.00 98.00 L 79.00 80.00 L 82.00 58.00 L 75.00 49.00 L 68.00 48.00 L 63.00 52.00 L 59.00 65.00 L 63.00 73.00" stroke="black" fill="transparent"/>
	<path d = "M 112.00 51.00 L 97.00 55.00 L 91.00 66.00 L 94.00 79.00 L 112.00 102.00 L 150.00 37.00 L 152.00 29.00 L 146.00 28.00 L 131.00 47.00 L 130.00 61.00 L 138.00 67.00 L 149.00 69.00 L 160.00 65.00 L 160.00 60.00 L 158.00 60.00 L 158.00 65.00 L 172.00 72.00" stroke="black" fill="transparent"/>
	<path d = "M 137.00 88.00 L 117.00 104.00 L 109.00 118.00 L 102.00 140.00 L 104.00 159.00 L 116.00 162.00 L 127.00 156.00 L 154.00 122.00 L 166.00 82.00 L 168.00 45.00 L 165.00 34.00 L 157.00 15.00 L 146.00 5.00 L 135.00 0.00 L 101.00 4.00 L 72.00 26.00 L 62.00 46.00 L 57.00 65.00 L 62.00 87.00 L 77.00 99.00 L 96.00 103.00 L 127.00 101.00 L 151.00 90.00 L 174.00 71.00 L 197.00 33.00 L 196.00 16.00 L 186.00 10.00 L 162.00 9.00 L 122.00 21.00 L 90.00 39.00 L 68.00 60.00 L 65.00 69.00 L 68.00 76.00 L 89.00 89.00 L 113.00 98.00 L 155.00 106.00 L 193.00 103.00 L 211.00 98.00 L 220.00 91.00 L 32.00 113.00 L 55.00 117.00 L 89.00 117.00 L 117.00 112.00 L 160.00 96.00 L 200.00 75.00 L 157.00 69.00 L 103.00 67.00 L 69.00 68.00 L 48.00 75.00 L 38.00 82.00 L 35.00 107.00 L 40.00 120.00 L 51.00 131.00 L 76.00 145.00 L 102.00 150.00 L 126.00 149.00 L 136.00 137.00 L 138.00 116.00 L 130.00 100.00 L 116.00 94.00 L 85.00 91.00 L 63.00 100.00 L 52.00 111.00 L 43.00 133.00 L 45.00 145.00 L 54.00 145.00 L 67.00 133.00 L 76.00 106.00 L 75.00 102.00 L 67.00 98.00 L 42.00 100.00 L 20.00 114.00 L 12.00 129.00 L 6.00 145.00 L 5.00 161.00 L 9.00 176.00 L 17.00 179.00 L 25.00 177.00 L 35.00 167.00 L 43.00 153.00 L 41.00 144.00 L 20.00 143.00 L 6.00 155.00 L 3.00 165.00 L 15.00 168.00 L 37.00 157.00 L 21.00 172.00 L 19.00 179.00 L 26.00 182.00 L 66.00 180.00 L 81.00 175.00 L 87.00 171.00 L 88.00 161.00 L 83.00 155.00 L 73.00 148.00 L 61.00 147.00 L 41.00 154.00 L 37.00 158.00 L 38.00 162.00 L 62.00 166.00 L 73.00 159.00 L 73.00 163.00 L 80.00 170.00 L 95.00 173.00 L 101.00 165.00 L 99.00 154.00 L 95.00 151.00" stroke="black" fill="transparent"/>
	<path d = "M 226.00 100.00 L 208.00 94.00 L 187.00 94.00 L 169.00 112.00 L 161.00 129.00" stroke="black" fill="transparent"/>
</svg>