<?xml version="1.0" encoding="UTF-8" standalone="no"?>
<!--Created with ndjsontosvg(https:https://github.com/thompson318/ndjsontosvg) 
	from the simplified Google quickdraw data set. key_id = 5772297476505600-->
<svg width="256" height="256"
	xmlns="http://www.w3.org/2000/svg"
	xmlns:ndjsontosvg="https://github.com/thompson318/ndjsontosvg"
	xmlns:quickdraw="https://quickdraw.withgoogle.com/data"
	xmlns:scikit-surgery="https://doi.org/10.1007/s11548-020-02180-5">

	<rect width="100%" height="100%" fill="white" />
	<path d = "M 78.00 10.00 L 36.00 11.00 L 20.00 15.00 L 3.00 24.00 L 0.00 33.00 L 4.00 37.00 L 65.00 36.00" stroke="black" fill="transparent"/>
	<path d = "M 79.00 36.00 L 84.00 98.00 L 102.00 99.00 L 130.00 92.00 L 153.00 78.00 L 166.00 66.00 L 171.00 56.00 L 171.00 42.00 L 166.00 30.00 L 161.00 27.00 L 253.00 27.00 L 254.00 15.00 L 244.00 0.00 L 144.00 9.00 L 101.00 9.00 L 92.00 13.00 L 73.00 9.00" stroke="black" fill="transparent"/>
	<path d = "M 62.00 29.00 L 74.00 35.00" stroke="black" fill="transparent"/>
	<path d = "M 89.00 43.00 L 91.00 134.00 L 94.00 137.00 L 101.00 137.00 L 122.00 129.00" stroke="black" fill="transparent"/>
</svg>