<?xml version="1.0" encoding="UTF-8" standalone="no"?>
<!--Created with ndjsontosvg(https:https://github.com/thompson318/ndjsontosvg) 
	from the simplified Google quickdraw data set. key_id = 6422708495581184-->
<svg width="256" height="256"
	xmlns="http://www.w3.org/2000/svg"
	xmlns:ndjsontosvg="https://github.com/thompson318/ndjsontosvg"
	xmlns:quickdraw="https://quickdraw.withgoogle.com/data"
	xmlns:scikit-surgery="https://doi.org/10.1007/s11548-020-02180-5">

	<rect width="100%" height="100%" fill="white" />
	<path d = "M 80.00 180.00 L 88.00 182.00 L 218.00 188.00" stroke="black" fill="transparent"/>
	<path d = "M 73.00 175.00 L 78.00 168.00 L 83.00 146.00 L 110.00 117.00 L 115.00 59.00" stroke="black" fill="transparent"/>
	<path d = "M 222.00 184.00 L 200.00 174.00 L 179.00 157.00 L 175.00 79.00 L 168.00 74.00 L 163.00 60.00" stroke="black" fill="transparent"/>
	<path d = "M 11.00 42.00 L 86.00 44.00 L 116.00 53.00 L 152.00 53.00 L 190.00 59.00 L 233.00 59.00 L 247.00 55.00" stroke="black" fill="transparent"/>
	<path d = "M 0.00 30.00 L 3.00 0.00 L 124.00 7.00 L 168.00 18.00 L 202.00 22.00 L 255.00 23.00 L 255.00 60.00" stroke="black" fill="transparent"/>
</svg>