<?xml version="1.0" encoding="UTF-8" standalone="no"?>
<!--Created with ndjsontosvg(https:https://github.com/thompson318/ndjsontosvg) 
	from the simplified Google quickdraw data set. key_id = 5735142398099456-->
<svg width="256" height="256"
	xmlns="http://www.w3.org/2000/svg"
	xmlns:ndjsontosvg="https://github.com/thompson318/ndjsontosvg"
	xmlns:quickdraw="https://quickdraw.withgoogle.com/data"
	xmlns:scikit-surgery="https://doi.org/10.1007/s11548-020-02180-5">

	<rect width="100%" height="100%" fill="white" />
	<path d = "M 25.00 19.00 L 71.00 18.00 L 181.00 1.00 L 233.00 0.00 L 254.00 5.00 L 253.00 20.00 L 242.00 40.00 L 218.00 58.00 L 167.00 83.00 L 171.00 102.00 L 198.00 99.00 L 244.00 101.00 L 246.00 112.00 L 244.00 161.00 L 208.00 157.00 L 200.00 128.00 L 124.00 133.00 L 56.00 129.00 L 61.00 144.00 L 57.00 165.00 L 20.00 175.00 L 5.00 173.00 L 1.00 152.00 L 1.00 112.00 L 53.00 102.00 L 99.00 98.00 L 101.00 94.00 L 96.00 80.00 L 84.00 79.00" stroke="black" fill="transparent"/>
</svg>