<?xml version="1.0" encoding="UTF-8" standalone="no"?>
<!--Created with ndjsontosvg(https:https://github.com/thompson318/ndjsontosvg) 
	from the simplified Google quickdraw data set. key_id = 6509777280565248-->
<svg width="256" height="256"
	xmlns="http://www.w3.org/2000/svg"
	xmlns:ndjsontosvg="https://github.com/thompson318/ndjsontosvg"
	xmlns:quickdraw="https://quickdraw.withgoogle.com/data"
	xmlns:scikit-surgery="https://doi.org/10.1007/s11548-020-02180-5">

	<rect width="100%" height="100%" fill="white" />
	<path d = "M 67.00 20.00 L 27.00 39.00 L 11.00 52.00 L 0.00 69.00 L 17.00 80.00 L 37.00 89.00 L 77.00 97.00" stroke="black" fill="transparent"/>
	<path d = "M 71.00 8.00 L 81.00 5.00 L 162.00 0.00 L 219.00 0.00 L 225.00 2.00 L 236.00 101.00 L 219.00 98.00 L 141.00 98.00 L 95.00 88.00" stroke="black" fill="transparent"/>
	<path d = "M 121.00 90.00 L 122.00 173.00 L 168.00 169.00 L 192.00 161.00 L 195.00 155.00 L 188.00 103.00" stroke="black" fill="transparent"/>
	<path d = "M 199.00 186.00 L 153.00 173.00 L 81.00 165.00 L 72.00 244.00 L 99.00 254.00 L 147.00 255.00 L 188.00 251.00 L 225.00 242.00" stroke="black" fill="transparent"/>
</svg>