<?xml version="1.0" encoding="UTF-8" standalone="no"?>
<!--Created with ndjsontosvg(https:https://github.com/thompson318/ndjsontosvg) 
	from the simplified Google quickdraw data set. key_id = 4718287013281792-->
<svg width="256" height="256"
	xmlns="http://www.w3.org/2000/svg"
	xmlns:ndjsontosvg="https://github.com/thompson318/ndjsontosvg"
	xmlns:quickdraw="https://quickdraw.withgoogle.com/data"
	xmlns:scikit-surgery="https://doi.org/10.1007/s11548-020-02180-5">

	<rect width="100%" height="100%" fill="white" />
	<path d = "M 9.00 0.00 L 6.00 43.00 L 8.00 49.00 L 13.00 53.00 L 86.00 62.00 L 178.00 67.00 L 240.00 67.00 L 255.00 57.00 L 250.00 48.00 L 236.00 39.00 L 133.00 5.00 L 8.00 2.00" stroke="black" fill="transparent"/>
	<path d = "M 76.00 68.00 L 83.00 107.00 L 85.00 154.00 L 75.00 158.00 L 5.00 154.00 L 0.00 182.00 L 1.00 208.00 L 14.00 212.00 L 79.00 206.00 L 205.00 213.00 L 211.00 210.00 L 214.00 203.00 L 213.00 167.00 L 208.00 161.00 L 175.00 154.00 L 159.00 139.00 L 150.00 113.00 L 149.00 67.00" stroke="black" fill="transparent"/>
</svg>