<?xml version="1.0" encoding="UTF-8" standalone="no"?>
<!--Created with ndjsontosvg(https:https://github.com/thompson318/ndjsontosvg) 
	from the simplified Google quickdraw data set. key_id = 5511578763919360-->
<svg width="256" height="256"
	xmlns="http://www.w3.org/2000/svg"
	xmlns:ndjsontosvg="https://github.com/thompson318/ndjsontosvg"
	xmlns:quickdraw="https://quickdraw.withgoogle.com/data"
	xmlns:scikit-surgery="https://doi.org/10.1007/s11548-020-02180-5">

	<rect width="100%" height="100%" fill="white" />
	<path d = "M 85.00 75.00 L 86.00 105.00 L 91.00 122.00 L 91.00 159.00 L 81.00 167.00 L 58.00 173.00 L 51.00 178.00 L 48.00 193.00 L 57.00 198.00 L 108.00 195.00 L 115.00 188.00 L 122.00 187.00 L 187.00 184.00 L 193.00 153.00 L 184.00 147.00 L 153.00 145.00 L 138.00 156.00 L 132.00 148.00 L 127.00 121.00 L 128.00 75.00 L 136.00 71.00 L 181.00 71.00 L 216.00 62.00 L 238.00 48.00 L 255.00 25.00 L 251.00 19.00 L 232.00 11.00 L 227.00 3.00 L 218.00 0.00 L 139.00 0.00 L 116.00 6.00 L 52.00 6.00 L 0.00 40.00" stroke="black" fill="transparent"/>
</svg>