<?xml version="1.0" encoding="UTF-8" standalone="no"?>
<!--Created with ndjsontosvg(https:https://github.com/thompson318/ndjsontosvg) 
	from the simplified Google quickdraw data set. key_id = 5719902461624320-->
<svg width="256" height="256"
	xmlns="http://www.w3.org/2000/svg"
	xmlns:ndjsontosvg="https://github.com/thompson318/ndjsontosvg"
	xmlns:quickdraw="https://quickdraw.withgoogle.com/data"
	xmlns:scikit-surgery="https://doi.org/10.1007/s11548-020-02180-5">

	<rect width="100%" height="100%" fill="white" />
	<path d = "M 79.00 192.00 L 65.00 192.00 L 47.00 198.00 L 21.00 201.00 L 5.00 212.00 L 0.00 221.00 L 2.00 239.00 L 7.00 244.00 L 30.00 250.00 L 83.00 255.00 L 123.00 255.00 L 151.00 251.00 L 188.00 237.00 L 204.00 223.00 L 203.00 209.00 L 194.00 200.00 L 160.00 199.00 L 151.00 194.00 L 142.00 171.00 L 139.00 154.00 L 139.00 81.00 L 199.00 76.00 L 207.00 62.00 L 213.00 31.00 L 213.00 7.00 L 207.00 2.00 L 191.00 0.00 L 112.00 0.00 L 87.00 4.00 L 31.00 3.00 L 23.00 8.00 L 16.00 19.00 L 1.00 60.00 L 73.00 61.00 L 83.00 58.00 L 89.00 62.00 L 100.00 125.00 L 100.00 146.00 L 73.00 192.00" stroke="black" fill="transparent"/>
</svg>