<?xml version="1.0" encoding="UTF-8" standalone="no"?>
<!--Created with ndjsontosvg(https:https://github.com/thompson318/ndjsontosvg) 
	from the simplified Google quickdraw data set. key_id = 5254204861972480-->
<svg width="256" height="256"
	xmlns="http://www.w3.org/2000/svg"
	xmlns:ndjsontosvg="https://github.com/thompson318/ndjsontosvg"
	xmlns:quickdraw="https://quickdraw.withgoogle.com/data"
	xmlns:scikit-surgery="https://doi.org/10.1007/s11548-020-02180-5">

	<rect width="100%" height="100%" fill="white" />
	<path d = "M 90.00 42.00 L 93.00 59.00 L 91.00 95.00 L 88.00 98.00 L 57.00 109.00 L 54.00 111.00 L 55.00 114.00 L 76.00 123.00 L 96.00 127.00 L 138.00 127.00 L 155.00 121.00 L 164.00 113.00 L 165.00 107.00 L 158.00 98.00 L 133.00 101.00 L 125.00 94.00 L 118.00 62.00 L 120.00 37.00 L 162.00 44.00 L 204.00 40.00 L 243.00 26.00 L 255.00 3.00 L 253.00 0.00 L 210.00 0.00 L 191.00 3.00 L 58.00 3.00 L 19.00 7.00 L 1.00 2.00 L 71.00 31.00 L 89.00 45.00" stroke="black" fill="transparent"/>
</svg>