<?xml version="1.0" encoding="UTF-8" standalone="no"?>
<!--Created with ndjsontosvg(https:https://github.com/thompson318/ndjsontosvg) 
	from the simplified Google quickdraw data set. key_id = 5446969105317888-->
<svg width="256" height="256"
	xmlns="http://www.w3.org/2000/svg"
	xmlns:ndjsontosvg="https://github.com/thompson318/ndjsontosvg"
	xmlns:quickdraw="https://quickdraw.withgoogle.com/data"
	xmlns:scikit-surgery="https://doi.org/10.1007/s11548-020-02180-5">

	<rect width="100%" height="100%" fill="white" />
	<path d = "M 0.00 0.00 L 2.00 68.00" stroke="black" fill="transparent"/>
	<path d = "M 3.00 6.00 L 17.00 3.00 L 157.00 7.00 L 178.00 5.00 L 184.00 11.00 L 186.00 25.00 L 180.00 55.00 L 177.00 61.00 L 169.00 64.00 L 99.00 64.00 L 24.00 70.00" stroke="black" fill="transparent"/>
	<path d = "M 195.00 23.00 L 255.00 49.00 L 178.00 56.00" stroke="black" fill="transparent"/>
	<path d = "M 33.00 73.00 L 58.00 89.00 L 62.00 101.00 L 61.00 108.00 L 40.00 133.00 L 14.00 151.00 L 90.00 153.00 L 158.00 159.00 L 181.00 158.00 L 186.00 157.00 L 166.00 148.00 L 145.00 131.00 L 134.00 110.00 L 132.00 98.00 L 134.00 82.00 L 150.00 65.00" stroke="black" fill="transparent"/>
</svg>