<?xml version="1.0" encoding="UTF-8" standalone="no"?>
<!--Created with ndjsontosvg(https:https://github.com/thompson318/ndjsontosvg) 
	from the simplified Google quickdraw data set. key_id = 5509263982067712-->
<svg width="256" height="256"
	xmlns="http://www.w3.org/2000/svg"
	xmlns:ndjsontosvg="https://github.com/thompson318/ndjsontosvg"
	xmlns:quickdraw="https://quickdraw.withgoogle.com/data"
	xmlns:scikit-surgery="https://doi.org/10.1007/s11548-020-02180-5">

	<rect width="100%" height="100%" fill="white" />
	<path d = "M 99.00 109.00 L 93.00 153.00 L 88.00 164.00 L 67.00 167.00 L 37.00 162.00 L 26.00 163.00 L 16.00 172.00 L 9.00 183.00 L 7.00 196.00 L 10.00 204.00 L 23.00 209.00 L 48.00 211.00 L 175.00 215.00 L 190.00 215.00 L 201.00 210.00 L 208.00 198.00 L 209.00 186.00 L 200.00 173.00 L 162.00 166.00 L 147.00 160.00 L 139.00 141.00 L 139.00 113.00 L 240.00 106.00 L 249.00 101.00 L 253.00 94.00 L 255.00 78.00 L 250.00 66.00 L 236.00 57.00 L 207.00 52.00 L 6.00 51.00 L 1.00 58.00 L 0.00 74.00 L 13.00 101.00 L 22.00 111.00 L 32.00 115.00 L 50.00 116.00 L 93.00 109.00" stroke="black" fill="transparent"/>
	<path d = "M 183.00 0.00 L 187.00 38.00" stroke="black" fill="transparent"/>
	<path d = "M 122.00 4.00 L 124.00 46.00" stroke="black" fill="transparent"/>
</svg>