<?xml version="1.0" encoding="UTF-8" standalone="no"?>
<!--Created with ndjsontosvg(https:https://github.com/thompson318/ndjsontosvg) 
	from the simplified Google quickdraw data set. key_id = 6688246996140032-->
<svg width="256" height="256"
	xmlns="http://www.w3.org/2000/svg"
	xmlns:ndjsontosvg="https://github.com/thompson318/ndjsontosvg"
	xmlns:quickdraw="https://quickdraw.withgoogle.com/data"
	xmlns:scikit-surgery="https://doi.org/10.1007/s11548-020-02180-5">

	<rect width="100%" height="100%" fill="white" />
	<path d = "M 217.00 6.00 L 167.00 7.00 L 119.00 17.00 L 82.00 18.00 L 87.00 34.00 L 88.00 101.00 L 110.00 97.00 L 176.00 102.00 L 224.00 101.00 L 240.00 45.00 L 244.00 9.00 L 228.00 4.00 L 193.00 0.00" stroke="black" fill="transparent"/>
	<path d = "M 100.00 105.00 L 94.00 125.00 L 85.00 136.00 L 66.00 146.00 L 48.00 151.00" stroke="black" fill="transparent"/>
	<path d = "M 220.00 94.00 L 218.00 115.00 L 219.00 142.00 L 228.00 150.00 L 250.00 150.00" stroke="black" fill="transparent"/>
	<path d = "M 61.00 154.00 L 255.00 150.00 L 246.00 188.00 L 247.00 205.00 L 171.00 213.00 L 90.00 212.00 L 67.00 207.00 L 16.00 206.00 L 12.00 204.00 L 24.00 186.00 L 27.00 143.00" stroke="black" fill="transparent"/>
	<path d = "M 94.00 17.00 L 71.00 24.00 L 15.00 21.00 L 0.00 31.00 L 0.00 56.00 L 13.00 73.00 L 57.00 81.00" stroke="black" fill="transparent"/>
</svg>