<?xml version="1.0" encoding="UTF-8" standalone="no"?>
<!--Created with ndjsontosvg(https:https://github.com/thompson318/ndjsontosvg) 
	from the simplified Google quickdraw data set. key_id = 6141386510303232-->
<svg width="256" height="256"
	xmlns="http://www.w3.org/2000/svg"
	xmlns:ndjsontosvg="https://github.com/thompson318/ndjsontosvg"
	xmlns:quickdraw="https://quickdraw.withgoogle.com/data"
	xmlns:scikit-surgery="https://doi.org/10.1007/s11548-020-02180-5">

	<rect width="100%" height="100%" fill="white" />
	<path d = "M 66.00 183.00 L 68.00 186.00 L 144.00 185.00 L 168.00 192.00 L 183.00 206.00 L 190.00 225.00 L 192.00 238.00 L 181.00 247.00 L 143.00 254.00 L 47.00 254.00 L 18.00 247.00 L 6.00 238.00 L 0.00 226.00 L 0.00 214.00 L 3.00 207.00 L 19.00 189.00 L 72.00 195.00 L 83.00 119.00 L 83.00 84.00 L 63.00 77.00 L 10.00 71.00 L 9.00 42.00 L 27.00 5.00 L 35.00 0.00 L 51.00 4.00 L 113.00 11.00 L 176.00 13.00 L 186.00 22.00 L 223.00 32.00 L 222.00 77.00 L 220.00 84.00 L 213.00 86.00 L 135.00 87.00 L 126.00 91.00 L 122.00 131.00 L 125.00 165.00 L 123.00 196.00" stroke="black" fill="transparent"/>
</svg>