<?xml version="1.0" encoding="UTF-8" standalone="no"?>
<!--Created with ndjsontosvg(https:https://github.com/thompson318/ndjsontosvg) 
	from the simplified Google quickdraw data set. key_id = 6252227687612416-->
<svg width="256" height="256"
	xmlns="http://www.w3.org/2000/svg"
	xmlns:ndjsontosvg="https://github.com/thompson318/ndjsontosvg"
	xmlns:quickdraw="https://quickdraw.withgoogle.com/data"
	xmlns:scikit-surgery="https://doi.org/10.1007/s11548-020-02180-5">

	<rect width="100%" height="100%" fill="white" />
	<path d = "M 150.00 101.00 L 124.00 131.00 L 100.00 147.00 L 83.00 154.00 L 64.00 159.00 L 0.00 157.00 L 0.00 26.00 L 2.00 9.00 L 17.00 0.00 L 81.00 1.00 L 132.00 16.00 L 195.00 45.00 L 255.00 102.00 L 255.00 158.00 L 82.00 159.00 L 28.00 147.00 L 6.00 136.00 L 0.00 122.00 L 1.00 79.00 L 9.00 66.00 L 40.00 44.00 L 85.00 29.00 L 139.00 19.00 L 188.00 19.00 L 222.00 21.00 L 230.00 25.00 L 216.00 36.00 L 178.00 54.00 L 117.00 73.00 L 39.00 84.00 L 1.00 86.00 L 0.00 51.00 L 24.00 21.00 L 46.00 6.00 L 108.00 0.00 L 137.00 0.00 L 111.00 0.00 L 0.00 83.00 L 0.00 144.00 L 35.00 125.00 L 132.00 90.00 L 133.00 80.00 L 127.00 106.00 L 114.00 137.00 L 99.00 153.00 L 50.00 159.00 L 0.00 159.00 L 89.00 122.00 L 93.00 0.00 L 19.00 49.00 L 0.00 69.00 L 0.00 121.00 L 0.00 116.00 L 7.00 109.00 L 83.00 70.00 L 83.00 58.00 L 75.00 46.00 L 21.00 44.00 L 5.00 47.00 L 1.00 51.00 L 2.00 158.00 L 5.00 152.00 L 1.00 140.00 L 88.00 88.00 L 88.00 76.00 L 92.00 70.00 L 112.00 78.00 L 120.00 78.00 L 90.00 105.00 L 37.00 144.00 L 0.00 159.00 L 51.00 137.00 L 82.00 115.00 L 89.00 92.00 L 86.00 79.00 L 58.00 103.00 L 10.00 136.00 L 1.00 159.00 L 57.00 125.00 L 102.00 87.00 L 110.00 74.00 L 109.00 18.00 L 84.00 0.00 L 0.00 62.00 L 3.00 83.00 L 52.00 56.00 L 147.00 11.00 L 146.00 5.00 L 155.00 0.00 L 129.00 28.00 L 109.00 46.00 L 0.00 119.00 L 1.00 140.00 L 123.00 90.00 L 143.00 64.00 L 174.00 61.00 L 139.00 96.00 L 89.00 138.00 L 27.00 159.00 L 0.00 159.00 L 101.00 112.00 L 122.00 97.00 L 138.00 65.00 L 138.00 31.00 L 109.00 57.00 L 57.00 93.00 L 22.00 111.00 L 0.00 141.00 L 0.00 156.00 L 31.00 130.00 L 95.00 88.00 L 192.00 33.00 L 122.00 85.00 L 25.00 137.00 L 2.00 159.00 L 78.00 120.00 L 104.00 88.00 L 102.00 70.00 L 71.00 104.00 L 15.00 144.00 L 0.00 159.00 L 135.00 91.00 L 234.00 47.00 L 255.00 29.00 L 242.00 51.00 L 211.00 89.00 L 187.00 109.00 L 110.00 159.00 L 91.00 159.00 L 246.00 78.00 L 255.00 19.00 L 224.00 56.00 L 174.00 99.00 L 115.00 141.00 L 103.00 144.00 L 92.00 155.00 L 112.00 138.00 L 186.00 86.00 L 254.00 24.00 L 254.00 0.00 L 203.00 46.00 L 146.00 89.00 L 80.00 132.00 L 47.00 149.00 L 4.00 159.00 L 36.00 134.00 L 233.00 12.00 L 136.00 74.00 L 71.00 110.00 L 0.00 138.00 L 43.00 104.00 L 175.00 29.00 L 187.00 0.00 L 167.00 10.00 L 131.00 38.00 L 40.00 99.00 L 0.00 135.00 L 0.00 159.00 L 70.00 114.00 L 131.00 80.00 L 253.00 26.00 L 232.00 45.00 L 164.00 95.00 L 101.00 134.00 L 21.00 159.00 L 15.00 156.00 L 221.00 68.00 L 255.00 43.00 L 170.00 98.00 L 113.00 129.00 L 51.00 156.00 L 95.00 119.00 L 244.00 25.00 L 238.00 22.00 L 105.00 94.00 L 25.00 131.00 L 1.00 141.00 L 53.00 105.00 L 90.00 120.00 L 101.00 117.00 L 85.00 134.00 L 54.00 159.00 L 0.00 159.00 L 111.00 100.00 L 235.00 41.00 L 172.00 89.00 L 71.00 148.00 L 0.00 159.00 L 39.00 130.00 L 186.00 47.00 L 239.00 23.00 L 255.00 11.00 L 157.00 83.00 L 58.00 149.00 L 0.00 159.00 L 33.00 130.00 L 78.00 97.00 L 159.00 47.00 L 235.00 7.00 L 119.00 90.00 L 49.00 130.00 L 101.00 91.00 L 142.00 66.00 L 185.00 45.00 L 234.00 25.00 L 205.00 55.00" stroke="black" fill="transparent"/>
</svg>