<?xml version="1.0" encoding="UTF-8" standalone="no"?>
<!--Created with ndjsontosvg(https:https://github.com/thompson318/ndjsontosvg) 
	from the simplified Google quickdraw data set. key_id = 5355190515400704-->
<svg width="256" height="256"
	xmlns="http://www.w3.org/2000/svg"
	xmlns:ndjsontosvg="https://github.com/thompson318/ndjsontosvg"
	xmlns:quickdraw="https://quickdraw.withgoogle.com/data"
	xmlns:scikit-surgery="https://doi.org/10.1007/s11548-020-02180-5">

	<rect width="100%" height="100%" fill="white" />
	<path d = "M 50.00 198.00 L 107.00 190.00 L 188.00 188.00 L 198.00 185.00 L 201.00 175.00 L 200.00 158.00 L 195.00 149.00 L 156.00 144.00 L 147.00 138.00 L 137.00 68.00 L 205.00 80.00 L 234.00 79.00 L 253.00 75.00 L 255.00 61.00 L 248.00 35.00 L 223.00 17.00 L 193.00 6.00 L 159.00 2.00 L 97.00 0.00 L 49.00 7.00 L 10.00 9.00 L 1.00 14.00 L 0.00 58.00 L 2.00 69.00 L 7.00 72.00 L 40.00 70.00 L 84.00 57.00 L 86.00 71.00 L 81.00 97.00 L 59.00 112.00 L 48.00 128.00 L 46.00 159.00 L 54.00 190.00" stroke="black" fill="transparent"/>
</svg>