<?xml version="1.0" encoding="UTF-8" standalone="no"?>
<!--Created with ndjsontosvg(https:https://github.com/thompson318/ndjsontosvg) 
	from the simplified Google quickdraw data set. key_id = 4780558016053248-->
<svg width="256" height="256"
	xmlns="http://www.w3.org/2000/svg"
	xmlns:ndjsontosvg="https://github.com/thompson318/ndjsontosvg"
	xmlns:quickdraw="https://quickdraw.withgoogle.com/data"
	xmlns:scikit-surgery="https://doi.org/10.1007/s11548-020-02180-5">

	<rect width="100%" height="100%" fill="white" />
	<path d = "M 8.00 27.00 L 8.00 57.00 L 17.00 94.00 L 24.00 96.00 L 134.00 96.00 L 188.00 89.00" stroke="black" fill="transparent"/>
	<path d = "M 0.00 30.00 L 121.00 7.00 L 187.00 0.00 L 216.00 1.00 L 217.00 38.00 L 200.00 93.00" stroke="black" fill="transparent"/>
	<path d = "M 6.00 105.00 L 21.00 144.00" stroke="black" fill="transparent"/>
	<path d = "M 200.00 96.00 L 200.00 112.00 L 212.00 139.00" stroke="black" fill="transparent"/>
	<path d = "M 233.00 11.00 L 232.00 24.00 L 246.00 61.00" stroke="black" fill="transparent"/>
	<path d = "M 215.00 132.00 L 227.00 96.00 L 255.00 45.00" stroke="black" fill="transparent"/>
	<path d = "M 10.00 147.00 L 19.00 151.00 L 69.00 146.00 L 86.00 149.00 L 89.00 208.00" stroke="black" fill="transparent"/>
	<path d = "M 210.00 140.00 L 202.00 143.00 L 155.00 145.00 L 131.00 153.00 L 124.00 171.00 L 124.00 194.00 L 133.00 207.00" stroke="black" fill="transparent"/>
	<path d = "M 88.00 214.00 L 32.00 224.00 L 18.00 229.00 L 28.00 236.00 L 67.00 239.00 L 173.00 241.00 L 181.00 229.00 L 182.00 216.00 L 171.00 211.00 L 130.00 210.00" stroke="black" fill="transparent"/>
</svg>