<?xml version="1.0" encoding="UTF-8" standalone="no"?>
<!--Created with ndjsontosvg(https:https://github.com/thompson318/ndjsontosvg) 
	from the simplified Google quickdraw data set. key_id = 5326989894352896-->
<svg width="256" height="256"
	xmlns="http://www.w3.org/2000/svg"
	xmlns:ndjsontosvg="https://github.com/thompson318/ndjsontosvg"
	xmlns:quickdraw="https://quickdraw.withgoogle.com/data"
	xmlns:scikit-surgery="https://doi.org/10.1007/s11548-020-02180-5">

	<rect width="100%" height="100%" fill="white" />
	<path d = "M 43.00 7.00 L 36.00 41.00 L 37.00 70.00 L 66.00 76.00 L 92.00 73.00 L 100.00 80.00 L 108.00 97.00 L 108.00 132.00 L 99.00 137.00 L 78.00 139.00 L 16.00 152.00 L 1.00 160.00 L 0.00 164.00 L 19.00 193.00 L 29.00 199.00 L 50.00 201.00 L 140.00 198.00 L 172.00 191.00 L 190.00 181.00 L 199.00 170.00 L 202.00 150.00 L 184.00 133.00 L 153.00 128.00 L 150.00 70.00 L 162.00 64.00 L 181.00 61.00 L 213.00 71.00 L 255.00 78.00 L 254.00 61.00 L 244.00 29.00 L 235.00 11.00 L 203.00 0.00 L 181.00 1.00 L 150.00 8.00 L 70.00 8.00 L 52.00 41.00" stroke="black" fill="transparent"/>
</svg>