<?xml version="1.0" encoding="UTF-8" standalone="no"?>
<!--Created with ndjsontosvg(https:https://github.com/thompson318/ndjsontosvg) 
	from the simplified Google quickdraw data set. key_id = 5844994864709632-->
<svg width="256" height="256"
	xmlns="http://www.w3.org/2000/svg"
	xmlns:ndjsontosvg="https://github.com/thompson318/ndjsontosvg"
	xmlns:quickdraw="https://quickdraw.withgoogle.com/data"
	xmlns:scikit-surgery="https://doi.org/10.1007/s11548-020-02180-5">

	<rect width="100%" height="100%" fill="white" />
	<path d = "M 136.00 1.00 L 141.00 0.00 L 137.00 12.00 L 120.00 21.00 L 122.00 16.00 L 129.00 13.00 L 184.00 2.00 L 205.00 2.00 L 229.00 8.00 L 243.00 18.00 L 250.00 28.00 L 255.00 38.00 L 253.00 48.00 L 232.00 64.00 L 204.00 76.00 L 176.00 81.00 L 65.00 83.00 L 20.00 97.00 L 10.00 96.00 L 4.00 85.00 L 0.00 67.00 L 0.00 56.00 L 3.00 51.00 L 15.00 45.00 L 53.00 42.00 L 79.00 35.00 L 126.00 14.00 L 130.00 15.00" stroke="black" fill="transparent"/>
	<path d = "M 111.00 81.00 L 89.00 98.00 L 89.00 109.00 L 96.00 125.00 L 134.00 156.00 L 159.00 166.00 L 166.00 154.00 L 176.00 120.00 L 166.00 95.00 L 156.00 80.00" stroke="black" fill="transparent"/>
	<path d = "M 88.00 96.00 L 116.00 167.00 L 125.00 176.00 L 131.00 181.00 L 146.00 182.00 L 186.00 173.00 L 192.00 169.00 L 194.00 160.00 L 166.00 88.00 L 166.00 75.00" stroke="black" fill="transparent"/>
</svg>