<?xml version="1.0" encoding="UTF-8" standalone="no"?>
<!--Created with ndjsontosvg(https:https://github.com/thompson318/ndjsontosvg) 
	from the simplified Google quickdraw data set. key_id = 4652118696787968-->
<svg width="256" height="256"
	xmlns="http://www.w3.org/2000/svg"
	xmlns:ndjsontosvg="https://github.com/thompson318/ndjsontosvg"
	xmlns:quickdraw="https://quickdraw.withgoogle.com/data"
	xmlns:scikit-surgery="https://doi.org/10.1007/s11548-020-02180-5">

	<rect width="100%" height="100%" fill="white" />
	<path d = "M 60.00 157.00 L 45.00 166.00 L 38.00 175.00 L 40.00 189.00 L 48.00 194.00 L 156.00 195.00 L 176.00 189.00 L 184.00 176.00 L 181.00 162.00 L 169.00 155.00 L 147.00 153.00 L 143.00 146.00 L 139.00 102.00 L 145.00 68.00 L 152.00 56.00 L 166.00 49.00 L 233.00 38.00 L 255.00 31.00 L 247.00 5.00 L 223.00 0.00 L 142.00 7.00 L 49.00 10.00 L 13.00 17.00 L 3.00 29.00 L 1.00 44.00 L 62.00 41.00 L 70.00 47.00 L 77.00 59.00 L 79.00 118.00 L 76.00 141.00 L 71.00 159.00 L 61.00 161.00 L 55.00 168.00" stroke="black" fill="transparent"/>
</svg>