<?xml version="1.0" encoding="UTF-8" standalone="no"?>
<!--Created with ndjsontosvg(https:https://github.com/thompson318/ndjsontosvg) 
	from the simplified Google quickdraw data set. key_id = 4849528077287424-->
<svg width="256" height="256"
	xmlns="http://www.w3.org/2000/svg"
	xmlns:ndjsontosvg="https://github.com/thompson318/ndjsontosvg"
	xmlns:quickdraw="https://quickdraw.withgoogle.com/data"
	xmlns:scikit-surgery="https://doi.org/10.1007/s11548-020-02180-5">

	<rect width="100%" height="100%" fill="white" />
	<path d = "M 24.00 15.00 L 14.00 20.00 L 5.00 37.00 L 0.00 53.00 L 1.00 77.00 L 4.00 83.00 L 12.00 87.00 L 55.00 102.00 L 65.00 99.00 L 72.00 92.00 L 75.00 60.00 L 70.00 43.00 L 53.00 24.00 L 25.00 4.00 L 19.00 4.00 L 12.00 16.00" stroke="black" fill="transparent"/>
	<path d = "M 73.00 40.00 L 78.00 31.00 L 129.00 5.00 L 142.00 2.00 L 186.00 0.00 L 204.00 4.00 L 245.00 24.00 L 255.00 42.00 L 255.00 52.00 L 242.00 67.00 L 196.00 88.00 L 183.00 91.00 L 167.00 91.00 L 149.00 96.00 L 73.00 100.00 L 63.00 95.00 L 61.00 85.00" stroke="black" fill="transparent"/>
	<path d = "M 84.00 103.00 L 76.00 106.00 L 64.00 130.00 L 64.00 143.00 L 77.00 143.00 L 91.00 127.00 L 103.00 103.00 L 117.00 93.00 L 123.00 84.00" stroke="black" fill="transparent"/>
	<path d = "M 144.00 93.00 L 128.00 91.00 L 120.00 97.00 L 107.00 127.00 L 104.00 141.00 L 116.00 141.00 L 120.00 134.00" stroke="black" fill="transparent"/>
	<path d = "M 128.00 112.00 L 129.00 100.00 L 140.00 85.00" stroke="black" fill="transparent"/>
	<path d = "M 127.00 92.00 L 125.00 105.00 L 109.00 139.00" stroke="black" fill="transparent"/>
	<path d = "M 190.00 94.00 L 191.00 130.00 L 195.00 133.00 L 201.00 127.00 L 202.00 74.00" stroke="black" fill="transparent"/>
	<path d = "M 231.00 69.00 L 232.00 110.00 L 235.00 122.00 L 240.00 121.00 L 246.00 106.00 L 246.00 64.00 L 242.00 52.00" stroke="black" fill="transparent"/>
	<path d = "M 111.00 28.00 L 124.00 40.00 L 152.00 42.00 L 178.00 25.00 L 176.00 20.00 L 158.00 9.00 L 142.00 6.00 L 133.00 9.00 L 129.00 14.00 L 129.00 32.00 L 134.00 38.00 L 149.00 43.00 L 163.00 41.00 L 166.00 38.00" stroke="black" fill="transparent"/>
</svg>