<?xml version="1.0" encoding="UTF-8" standalone="no"?>
<!--Created with ndjsontosvg(https:https://github.com/thompson318/ndjsontosvg) 
	from the simplified Google quickdraw data set. key_id = 4640082269044736-->
<svg width="256" height="256"
	xmlns="http://www.w3.org/2000/svg"
	xmlns:ndjsontosvg="https://github.com/thompson318/ndjsontosvg"
	xmlns:quickdraw="https://quickdraw.withgoogle.com/data"
	xmlns:scikit-surgery="https://doi.org/10.1007/s11548-020-02180-5">

	<rect width="100%" height="100%" fill="white" />
	<path d = "M 59.00 45.00 L 82.00 49.00 L 99.00 56.00 L 107.00 62.00 L 113.00 72.00 L 112.00 128.00 L 102.00 156.00 L 92.00 174.00" stroke="black" fill="transparent"/>
	<path d = "M 250.00 46.00 L 250.00 51.00 L 234.00 72.00 L 227.00 88.00 L 221.00 110.00 L 221.00 124.00 L 232.00 145.00 L 244.00 159.00 L 254.00 167.00 L 216.00 181.00 L 163.00 188.00 L 125.00 188.00 L 100.00 182.00" stroke="black" fill="transparent"/>
	<path d = "M 59.00 43.00 L 39.00 43.00 L 18.00 51.00 L 0.00 51.00 L 6.00 50.00 L 37.00 26.00 L 68.00 11.00 L 100.00 8.00 L 155.00 9.00 L 183.00 1.00 L 214.00 0.00 L 232.00 5.00 L 245.00 32.00 L 249.00 51.00" stroke="black" fill="transparent"/>
</svg>