<?xml version="1.0" encoding="UTF-8" standalone="no"?>
<!--Created with ndjsontosvg(https:https://github.com/thompson318/ndjsontosvg) 
	from the simplified Google quickdraw data set. key_id = 4810475789352960-->
<svg width="256" height="256"
	xmlns="http://www.w3.org/2000/svg"
	xmlns:ndjsontosvg="https://github.com/thompson318/ndjsontosvg"
	xmlns:quickdraw="https://quickdraw.withgoogle.com/data"
	xmlns:scikit-surgery="https://doi.org/10.1007/s11548-020-02180-5">

	<rect width="100%" height="100%" fill="white" />
	<path d = "M 91.00 165.00 L 50.00 160.00 L 33.00 163.00 L 24.00 176.00 L 25.00 184.00 L 32.00 190.00 L 101.00 196.00 L 173.00 196.00 L 189.00 192.00 L 200.00 183.00 L 204.00 175.00 L 199.00 163.00 L 191.00 157.00 L 171.00 156.00 L 145.00 160.00 L 126.00 159.00 L 144.00 56.00 L 169.00 63.00 L 203.00 65.00 L 233.00 60.00 L 248.00 54.00 L 255.00 48.00 L 254.00 39.00 L 239.00 24.00 L 202.00 10.00 L 147.00 8.00 L 99.00 0.00 L 60.00 9.00 L 28.00 10.00 L 0.00 27.00 L 7.00 33.00 L 27.00 40.00 L 102.00 55.00 L 105.00 65.00 L 106.00 97.00 L 99.00 148.00 L 94.00 159.00" stroke="black" fill="transparent"/>
</svg>