<?xml version="1.0" encoding="UTF-8" standalone="no"?>
<!--Created with ndjsontosvg(https:https://github.com/thompson318/ndjsontosvg) 
	from the simplified Google quickdraw data set. key_id = 5247933488300032-->
<svg width="256" height="256"
	xmlns="http://www.w3.org/2000/svg"
	xmlns:ndjsontosvg="https://github.com/thompson318/ndjsontosvg"
	xmlns:quickdraw="https://quickdraw.withgoogle.com/data"
	xmlns:scikit-surgery="https://doi.org/10.1007/s11548-020-02180-5">

	<rect width="100%" height="100%" fill="white" />
	<path d = "M 88.00 171.00 L 89.00 131.00 L 85.00 118.00 L 72.00 99.00 L 56.00 82.00 L 40.00 71.00 L 0.00 58.00 L 13.00 53.00 L 61.00 53.00 L 88.00 15.00 L 106.00 1.00 L 119.00 1.00 L 139.00 8.00" stroke="black" fill="transparent"/>
	<path d = "M 56.00 52.00 L 74.00 50.00 L 129.00 56.00 L 185.00 53.00 L 203.00 57.00 L 255.00 57.00 L 235.00 68.00 L 189.00 83.00 L 171.00 99.00 L 157.00 129.00 L 152.00 183.00 L 139.00 183.00 L 89.00 173.00 L 88.00 192.00 L 92.00 206.00 L 159.00 204.00 L 167.00 197.00 L 158.00 183.00" stroke="black" fill="transparent"/>
</svg>