<?xml version="1.0" encoding="UTF-8" standalone="no"?>
<!--Created with ndjsontosvg(https:https://github.com/thompson318/ndjsontosvg) 
	from the simplified Google quickdraw data set. key_id = 5462953962766336-->
<svg width="256" height="256"
	xmlns="http://www.w3.org/2000/svg"
	xmlns:ndjsontosvg="https://github.com/thompson318/ndjsontosvg"
	xmlns:quickdraw="https://quickdraw.withgoogle.com/data"
	xmlns:scikit-surgery="https://doi.org/10.1007/s11548-020-02180-5">

	<rect width="100%" height="100%" fill="white" />
	<path d = "M 59.00 152.00 L 66.00 116.00 L 59.00 143.00 L 40.00 158.00 L 40.00 165.00 L 47.00 171.00 L 114.00 179.00 L 154.00 179.00 L 154.00 172.00 L 141.00 151.00 L 141.00 137.00 L 150.00 90.00 L 206.00 80.00 L 245.00 85.00 L 250.00 77.00 L 255.00 29.00" stroke="black" fill="transparent"/>
	<path d = "M 254.00 19.00 L 250.00 26.00 L 249.00 9.00 L 234.00 1.00 L 219.00 0.00 L 205.00 0.00 L 176.00 7.00 L 29.00 4.00 L 17.00 17.00 L 0.00 48.00 L 0.00 69.00 L 14.00 92.00 L 39.00 109.00 L 61.00 117.00" stroke="black" fill="transparent"/>
</svg>