<?xml version="1.0" encoding="UTF-8" standalone="no"?>
<!--Created with ndjsontosvg(https:https://github.com/thompson318/ndjsontosvg) 
	from the simplified Google quickdraw data set. key_id = 5620379110342656-->
<svg width="256" height="256"
	xmlns="http://www.w3.org/2000/svg"
	xmlns:ndjsontosvg="https://github.com/thompson318/ndjsontosvg"
	xmlns:quickdraw="https://quickdraw.withgoogle.com/data"
	xmlns:scikit-surgery="https://doi.org/10.1007/s11548-020-02180-5">

	<rect width="100%" height="100%" fill="white" />
	<path d = "M 2.00 55.00 L 67.00 36.00 L 84.00 53.00 L 102.00 56.00 L 114.00 51.00 L 120.00 43.00 L 121.00 32.00 L 117.00 22.00 L 221.00 0.00 L 216.00 3.00 L 216.00 11.00 L 233.00 90.00" stroke="black" fill="transparent"/>
	<path d = "M 0.00 54.00 L 11.00 118.00 L 58.00 127.00 L 77.00 139.00 L 83.00 150.00 L 87.00 166.00 L 86.00 185.00 L 43.00 193.00 L 50.00 216.00 L 56.00 217.00 L 120.00 201.00 L 192.00 191.00 L 255.00 177.00 L 240.00 120.00 L 195.00 139.00 L 183.00 142.00 L 168.00 139.00 L 163.00 128.00 L 157.00 92.00 L 229.00 66.00" stroke="black" fill="transparent"/>
</svg>