<?xml version="1.0" encoding="UTF-8" standalone="no"?>
<!--Created with ndjsontosvg(https:https://github.com/thompson318/ndjsontosvg) 
	from the simplified Google quickdraw data set. key_id = 5027286841556992-->
<svg width="256" height="256"
	xmlns="http://www.w3.org/2000/svg"
	xmlns:ndjsontosvg="https://github.com/thompson318/ndjsontosvg"
	xmlns:quickdraw="https://quickdraw.withgoogle.com/data"
	xmlns:scikit-surgery="https://doi.org/10.1007/s11548-020-02180-5">

	<rect width="100%" height="100%" fill="white" />
	<path d = "M 0.00 218.00 L 22.00 220.00 L 37.00 227.00 L 64.00 228.00 L 255.00 211.00" stroke="black" fill="transparent"/>
	<path d = "M 76.00 220.00 L 95.00 138.00 L 135.00 31.00 L 141.00 0.00 L 150.00 63.00 L 159.00 79.00 L 166.00 117.00 L 180.00 150.00 L 186.00 191.00 L 201.00 224.00" stroke="black" fill="transparent"/>
	<path d = "M 94.00 212.00 L 104.00 167.00 L 111.00 149.00 L 119.00 80.00 L 127.00 59.00 L 141.00 41.00 L 143.00 30.00 L 142.00 134.00 L 180.00 202.00 L 191.00 232.00" stroke="black" fill="transparent"/>
	<path d = "M 109.00 122.00 L 127.00 120.00 L 137.00 104.00 L 147.00 97.00 L 150.00 99.00 L 162.00 124.00 L 172.00 128.00 L 185.00 128.00" stroke="black" fill="transparent"/>
	<path d = "M 75.00 162.00 L 130.00 159.00 L 158.00 150.00" stroke="black" fill="transparent"/>
</svg>