<?xml version="1.0" encoding="UTF-8" standalone="no"?>
<!--Created with ndjsontosvg(https:https://github.com/thompson318/ndjsontosvg) 
	from the simplified Google quickdraw data set. key_id = 5690451338199040-->
<svg width="256" height="256"
	xmlns="http://www.w3.org/2000/svg"
	xmlns:ndjsontosvg="https://github.com/thompson318/ndjsontosvg"
	xmlns:quickdraw="https://quickdraw.withgoogle.com/data"
	xmlns:scikit-surgery="https://doi.org/10.1007/s11548-020-02180-5">

	<rect width="100%" height="100%" fill="white" />
	<path d = "M 0.00 209.00 L 21.00 181.00 L 55.00 121.00 L 87.00 46.00 L 101.00 0.00 L 119.00 34.00 L 147.00 113.00 L 188.00 209.00 L 196.00 255.00 L 187.00 235.00" stroke="black" fill="transparent"/>
	<path d = "M 54.00 135.00 L 92.00 135.00 L 129.00 131.00" stroke="black" fill="transparent"/>
	<path d = "M 189.00 248.00 L 173.00 225.00 L 164.00 172.00 L 157.00 151.00 L 137.00 125.00 L 115.00 107.00 L 107.00 97.00 L 102.00 72.00 L 104.00 56.00 L 105.00 73.00 L 101.00 86.00 L 84.00 110.00 L 68.00 141.00 L 57.00 152.00 L 36.00 160.00 L 25.00 168.00 L 16.00 179.00 L 7.00 198.00" stroke="black" fill="transparent"/>
</svg>