<?xml version="1.0" encoding="UTF-8" standalone="no"?>
<!--Created with ndjsontosvg(https:https://github.com/thompson318/ndjsontosvg) 
	from the simplified Google quickdraw data set. key_id = 5647889722245120-->
<svg width="256" height="256"
	xmlns="http://www.w3.org/2000/svg"
	xmlns:ndjsontosvg="https://github.com/thompson318/ndjsontosvg"
	xmlns:quickdraw="https://quickdraw.withgoogle.com/data"
	xmlns:scikit-surgery="https://doi.org/10.1007/s11548-020-02180-5">

	<rect width="100%" height="100%" fill="white" />
	<path d = "M 0.00 254.00 L 35.00 133.00 L 50.00 89.00 L 75.00 33.00 L 82.00 1.00 L 97.00 51.00 L 128.00 123.00 L 152.00 168.00 L 191.00 231.00 L 188.00 233.00 L 133.00 231.00 L 95.00 134.00 L 90.00 112.00 L 91.00 95.00 L 82.00 80.00 L 31.00 245.00 L 20.00 254.00 L 2.00 254.00 L 6.00 251.00" stroke="black" fill="transparent"/>
	<path d = "M 16.00 250.00 L 19.00 232.00 L 58.00 107.00 L 73.00 46.00 L 82.00 27.00 L 91.00 18.00" stroke="black" fill="transparent"/>
	<path d = "M 167.00 234.00 L 165.00 217.00 L 157.00 203.00 L 105.00 134.00 L 95.00 107.00 L 79.00 78.00 L 63.00 39.00" stroke="black" fill="transparent"/>
</svg>