<?xml version="1.0" encoding="UTF-8" standalone="no"?>
<!--Created with ndjsontosvg(https:https://github.com/thompson318/ndjsontosvg) 
	from the simplified Google quickdraw data set. key_id = 5766416324100096-->
<svg width="256" height="256"
	xmlns="http://www.w3.org/2000/svg"
	xmlns:ndjsontosvg="https://github.com/thompson318/ndjsontosvg"
	xmlns:quickdraw="https://quickdraw.withgoogle.com/data"
	xmlns:scikit-surgery="https://doi.org/10.1007/s11548-020-02180-5">

	<rect width="100%" height="100%" fill="white" />
	<path d = "M 0.00 230.00 L 15.00 195.00 L 61.00 112.00 L 99.00 50.00 L 137.00 0.00 L 143.00 33.00 L 204.00 222.00 L 199.00 221.00" stroke="black" fill="transparent"/>
	<path d = "M 16.00 226.00 L 19.00 224.00 L 46.00 226.00 L 56.00 213.00 L 64.00 208.00 L 66.00 218.00 L 59.00 250.00 L 86.00 255.00 L 90.00 212.00 L 176.00 216.00 L 178.00 217.00 L 173.00 225.00 L 173.00 253.00 L 201.00 253.00 L 197.00 238.00 L 197.00 215.00" stroke="black" fill="transparent"/>
	<path d = "M 106.00 49.00 L 106.00 136.00 L 109.00 198.00" stroke="black" fill="transparent"/>
	<path d = "M 156.00 13.00 L 158.00 36.00 L 148.00 110.00 L 153.00 222.00" stroke="black" fill="transparent"/>
	<path d = "M 35.00 117.00 L 57.00 123.00 L 192.00 130.00" stroke="black" fill="transparent"/>
	<path d = "M 34.00 149.00 L 105.00 152.00 L 197.00 165.00" stroke="black" fill="transparent"/>
	<path d = "M 32.00 170.00 L 125.00 179.00 L 219.00 179.00" stroke="black" fill="transparent"/>
</svg>