<?xml version="1.0" encoding="UTF-8" standalone="no"?>
<!--Created with ndjsontosvg(https:https://github.com/thompson318/ndjsontosvg) 
	from the simplified Google quickdraw data set. key_id = 5471432681193472-->
<svg width="256" height="256"
	xmlns="http://www.w3.org/2000/svg"
	xmlns:ndjsontosvg="https://github.com/thompson318/ndjsontosvg"
	xmlns:quickdraw="https://quickdraw.withgoogle.com/data"
	xmlns:scikit-surgery="https://doi.org/10.1007/s11548-020-02180-5">

	<rect width="100%" height="100%" fill="white" />
	<path d = "M 159.00 212.00 L 142.00 152.00 L 118.00 111.00 L 82.00 34.00 L 73.00 24.00 L 62.00 57.00 L 29.00 186.00 L 18.00 247.00 L 14.00 255.00" stroke="black" fill="transparent"/>
	<path d = "M 118.00 101.00 L 118.00 99.00" stroke="black" fill="transparent"/>
	<path d = "M 115.00 87.00 L 42.00 94.00" stroke="black" fill="transparent"/>
	<path d = "M 118.00 119.00 L 41.00 141.00" stroke="black" fill="transparent"/>
	<path d = "M 131.00 152.00 L 109.00 163.00 L 43.00 179.00" stroke="black" fill="transparent"/>
	<path d = "M 97.00 53.00 L 46.00 64.00" stroke="black" fill="transparent"/>
	<path d = "M 164.00 211.00 L 171.00 189.00 L 171.00 178.00 L 150.00 101.00 L 142.00 86.00 L 111.00 52.00 L 98.00 17.00 L 85.00 0.00 L 35.00 48.00 L 25.00 64.00 L 12.00 99.00 L 5.00 134.00 L 1.00 185.00 L 1.00 231.00 L 4.00 255.00" stroke="black" fill="transparent"/>
	<path d = "M 14.00 246.00 L 20.00 249.00" stroke="black" fill="transparent"/>
</svg>