<?xml version="1.0" encoding="UTF-8" standalone="no"?>
<!--Created with ndjsontosvg(https:https://github.com/thompson318/ndjsontosvg) 
	from the simplified Google quickdraw data set. key_id = 5716269791707136-->
<svg width="256" height="256"
	xmlns="http://www.w3.org/2000/svg"
	xmlns:ndjsontosvg="https://github.com/thompson318/ndjsontosvg"
	xmlns:quickdraw="https://quickdraw.withgoogle.com/data"
	xmlns:scikit-surgery="https://doi.org/10.1007/s11548-020-02180-5">

	<rect width="100%" height="100%" fill="white" />
	<path d = "M 47.00 18.00 L 47.00 98.00 L 36.00 167.00 L 26.00 201.00 L 0.00 255.00 L 10.00 248.00 L 23.00 245.00 L 46.00 248.00 L 46.00 235.00 L 63.00 183.00 L 68.00 181.00 L 105.00 187.00 L 107.00 202.00 L 112.00 216.00 L 134.00 244.00 L 152.00 252.00 L 170.00 239.00 L 151.00 180.00 L 125.00 140.00 L 101.00 93.00 L 82.00 42.00 L 74.00 1.00 L 70.00 1.00 L 60.00 21.00" stroke="black" fill="transparent"/>
	<path d = "M 76.00 71.00 L 68.00 131.00 L 78.00 135.00 L 101.00 136.00 L 102.00 126.00 L 93.00 101.00" stroke="black" fill="transparent"/>
</svg>