<?xml version="1.0" encoding="UTF-8" standalone="no"?>
<!--Created with ndjsontosvg(https:https://github.com/thompson318/ndjsontosvg) 
	from the simplified Google quickdraw data set. key_id = 5942899998982144-->
<svg width="256" height="256"
	xmlns="http://www.w3.org/2000/svg"
	xmlns:ndjsontosvg="https://github.com/thompson318/ndjsontosvg"
	xmlns:quickdraw="https://quickdraw.withgoogle.com/data"
	xmlns:scikit-surgery="https://doi.org/10.1007/s11548-020-02180-5">

	<rect width="100%" height="100%" fill="white" />
	<path d = "M 184.00 251.00 L 115.00 103.00 L 67.00 12.00 L 57.00 109.00 L 36.00 193.00 L 18.00 247.00" stroke="black" fill="transparent"/>
	<path d = "M 145.00 180.00 L 154.00 176.00 L 150.00 175.00 L 48.00 178.00 L 24.00 173.00" stroke="black" fill="transparent"/>
	<path d = "M 55.00 128.00 L 50.00 152.00 L 38.00 179.00 L 0.00 253.00 L 28.00 254.00 L 31.00 247.00 L 60.00 114.00 L 66.00 26.00 L 71.00 0.00" stroke="black" fill="transparent"/>
	<path d = "M 72.00 26.00 L 76.00 35.00 L 81.00 71.00 L 83.00 250.00 L 86.00 255.00 L 99.00 254.00 L 93.00 189.00 L 86.00 5.00" stroke="black" fill="transparent"/>
	<path d = "M 67.00 12.00 L 74.00 16.00 L 97.00 49.00 L 172.00 194.00" stroke="black" fill="transparent"/>
</svg>