<?xml version="1.0" encoding="UTF-8" standalone="no"?>
<!--Created with ndjsontosvg(https:https://github.com/thompson318/ndjsontosvg) 
	from the simplified Google quickdraw data set. key_id = 4889008825958400-->
<svg width="256" height="256"
	xmlns="http://www.w3.org/2000/svg"
	xmlns:ndjsontosvg="https://github.com/thompson318/ndjsontosvg"
	xmlns:quickdraw="https://quickdraw.withgoogle.com/data"
	xmlns:scikit-surgery="https://doi.org/10.1007/s11548-020-02180-5">

	<rect width="100%" height="100%" fill="white" />
	<path d = "M 0.00 162.00 L 21.00 163.00 L 43.00 157.00 L 83.00 134.00 L 97.00 121.00 L 158.00 36.00 L 169.00 14.00 L 172.00 0.00" stroke="black" fill="transparent"/>
	<path d = "M 228.00 182.00 L 189.00 127.00 L 182.00 110.00 L 173.00 69.00 L 170.00 20.00" stroke="black" fill="transparent"/>
	<path d = "M 120.00 56.00 L 125.00 52.00 L 148.00 48.00 L 175.00 47.00 L 191.00 50.00" stroke="black" fill="transparent"/>
	<path d = "M 109.00 92.00 L 196.00 79.00" stroke="black" fill="transparent"/>
	<path d = "M 96.00 124.00 L 168.00 113.00 L 192.00 113.00 L 206.00 118.00" stroke="black" fill="transparent"/>
	<path d = "M 61.00 145.00 L 92.00 149.00 L 135.00 150.00 L 212.00 139.00 L 255.00 137.00" stroke="black" fill="transparent"/>
	<path d = "M 174.00 24.00 L 156.00 101.00 L 152.00 171.00" stroke="black" fill="transparent"/>
</svg>