<?xml version="1.0" encoding="UTF-8" standalone="no"?>
<!--Created with ndjsontosvg(https:https://github.com/thompson318/ndjsontosvg) 
	from the simplified Google quickdraw data set. key_id = 6727058266783744-->
<svg width="256" height="256"
	xmlns="http://www.w3.org/2000/svg"
	xmlns:ndjsontosvg="https://github.com/thompson318/ndjsontosvg"
	xmlns:quickdraw="https://quickdraw.withgoogle.com/data"
	xmlns:scikit-surgery="https://doi.org/10.1007/s11548-020-02180-5">

	<rect width="100%" height="100%" fill="white" />
	<path d = "M 61.00 13.00 L 61.00 59.00 L 58.00 64.00 L 59.00 78.00 L 56.00 84.00 L 46.00 153.00 L 40.00 160.00 L 33.00 187.00 L 26.00 197.00 L 26.00 206.00 L 16.00 225.00 L 13.00 238.00 L 0.00 254.00" stroke="black" fill="transparent"/>
	<path d = "M 64.00 0.00 L 73.00 26.00 L 115.00 117.00 L 132.00 148.00 L 151.00 166.00 L 160.00 182.00 L 169.00 190.00 L 174.00 204.00 L 187.00 223.00 L 190.00 243.00 L 167.00 255.00 L 152.00 254.00 L 141.00 247.00 L 125.00 223.00 L 115.00 215.00 L 109.00 196.00 L 99.00 186.00 L 85.00 155.00 L 85.00 139.00 L 75.00 112.00 L 76.00 104.00 L 72.00 96.00 L 68.00 67.00 L 68.00 173.00 L 63.00 197.00 L 46.00 237.00 L 34.00 245.00 L 14.00 245.00" stroke="black" fill="transparent"/>
	<path d = "M 62.00 159.00 L 100.00 161.00" stroke="black" fill="transparent"/>
</svg>