<?xml version="1.0" encoding="UTF-8" standalone="no"?>
<!--Created with ndjsontosvg(https:https://github.com/thompson318/ndjsontosvg) 
	from the simplified Google quickdraw data set. key_id = 6226163091374080-->
<svg width="256" height="256"
	xmlns="http://www.w3.org/2000/svg"
	xmlns:ndjsontosvg="https://github.com/thompson318/ndjsontosvg"
	xmlns:quickdraw="https://quickdraw.withgoogle.com/data"
	xmlns:scikit-surgery="https://doi.org/10.1007/s11548-020-02180-5">

	<rect width="100%" height="100%" fill="white" />
	<path d = "M 0.00 248.00 L 187.00 245.00 L 177.00 241.00 L 132.00 153.00 L 105.00 114.00 L 79.00 153.00 L 38.00 202.00 L 19.00 245.00 L 11.00 255.00" stroke="black" fill="transparent"/>
	<path d = "M 100.00 113.00 L 99.00 109.00 L 107.00 105.00 L 107.00 89.00 L 101.00 9.00 L 96.00 0.00" stroke="black" fill="transparent"/>
	<path d = "M 73.00 161.00 L 145.00 162.00" stroke="black" fill="transparent"/>
	<path d = "M 56.00 204.00 L 52.00 203.00 L 61.00 200.00 L 139.00 199.00 L 163.00 193.00" stroke="black" fill="transparent"/>
	<path d = "M 46.00 217.00 L 94.00 213.00 L 188.00 212.00" stroke="black" fill="transparent"/>
	<path d = "M 19.00 245.00 L 18.00 242.00 L 25.00 239.00 L 39.00 236.00" stroke="black" fill="transparent"/>
</svg>