<?xml version="1.0" encoding="UTF-8" standalone="no"?>
<!--Created with ndjsontosvg(https:https://github.com/thompson318/ndjsontosvg) 
	from the simplified Google quickdraw data set. key_id = 5277540979572736-->
<svg width="256" height="256"
	xmlns="http://www.w3.org/2000/svg"
	xmlns:ndjsontosvg="https://github.com/thompson318/ndjsontosvg"
	xmlns:quickdraw="https://quickdraw.withgoogle.com/data"
	xmlns:scikit-surgery="https://doi.org/10.1007/s11548-020-02180-5">

	<rect width="100%" height="100%" fill="white" />
	<path d = "M 36.00 6.00 L 121.00 1.00 L 240.00 1.00" stroke="black" fill="transparent"/>
	<path d = "M 37.00 23.00 L 46.00 32.00 L 84.00 32.00 L 158.00 22.00 L 203.00 19.00 L 232.00 11.00 L 236.00 0.00 L 219.00 0.00" stroke="black" fill="transparent"/>
	<path d = "M 46.00 2.00 L 54.00 7.00 L 56.00 18.00" stroke="black" fill="transparent"/>
	<path d = "M 49.00 5.00 L 51.00 16.00 L 40.00 46.00 L 40.00 70.00 L 36.00 95.00 L 22.00 141.00 L 6.00 178.00 L 0.00 184.00 L 7.00 185.00 L 87.00 178.00 L 92.00 173.00 L 101.00 144.00 L 118.00 111.00 L 124.00 88.00 L 130.00 83.00 L 158.00 128.00 L 204.00 178.00 L 210.00 178.00 L 245.00 159.00 L 255.00 147.00 L 255.00 74.00 L 243.00 27.00 L 234.00 4.00 L 236.00 2.00" stroke="black" fill="transparent"/>
</svg>