<?xml version="1.0" encoding="UTF-8" standalone="no"?>
<!--Created with ndjsontosvg(https:https://github.com/thompson318/ndjsontosvg) 
	from the simplified Google quickdraw data set. key_id = 4521951324274688-->
<svg width="256" height="256"
	xmlns="http://www.w3.org/2000/svg"
	xmlns:ndjsontosvg="https://github.com/thompson318/ndjsontosvg"
	xmlns:quickdraw="https://quickdraw.withgoogle.com/data"
	xmlns:scikit-surgery="https://doi.org/10.1007/s11548-020-02180-5">

	<rect width="100%" height="100%" fill="white" />
	<path d = "M 44.00 1.00 L 160.00 1.00 L 170.00 30.00 L 196.00 79.00 L 248.00 166.00 L 253.00 170.00" stroke="black" fill="transparent"/>
	<path d = "M 47.00 0.00 L 21.00 112.00 L 1.00 165.00 L 2.00 168.00" stroke="black" fill="transparent"/>
	<path d = "M 106.00 65.00 L 81.00 168.00 L 67.00 174.00 L 10.00 175.00" stroke="black" fill="transparent"/>
	<path d = "M 111.00 69.00 L 127.00 144.00 L 134.00 164.00 L 141.00 170.00 L 176.00 184.00 L 189.00 185.00 L 209.00 184.00 L 255.00 176.00" stroke="black" fill="transparent"/>
	<path d = "M 143.00 17.00 L 128.00 17.00 L 129.00 45.00 L 141.00 45.00 L 151.00 39.00 L 151.00 30.00 L 146.00 20.00" stroke="black" fill="transparent"/>
	<path d = "M 77.00 17.00 L 51.00 20.00 L 50.00 53.00 L 75.00 52.00 L 76.00 17.00" stroke="black" fill="transparent"/>
</svg>