<?xml version="1.0" encoding="UTF-8" standalone="no"?>
<!--Created with ndjsontosvg(https:https://github.com/thompson318/ndjsontosvg) 
	from the simplified Google quickdraw data set. key_id = 6152840600879104-->
<svg width="256" height="256"
	xmlns="http://www.w3.org/2000/svg"
	xmlns:ndjsontosvg="https://github.com/thompson318/ndjsontosvg"
	xmlns:quickdraw="https://quickdraw.withgoogle.com/data"
	xmlns:scikit-surgery="https://doi.org/10.1007/s11548-020-02180-5">

	<rect width="100%" height="100%" fill="white" />
	<path d = "M 3.00 23.00 L 6.00 23.00 L 7.00 31.00 L 9.00 81.00 L 1.00 132.00 L 0.00 191.00 L 79.00 193.00 L 81.00 80.00 L 81.00 76.00 L 90.00 75.00 L 138.00 91.00 L 141.00 198.00 L 146.00 225.00 L 178.00 231.00 L 222.00 232.00 L 237.00 224.00 L 248.00 207.00 L 255.00 173.00 L 255.00 116.00 L 253.00 94.00 L 246.00 74.00 L 221.00 28.00 L 214.00 0.00" stroke="black" fill="transparent"/>
	<path d = "M 15.00 22.00 L 37.00 17.00 L 85.00 17.00 L 127.00 24.00 L 148.00 24.00 L 165.00 19.00 L 187.00 7.00 L 211.00 0.00" stroke="black" fill="transparent"/>
</svg>