<?xml version="1.0" encoding="UTF-8" standalone="no"?>
<!--Created with ndjsontosvg(https:https://github.com/thompson318/ndjsontosvg) 
	from the simplified Google quickdraw data set. key_id = 5646351285092352-->
<svg width="256" height="256"
	xmlns="http://www.w3.org/2000/svg"
	xmlns:ndjsontosvg="https://github.com/thompson318/ndjsontosvg"
	xmlns:quickdraw="https://quickdraw.withgoogle.com/data"
	xmlns:scikit-surgery="https://doi.org/10.1007/s11548-020-02180-5">

	<rect width="100%" height="100%" fill="white" />
	<path d = "M 116.00 59.00 L 88.00 59.00 L 33.00 67.00 L 3.00 72.00 L 0.00 80.00 L 4.00 106.00 L 10.00 252.00 L 17.00 255.00 L 46.00 255.00 L 58.00 253.00 L 64.00 246.00 L 64.00 228.00 L 55.00 200.00 L 55.00 159.00 L 61.00 135.00 L 64.00 103.00 L 71.00 103.00 L 85.00 112.00 L 91.00 121.00 L 87.00 185.00 L 94.00 224.00 L 122.00 223.00 L 122.00 194.00 L 117.00 166.00 L 110.00 149.00 L 106.00 110.00 L 117.00 72.00 L 130.00 6.00" stroke="black" fill="transparent"/>
</svg>