<?xml version="1.0" encoding="UTF-8" standalone="no"?>
<!--Created with ndjsontosvg(https:https://github.com/thompson318/ndjsontosvg) 
	from the simplified Google quickdraw data set. key_id = 6677602859220992-->
<svg width="256" height="256"
	xmlns="http://www.w3.org/2000/svg"
	xmlns:ndjsontosvg="https://github.com/thompson318/ndjsontosvg"
	xmlns:quickdraw="https://quickdraw.withgoogle.com/data"
	xmlns:scikit-surgery="https://doi.org/10.1007/s11548-020-02180-5">

	<rect width="100%" height="100%" fill="white" />
	<path d = "M 12.00 13.00 L 12.00 62.00 L 3.00 130.00 L 5.00 193.00 L 0.00 221.00 L 0.00 236.00 L 9.00 252.00 L 22.00 252.00 L 48.00 237.00 L 61.00 208.00 L 63.00 155.00 L 60.00 135.00 L 60.00 53.00 L 63.00 70.00 L 63.00 172.00 L 69.00 187.00 L 69.00 228.00 L 75.00 250.00 L 79.00 255.00 L 96.00 254.00 L 116.00 244.00 L 123.00 236.00 L 135.00 203.00 L 139.00 175.00 L 139.00 136.00 L 135.00 110.00 L 131.00 42.00 L 116.00 14.00 L 103.00 6.00 L 88.00 1.00 L 43.00 0.00 L 20.00 13.00 L 15.00 21.00" stroke="black" fill="transparent"/>
</svg>