<?xml version="1.0" encoding="UTF-8" standalone="no"?>
<!--Created with ndjsontosvg(https:https://github.com/thompson318/ndjsontosvg) 
	from the simplified Google quickdraw data set. key_id = 5675323389640704-->
<svg width="256" height="256"
	xmlns="http://www.w3.org/2000/svg"
	xmlns:ndjsontosvg="https://github.com/thompson318/ndjsontosvg"
	xmlns:quickdraw="https://quickdraw.withgoogle.com/data"
	xmlns:scikit-surgery="https://doi.org/10.1007/s11548-020-02180-5">

	<rect width="100%" height="100%" fill="white" />
	<path d = "M 4.00 78.00 L 5.00 133.00 L 0.00 157.00 L 0.00 193.00 L 7.00 242.00 L 16.00 255.00 L 55.00 239.00 L 71.00 219.00 L 72.00 197.00 L 43.00 135.00 L 46.00 87.00 L 56.00 82.00" stroke="black" fill="transparent"/>
	<path d = "M 41.00 91.00 L 80.00 85.00 L 99.00 94.00 L 126.00 118.00 L 141.00 154.00 L 146.00 199.00 L 155.00 228.00 L 164.00 237.00 L 173.00 242.00 L 183.00 238.00 L 218.00 191.00 L 220.00 156.00 L 206.00 103.00 L 186.00 51.00 L 160.00 18.00 L 141.00 0.00" stroke="black" fill="transparent"/>
</svg>